<svg width="20" height="20" viewBox="0 0 20 20" fill="none" xmlns="http://www.w3.org/2000/svg">
<path d="M18.368 8.92166L18.3679 8.92178H18.3681C18.2599 9.08538 18.2206 9.28234 18.1876 9.48766C18.1471 9.73768 18.1045 9.97768 18.0161 10.213C17.9099 10.495 17.7315 10.8092 17.4209 11.0552C17.0982 10.1814 16.6284 9.379 16.042 8.67729C16.412 8.52939 16.7752 8.53169 17.0738 8.58093C17.3218 8.62198 17.5509 8.70506 17.7878 8.79505C17.9819 8.86921 18.1722 8.93367 18.368 8.92166Z" fill="#323C47"/>
<path d="M14.765 5.32031L14.7648 5.3205L14.7651 5.32043C14.7531 5.51618 14.8175 5.7064 14.8916 5.90069C14.9816 6.13748 15.0647 6.36664 15.1058 6.61465C15.1551 6.91348 15.1573 7.27707 15.009 7.64739C14.3063 7.0618 13.5028 6.59312 12.6283 6.27162C12.8748 5.95854 13.1904 5.77899 13.4737 5.67232C13.709 5.58391 13.949 5.54128 14.1991 5.50077C14.4043 5.46785 14.6014 5.42861 14.765 5.32031Z" fill="#323C47"/>
<path d="M17.8002 12.4688C18.1918 12.5267 18.5034 12.7093 18.7363 12.9003C18.9304 13.0599 19.0874 13.2464 19.2475 13.4429C19.3785 13.604 19.5111 13.755 19.6866 13.8425H17.9185C17.918 13.3741 17.8772 12.9153 17.8002 12.4688Z" fill="#323C47"/>
<path d="M4.92157 5.32037L4.92169 5.3205V5.32031C5.0853 5.42855 5.28231 5.46779 5.48758 5.50084C5.73759 5.54128 5.9776 5.58391 6.21288 5.67226C6.49618 5.77892 6.81187 5.95854 7.0583 6.27162C6.18365 6.59306 5.38031 7.0618 4.67756 7.64739C4.5293 7.27707 4.53148 6.91348 4.58084 6.61459C4.6219 6.36664 4.70497 6.13742 4.79496 5.90057C4.86906 5.7064 4.93358 5.51612 4.92157 5.32037Z" fill="#323C47"/>
<path d="M1.31836 8.92178L1.31854 8.92184L1.31848 8.92166C1.51422 8.93361 1.70451 8.86915 1.89873 8.79504C2.13553 8.70506 2.36468 8.62198 2.61264 8.58087C2.91128 8.53169 3.27445 8.52945 3.64441 8.67728C3.05797 9.379 2.58838 10.1814 2.26554 11.0552C1.95501 10.8092 1.77661 10.4951 1.67037 10.213C1.58196 9.97768 1.53933 9.73767 1.49888 9.4876C1.46589 9.28234 1.4266 9.08532 1.31836 8.92178Z" fill="#323C47"/>
<path d="M0 13.8425C0.175489 13.755 0.307924 13.604 0.439147 13.4428C0.599173 13.2464 0.756106 13.0599 0.950272 12.9004C1.18319 12.7093 1.49457 12.5266 1.88629 12.4688C1.80922 12.9152 1.76853 13.3741 1.76805 13.8425H0Z" fill="#323C47"/>
<path d="M9.84325 4V4.00018L9.84337 4C9.93087 4.17555 10.0819 4.30804 10.2431 4.43927C10.4395 4.59929 10.626 4.75623 10.7856 4.95039C10.9778 5.18476 11.1617 5.49863 11.2183 5.89381C10.7713 5.8171 10.3121 5.77672 9.84331 5.77672C9.37451 5.77672 8.91523 5.8171 8.46826 5.89381C8.5249 5.49869 8.70875 5.18476 8.90098 4.95045C9.06058 4.75623 9.24711 4.59929 9.44346 4.43921C9.60469 4.3081 9.75568 4.17555 9.84325 4Z" fill="#323C47"/>
<path d="M8.20073 13.8454L8.80833 13.8436C8.88813 13.3304 8.73205 12.9353 8.21292 13.0296C7.77547 13.109 7.30558 13.5436 7.02161 13.8436L7.82271 13.8401C7.91197 13.7814 8.08667 13.7145 8.1584 13.7643C8.18527 13.783 8.19927 13.8095 8.20073 13.8454Z" fill="#323C47"/>
<path d="M10.9332 13.8436H11.6911C11.7272 12.9485 11.583 12.0241 11.1669 11.2244C10.7884 10.4967 10.1627 10.0021 9.35267 9.88254C8.17021 9.70808 6.97708 10.2087 5.96835 10.9248C4.87006 11.7046 3.96351 12.7635 3.17126 13.8436L4.17259 13.8422C5.07405 12.5645 7.14748 10.6247 8.67273 10.612C9.15881 10.608 9.65301 10.7221 10.0184 11.0481C10.2832 11.2843 10.6041 11.7431 10.5884 12.1154C10.5791 12.3362 10.3832 12.4038 10.1953 12.3354C10.0493 12.2823 9.94626 12.1489 9.84415 12.0087C9.51227 11.553 8.9946 11.33 8.42678 11.4077C7.74956 11.5003 6.91008 12.0262 6.36863 12.5044C5.90171 12.9169 5.47306 13.3683 5.06872 13.8436H6.1453C6.53988 13.3673 6.95652 12.961 7.49215 12.6274C7.66163 12.5218 7.87035 12.4102 8.08974 12.3348C8.64319 12.1445 9.19398 12.1927 9.43853 12.8818C9.53465 13.1527 9.54878 13.3904 9.52076 13.8259L9.5207 13.8436H10.2527L10.2546 13.8213C10.2552 13.5828 10.2499 13.4221 10.2715 13.1857C10.29 12.982 10.3533 12.7709 10.5425 12.7458C10.9446 12.6616 10.9253 13.5562 10.9332 13.8436Z" fill="#323C47"/>
<path d="M12.4882 13.8421H13.2525C13.2895 13.0116 13.2183 12.0276 12.9496 11.1685C12.8965 10.999 12.8359 10.8345 12.7671 10.6774C12.6044 10.3062 12.3855 9.97009 12.1245 9.6595C11.8344 9.31447 11.4888 9.00424 11.0991 8.75986C10.9842 8.68777 10.8649 8.62118 10.7418 8.56103V8.56091C10.6197 8.50118 10.4933 8.44776 10.3633 8.40161L10.3629 8.40143C8.87447 7.87296 7.36911 8.2488 6.10637 8.93559C5.86017 9.06955 5.62326 9.2152 5.39768 9.36819C5.17216 9.52106 4.95744 9.6817 4.75551 9.84548L4.75509 9.84585C4.51538 10.0403 4.21547 10.3063 3.91864 10.6207C3.86018 10.6826 3.80245 10.7457 3.7463 10.8094C3.5961 10.9797 3.36464 11.2184 3.43334 11.4652C3.48774 11.6609 3.7403 11.6033 3.82829 11.5358C3.96333 11.4634 4.11165 11.3485 4.23857 11.2411C4.41042 11.0957 4.57275 10.939 4.7429 10.7916C5.43115 10.1949 6.14851 9.73482 6.85514 9.42343C7.00916 9.35558 7.16336 9.29452 7.31702 9.24055C7.47014 9.18676 7.62246 9.14019 7.77345 9.10096L7.77418 9.10077C9.08901 8.75938 10.5178 8.98053 11.4326 10.0528C12.3138 11.0856 12.4747 12.4682 12.4882 13.8421ZM3.00499 12.6745C3.0871 12.5978 3.17078 12.4978 3.25798 12.3871C3.37998 12.2323 3.39223 12.0825 3.34402 11.9743C3.32607 11.9339 3.29958 11.8992 3.26738 11.8723C3.23542 11.8456 3.1977 11.8266 3.15701 11.8172C3.05757 11.7945 2.93865 11.8301 2.83769 11.9529C2.72351 12.0918 2.56585 12.3294 2.53365 12.5395C2.52764 12.5788 2.52601 12.6171 2.53007 12.653C2.53401 12.6879 2.54335 12.7212 2.55905 12.7515L2.55917 12.7518L2.55924 12.7517C2.58495 12.8011 2.6283 12.8271 2.68615 12.8293C2.69822 12.8297 2.71126 12.8292 2.72514 12.8276C2.73867 12.8261 2.75334 12.8235 2.76892 12.8198L2.76899 12.8199L2.76971 12.8198C2.84757 12.8011 2.92543 12.7487 3.00499 12.6745Z" fill="#323C47"/>
<path d="M14.4 13.8431L14.4054 13.843H14.4082C14.4882 13.8474 14.627 13.8105 14.707 13.6755C14.723 13.6485 14.7367 13.6177 14.747 13.5826C14.7576 13.5469 14.765 13.5065 14.7681 13.4611H14.7681L14.7687 13.4517C14.8294 11.329 14.1793 9.57177 13.0755 8.37791C12.8611 8.14609 12.6293 7.93519 12.382 7.74691C12.1349 7.55874 11.8727 7.39338 11.5974 7.25234L11.5974 7.2524L11.593 7.25021L11.5929 7.25009C10.6651 6.77596 9.61292 6.59386 8.58011 6.68136C8.37861 6.6984 8.17838 6.72563 7.98052 6.7628C7.78217 6.80009 7.58546 6.84745 7.39165 6.90463L7.38892 6.90548C6.32677 7.21965 5.33836 7.84332 4.53289 8.66164C4.37602 8.82106 4.22612 8.98764 4.08435 9.16052C4.01383 9.24638 3.94518 9.33395 3.87866 9.42284C4.44351 8.93549 5.04954 8.50798 5.6834 8.16835C5.82614 8.09188 5.96973 8.02002 6.11375 7.95344C6.25795 7.88668 6.40397 7.8244 6.5515 7.76704L6.55193 7.76686L6.55235 7.76668C7.11235 7.54904 7.66441 7.41024 8.21658 7.34821C8.76876 7.28617 9.3213 7.30091 9.88239 7.39011C10.2817 7.45366 10.6715 7.5582 11.0226 7.70446C11.0907 7.73284 11.1578 7.76298 11.2234 7.79481C11.2881 7.82622 11.3519 7.85957 11.4144 7.89487H11.4145L11.4155 7.89535L11.4154 7.89541C12.6516 8.57232 13.5104 9.96132 13.8887 11.5296C13.9624 11.8354 14.018 12.1478 14.0544 12.4625C14.0909 12.7771 14.1083 13.0953 14.1061 13.4127V13.4128L14.106 13.4311C14.1123 13.6009 14.1705 13.743 14.2702 13.807C14.2888 13.8189 14.3089 13.8281 14.3303 13.8341H14.3304C14.3523 13.8404 14.3755 13.8435 14.4 13.8431Z" fill="#323C47"/>
<path d="M12.1897 6.76953C15.1619 7.75121 17.3098 10.5462 17.3223 13.8439H15.8517C15.949 10.9633 14.6918 8.36306 12.1897 6.76953Z" fill="#323C47"/>
<path d="M3.56029 16.1562H2.96542L2.81813 16.6745H2.34399L2.9713 14.6896H3.57205L4.21701 16.6745H3.72226L3.56029 16.1562ZM3.03316 15.8204H3.48958C3.36988 15.4326 3.29233 15.1666 3.25697 15.0223H3.25103L3.1568 15.3993L3.03316 15.8204ZM5.74535 16.1562H5.15042L5.00319 16.6745H4.52906L5.1563 14.6896H5.75711L6.40207 16.6745H5.90732L5.74535 16.1562ZM5.21816 15.8204H5.67465C5.55488 15.4326 5.47733 15.1666 5.44197 15.0223H5.43609L5.34186 15.3993L5.21816 15.8204ZM6.85541 16.6657V14.7161C7.05175 14.6866 7.26181 14.6719 7.48562 14.6719C7.90876 14.6719 8.21256 14.7602 8.39666 14.9374C8.5807 15.1146 8.67251 15.3463 8.67251 15.632C8.67251 15.9697 8.56797 16.2313 8.35834 16.4168C8.14877 16.6023 7.82532 16.6951 7.38848 16.6951C7.18625 16.6951 7.00858 16.6853 6.85541 16.6657ZM7.31189 15.04V16.3329C7.33742 16.3388 7.39242 16.3417 7.47683 16.3417C7.70356 16.3417 7.87929 16.2818 8.00348 16.1626C8.12767 16.0433 8.18952 15.8725 8.18952 15.6496C8.18952 15.4454 8.13307 15.2898 8.01967 15.1828C7.90628 15.0759 7.74286 15.0223 7.52983 15.0223C7.44051 15.0223 7.36786 15.0282 7.31189 15.04ZM9.1612 14.6896H9.61769V15.4523H10.3981V14.6896H10.8546V16.6745H10.3981V15.8469H9.61769V16.6745H9.1612V14.6896ZM12.5095 16.1562H11.9146L11.7674 16.6745H11.2932L11.9205 14.6896H12.5213L13.1663 16.6745H12.6715L12.5095 16.1562ZM11.9824 15.8204H12.4388C12.3191 15.4326 12.2415 15.1666 12.2062 15.0223H12.2003L12.1061 15.3993L11.9824 15.8204ZM14.6946 16.1562H14.0996L13.9524 16.6745H13.4783L14.1055 14.6896H14.7063L15.3513 16.6745H14.8565L14.6946 16.1562ZM14.1674 15.8204H14.6239C14.5041 15.4326 14.4265 15.1666 14.3912 15.0223H14.3853L14.2911 15.3993L14.1674 15.8204ZM15.8046 16.6745V14.7161C15.9715 14.6866 16.1767 14.6719 16.4202 14.6719C16.7206 14.6719 16.9365 14.7215 17.068 14.8206C17.1996 14.9198 17.2653 15.0616 17.2653 15.2462C17.2653 15.3561 17.2325 15.4553 17.1662 15.5441C17.1 15.6329 17.0141 15.6958 16.909 15.7321V15.7438C17.0327 15.79 17.1221 15.9118 17.177 16.109C17.2781 16.4644 17.3331 16.6529 17.3419 16.6745H16.8766C16.8374 16.6009 16.7902 16.4468 16.7352 16.2121C16.7078 16.0943 16.6705 16.0119 16.6234 15.9648C16.5762 15.9176 16.5006 15.894 16.3966 15.894H16.2552V16.6745H15.8046ZM16.2552 15.0223V15.5671H16.4437C16.5576 15.5671 16.6474 15.5411 16.7132 15.4896C16.779 15.4381 16.8118 15.3689 16.8118 15.2815C16.8118 15.1941 16.7824 15.1264 16.723 15.0788C16.6636 15.0312 16.5792 15.0076 16.4702 15.0076C16.3632 15.0076 16.2915 15.0125 16.2552 15.0223Z" fill="#323C47"/>
</svg>
