<svg width="20" height="20" viewBox="0 0 20 20" fill="none" xmlns="http://www.w3.org/2000/svg">
<mask id="mask0_2829_20138" style="mask-type:alpha" maskUnits="userSpaceOnUse" x="0" y="0" width="20" height="20">
<rect width="20" height="20" fill="#D9D9D9"/>
</mask>
<g mask="url(#mask0_2829_20138)">
<path d="M3.30234 18.002C2.94076 18.002 2.63331 17.8753 2.37999 17.622C2.12666 17.3687 2 17.0613 2 16.6998V4.30413C2 3.9426 2.12666 3.63518 2.37999 3.38188C2.63331 3.1286 2.94076 3.00195 3.30234 3.00195H8.84166C9.20324 3.00195 9.5107 3.1286 9.76404 3.38188C10.0174 3.63518 10.144 3.9426 10.144 4.30413V6.43053H17.2165C17.5781 6.43053 17.8856 6.55717 18.1389 6.81046C18.3922 7.06376 18.5189 7.37117 18.5189 7.7327V16.6998C18.5189 17.0613 18.3922 17.3687 18.1389 17.622C17.8856 17.8753 17.5781 18.002 17.2165 18.002H3.30234ZM3.28586 16.7163H8.85814V14.5734H3.28586V16.7163ZM3.28586 13.2877H8.85814V11.1448H3.28586V13.2877ZM3.28586 9.85911H8.85814V7.71622H3.28586V9.85911ZM3.28586 6.43053H8.85814V4.28765H3.28586V6.43053ZM10.144 16.7163H17.233V7.71622H10.144V16.7163ZM12.6664 11.1448C12.4842 11.1448 12.3315 11.0832 12.2083 10.9599C12.0851 10.8366 12.0234 10.6839 12.0234 10.5017C12.0234 10.3194 12.0851 10.1668 12.2083 10.0437C12.3315 9.92064 12.4842 9.85911 12.6664 9.85911H14.5458C14.728 9.85911 14.8807 9.92074 15.0039 10.044C15.1271 10.1673 15.1887 10.32 15.1887 10.5022C15.1887 10.6845 15.1271 10.8371 15.0039 10.9602C14.8807 11.0833 14.728 11.1448 14.5458 11.1448H12.6664ZM12.6664 14.5734C12.4842 14.5734 12.3315 14.5117 12.2083 14.3885C12.0851 14.2652 12.0234 14.1125 12.0234 13.9302C12.0234 13.748 12.0851 13.5954 12.2083 13.4723C12.3315 13.3492 12.4842 13.2877 12.6664 13.2877H14.5458C14.728 13.2877 14.8807 13.3493 15.0039 13.4726C15.1271 13.5958 15.1887 13.7486 15.1887 13.9308C15.1887 14.113 15.1271 14.2657 15.0039 14.3888C14.8807 14.5118 14.728 14.5734 14.5458 14.5734H12.6664Z" fill="white" stroke="white" stroke-width="0.20573"/>
</g>
</svg>
