<svg width="12" height="13" viewBox="0 0 12 13" fill="none" xmlns="http://www.w3.org/2000/svg">
<path d="M6 0.5C9.31371 0.5 12 3.18629 12 6.5C12 9.81371 9.31371 12.5 6 12.5C2.68629 12.5 0 9.81371 0 6.5C0 3.18629 2.68629 0.5 6 0.5ZM6 1.33721C3.14867 1.33721 0.837209 3.64867 0.837209 6.5C0.837209 9.35133 3.14867 11.6628 6 11.6628C8.85133 11.6628 11.1628 9.35133 11.1628 6.5C11.1628 3.64867 8.85133 1.33721 6 1.33721ZM8.80416 4.81659L8.85303 4.85477C9.00875 4.99593 9.03364 5.22754 8.92022 5.39718L8.88203 5.44606L5.84633 8.79489C5.70595 8.94976 5.4759 8.97534 5.30635 8.86368L5.25745 8.82606L3.2699 7.05213C3.09742 6.89819 3.08239 6.63357 3.23633 6.46109C3.37628 6.30429 3.60769 6.27761 3.7782 6.38972L3.82737 6.42752L5.50493 7.92546L8.26175 4.88377C8.4029 4.72806 8.63452 4.70317 8.80416 4.81659Z" fill="#247A5B"/>
</svg>
