<svg width="319" height="200" viewBox="0 0 319 200" fill="none" xmlns="http://www.w3.org/2000/svg">
<path d="M50.0116 163.368C50.0116 163.368 26.2605 158.946 33.4601 122.312C48.4954 126.766 59.194 144.558 56.8613 156.974C53.9136 162.011 50.0116 163.368 50.0116 163.368Z" fill="#FAFDFF" stroke="#003366" stroke-width="0.335198" stroke-miterlimit="10" stroke-linecap="round" stroke-linejoin="round"/>
<path d="M50.0119 159.279C50.0119 159.279 45.6328 140.352 37.0654 132.336" stroke="#003366" stroke-width="0.502792" stroke-miterlimit="10" stroke-linecap="round" stroke-linejoin="round"/>
<path d="M47.7848 151.696C47.7848 151.696 47.647 148.228 49.5874 142.863" stroke="#003366" stroke-width="0.502792" stroke-miterlimit="10" stroke-linecap="round" stroke-linejoin="round"/>
<path d="M35.687 140.527C35.687 140.527 43.2365 140.718 44.2438 142.902" stroke="#003366" stroke-width="0.502792" stroke-miterlimit="10" stroke-linecap="round" stroke-linejoin="round"/>
<path d="M41.4761 137.846C41.4761 137.846 42.0699 131.749 41.4761 130.594" stroke="#003366" stroke-width="0.502792" stroke-miterlimit="10" stroke-linecap="round" stroke-linejoin="round"/>
<path d="M48.6016 166.771C48.6016 166.771 25.476 172.634 6.81445 154.068C22.6238 147.41 43.0243 151.64 52.3339 157.196C52.9277 163.07 48.6016 166.771 48.6016 166.771Z" fill="#EFF8FF" stroke="#003366" stroke-width="0.335198" stroke-miterlimit="10"/>
<path d="M18.4673 155.195C18.4673 155.195 42.6849 157.114 49.2165 160.518" stroke="#003366" stroke-width="0.502792" stroke-miterlimit="10" stroke-linecap="round" stroke-linejoin="round"/>
<path d="M21.6377 158.911C21.6377 158.911 22.6132 156.632 26.3455 156.25" stroke="#003366" stroke-width="0.502792" stroke-miterlimit="10" stroke-linecap="round" stroke-linejoin="round"/>
<path d="M31.9336 153.352C31.9336 153.352 32.9091 156.681 36.8217 157.37" stroke="#003366" stroke-width="0.502792" stroke-miterlimit="10" stroke-linecap="round" stroke-linejoin="round"/>
<path d="M265.065 159.942C265.065 159.942 265.107 146.932 274.841 139.181C284.575 131.431 294.839 135.82 294.839 135.82C294.839 135.82 298.91 156.359 265.065 159.942Z" fill="#EFF8FF" stroke="#003366" stroke-width="0.335198" stroke-miterlimit="10"/>
<path d="M266.592 157.972C266.592 157.972 275.944 147.697 291.743 138.176" stroke="#003366" stroke-width="0.502792" stroke-miterlimit="10" stroke-linecap="round" stroke-linejoin="round"/>
<path d="M276.549 144.395C276.549 144.395 277.386 147.989 275.266 150.046" stroke="#003366" stroke-width="0.502792" stroke-miterlimit="10" stroke-linecap="round" stroke-linejoin="round"/>
<path d="M288.954 145.882C288.954 145.882 285.169 142.839 280.758 145.575" stroke="#003366" stroke-width="0.502792" stroke-miterlimit="10" stroke-linecap="round" stroke-linejoin="round"/>
<path d="M239.183 159.376C236.596 147.84 236.564 141.436 239.088 140.174C240.392 139.527 242.385 140.248 245.068 142.347C245.153 139.135 245.598 127.726 249.087 127.068C249.914 126.909 251.748 127.196 254.908 132.497C261.418 119.604 270.749 121.141 272.594 121.565C273.887 121.862 275.701 135.975 267.96 138.297C274.004 140.004 274.704 141.467 274.704 142.188C274.725 144.68 266.688 146.631 262.977 147.426C266.274 148.731 267.918 150.056 267.928 151.381C267.939 153.809 262.468 156.269 251.494 158.761C247.39 158.973 243.287 159.175 239.183 159.376Z" fill="#FAFDFF" stroke="#003366" stroke-width="0.335198" stroke-miterlimit="10" stroke-linecap="round" stroke-linejoin="round"/>
<path d="M262.998 126.93C262.998 126.93 261.63 131.627 264.154 132.984" stroke="#003366" stroke-width="0.335198" stroke-miterlimit="10" stroke-linecap="round" stroke-linejoin="round"/>
<path d="M240.848 158.02C240.848 158.02 263.114 137.938 267.144 127.695" stroke="#003366" stroke-width="0.335198" stroke-miterlimit="10" stroke-linecap="round" stroke-linejoin="round"/>
<path d="M267.441 141.521C267.441 141.521 260.167 143.482 258.471 140.715" stroke="#003366" stroke-width="0.335198" stroke-miterlimit="10" stroke-linecap="round" stroke-linejoin="round"/>
<path d="M249.511 135.074C249.511 135.074 249.331 146.579 253.116 146.049" stroke="#003366" stroke-width="0.335198" stroke-miterlimit="10" stroke-linecap="round" stroke-linejoin="round"/>
<path d="M248.238 150.992C248.238 150.992 252.798 153.95 259.478 151.013" stroke="#003366" stroke-width="0.335198" stroke-miterlimit="10" stroke-linecap="round" stroke-linejoin="round"/>
<path d="M164.293 59.5573C164.293 59.5573 160.529 54.0012 164.706 50.7355C168.884 47.4697 174.228 48.6996 177.61 51.6897C180.993 54.6798 183.707 55.7614 185.34 54.0861C186.973 52.4108 187.333 55.5493 187.291 57.1822C187.249 58.8151 187.291 69.291 180.038 67.8596C173.867 63.841 164.293 59.5573 164.293 59.5573Z" fill="#003366"/>
<path d="M67.1886 156.918C67.1886 156.918 57.773 152.189 42.4832 157.374C27.1934 162.559 19.2092 171.869 44.6463 171.752C70.0833 171.635 103.653 170.798 93.5057 175.103C83.3478 179.408 95.796 182.631 181.873 182.631C267.949 182.631 324.57 171.37 309.874 163.376C295.178 155.381 236.892 155.338 229.481 155.338C222.069 155.338 75.4273 154.586 73.911 155.37C72.3842 156.134 69.6485 157.83 67.1886 156.918Z" fill="#FAFDFF" stroke="#003366" stroke-width="0.335198" stroke-miterlimit="10" stroke-linecap="round" stroke-linejoin="round"/>
<path d="M84.6523 155.327C84.6523 155.327 68.281 165.05 86.7199 166.248C105.159 167.446 109.103 171.741 114.437 171.741C119.77 171.741 134.593 164.573 148.929 161.7C163.264 158.826 170.199 155.316 170.199 155.316L84.6523 155.327Z" fill="#003366"/>
<path d="M114.447 170.104L90.3037 163.17V107.98H114.447V170.104Z" fill="#FAFDFF" stroke="#003366" stroke-width="0.335198" stroke-miterlimit="10" stroke-linecap="round" stroke-linejoin="round"/>
<path d="M152.916 102.956V156.004L114.447 170.106V107.982L116.356 100.57L152.916 102.956Z" fill="#FAFDFF" stroke="#003366" stroke-width="0.335198" stroke-miterlimit="10" stroke-linecap="round" stroke-linejoin="round"/>
<path d="M152.916 107.46H125.517L124.796 115.624L114.447 127.213L112.369 101.246L152.916 103.356V107.46Z" fill="#003366"/>
<path d="M171.715 104.789H122.982L98.8071 62.4609C98.8071 62.4609 146.744 64.6982 147.688 64.6982C160.475 64.6982 170.845 74.6016 170.845 86.8058L171.121 92.3513L171.715 104.789Z" fill="#FAFDFF" stroke="#003366" stroke-width="0.335198" stroke-miterlimit="10" stroke-linecap="round" stroke-linejoin="round"/>
<path d="M98.7864 62.4609C85.9141 62.4609 75.4912 72.8945 75.4912 85.7561V100.569L122.983 104.789L122.082 85.7561C122.092 72.8839 111.659 62.4609 98.7864 62.4609Z" fill="#FAFDFF" stroke="#003366" stroke-width="0.335198" stroke-miterlimit="10" stroke-linecap="round" stroke-linejoin="round"/>
<path d="M119.738 85.8096V85.7566C119.738 74.1991 110.344 64.8047 98.7864 64.8047C98.1714 64.8047 97.5776 64.8365 96.9732 64.8789C86.264 65.8014 77.8345 74.8141 77.8345 85.7566V98.4274L116.875 101.895L120.512 102.223L119.738 85.8096Z" fill="#FAFDFF" stroke="#003366" stroke-width="0.335198" stroke-miterlimit="10" stroke-linecap="round" stroke-linejoin="round"/>
<path d="M168.417 104.874L167.516 104.789H168.417V104.874Z" fill="#FAFDFF" stroke="#003366" stroke-width="0.335198" stroke-miterlimit="10" stroke-linecap="round" stroke-linejoin="round"/>
<path d="M75.4909 100.57L55.5039 134.14L100.589 140.237L122.983 104.79L75.4909 100.57Z" fill="#FAFDFF" stroke="#003366" stroke-width="0.335198" stroke-miterlimit="10" stroke-linecap="round" stroke-linejoin="round"/>
<path d="M123.364 111.777L101.66 143.883L100.589 140.235L122.983 104.789L123.364 111.777Z" fill="#FAFDFF" stroke="#003366" stroke-width="0.335198" stroke-miterlimit="10" stroke-linecap="round" stroke-linejoin="round"/>
<path d="M101.66 143.885L57.211 138.605L55.5039 134.141L100.589 140.237L101.66 143.885Z" fill="#FAFDFF" stroke="#003366" stroke-width="0.335198" stroke-miterlimit="10" stroke-linecap="round" stroke-linejoin="round"/>
<path d="M197.046 146.205C197.014 146.332 196.982 146.459 196.94 146.586C196.007 149.863 193.473 153.298 191.787 155.323H171.588C172.171 141.232 180.155 126.133 180.155 126.133L193.685 128.466L197.438 129.112C197.438 129.123 200.704 136.015 197.046 146.205Z" fill="#FAFDFF" stroke="#003366" stroke-width="0.335198" stroke-miterlimit="10" stroke-linecap="round" stroke-linejoin="round"/>
<path d="M193.854 126.859L219.578 124.707C219.578 124.707 227.382 132.755 225.717 139.997C224.445 145.521 226.873 151.226 229.471 155.329H201.913C200.1 152.816 197.82 149.338 196.94 146.592C196.855 146.327 196.781 146.072 196.728 145.818C195.827 144.747 194.162 141.46 194.162 141.46" fill="#FAFDFF"/>
<path d="M193.854 126.859L219.578 124.707C219.578 124.707 227.382 132.755 225.717 139.997C224.445 145.521 226.873 151.226 229.471 155.329H201.913C200.1 152.816 197.82 149.338 196.94 146.592C196.855 146.327 196.781 146.072 196.728 145.818C195.827 144.747 194.162 141.46 194.162 141.46" stroke="#003366" stroke-width="0.335198" stroke-miterlimit="10" stroke-linecap="round" stroke-linejoin="round"/>
<path d="M179.073 128.334C179.073 128.334 183.007 131.886 193.684 133.032C204.362 134.177 208.73 130.932 208.73 130.932L205.645 130.116L180.155 126.129L179.073 128.334Z" fill="#003366"/>
<path d="M168.417 90.659C168.417 90.659 169.933 117.538 180.515 127.76C192.168 133.496 213.311 134.906 221.019 124.345C222.271 112.353 216.481 97.8692 214.414 94.2111L201.987 78.5078" fill="#EFF8FF"/>
<path d="M168.417 90.659C168.417 90.659 169.933 117.538 180.515 127.76C192.168 133.496 213.311 134.906 221.019 124.345C222.271 112.353 216.481 97.8692 214.414 94.2111L201.987 78.5078" stroke="#003366" stroke-width="0.335198" stroke-miterlimit="10"/>
<path d="M163.327 55.3122C163.327 55.3122 154.431 61.6105 163.561 67.2514C169.424 70.8776 169.7 73.5072 169 76.7412C176.136 73.5709 184.799 70.9095 183.367 63.5084C181.936 56.0968 165.3 55.1319 163.327 55.3122Z" fill="#003366"/>
<path d="M207.872 91.4897C209.939 93.5574 215.22 95.8158 221.189 95.7946C218.263 99.6966 216.789 109.738 215.994 113.873C216.238 115.623 218.942 115.623 218.942 115.623C218.942 115.623 234.231 101.446 230.806 91.4049C227.382 81.3637 211.572 76.1363 202.432 73.8566C193.292 71.5876 186.846 73.1356 176.561 77.1436C165.268 81.5015 162.225 78.257 153.382 69.9759C144.539 61.6948 139.916 61.1753 134.508 60.5391C130.967 61.0162 132.95 65.2575 132.95 65.2575C132.95 65.2575 141.676 66.8692 146.214 75.8288C150.752 84.7885 157.57 97.7986 169.244 98.35C169.244 98.35 168.672 96.2293 168.757 92.4016" fill="#EFF8FF"/>
<path d="M207.872 91.4897C209.939 93.5574 215.22 95.8158 221.189 95.7946C218.263 99.6966 216.789 109.738 215.994 113.873C216.238 115.623 218.942 115.623 218.942 115.623C218.942 115.623 234.231 101.446 230.806 91.4049C227.382 81.3637 211.572 76.1363 202.432 73.8566C193.292 71.5876 186.846 73.1356 176.561 77.1436C165.268 81.5015 162.225 78.257 153.382 69.9759C144.539 61.6948 139.916 61.1753 134.508 60.5391C130.967 61.0162 132.95 65.2575 132.95 65.2575C132.95 65.2575 141.676 66.8692 146.214 75.8288C150.752 84.7885 157.57 97.7986 169.244 98.35C169.244 98.35 168.672 96.2293 168.757 92.4016" stroke="#003366" stroke-width="0.335198" stroke-miterlimit="10"/>
<path d="M134.529 60.7664C135.738 61.0315 136.3 62.3781 135.463 63.6292C134.625 64.8804 133.607 65.2621 133.013 64.9016C132.419 64.5411 133.321 60.5013 134.529 60.7664Z" fill="#003366"/>
<path d="M176.189 72.5923C176.189 72.5923 177.684 74.3737 177.281 78.0742C176.804 79.1875 179.89 81.4566 184.746 80.3433C189.602 79.2299 190.419 75.1265 189.899 74.2464C189.443 73.4724 186.379 72.9316 184.343 70.6626C182.307 68.3935 180.971 63.7175 179.741 61.4272C181.883 58.9248 177.409 56.1574 176.857 58.9461C172.467 55.7439 167.208 55.0759 164.557 58.8188C164.557 58.8188 161.79 63.5478 167.526 66.7182C167.526 66.7182 172.075 74.9568 177.621 72.0304C179.9 70.8216 180.112 68.2556 180.028 67.1741" fill="#FAFDFF"/>
<path d="M176.189 72.5923C176.189 72.5923 177.684 74.3737 177.281 78.0742C176.804 79.1875 179.89 81.4566 184.746 80.3432C189.602 79.2299 190.419 75.1265 189.899 74.2464C189.443 73.4724 186.379 72.9316 184.343 70.6626C182.307 68.3935 180.971 63.7175 179.741 61.4272C181.883 58.9248 177.409 56.1574 176.857 58.9461C172.467 55.7439 167.208 55.0759 164.557 58.8188C164.557 58.8188 161.79 63.5478 167.526 66.7182C167.526 66.7182 172.075 74.9568 177.621 72.0304C179.9 70.8216 180.112 68.2556 180.028 67.1741" stroke="#003366" stroke-width="0.335198" stroke-miterlimit="10" stroke-linecap="round" stroke-linejoin="round"/>
<path d="M183.665 93.4766C183.665 93.4766 189.878 119.518 199.431 130.121" stroke="#003366" stroke-width="0.502792" stroke-miterlimit="10" stroke-linecap="round" stroke-linejoin="round"/>
<path d="M230.022 123.956L228.824 135.333L205.646 133.457L206.473 120.309L214.563 126.13L222.176 126.83L230.022 123.956Z" fill="#FAFDFF" stroke="#003366" stroke-width="0.335198" stroke-miterlimit="10" stroke-linecap="round" stroke-linejoin="round"/>
<path d="M230.34 120.958L230.022 123.958L222.176 126.832L214.563 126.132L206.473 120.311L206.6 118.328L230.34 120.958Z" fill="#FAFDFF" stroke="#003366" stroke-width="0.335198" stroke-miterlimit="10" stroke-linecap="round" stroke-linejoin="round"/>
<path d="M216.375 113.766C216.375 113.766 216.513 112.918 217.287 112.854C218.061 112.79 219.503 113.967 219.302 114.72C219.1 115.473 216.089 115.049 216.375 113.766Z" fill="#003366"/>
<path d="M216.959 113.635C216.959 113.635 216.524 116.54 213.332 117.42C210.152 118.3 211.138 118.937 211.138 118.937L214.605 119.339C214.605 119.339 212.77 124.673 216.238 125.754C219.705 126.825 219.938 121.015 219.185 119.382C218.433 117.749 218.666 115.363 218.942 114.6C218.549 113.052 217.224 113.19 216.959 113.635Z" fill="#FAFDFF" stroke="#003366" stroke-width="0.335198" stroke-miterlimit="10" stroke-linecap="round" stroke-linejoin="round"/>
<path d="M75.9678 128.375L86.7194 129.722L84.8108 131.8L74.2183 130.082L75.9678 128.375Z" fill="#003366"/>
<path d="M183.41 87.6893C184.154 87.6893 184.757 87.0864 184.757 86.3427C184.757 85.599 184.154 84.9961 183.41 84.9961C182.666 84.9961 182.063 85.599 182.063 86.3427C182.063 87.0864 182.666 87.6893 183.41 87.6893Z" stroke="#003366" stroke-width="0.502792" stroke-miterlimit="10" stroke-linecap="round" stroke-linejoin="round"/>
<path d="M134.593 61.0542C134.593 61.0542 129.631 60.0999 127.574 60.7891C125.517 61.4783 124.223 63.2808 124.223 63.6519C130.023 63.7792 129.747 63.9064 129.747 63.9064C129.747 63.9064 127.722 64.1397 128.252 64.7017C128.783 65.2636 130.882 65.147 131.539 64.4578C132.197 63.7686 133.628 64.1927 133.628 64.1927C133.628 64.1927 135.844 62.6658 134.593 61.0542Z" fill="#FAFDFF" stroke="#003366" stroke-width="0.335198" stroke-miterlimit="10" stroke-linecap="round" stroke-linejoin="round"/>
<path d="M205.645 133.46L214.562 126.133L222.175 126.833L228.824 135.336L205.645 133.46Z" fill="#FAFDFF" stroke="#003366" stroke-width="0.335198" stroke-miterlimit="10" stroke-linecap="round" stroke-linejoin="round"/>
<path d="M165.978 56.4607C165.978 56.4607 169.35 59.981 172.944 59.4508C176.539 58.9101 178.395 62.5576 178.395 62.5576C178.395 62.5576 177.917 58.6132 174.63 57.7225C173.199 56.8849 175.86 55.9094 175.86 55.9094L168.353 54.1917C168.353 54.1917 163.783 53.5979 165.978 56.4607Z" fill="#003366"/>
<path d="M165.979 56.4615C165.979 56.4615 168.057 56.3237 165.618 60.2893C164.441 62.2084 165.565 65.506 166.965 66.7466C163.095 65.0395 161.43 61.6359 162.745 59.5789C164.049 57.5218 165.979 56.4615 165.979 56.4615Z" fill="#003366"/>
<path d="M176.688 73.4449C176.688 73.4449 179.095 72.5542 179.307 70.4336C178.416 71.4939 177.303 72.6073 176.327 72.6285C176.847 73.2328 176.688 73.4449 176.688 73.4449Z" fill="#003366"/>
<path d="M77.8447 98.4142L120.247 96.4102L120.512 102.21L77.8447 98.4142Z" fill="#FAFDFF" stroke="#003366" stroke-width="0.335198" stroke-miterlimit="10" stroke-linecap="round" stroke-linejoin="round"/>
<path d="M246.817 70.4148C263.549 70.4148 280.27 70.4148 297.002 70.4148C297.733 61.4763 291.552 54.6691 285.349 54.4994C281.15 54.3828 276.994 57.3199 274.597 61.6672C271.554 56.1323 265.51 53.5982 260.622 55.2205C255.84 56.8003 254.048 61.7096 253.815 62.3882C247.771 58.5605 241.441 66.3856 246.817 70.4148Z" fill="#FAFDFF" stroke="#003366" stroke-width="0.335198" stroke-miterlimit="10" stroke-linecap="round" stroke-linejoin="round"/>
<path d="M65.9588 39.6094H53.1714V52.3968H65.9588V39.6094Z" fill="#FAFDFF" stroke="#003366" stroke-width="0.335198" stroke-miterlimit="10" stroke-linecap="round" stroke-linejoin="round"/>
<path d="M69.8078 46.0078H60.8481V56.4625H69.8078V46.0078Z" fill="#003366"/>
<path d="M213.142 41.912C217.586 41.912 221.189 38.3089 221.189 33.8642C221.189 29.4195 217.586 25.8164 213.142 25.8164C208.697 25.8164 205.094 29.4195 205.094 33.8642C205.094 38.3089 208.697 41.912 213.142 41.912Z" fill="#0074D6"/>
<path d="M212.569 135.34C212.569 135.34 214.796 140.599 223.723 139.168" stroke="#003366" stroke-width="0.335198" stroke-miterlimit="10" stroke-linecap="round" stroke-linejoin="round"/>
<path d="M157.941 21.0121C148.42 17.6933 137.827 17.5343 128.21 20.5668C122.071 22.5072 115.826 26.3349 114.034 32.5272C112.952 36.2701 113.631 40.4796 111.849 43.9362C109.962 47.6049 105.837 49.4393 102.02 51.0085C90.0068 55.939 77.9934 60.8695 65.98 65.8106C63.4988 66.8285 60.9647 67.8782 58.9607 69.6701C56.9567 71.462 55.5571 74.1553 56.0342 76.7954C56.522 79.5099 58.8759 81.5775 61.463 82.5212C64.0502 83.4648 66.8707 83.4754 69.6275 83.4754C79.3188 83.4754 89.0207 83.4754 98.712 83.4754" stroke="#003366" stroke-width="0.502792" stroke-miterlimit="10" stroke-linecap="round" stroke-linejoin="round" stroke-dasharray="2.01 2.01"/>
<path d="M160.136 17.375L177.726 23.8323L160.136 21.436V17.375Z" fill="#FAFDFF" stroke="#003366" stroke-width="0.335198" stroke-miterlimit="10" stroke-linecap="round" stroke-linejoin="round"/>
<path d="M159.797 22.0938L156.096 25.561L177.727 23.8327L159.797 22.0938Z" fill="#FAFDFF" stroke="#003366" stroke-width="0.335198" stroke-miterlimit="10" stroke-linecap="round" stroke-linejoin="round"/>
<path d="M160.401 26.1027L160.878 28.7323L174.143 24.9258L160.401 26.1027Z" fill="#FAFDFF" stroke="#003366" stroke-width="0.335198" stroke-miterlimit="10" stroke-linecap="round" stroke-linejoin="round"/>
</svg>
