<svg width="20" height="20" viewBox="0 0 20 20" fill="none" xmlns="http://www.w3.org/2000/svg">
<path d="M6.93669 14.7356V12.127H4.32812" stroke="white" stroke-width="0.93257" stroke-miterlimit="10" stroke-linecap="round" stroke-linejoin="round"/>
<path d="M10.4888 15.0648H7.65199C7.39114 15.0648 7.13028 14.967 6.96725 14.7713L4.29346 12.0975C4.09782 11.9019 4 11.6736 4 11.4128V3H13.13V11.0541" stroke="white" stroke-width="0.93257" stroke-miterlimit="10" stroke-linecap="round" stroke-linejoin="round"/>
<path d="M13.1316 15.7172C12.0556 15.7172 11.1752 14.8368 11.1752 13.7607V12.4564L9.7731 10.663C9.44703 10.2391 9.47964 9.65215 9.87092 9.29347C10.2622 8.90218 10.947 8.90218 11.3382 9.29347L13.7512 11.7064" stroke="white" stroke-width="0.93257" stroke-miterlimit="10" stroke-linecap="round" stroke-linejoin="round"/>
<path d="M16.7171 17.9997V17.0215H11.5V17.9997" stroke="white" stroke-width="0.93257" stroke-miterlimit="10" stroke-linecap="round" stroke-linejoin="round"/>
<path d="M14.1094 7.72852L15.2506 8.9676C15.7723 9.52193 16.0006 10.2719 15.9354 11.0219L15.4137 16.0435L15.7397 17.0217" stroke="white" stroke-width="0.93257" stroke-miterlimit="10" stroke-linecap="round" stroke-linejoin="round"/>
<path d="M7.26172 4.95312H9.87029" stroke="white" stroke-width="0.93257" stroke-miterlimit="10" stroke-linecap="round" stroke-linejoin="round"/>
<path d="M5.95703 6.25781H11.1742" stroke="white" stroke-width="0.93257" stroke-miterlimit="10" stroke-linecap="round" stroke-linejoin="round"/>
<path d="M5.95703 7.56445H11.1742" stroke="white" stroke-width="0.93257" stroke-miterlimit="10" stroke-linecap="round" stroke-linejoin="round"/>
</svg>
