<svg width="21" height="20" viewBox="0 0 21 20" fill="none" xmlns="http://www.w3.org/2000/svg">
<mask id="mask0_591_34602" style="mask-type:alpha" maskUnits="userSpaceOnUse" x="0" y="0" width="21" height="20">
<rect width="20" height="20" transform="matrix(-1 0 0 1 20.25 0)" fill="#D9D9D9"/>
</mask>
<g mask="url(#mask0_591_34602)">
<path d="M6.79163 10.8324H16.0833C16.3194 10.8324 16.5173 10.7526 16.677 10.5929C16.8368 10.4331 16.9166 10.2352 16.9166 9.99911C16.9166 9.763 16.8368 9.56509 16.677 9.40536C16.5173 9.24564 16.3194 9.16578 16.0833 9.16578H6.79163L9.16663 6.79078C9.33329 6.62411 9.41315 6.42967 9.40621 6.20745C9.39927 5.98523 9.3194 5.79078 9.16663 5.62411C8.99996 5.45745 8.80204 5.37064 8.57288 5.3637C8.34371 5.35675 8.14579 5.43661 7.97913 5.60328L4.16663 9.41578C4.08329 9.49911 4.02427 9.58939 3.98954 9.68661C3.95482 9.78384 3.93746 9.888 3.93746 9.99911C3.93746 10.1102 3.95482 10.2144 3.98954 10.3116C4.02427 10.4088 4.08329 10.4991 4.16663 10.5824L7.97913 14.3949C8.14579 14.5616 8.34371 14.6415 8.57288 14.6345C8.80204 14.6276 8.99996 14.5408 9.16663 14.3741C9.3194 14.2074 9.39927 14.013 9.40621 13.7908C9.41315 13.5686 9.33329 13.3741 9.16663 13.2074L6.79163 10.8324Z" fill="#0074D6"/>
</g>
</svg>
