<svg width="20" height="21" viewBox="0 0 20 21" fill="none" xmlns="http://www.w3.org/2000/svg">
<mask id="mask0_591_35372" style="mask-type:alpha" maskUnits="userSpaceOnUse" x="0" y="0" width="20" height="21">
<rect y="0.5" width="20" height="20" fill="#D9D9D9"/>
</mask>
<g mask="url(#mask0_591_35372)">
<path d="M13.4585 11.3324H4.16683C3.93072 11.3324 3.7328 11.2526 3.57308 11.0929C3.41336 10.9331 3.3335 10.7352 3.3335 10.4991C3.3335 10.263 3.41336 10.0651 3.57308 9.90536C3.7328 9.74564 3.93072 9.66578 4.16683 9.66578H13.4585L11.0835 7.29078C10.9168 7.12411 10.837 6.92967 10.8439 6.70745C10.8509 6.48523 10.9307 6.29078 11.0835 6.12411C11.2502 5.95745 11.4481 5.87064 11.6772 5.8637C11.9064 5.85675 12.1043 5.93661 12.271 6.10328L16.0835 9.91578C16.1668 9.99911 16.2259 10.0894 16.2606 10.1866C16.2953 10.2838 16.3127 10.388 16.3127 10.4991C16.3127 10.6102 16.2953 10.7144 16.2606 10.8116C16.2259 10.9088 16.1668 10.9991 16.0835 11.0824L12.271 14.8949C12.1043 15.0616 11.9064 15.1415 11.6772 15.1345C11.4481 15.1276 11.2502 15.0408 11.0835 14.8741C10.9307 14.7074 10.8509 14.513 10.8439 14.2908C10.837 14.0686 10.9168 13.8741 11.0835 13.7074L13.4585 11.3324Z" fill="white"/>
</g>
</svg>
