<svg width="20" height="20" viewBox="0 0 20 20" fill="none" xmlns="http://www.w3.org/2000/svg">
<mask id="mask0_832_2331" style="mask-type:alpha" maskUnits="userSpaceOnUse" x="0" y="0" width="20" height="20">
<rect width="20" height="20" fill="#D9D9D9"/>
</mask>
<g mask="url(#mask0_832_2331)">
<path d="M6.66673 13.9596H10.8334C11.0107 13.9596 11.1592 13.8998 11.2789 13.7801C11.3985 13.6605 11.4584 13.512 11.4584 13.3346C11.4584 13.1573 11.3985 13.0088 11.2789 12.8891C11.1592 12.7695 11.0107 12.7096 10.8334 12.7096H6.66673C6.48938 12.7096 6.34088 12.7695 6.22123 12.8891C6.10157 13.0088 6.04175 13.1573 6.04175 13.3346C6.04175 13.512 6.10157 13.6605 6.22123 13.7801C6.34088 13.8998 6.48938 13.9596 6.66673 13.9596ZM6.66673 10.6263H13.3334C13.5107 10.6263 13.6592 10.5664 13.7789 10.4468C13.8985 10.3271 13.9584 10.1786 13.9584 10.0013C13.9584 9.82394 13.8985 9.67544 13.7789 9.55578C13.6592 9.43613 13.5107 9.3763 13.3334 9.3763H6.66673C6.48938 9.3763 6.34088 9.43613 6.22123 9.55578C6.10157 9.67544 6.04175 9.82394 6.04175 10.0013C6.04175 10.1786 6.10157 10.3271 6.22123 10.4468C6.34088 10.5664 6.48938 10.6263 6.66673 10.6263ZM6.66673 7.29293H13.3334C13.5107 7.29293 13.6592 7.2331 13.7789 7.11345C13.8985 6.9938 13.9584 6.8453 13.9584 6.66795C13.9584 6.4906 13.8985 6.3421 13.7789 6.22245C13.6592 6.1028 13.5107 6.04297 13.3334 6.04297H6.66673C6.48938 6.04297 6.34088 6.1028 6.22123 6.22245C6.10157 6.3421 6.04175 6.4906 6.04175 6.66795C6.04175 6.8453 6.10157 6.9938 6.22123 7.11345C6.34088 7.2331 6.48938 7.29293 6.66673 7.29293ZM4.42316 17.0846C4.00222 17.0846 3.64591 16.9388 3.35425 16.6471C3.06258 16.3554 2.91675 15.9991 2.91675 15.5782V4.42439C2.91675 4.00344 3.06258 3.64714 3.35425 3.35547C3.64591 3.0638 4.00222 2.91797 4.42316 2.91797H15.577C15.9979 2.91797 16.3542 3.0638 16.6459 3.35547C16.9375 3.64714 17.0834 4.00344 17.0834 4.42439V15.5782C17.0834 15.9991 16.9375 16.3554 16.6459 16.6471C16.3542 16.9388 15.9979 17.0846 15.577 17.0846H4.42316ZM4.42316 15.8346H15.577C15.6411 15.8346 15.6998 15.8079 15.7533 15.7545C15.8067 15.7011 15.8334 15.6423 15.8334 15.5782V4.42439C15.8334 4.36028 15.8067 4.3015 15.7533 4.24807C15.6998 4.19466 15.6411 4.16795 15.577 4.16795H4.42316C4.35905 4.16795 4.30028 4.19466 4.24685 4.24807C4.19344 4.3015 4.16673 4.36028 4.16673 4.42439V15.5782C4.16673 15.6423 4.19344 15.7011 4.24685 15.7545C4.30028 15.8079 4.35905 15.8346 4.42316 15.8346Z" fill="#93A2B2"/>
</g>
</svg>
