<svg width="20" height="20" viewBox="0 0 20 20" fill="none" xmlns="http://www.w3.org/2000/svg">
<g id="assignment">
<mask id="mask0_3483_31682" style="mask-type:alpha" maskUnits="userSpaceOnUse" x="0" y="0" width="20" height="20">
<rect id="Bounding box" width="20" height="20" fill="#D9D9D9"/>
</mask>
<g mask="url(#mask0_3483_31682)">
<path id="assignment_2" d="M4.75381 16.5807C4.38538 16.5807 4.06999 16.4495 3.80762 16.1871C3.54525 15.9248 3.41406 15.6094 3.41406 15.2409V4.75381C3.41406 4.38538 3.54525 4.06999 3.80762 3.80763C4.06999 3.54525 4.38538 3.41406 4.75381 3.41406H8.52465C8.50755 3.02091 8.64002 2.67263 8.92206 2.36921C9.20412 2.06578 9.56389 1.91406 10.0014 1.91406C10.4389 1.91406 10.7986 2.06578 11.0807 2.36921C11.3627 2.67263 11.4925 3.02091 11.4701 3.41406H15.2409C15.6094 3.41406 15.9248 3.54525 16.1871 3.80763C16.4495 4.06999 16.5807 4.38538 16.5807 4.75381V15.2409C16.5807 15.6094 16.4495 15.9248 16.1871 16.1871C15.9248 16.4495 15.6094 16.5807 15.2409 16.5807H4.75381ZM4.75381 15.4974H15.2409C15.305 15.4974 15.3638 15.4707 15.4172 15.4173C15.4707 15.3638 15.4974 15.305 15.4974 15.2409V4.75381C15.4974 4.6897 15.4707 4.63093 15.4172 4.5775C15.3638 4.52408 15.305 4.49738 15.2409 4.49738H4.75381C4.6897 4.49738 4.63093 4.52408 4.5775 4.5775C4.52408 4.63093 4.49737 4.6897 4.49737 4.75381V15.2409C4.49737 15.305 4.52408 15.3638 4.5775 15.4173C4.63093 15.4707 4.6897 15.4974 4.75381 15.4974ZM6.74738 13.6929H11.2474C11.4008 13.6929 11.5295 13.6414 11.6333 13.5383C11.7371 13.4353 11.789 13.3076 11.789 13.1553C11.789 13.003 11.7371 12.874 11.6333 12.7682C11.5295 12.6624 11.4008 12.6096 11.2474 12.6096H6.74738C6.5939 12.6096 6.46526 12.6611 6.36146 12.7641C6.25764 12.8671 6.20573 12.9948 6.20573 13.1471C6.20573 13.2994 6.25764 13.4284 6.36146 13.5342C6.46526 13.64 6.5939 13.6929 6.74738 13.6929ZM6.74738 10.539H13.2474C13.4008 10.539 13.5295 10.4875 13.6333 10.3845C13.7371 10.2815 13.789 10.1538 13.789 10.0015C13.789 9.84917 13.7371 9.72014 13.6333 9.61438C13.5295 9.50861 13.4008 9.45573 13.2474 9.45573H6.74738C6.5939 9.45573 6.46526 9.50724 6.36146 9.61027C6.25764 9.7133 6.20573 9.84097 6.20573 9.99327C6.20573 10.1456 6.25764 10.2746 6.36146 10.3804C6.46526 10.4861 6.5939 10.539 6.74738 10.539ZM6.74738 7.38519H13.2474C13.4008 7.38519 13.5295 7.33367 13.6333 7.23065C13.7371 7.12762 13.789 6.99995 13.789 6.84765C13.789 6.69534 13.7371 6.56631 13.6333 6.46054C13.5295 6.35476 13.4008 6.30188 13.2474 6.30188H6.74738C6.5939 6.30188 6.46526 6.3534 6.36146 6.45644C6.25764 6.55947 6.20573 6.68713 6.20573 6.83944C6.20573 6.99174 6.25764 7.12078 6.36146 7.22654C6.46526 7.33231 6.5939 7.38519 6.74738 7.38519ZM9.99738 4.0775C10.1418 4.0775 10.2613 4.03028 10.3557 3.93583C10.4502 3.84139 10.4974 3.72195 10.4974 3.5775C10.4974 3.43306 10.4502 3.31361 10.3557 3.21917C10.2613 3.12472 10.1418 3.0775 9.99738 3.0775C9.85293 3.0775 9.73349 3.12472 9.63904 3.21917C9.5446 3.31361 9.49738 3.43306 9.49738 3.5775C9.49738 3.72195 9.5446 3.84139 9.63904 3.93583C9.73349 4.03028 9.85293 4.0775 9.99738 4.0775Z" fill="#75899D"/>
</g>
</g>
</svg>
