<svg width="24" height="24" viewBox="0 0 24 24" fill="none" xmlns="http://www.w3.org/2000/svg">
<rect x="0.5" y="0.5" width="23" height="23" rx="11.5" fill="#EFF8FF"/>
<path d="M5.32471 16.653C5.15966 16.653 5.02131 16.5971 4.90966 16.4854C4.79801 16.3737 4.74219 16.2353 4.74219 16.0702C4.74219 15.9051 4.79801 15.7668 4.90966 15.6552C5.02131 15.5437 5.15966 15.488 5.32471 15.488H11.7548C11.9199 15.488 12.0582 15.5438 12.1699 15.6555C12.2815 15.7672 12.3373 15.9056 12.3373 16.0707C12.3373 16.2358 12.2815 16.3742 12.1699 16.4857C12.0582 16.5972 11.9199 16.653 11.7548 16.653H5.32471ZM5.32471 12.8517C5.15966 12.8517 5.02131 12.7958 4.90966 12.6841C4.79801 12.5724 4.74219 12.434 4.74219 12.2689C4.74219 12.1038 4.79801 11.9655 4.90966 11.8539C5.02131 11.7424 5.15966 11.6867 5.32471 11.6867H7.83402C7.99906 11.6867 8.13741 11.7425 8.24906 11.8542C8.3607 11.9659 8.41652 12.1043 8.41652 12.2694C8.41652 12.4345 8.3607 12.5729 8.24906 12.6844C8.13741 12.7959 7.99906 12.8517 7.83402 12.8517H5.32471ZM5.32471 9.05036C5.15966 9.05036 5.02131 8.99451 4.90966 8.88282C4.79801 8.77112 4.74219 8.63272 4.74219 8.46761C4.74219 8.30248 4.79801 8.16416 4.90966 8.05264C5.02131 7.94112 5.15966 7.88536 5.32471 7.88536H7.83402C7.99906 7.88536 8.13741 7.94121 8.24906 8.05291C8.3607 8.1646 8.41652 8.30301 8.41652 8.46813C8.41652 8.63324 8.3607 8.77156 8.24906 8.88308C8.13741 8.9946 7.99906 9.05036 7.83402 9.05036H5.32471ZM13.6442 14.3453C12.6711 14.3453 11.8415 14.0052 11.1556 13.3251C10.4697 12.645 10.1267 11.8188 10.1267 10.8465C10.1267 9.87413 10.4699 9.04791 11.1561 8.3678C11.8424 7.6877 12.6723 7.34766 13.646 7.34766C14.6197 7.34766 15.449 7.6877 16.1341 8.3678C16.8192 9.04791 17.1617 9.87289 17.1617 10.8427C17.1617 11.2032 17.1055 11.5579 16.9929 11.9069C16.8804 12.256 16.7141 12.5759 16.4941 12.8666L19.09 15.4402C19.2025 15.546 19.2588 15.6808 19.2588 15.8444C19.2588 16.0081 19.2025 16.1461 19.09 16.2586C18.9841 16.3662 18.8494 16.42 18.6857 16.42C18.5221 16.42 18.384 16.3662 18.2715 16.2586L15.6756 13.6851C15.3798 13.9002 15.0575 14.064 14.7084 14.1765C14.3594 14.289 14.0047 14.3453 13.6442 14.3453ZM13.6442 13.1803C14.2977 13.1803 14.8531 12.9538 15.3106 12.5007C15.768 12.0476 15.9967 11.4962 15.9967 10.8465C15.9967 10.1967 15.768 9.64535 15.3106 9.19228C14.8531 8.73921 14.2977 8.51267 13.6442 8.51267C12.9908 8.51267 12.4353 8.73921 11.9779 9.19228C11.5205 9.64535 11.2917 10.1967 11.2917 10.8465C11.2917 11.4962 11.5205 12.0476 11.9779 12.5007C12.4353 12.9538 12.9908 13.1803 13.6442 13.1803Z" fill="#1570EF"/>
<rect x="0.5" y="0.5" width="23" height="23" rx="11.5" stroke="#84CAFF"/>
</svg>
