<svg width="13" height="12" viewBox="0 0 13 12" fill="none" xmlns="http://www.w3.org/2000/svg">
<path d="M3.75851 6.00109C3.60826 6.00109 3.48245 6.05177 3.38108 6.15314C3.27969 6.25452 3.229 6.38033 3.229 6.53058V8.82514C3.229 8.97539 3.27969 9.1012 3.38108 9.20257C3.48245 9.30394 3.60826 9.35463 3.75851 9.35463C3.90876 9.35463 4.03457 9.30394 4.13595 9.20257C4.23732 9.1012 4.288 8.97539 4.288 8.82514V6.53058C4.288 6.38033 4.23732 6.25452 4.13595 6.15314C4.03457 6.05177 3.90876 6.00109 3.75851 6.00109ZM9.24366 2.47103C9.09341 2.47103 8.9676 2.52171 8.86623 2.62308C8.76486 2.72445 8.71417 2.85027 8.71417 3.00052V8.82514C8.71417 8.97539 8.76486 9.1012 8.86623 9.20257C8.9676 9.30394 9.09341 9.35463 9.24366 9.35463C9.39391 9.35463 9.51972 9.30394 9.62109 9.20257C9.72248 9.1012 9.77317 8.97539 9.77317 8.82514V3.00052C9.77317 2.85027 9.72248 2.72445 9.62109 2.62308C9.51972 2.52171 9.39391 2.47103 9.24366 2.47103ZM6.50109 7.41311C6.35083 7.41311 6.22502 7.4638 6.12365 7.56517C6.02228 7.66654 5.97159 7.79235 5.97159 7.9426V8.82514C5.97159 8.97539 6.02228 9.1012 6.12365 9.20257C6.22502 9.30394 6.35083 9.35463 6.50109 9.35463C6.65134 9.35463 6.77715 9.30394 6.87852 9.20257C6.97989 9.1012 7.03058 8.97539 7.03058 8.82514V7.9426C7.03058 7.79235 6.97989 7.66654 6.87852 7.56517C6.77715 7.4638 6.65134 7.41311 6.50109 7.41311ZM1.77626 12.0022C1.41963 12.0022 1.11776 11.8786 0.870656 11.6315C0.623552 11.3844 0.5 11.0825 0.5 10.7259V1.27626C0.5 0.919629 0.623552 0.617761 0.870656 0.370656C1.11776 0.123552 1.41963 0 1.77626 0H11.2259C11.5825 0 11.8844 0.123552 12.1315 0.370656C12.3786 0.617761 12.5022 0.919629 12.5022 1.27626V10.7259C12.5022 11.0825 12.3786 11.3844 12.1315 11.6315C11.8844 11.8786 11.5825 12.0022 11.2259 12.0022H1.77626ZM1.77626 10.9432H11.2259C11.2802 10.9432 11.33 10.9205 11.3753 10.8753C11.4205 10.83 11.4432 10.7802 11.4432 10.7259V1.27626C11.4432 1.22194 11.4205 1.17215 11.3753 1.12688C11.33 1.08163 11.2802 1.059 11.2259 1.059H1.77626C1.72194 1.059 1.67215 1.08163 1.62688 1.12688C1.58163 1.17215 1.559 1.22194 1.559 1.27626V10.7259C1.559 10.7802 1.58163 10.83 1.62688 10.8753C1.67215 10.9205 1.72194 10.9432 1.77626 10.9432ZM6.50109 5.82457C6.65134 5.82457 6.77715 5.77388 6.87852 5.67251C6.97989 5.57114 7.03058 5.44533 7.03058 5.29507C7.03058 5.14482 6.97989 5.01901 6.87852 4.91764C6.77715 4.81627 6.65134 4.76558 6.50109 4.76558C6.35083 4.76558 6.22502 4.81627 6.12365 4.91764C6.02228 5.01901 5.97159 5.14482 5.97159 5.29507C5.97159 5.44533 6.02228 5.57114 6.12365 5.67251C6.22502 5.77388 6.35083 5.82457 6.50109 5.82457Z" fill="#75899D"/>
</svg>
