<svg width="36" height="37" viewBox="0 0 36 37" fill="none" xmlns="http://www.w3.org/2000/svg">
<circle cx="18" cy="18.5" r="18" fill="#ECEFF2"/>
<path d="M12.1692 19.2457L15.4923 22.5689C15.6308 22.7073 15.7016 22.8813 15.7048 23.091C15.708 23.3006 15.6372 23.4778 15.4923 23.6227C15.3474 23.7675 15.1718 23.84 14.9654 23.84C14.759 23.84 14.5833 23.7675 14.4385 23.6227L9.94425 19.1284C9.85067 19.0348 9.78464 18.9361 9.74618 18.8323C9.70771 18.7284 9.68848 18.6163 9.68848 18.4958C9.68848 18.3752 9.70771 18.2631 9.74618 18.1592C9.78464 18.0554 9.85067 17.9567 9.94425 17.8631L14.4385 13.3689C14.5769 13.2304 14.751 13.1596 14.9606 13.1564C15.1702 13.1531 15.3474 13.224 15.4923 13.3689C15.6372 13.5137 15.7096 13.6894 15.7096 13.8958C15.7096 14.1022 15.6372 14.2778 15.4923 14.4227L12.1692 17.7458H25.5615C25.7743 17.7458 25.9525 17.8176 26.0961 17.9612C26.2397 18.1047 26.3115 18.2829 26.3115 18.4958C26.3115 18.7086 26.2397 18.8868 26.0961 19.0304C25.9525 19.1739 25.7743 19.2457 25.5615 19.2457H12.1692Z" fill="#475665"/>
</svg>
