<svg width="20" height="21" viewBox="0 0 20 21" fill="none" xmlns="http://www.w3.org/2000/svg">
<mask id="mask0_591_33705" style="mask-type:alpha" maskUnits="userSpaceOnUse" x="0" y="0" width="20" height="21">
<rect width="20" height="20" transform="matrix(-1 0 0 1 20 0.5)" fill="#D9D9D9"/>
</mask>
<g mask="url(#mask0_591_33705)">
<path d="M6.54169 11.3324H15.8334C16.0695 11.3324 16.2674 11.2526 16.4271 11.0929C16.5868 10.9331 16.6667 10.7352 16.6667 10.4991C16.6667 10.263 16.5868 10.0651 16.4271 9.90536C16.2674 9.74564 16.0695 9.66578 15.8334 9.66578H6.54169L8.91669 7.29078C9.08335 7.12411 9.16322 6.92967 9.15627 6.70745C9.14933 6.48523 9.06946 6.29078 8.91669 6.12411C8.75002 5.95745 8.5521 5.87064 8.32294 5.8637C8.09377 5.85675 7.89585 5.93661 7.72919 6.10328L3.91669 9.91578C3.83335 9.99911 3.77433 10.0894 3.7396 10.1866C3.70488 10.2838 3.68752 10.388 3.68752 10.4991C3.68752 10.6102 3.70488 10.7144 3.7396 10.8116C3.77433 10.9088 3.83335 10.9991 3.91669 11.0824L7.72919 14.8949C7.89585 15.0616 8.09377 15.1415 8.32294 15.1345C8.5521 15.1276 8.75002 15.0408 8.91669 14.8741C9.06946 14.7074 9.14933 14.513 9.15627 14.2908C9.16322 14.0686 9.08335 13.8741 8.91669 13.7074L6.54169 11.3324Z" fill="#0074D6"/>
</g>
</svg>
