<svg width="24" height="30" viewBox="0 0 24 30" fill="none" xmlns="http://www.w3.org/2000/svg">
<path d="M6.4807 16.5895L9.80382 19.9126C9.94228 20.0511 10.0131 20.2251 10.0163 20.4347C10.0195 20.6443 9.94869 20.8215 9.80382 20.9664C9.65896 21.1113 9.48332 21.1837 9.2769 21.1837C9.0705 21.1837 8.89487 21.1113 8.75 20.9664L4.25578 16.4722C4.16219 16.3786 4.09617 16.2799 4.0577 16.176C4.01923 16.0722 4 15.96 4 15.8395C4 15.719 4.01923 15.6068 4.0577 15.503C4.09617 15.3991 4.16219 15.3004 4.25578 15.2068L8.75 10.7126C8.88845 10.5741 9.06248 10.5033 9.2721 10.5001C9.48172 10.4969 9.65896 10.5677 9.80382 10.7126C9.94869 10.8575 10.0211 11.0331 10.0211 11.2395C10.0211 11.4459 9.94869 11.6215 9.80382 11.7664L6.4807 15.0895H19.873C20.0858 15.0895 20.264 15.1613 20.4076 15.3049C20.5512 15.4485 20.623 15.6267 20.623 15.8395C20.623 16.0523 20.5512 16.2305 20.4076 16.3741C20.264 16.5177 20.0858 16.5895 19.873 16.5895H6.4807Z" fill="#475665"/>
</svg>
