<svg width="367" height="148" viewBox="0 0 367 148" fill="none" xmlns="http://www.w3.org/2000/svg">
<rect x="0.5" width="366" height="99" fill="#EFF8FF"/>
<path d="M243.155 75.7041C243.603 73.5822 241.984 71.5859 239.815 71.5859H144.615C143.002 71.5859 141.609 72.7155 141.275 74.2939L130.441 125.606C129.993 127.728 131.612 129.725 133.78 129.725H228.981C230.594 129.725 231.987 128.595 232.32 127.017L243.155 75.7041Z" fill="#FAFDFF"/>
<path d="M224.322 82.4375L216.143 124.09L230.103 129.723H231.748L237.955 100.325L224.322 82.4375Z" fill="#D6ECFF"/>
<path d="M224.384 84.4531L217.299 110.778C215.274 118.303 219.348 126.125 226.674 128.779L228.669 129.502C228.987 129.617 229.323 129.676 229.662 129.676C231.056 129.676 232.256 128.688 232.523 127.319L234.577 116.793C235.164 113.784 234.87 110.67 233.732 107.824L224.384 84.4531Z" fill="#447CAC"/>
<path d="M243.155 75.7041C243.603 73.5822 241.984 71.5859 239.815 71.5859H144.615C143.002 71.5859 141.609 72.7155 141.275 74.2939L130.441 125.606C129.993 127.728 131.612 129.725 133.78 129.725H228.981C230.594 129.725 231.987 128.595 232.32 127.017L243.155 75.7041Z" stroke="#447CAC" stroke-width="0.157" stroke-miterlimit="10"/>
<path d="M205.884 71.1523H208.473V71.6956H205.884V71.1523Z" fill="white"/>
<path d="M195.615 71.1523H203.137V71.6956H195.615V71.1523Z" fill="white"/>
<path d="M204.638 66.4052C204.558 67.065 204.551 67.7315 204.617 68.3928C204.633 68.8328 204.686 69.2708 204.774 69.7022C204.861 70.1262 205.09 70.5076 205.424 70.7823C205.597 70.9111 205.794 71.0025 206.004 71.0507C206.214 71.0988 206.431 71.1026 206.643 71.0618C206.902 71.0216 207.15 70.9305 207.374 70.7936C207.598 70.6567 207.792 70.4767 207.946 70.2642C208.002 70.181 207.867 70.1072 207.809 70.1842C207.338 70.8703 206.264 71.1858 205.555 70.685C204.845 70.1842 204.834 69.2375 204.781 68.476C204.708 67.8013 204.708 67.1207 204.781 66.446C204.796 66.3471 204.644 66.3047 204.624 66.4052H204.638Z" fill="#447CAC"/>
<path d="M206.886 68.221H206.896L206.88 68.2085L206.894 68.2226L206.882 68.2069C206.886 68.212 206.89 68.2179 206.893 68.2242L206.883 68.2053C206.884 68.2121 206.884 68.219 206.883 68.2257V68.2053C206.885 68.2131 206.885 68.2211 206.883 68.2289V68.2085C206.884 68.2184 206.884 68.2284 206.883 68.2383V68.2195L206.869 68.2462L206.88 68.2305L206.896 68.2179H206.915H206.935H206.955H206.974L206.99 68.2305L207.002 68.2462V68.2634V68.2948C207.005 68.2823 207.009 68.2701 207.015 68.2587L207.032 68.2148C207.035 68.2048 207.036 68.1944 207.035 68.1841C207.034 68.1738 207.03 68.1639 207.024 68.1551C207.014 68.1377 206.998 68.1248 206.979 68.119C206.958 68.1137 206.936 68.1165 206.918 68.1268L206.902 68.1394C206.892 68.1487 206.885 68.1607 206.882 68.1739L206.866 68.21C206.86 68.2218 206.856 68.2339 206.852 68.2462C206.85 68.2566 206.85 68.2672 206.852 68.2776C206.852 68.2948 206.856 68.3117 206.866 68.3262C206.876 68.3432 206.892 68.3564 206.91 68.3638C206.928 68.3711 206.949 68.3723 206.968 68.367C206.984 68.3618 206.999 68.3533 207.012 68.3419C207.02 68.3347 207.028 68.3262 207.034 68.3168C207.044 68.3016 207.051 68.2852 207.057 68.2681C207.062 68.2512 207.065 68.2339 207.067 68.2163V68.2006C207.068 68.1897 207.068 68.1786 207.067 68.1677C207.056 68.128 207.03 68.0942 206.995 68.0735C206.985 68.068 206.975 68.0645 206.965 68.0631C206.954 68.0618 206.944 68.0626 206.933 68.0656C206.914 68.0713 206.897 68.0842 206.886 68.1017C206.881 68.1107 206.878 68.1205 206.876 68.1308C206.875 68.141 206.876 68.1514 206.878 68.1614C206.884 68.181 206.897 68.1978 206.915 68.2085L206.886 68.221Z" fill="#447CAC"/>
<path d="M205.294 68.3624H205.304L205.288 68.3499C205.293 68.3542 205.298 68.3589 205.302 68.364L205.29 68.3483L205.299 68.3656V68.3467C205.3 68.3535 205.3 68.3604 205.299 68.3672V68.3467C205.301 68.3545 205.301 68.3625 205.299 68.3703V68.3499C205.3 68.3598 205.3 68.3698 205.299 68.3797V68.3609C205.295 68.3703 205.29 68.3792 205.283 68.3876L205.296 68.3719V68.3797L205.312 68.3672L205.331 68.3593H205.351H205.371L205.389 68.3672L205.404 68.3797L205.417 68.3954V68.4143V68.4347V68.4551C205.42 68.4425 205.425 68.4303 205.431 68.419L205.448 68.375C205.453 68.3656 205.455 68.3555 205.455 68.3452C205.455 68.3349 205.453 68.3247 205.448 68.3153C205.438 68.2976 205.421 68.2846 205.401 68.2792C205.391 68.2766 205.381 68.2759 205.371 68.2772C205.36 68.2786 205.35 68.2819 205.341 68.2871L205.326 68.2996C205.315 68.3085 205.308 68.3207 205.305 68.3342L205.29 68.3703C205.284 68.3821 205.28 68.3941 205.276 68.4064C205.274 68.4168 205.274 68.4274 205.276 68.4378C205.276 68.4548 205.28 68.4716 205.288 68.4865C205.299 68.5034 205.315 68.5165 205.333 68.5238C205.352 68.5312 205.372 68.5324 205.392 68.5273C205.408 68.5221 205.423 68.5135 205.436 68.5022C205.444 68.4953 205.451 68.4867 205.456 68.4771C205.466 68.4622 205.474 68.4457 205.48 68.4284C205.486 68.4118 205.489 68.3943 205.489 68.3766C205.491 68.3715 205.491 68.366 205.489 68.3609C205.491 68.3499 205.491 68.3388 205.489 68.3279C205.478 68.288 205.451 68.2541 205.415 68.2337C205.406 68.2282 205.397 68.2246 205.386 68.2233C205.376 68.2219 205.366 68.2228 205.356 68.2259C205.336 68.2313 205.319 68.2442 205.309 68.262C205.301 68.2811 205.301 68.3025 205.309 68.3216C205.314 68.3414 205.327 68.3584 205.345 68.3687L205.294 68.3624Z" fill="#447CAC"/>
<path d="M208.591 68.4653C208.756 68.3857 208.899 68.2672 209.009 68.1201C209.118 67.973 209.19 67.8017 209.219 67.6206C209.236 67.5277 209.228 67.432 209.197 67.3429C209.166 67.2537 209.113 67.1742 209.042 67.1119C208.967 67.0587 208.879 67.0271 208.787 67.0207C208.695 67.0144 208.603 67.0334 208.522 67.0758C208.43 67.1243 208.35 67.1942 208.291 67.2798C208.231 67.3653 208.193 67.4639 208.18 67.5672C208.166 67.6661 208.316 67.7085 208.337 67.6081C208.345 67.515 208.38 67.4263 208.437 67.3525C208.495 67.2787 208.572 67.223 208.66 67.192C208.701 67.1787 208.745 67.1742 208.788 67.1787C208.832 67.1833 208.874 67.1967 208.911 67.2183C208.949 67.2398 208.982 67.269 209.008 67.3039C209.034 67.3389 209.052 67.3788 209.062 67.4212C209.091 67.6121 209.045 67.8068 208.933 67.9644C208.83 68.1204 208.688 68.2461 208.52 68.3287C208.429 68.3742 208.509 68.5092 208.599 68.4653H208.591Z" fill="#447CAC"/>
<path d="M208.823 67.4574C208.801 67.4444 208.777 67.4375 208.752 67.4375C208.726 67.4375 208.702 67.4444 208.68 67.4574C208.63 67.4895 208.592 67.5376 208.572 67.594C208.519 67.7206 208.493 67.8571 208.496 67.9943C208.496 68.0195 208.537 68.0195 208.536 67.9943C208.533 67.8783 208.551 67.7628 208.591 67.6537C208.606 67.6017 208.633 67.5538 208.669 67.5139C208.686 67.4959 208.708 67.4841 208.732 67.4804C208.756 67.4767 208.781 67.4813 208.803 67.4935C208.825 67.5076 208.843 67.4731 208.823 67.459V67.4574Z" fill="#447CAC"/>
<path d="M208.705 67.6932C208.695 67.6775 208.679 67.6659 208.661 67.6601C208.643 67.6544 208.624 67.655 208.606 67.6618C208.569 67.6787 208.54 67.7097 208.525 67.7481C208.523 67.7526 208.523 67.7575 208.525 67.762C208.526 67.7664 208.529 67.7702 208.533 67.7726C208.538 67.7751 208.542 67.776 208.547 67.7752C208.552 67.7745 208.556 67.7721 208.559 67.7685C208.565 67.7543 208.573 67.7406 208.581 67.7277C208.59 67.7166 208.601 67.7075 208.614 67.701H208.628H208.644H208.653C208.666 67.723 208.701 67.701 208.688 67.6822L208.705 67.6932Z" fill="#447CAC"/>
<path d="M208.461 68.723C208.428 69.8299 208.34 70.9383 208.447 72.0451C208.456 72.1441 208.613 72.1456 208.604 72.0451C208.497 70.9383 208.585 69.8299 208.618 68.723C208.618 68.7022 208.61 68.6822 208.595 68.6675C208.58 68.6528 208.56 68.6445 208.539 68.6445C208.519 68.6445 208.499 68.6528 208.484 68.6675C208.469 68.6822 208.461 68.7022 208.461 68.723Z" fill="#447CAC"/>
<path d="M205.739 70.9308C205.76 71.4725 205.818 72.0157 205.796 72.5573C205.796 72.6594 205.953 72.6594 205.953 72.5573C205.975 72.0157 205.917 71.4725 205.896 70.9308C205.896 70.8303 205.739 70.8303 205.739 70.9308Z" fill="#447CAC"/>
<path d="M205.984 68.1488C205.947 68.4282 205.938 68.7107 205.958 68.9919C205.958 69.0127 205.966 69.0327 205.981 69.0474C205.995 69.0621 206.015 69.0704 206.036 69.0704C206.057 69.07 206.077 69.0616 206.091 69.047C206.106 69.0323 206.114 69.0126 206.115 68.9919C206.095 68.7107 206.104 68.4282 206.141 68.1488C206.141 68.1064 206.102 68.0703 206.063 68.0703C206.042 68.0707 206.023 68.0791 206.008 68.0937C205.993 68.1084 205.985 68.1281 205.984 68.1488Z" fill="#447CAC"/>
<path d="M207.249 67.3582C207.125 67.2945 206.983 67.274 206.846 67.3001C206.826 67.3056 206.809 67.3187 206.798 67.3367C206.788 67.3546 206.785 67.3759 206.791 67.3958C206.797 67.4157 206.81 67.4324 206.828 67.4426C206.847 67.4528 206.868 67.4557 206.888 67.4508H206.913H206.956H207.021C207.049 67.4548 207.075 67.4611 207.102 67.4696H207.12H207.133H207.144L207.166 67.4806C207.175 67.4858 207.185 67.4891 207.195 67.4904C207.205 67.4918 207.216 67.4911 207.226 67.4884C207.236 67.4857 207.245 67.481 207.253 67.4747C207.261 67.4684 207.268 67.4606 207.273 67.4516C207.279 67.4426 207.282 67.4327 207.283 67.4225C207.285 67.4122 207.284 67.4018 207.281 67.3918C207.279 67.3818 207.274 67.3725 207.268 67.3643C207.261 67.3561 207.253 67.3492 207.244 67.344L207.249 67.3582Z" fill="#447CAC"/>
<path d="M205.571 67.5774C205.447 67.513 205.305 67.4925 205.168 67.5193C205.158 67.522 205.149 67.5266 205.141 67.5329C205.133 67.5392 205.126 67.5471 205.121 67.556C205.116 67.5649 205.113 67.5747 205.112 67.5848C205.111 67.595 205.112 67.6052 205.114 67.615C205.12 67.635 205.133 67.6519 205.151 67.6622C205.169 67.6725 205.19 67.6753 205.21 67.67H205.237H205.278H205.348L205.428 67.6888H205.447H205.46H205.472L205.493 67.6998C205.502 67.705 205.512 67.7083 205.522 67.7096C205.532 67.711 205.543 67.7103 205.553 67.7076C205.563 67.7049 205.572 67.7002 205.58 67.6939C205.588 67.6876 205.595 67.6797 205.6 67.6708C205.605 67.6618 205.609 67.6519 205.61 67.6417C205.611 67.6314 205.611 67.621 205.608 67.611C205.605 67.601 205.601 67.5916 205.594 67.5835C205.588 67.5753 205.58 67.5684 205.571 67.5632V67.5774Z" fill="#447CAC"/>
<path d="M207.746 70.4297C207.746 70.4297 206.862 71.7265 205.903 72.2116L205.894 71.681L205.865 71.0106C205.865 71.0106 205.828 70.9996 206.063 71.0498C206.613 71.1644 207.553 70.6369 207.746 70.4297Z" fill="#447CAC"/>
<path d="M179.51 71.1523H182.238V71.6956H179.51V71.1523Z" fill="white"/>
<path d="M178.263 66.4028C178.184 67.0647 178.177 67.7333 178.243 68.3967C178.258 68.8368 178.311 69.2748 178.4 69.7061C178.486 70.1299 178.715 70.5113 179.048 70.7862C179.221 70.9153 179.419 71.0068 179.629 71.0549C179.839 71.103 180.057 71.1067 180.268 71.0657C180.527 71.0255 180.776 70.9344 181 70.7975C181.223 70.6606 181.418 70.4807 181.571 70.2681C181.63 70.1849 181.493 70.1111 181.436 70.1881C180.965 70.8742 179.89 71.1897 179.18 70.6889C178.471 70.1881 178.46 69.2414 178.406 68.4799C178.336 67.8049 178.34 67.1243 178.416 66.4499C178.43 66.351 178.279 66.3086 178.259 66.4091L178.263 66.4028Z" fill="#447CAC"/>
<path d="M180.513 68.2194H180.522L180.505 68.2069C180.511 68.2103 180.516 68.2152 180.519 68.221L180.508 68.2053L180.518 68.2226L180.51 68.2037C180.511 68.2104 180.511 68.2174 180.51 68.2241V68.2069C180.509 68.2172 180.506 68.2273 180.502 68.2367L180.51 68.2179C180.507 68.2275 180.502 68.2365 180.496 68.2446L180.508 68.2289H180.5L180.516 68.2163H180.535H180.557H180.579H180.598L180.613 68.2289L180.626 68.2446L180.634 68.2618V68.2822V68.3026C180.636 68.2898 180.641 68.2776 180.648 68.2665L180.665 68.2226C180.67 68.2024 180.668 68.181 180.657 68.1629C180.647 68.1452 180.63 68.1322 180.61 68.1268C180.59 68.1215 180.568 68.1243 180.549 68.1347L180.533 68.1472C180.524 68.1569 180.517 68.1688 180.513 68.1818L180.499 68.2179C180.493 68.2296 180.488 68.2417 180.483 68.254C180.482 68.2644 180.482 68.2749 180.483 68.2854C180.483 68.3024 180.487 68.3191 180.496 68.334C180.506 68.3512 180.522 68.3644 180.541 68.3718C180.559 68.3791 180.58 68.3802 180.599 68.3749C180.615 68.37 180.63 68.3614 180.642 68.3497C180.65 68.3429 180.658 68.3344 180.664 68.3246C180.674 68.3097 180.682 68.2933 180.687 68.276C180.693 68.2592 180.696 68.2418 180.697 68.2241V68.2084V68.1755C180.685 68.1356 180.659 68.1017 180.623 68.0813C180.614 68.0758 180.603 68.0723 180.593 68.0709C180.582 68.0696 180.572 68.0704 180.561 68.0734C180.552 68.0761 180.543 68.0807 180.535 68.0869C180.527 68.0931 180.521 68.1008 180.516 68.1095C180.51 68.1182 180.506 68.1281 180.505 68.1384C180.504 68.1488 180.505 68.1593 180.508 68.1692C180.51 68.1792 180.515 68.1885 180.521 68.1966C180.527 68.2047 180.535 68.2114 180.544 68.2163L180.513 68.2194Z" fill="#447CAC"/>
<path d="M178.918 68.364H178.927L178.911 68.3514L178.925 68.3655L178.913 68.3498C178.917 68.355 178.921 68.3608 178.924 68.3671L178.914 68.3483C178.915 68.355 178.915 68.3619 178.914 68.3687V68.3483C178.916 68.356 178.916 68.364 178.914 68.3718V68.3514C178.915 68.3613 178.915 68.3713 178.914 68.3812V68.3624L178.9 68.3891L178.911 68.3734L178.903 68.3812L178.919 68.3687L178.938 68.3608H178.958H178.979L178.998 68.3687L179.013 68.3812L179.026 68.3969L179.034 68.4158V68.4472C179.036 68.4346 179.04 68.4225 179.046 68.4111L179.064 68.3671C179.067 68.3572 179.067 68.3467 179.066 68.3364C179.065 68.3261 179.061 68.3162 179.056 68.3074C179.046 68.29 179.029 68.2771 179.01 68.2713C178.989 68.266 178.968 68.2688 178.949 68.2792L178.933 68.2917C178.923 68.301 178.916 68.313 178.913 68.3263L178.897 68.3624C178.892 68.3742 178.887 68.3862 178.883 68.3985C178.881 68.4089 178.881 68.4195 178.883 68.4299C178.883 68.4472 178.888 68.4641 178.897 68.4786C178.907 68.4956 178.923 68.5088 178.941 68.5161C178.96 68.5235 178.98 68.5246 178.999 68.5194C179.015 68.5142 179.03 68.5056 179.043 68.4943C179.052 68.487 179.059 68.4786 179.065 68.4692C179.075 68.4539 179.083 68.4376 179.089 68.4205C179.093 68.4036 179.097 68.3862 179.098 68.3687V68.353C179.099 68.342 179.099 68.331 179.098 68.32C179.087 68.2804 179.061 68.2465 179.026 68.2258C179.017 68.2203 179.007 68.2168 178.996 68.2155C178.986 68.2141 178.975 68.215 178.965 68.218C178.945 68.2237 178.928 68.2365 178.918 68.2541C178.912 68.263 178.909 68.2729 178.908 68.2831C178.906 68.2933 178.907 68.3038 178.91 68.3137C178.916 68.3333 178.928 68.3501 178.946 68.3608L178.918 68.364Z" fill="#447CAC"/>
<path d="M182.216 68.4653C182.381 68.386 182.524 68.2677 182.634 68.1205C182.743 67.9733 182.815 67.8018 182.844 67.6206C182.861 67.5277 182.853 67.432 182.822 67.3429C182.791 67.2537 182.737 67.1742 182.666 67.1119C182.591 67.0587 182.503 67.0271 182.411 67.0207C182.32 67.0144 182.228 67.0334 182.147 67.0758C182.054 67.1242 181.975 67.1941 181.916 67.2797C181.856 67.3653 181.819 67.4639 181.806 67.5672C181.79 67.6661 181.941 67.7085 181.963 67.6081C181.971 67.515 182.006 67.4263 182.063 67.3525C182.121 67.2787 182.198 67.223 182.286 67.192C182.328 67.1787 182.371 67.1742 182.415 67.1787C182.458 67.1833 182.5 67.1967 182.538 67.2183C182.575 67.2398 182.608 67.269 182.634 67.3039C182.66 67.3389 182.678 67.3788 182.688 67.4212C182.718 67.6122 182.672 67.8072 182.559 67.9644C182.457 68.1208 182.314 68.2466 182.147 68.3287C182.055 68.3742 182.136 68.5092 182.225 68.4653H182.216Z" fill="#447CAC"/>
<path d="M182.449 67.4574C182.427 67.4444 182.402 67.4375 182.377 67.4375C182.352 67.4375 182.327 67.4444 182.306 67.4574C182.255 67.4891 182.218 67.5374 182.199 67.594C182.144 67.7202 182.119 67.8569 182.124 67.9943C182.125 67.9986 182.127 68.0024 182.131 68.005C182.135 68.0077 182.139 68.0091 182.143 68.0091C182.148 68.0091 182.152 68.0077 182.156 68.005C182.159 68.0024 182.162 67.9986 182.163 67.9943C182.158 67.8782 182.177 67.7624 182.218 67.6537C182.232 67.6015 182.258 67.5535 182.295 67.5139C182.312 67.4958 182.334 67.4839 182.359 67.4802C182.383 67.4765 182.408 67.4812 182.43 67.4935C182.45 67.5076 182.469 67.4731 182.449 67.459V67.4574Z" fill="#447CAC"/>
<path d="M182.331 67.6932C182.321 67.6775 182.305 67.6659 182.287 67.6601C182.269 67.6544 182.25 67.655 182.232 67.6618C182.196 67.6791 182.167 67.71 182.152 67.7481C182.149 67.7518 182.147 67.7566 182.147 67.7615C182.147 67.7664 182.149 67.7711 182.152 67.7748C182.156 67.778 182.161 67.7798 182.166 67.7798C182.171 67.7798 182.175 67.778 182.179 67.7748C182.185 67.7602 182.193 67.7464 182.203 67.734C182.211 67.7222 182.222 67.713 182.236 67.7073H182.248H182.264H182.273C182.286 67.7293 182.32 67.7073 182.308 67.6885L182.331 67.6932Z" fill="#447CAC"/>
<path d="M182.095 68.4004C182.066 69.4507 182.11 70.5073 182.176 71.5561C182.194 71.8355 182.215 72.1166 182.243 72.396C182.252 72.4949 182.409 72.4965 182.4 72.396C182.295 71.3284 182.256 70.253 182.243 69.1807C182.243 68.9216 182.243 68.661 182.243 68.3957C182.243 68.2952 182.086 68.2952 182.086 68.3957L182.095 68.4004Z" fill="#447CAC"/>
<path d="M179.367 70.9308C179.388 71.4725 179.444 72.0157 179.422 72.5573C179.422 72.5782 179.43 72.5981 179.445 72.6129C179.46 72.6276 179.48 72.6358 179.501 72.6358C179.521 72.6358 179.541 72.6276 179.556 72.6129C179.571 72.5981 179.579 72.5782 179.579 72.5573C179.601 72.0157 179.545 71.4725 179.524 70.9308C179.524 70.8303 179.367 70.8303 179.367 70.9308Z" fill="#447CAC"/>
<path d="M179.61 68.1488C179.574 68.4283 179.565 68.7107 179.584 68.9919C179.584 69.0126 179.592 69.0323 179.607 69.047C179.622 69.0616 179.641 69.07 179.662 69.0704C179.683 69.0704 179.703 69.0621 179.718 69.0474C179.732 69.0327 179.741 69.0127 179.741 68.9919C179.722 68.7107 179.731 68.4283 179.767 68.1488C179.767 68.1064 179.728 68.0703 179.689 68.0703C179.668 68.0707 179.648 68.0791 179.634 68.0937C179.619 68.1084 179.611 68.1281 179.61 68.1488Z" fill="#447CAC"/>
<path d="M180.874 67.3582C180.749 67.2945 180.607 67.274 180.47 67.3001C180.449 67.3057 180.432 67.3194 180.421 67.3381C180.41 67.3568 180.407 67.379 180.413 67.3998C180.419 67.4206 180.432 67.4383 180.451 67.4491C180.47 67.4598 180.492 67.4627 180.513 67.4571H180.532H180.572H180.645C180.672 67.4611 180.698 67.4674 180.725 67.4759H180.743H180.756H180.769L180.789 67.4869C180.807 67.4968 180.828 67.4994 180.848 67.4941C180.868 67.4889 180.885 67.4762 180.896 67.4586C180.906 67.4405 180.909 67.419 180.904 67.3987C180.898 67.3785 180.885 67.3611 180.867 67.3503L180.874 67.3582Z" fill="#447CAC"/>
<path d="M179.2 67.5769C179.075 67.5132 178.933 67.4928 178.796 67.5188C178.786 67.5214 178.777 67.5259 178.769 67.5321C178.76 67.5383 178.754 67.5462 178.748 67.5551C178.743 67.564 178.74 67.5739 178.739 67.5841C178.738 67.5943 178.738 67.6047 178.741 67.6146C178.747 67.6343 178.76 67.651 178.778 67.6612C178.796 67.6714 178.817 67.6744 178.837 67.6695H178.864H178.905H178.975C179.003 67.6695 179.03 67.6805 179.055 67.6884H179.076C179.076 67.6884 179.099 67.6962 179.087 67.6884H179.099L179.12 67.6994C179.138 67.71 179.159 67.713 179.18 67.7077C179.2 67.7024 179.217 67.6892 179.228 67.6711C179.239 67.653 179.242 67.6314 179.236 67.6111C179.231 67.5908 179.218 67.5734 179.2 67.5628V67.5769Z" fill="#447CAC"/>
<path d="M181.371 70.4297C181.371 70.4297 180.487 71.7265 179.528 72.2116L179.519 71.681L179.49 71.0106C179.49 71.0106 179.454 70.9996 179.688 71.0498C180.238 71.1644 181.178 70.6369 181.371 70.4297Z" fill="#447CAC"/>
<path d="M180.226 69.2714C180.177 69.3107 180.125 69.3444 180.069 69.3719L180.047 69.3813C180.066 69.3734 180.047 69.3813 180.037 69.3813L179.992 69.3986C179.961 69.4081 179.93 69.4159 179.899 69.4221C179.879 69.4283 179.863 69.4418 179.852 69.4599C179.842 69.478 179.839 69.4993 179.844 69.5194C179.85 69.5393 179.864 69.556 179.882 69.5662C179.9 69.5764 179.921 69.5793 179.941 69.5744C180.076 69.5464 180.202 69.4884 180.31 69.4048C180.328 69.3942 180.341 69.3774 180.347 69.3577C180.35 69.3475 180.35 69.3368 180.349 69.3263C180.348 69.3158 180.344 69.3056 180.339 69.2965C180.328 69.2787 180.311 69.2657 180.291 69.2604C180.271 69.2551 180.25 69.2579 180.232 69.2682L180.226 69.2714Z" fill="#447CAC"/>
<path d="M177.609 66.0251C177.539 66.139 177.503 66.2705 177.506 66.404C177.508 66.5375 177.549 66.6675 177.623 66.7787C177.78 66.9969 178.094 67.1728 178.722 67.0064C179.326 66.861 179.917 66.6662 180.488 66.4239C180.488 66.4239 180.071 66.6484 180.198 66.9938C180.325 67.3392 181.368 66.5715 181.368 66.5715C181.368 66.5715 181.539 67.3643 181.915 67.424C181.949 67.3263 182.013 67.2418 182.097 67.1828C182.182 67.1238 182.283 67.0933 182.386 67.0959C182.77 67.0833 182.801 67.5072 182.748 67.6752C182.694 67.8432 182.526 68.1949 182.434 68.2404C182.341 68.2859 182.164 68.2828 182.162 68.6973C182.16 69.1117 182.178 69.9988 182.178 69.9988C182.178 69.9988 182.401 70.0977 182.554 69.498C182.708 68.8982 183.134 67.7992 183.074 66.8023C183.074 66.8023 183.27 67.0566 183.492 66.9122C183.713 66.7677 183.603 66.2214 183.021 65.9231C183.021 65.9231 183.702 66.3234 183.566 65.719C183.429 65.1145 182.347 64.8586 182.014 65.1129C182.014 65.1129 180.854 63.835 180.535 64.1411C180.217 64.4473 180.43 64.7173 180.43 64.7173C180.43 64.7173 178.937 63.8601 178.4 64.4237C177.863 64.9873 178.49 65.3563 178.49 65.3563C178.49 65.3563 178.052 65.2574 177.609 66.0251Z" fill="#447CAC"/>
<path d="M177.901 66.7383C177.901 66.7383 177.607 67.225 177.734 67.4542C177.749 67.4844 177.771 67.5108 177.798 67.5315C177.825 67.5522 177.856 67.5668 177.889 67.5742C177.922 67.5815 177.956 67.5815 177.989 67.574C178.022 67.5666 178.053 67.5519 178.079 67.5311L178.32 68.3554L178.276 66.8027" fill="#447CAC"/>
<path d="M206.318 69.3651C206.312 69.3361 206.317 69.3059 206.332 69.2802C206.346 69.2545 206.37 69.2351 206.398 69.2254C206.555 69.1704 206.878 69.0857 206.911 69.2411C206.952 69.4405 206.425 69.8707 206.318 69.3651Z" fill="#447CAC" stroke="#447CAC" stroke-width="0.157" stroke-miterlimit="10"/>
<path d="M204.021 66.8688C204.021 66.8688 203.836 67.4968 204.473 67.4058C206.167 67.1593 206.671 66.3759 207.21 65.6631C207.21 65.6631 207.838 67.2582 208.324 67.3665C208.324 67.3665 208.846 66.974 208.982 67.1718C209.119 67.3697 209.172 67.7543 209.014 67.9647C208.92 68.0887 208.815 68.2034 208.7 68.307C208.7 68.307 208.474 68.3729 208.472 68.5707C208.471 68.7685 208.472 69.9068 208.472 69.9068C208.472 69.9068 210 68.5911 209.557 66.8955C209.186 65.4825 208.163 64.4777 207.422 64.9001C207.422 64.9001 205.762 64.0868 204.927 65.0147C204.452 65.5321 204.137 66.1761 204.021 66.8688Z" fill="#447CAC"/>
<path d="M204.021 66.8678C204.021 66.8678 203.569 68.3875 202.989 69.2228C202.531 69.8853 202.617 70.9309 202.887 71.3564C202.941 71.4342 202.973 71.525 202.98 71.6195C202.987 71.7139 202.969 71.8085 202.926 71.8933C202.817 72.1117 202.757 72.3515 202.75 72.5956C202.744 72.8398 202.791 73.0824 202.889 73.3063C202.92 73.4037 202.973 73.4927 203.044 73.5666C203.115 73.6406 203.201 73.6976 203.297 73.7334C203.423 73.7742 203.531 73.8596 203.599 73.9737C203.667 74.0878 203.691 74.2228 203.668 74.3535C203.576 74.8622 203.631 75.5059 204.443 75.6095C205.738 75.7822 206.081 74.644 206.026 73.4241C205.98 72.3957 205.914 71.5605 205.883 71.1994C205.878 71.1254 205.857 71.0533 205.822 70.988C205.787 70.9228 205.738 70.8658 205.679 70.821C205.661 70.8067 205.641 70.796 205.619 70.7896C205.53 70.7629 204.713 70.1616 204.719 68.7141C204.726 67.2665 204.647 66.48 204.98 66.4219" fill="#447CAC"/>
<path d="M208.524 72.0508C208.524 72.0508 212.851 72.5705 214.046 75.4357C215.241 78.301 210.945 82.4426 210.945 82.4426" stroke="#447CAC" stroke-width="0.157" stroke-miterlimit="10"/>
<path d="M203.995 71.3252C203.995 71.3252 199.315 69.8776 198.735 69.5982C199.564 68.1303 200.227 66.5748 200.712 64.9604C201.395 62.5395 202.247 62.6054 202.315 61.8565C202.382 61.1076 201.77 60.4922 201.77 60.4922" stroke="#447CAC" stroke-width="0.157" stroke-miterlimit="10"/>
<path d="M199.595 60.7109L199.816 61.463C199.849 61.5801 199.852 61.7036 199.824 61.8221C199.797 61.9406 199.74 62.0503 199.659 62.1412C198.808 63.124 196.227 66.1934 195.434 68.1559C194.48 70.5187 194.99 72.8062 201.06 74.921" stroke="#447CAC" stroke-width="0.157" stroke-miterlimit="10"/>
<path d="M201.369 61.1815L198.13 60.3259C198.036 60.3017 197.956 60.2423 197.905 60.1601C197.854 60.0779 197.837 59.9793 197.857 59.8847L199.304 52.9767C199.315 52.9261 199.336 52.8782 199.366 52.836C199.395 52.7937 199.434 52.7581 199.478 52.7311C199.522 52.7042 199.571 52.6866 199.622 52.6794C199.673 52.6723 199.726 52.6757 199.775 52.6894L203.444 53.6581C203.508 53.6752 203.566 53.7085 203.613 53.7547C203.66 53.801 203.693 53.8586 203.711 53.9219L204.14 55.4667C204.155 55.5249 204.155 55.586 204.14 55.6442L202.997 61.1815" stroke="#447CAC" stroke-width="0.157" stroke-miterlimit="10"/>
<path d="M193.519 82.4419L194.437 76.8512C194.461 76.7078 194.539 76.5792 194.655 76.4916L196.084 75.424C196.146 75.3777 196.217 75.3447 196.293 75.3271C196.369 75.3095 196.447 75.3078 196.524 75.322L199.35 75.8448C199.494 75.872 199.623 75.9547 199.708 76.0752C199.792 76.1957 199.827 76.3446 199.803 76.4901L199.375 79.079" stroke="#447CAC" stroke-width="0.157" stroke-miterlimit="10"/>
<path d="M197.78 78.8593C197.78 78.8593 198.856 78.6222 199.649 79.2628" stroke="#447CAC" stroke-width="0.157" stroke-miterlimit="10"/>
<path d="M200.031 78.2422C200.031 78.2422 200.772 78.5562 200.67 79.8279C201.488 80.3788 202.352 80.8579 203.253 81.2597C204.788 81.9505 206.026 82.4451 206.026 82.4451" stroke="#447CAC" stroke-width="0.157" stroke-miterlimit="10"/>
<path d="M197.934 79.7156L198.19 79.7391C198.2 79.7396 198.211 79.7379 198.22 79.7341C198.23 79.7303 198.239 79.7245 198.246 79.7171C198.254 79.7098 198.26 79.7009 198.263 79.6912C198.267 79.6815 198.269 79.6711 198.268 79.6606C198.269 79.6504 198.267 79.6403 198.263 79.6308C198.259 79.6213 198.254 79.6128 198.246 79.6057C198.231 79.5912 198.211 79.5828 198.19 79.5821L197.934 79.5586C197.913 79.5585 197.894 79.5664 197.879 79.5806C197.864 79.5957 197.856 79.6159 197.855 79.6371C197.856 79.6578 197.864 79.6775 197.879 79.692C197.895 79.7052 197.914 79.7134 197.934 79.7156Z" fill="#447CAC"/>
<path d="M198.031 80.455C198.064 80.4445 198.098 80.4372 198.133 80.433H198.112C198.17 80.4252 198.229 80.4252 198.287 80.433H198.265C198.284 80.4409 198.305 80.4409 198.324 80.433C198.342 80.4225 198.355 80.4055 198.36 80.3855C198.366 80.3655 198.363 80.3442 198.353 80.3263C198.348 80.3171 198.341 80.3091 198.333 80.3029C198.325 80.2967 198.315 80.2923 198.305 80.2902C198.197 80.2734 198.087 80.2804 197.982 80.3106C197.961 80.3162 197.943 80.3299 197.933 80.3486C197.922 80.3672 197.919 80.3895 197.925 80.4103C197.93 80.4311 197.944 80.4488 197.963 80.4596C197.981 80.4703 198.004 80.4732 198.024 80.4676L198.031 80.455Z" fill="#447CAC"/>
<path d="M198.082 81.3237C198.339 81.2389 198.553 81.4446 198.757 81.578C198.953 81.7083 199.168 81.8058 199.395 81.8669C199.508 81.8983 199.628 81.9062 199.738 81.9454C199.799 81.9733 199.853 82.0146 199.895 82.0663C200.015 82.1783 200.113 82.3114 200.184 82.4588C200.224 82.5499 200.374 82.5106 200.341 82.4164C200.265 82.2546 200.162 82.1074 200.035 81.9815C199.985 81.9203 199.925 81.8673 199.858 81.8245C199.745 81.7765 199.626 81.7448 199.504 81.7303C199.234 81.6649 198.98 81.547 198.756 81.3834C198.545 81.2264 198.31 81.0835 198.043 81.1714C197.947 81.2012 197.988 81.3535 198.085 81.3284L198.082 81.3237Z" fill="#447CAC"/>
<path d="M198.402 70.1038C198.589 69.9241 198.753 69.7209 198.887 69.4993C198.941 69.413 198.804 69.3344 198.752 69.4192C198.624 69.6294 198.469 69.822 198.291 69.9923C198.217 70.0629 198.329 70.1728 198.402 70.1038Z" fill="#447CAC"/>
<path d="M202.107 70.681C201.493 72.0953 201.114 73.6003 200.984 75.1367C200.985 75.1538 200.99 75.1705 201 75.1843C201.01 75.1981 201.025 75.2084 201.041 75.2136L201.784 75.5276L201.736 75.413C201.452 76.0046 201.277 76.6429 201.22 77.297C201.137 78.228 201.399 79.17 201.713 80.0398C201.791 80.258 201.87 80.4763 201.969 80.6882C202.01 80.7808 202.145 80.7008 202.104 80.6097C201.866 80.0685 201.677 79.5074 201.539 78.933C201.276 78.0188 201.303 77.0457 201.617 76.1478C201.686 75.9217 201.771 75.7008 201.871 75.4868C201.877 75.4765 201.881 75.465 201.882 75.4532C201.883 75.4414 201.881 75.4295 201.876 75.4185C201.872 75.4074 201.865 75.3975 201.856 75.3895C201.848 75.3815 201.837 75.3756 201.826 75.3722L201.083 75.0582L201.141 75.1336C201.267 73.6244 201.638 72.1459 202.24 70.7564C202.28 70.6653 202.145 70.5853 202.104 70.6779L202.107 70.681Z" fill="#447CAC"/>
<path d="M207.856 78.575C209.105 79.0332 210.301 79.6243 211.424 80.3381C211.709 80.5258 211.979 80.7358 212.231 80.9661C212.305 81.0336 212.417 80.9237 212.343 80.8546C211.863 80.4322 211.336 80.0661 210.773 79.7635C210.161 79.4213 209.532 79.1111 208.889 78.834C208.562 78.6906 208.233 78.5551 207.901 78.4274C207.807 78.3913 207.766 78.542 207.859 78.5844L207.856 78.575Z" fill="#447CAC"/>
<path d="M169.784 82.435C168.54 82.435 167.395 81.7587 166.795 80.6697L164.791 77.0348C164.191 75.9458 163.046 75.2695 161.802 75.2695H126.056C123.987 75.2695 122.394 77.0945 122.674 79.1438L129.169 126.768C129.4 128.46 130.844 129.72 132.551 129.72H227.758C229.854 129.72 231.455 127.848 231.13 125.778L224.776 85.3185C224.515 83.6583 223.084 82.435 221.404 82.435H169.784Z" fill="#FAFDFF"/>
<path d="M181.503 82.435H169.784C168.54 82.435 167.395 81.7587 166.795 80.6697L164.791 77.0348C164.191 75.9458 163.046 75.2695 161.802 75.2695H126.056C123.987 75.2695 122.394 77.0945 122.674 79.1438L129.169 126.768C129.4 128.46 130.844 129.72 132.551 129.72H227.758C229.854 129.72 231.455 127.848 231.13 125.778L224.776 85.3185C224.515 83.6583 223.084 82.435 221.404 82.435H183.575" stroke="#447CAC" stroke-width="0.157" stroke-miterlimit="10"/>
<path d="M206.1 82.4508C207.023 81.3287 207.885 80.1568 208.681 78.9403C208.736 78.8555 208.601 78.7833 208.544 78.8618C207.756 80.067 206.902 81.2284 205.988 82.3409C205.924 82.4179 206.035 82.5293 206.1 82.4508Z" fill="#447CAC"/>
<path d="M205.146 74.4367C205.495 74.7563 205.907 74.9988 206.356 75.1484C206.805 75.298 207.28 75.3513 207.751 75.3049C208.673 75.2072 209.524 74.7634 210.132 74.063C210.475 73.674 210.741 73.2239 210.917 72.7364C210.952 72.6406 210.8 72.5998 210.76 72.694C210.457 73.5255 209.88 74.2292 209.125 74.6895C208.741 74.9183 208.315 75.0678 207.872 75.129C207.429 75.1902 206.978 75.1619 206.547 75.0458C206.06 74.9158 205.613 74.6671 205.245 74.3221C205.171 74.253 205.06 74.3645 205.134 74.4335L205.146 74.4367Z" fill="#447CAC"/>
<path d="M212.491 80.6445L212.103 82.3919H211.39C211.39 82.3919 210.902 82.505 211.416 81.9335C211.929 81.362 212.491 80.6445 212.491 80.6445Z" fill="#447CAC" stroke="#447CAC" stroke-width="0.157" stroke-miterlimit="10"/>
<path d="M198.931 81.5938L198.816 82.396L198.931 81.5938Z" fill="#447CAC"/>
<path d="M198.931 81.5938L198.816 82.396" stroke="#447CAC" stroke-width="0.157" stroke-miterlimit="10"/>
<path d="M203.292 53.9261C203.195 54.1161 203.105 54.3092 203.022 54.507C202.93 54.6928 202.86 54.8888 202.813 55.0911C202.783 55.2826 202.9 55.3753 203.053 55.4569L203.671 55.7787C203.758 55.8258 203.838 55.6908 203.749 55.6437L203.239 55.3753C203.159 55.3417 203.083 55.3002 203.011 55.2512C202.94 55.1947 202.966 55.1052 202.989 55.0299C203.108 54.6773 203.255 54.3349 203.429 54.0062C203.474 53.9152 203.339 53.8367 203.292 53.9261Z" fill="#447CAC"/>
<path d="M194.931 76.9986C195.154 77.085 195.38 77.165 195.61 77.2404C195.723 77.2781 195.837 77.3126 195.953 77.3471C196.043 77.3738 196.167 77.4351 196.252 77.366C196.337 77.2969 196.34 77.1729 196.362 77.0849C196.389 76.973 196.411 76.8599 196.428 76.7458C196.459 76.5186 196.47 76.2889 196.459 76.0597C196.459 75.9593 196.302 75.9593 196.302 76.0597C196.313 76.2641 196.305 76.469 196.28 76.672C196.267 76.7709 196.25 76.8683 196.228 76.9656C196.217 77.0174 196.203 77.0692 196.189 77.1226C196.189 77.143 196.169 77.2372 196.151 77.2435C196.134 77.2498 196.046 77.2137 196.021 77.2058L195.875 77.1619L195.572 77.0645C195.371 76.997 195.17 76.9248 194.972 76.8479C194.878 76.8118 194.837 76.9641 194.931 77.0049V76.9986Z" fill="#447CAC"/>
<path d="M201.684 79.7007C201.808 79.7242 204.039 80.9567 205.934 80.5092C207.829 80.0618 208.526 79.0366 208.491 79.0962C208.457 79.1559 206.887 81.3476 206.742 81.5313C206.598 81.715 206.284 82.5502 205.753 82.3304C205.222 82.1106 202.531 80.9174 202.531 80.9174C202.531 80.9174 202.018 80.6301 201.903 80.3475" fill="#447CAC"/>
<path d="M179.489 72.3516C179.489 72.3516 176.298 71.9167 175.275 72.5557C174.253 73.1946 171.978 80.3319 171.978 80.3319C171.978 80.3319 166.144 76.7193 165.73 76.7507C165.73 76.7507 165.653 75.446 165.039 75.063" stroke="#447CAC" stroke-width="0.157" stroke-miterlimit="10"/>
<path d="M164.003 74.6304C164.248 74.958 164.481 75.2934 164.702 75.6367C164.755 75.7215 164.892 75.6367 164.837 75.5582C164.616 75.2139 164.383 74.8784 164.138 74.5519C164.127 74.5361 164.11 74.5252 164.091 74.5212C164.072 74.5172 164.052 74.5204 164.035 74.5302C164.018 74.5399 164.006 74.5556 164 74.5741C163.994 74.5926 163.995 74.6127 164.003 74.6304Z" fill="#447CAC"/>
<path d="M163.351 74.9541L163.362 74.9635L163.381 74.9792C163.394 74.9899 163.406 75.0014 163.417 75.0137L163.453 75.0514C163.457 75.0588 163.463 75.0657 163.469 75.0718C163.459 75.0592 163.469 75.0718 163.469 75.0718C163.471 75.076 163.473 75.0798 163.477 75.0828C163.496 75.1106 163.514 75.1395 163.53 75.1691L163.552 75.2147C163.552 75.2037 163.56 75.2319 163.552 75.2147V75.2272L163.561 75.2539C163.564 75.2642 163.569 75.2739 163.576 75.2824C163.582 75.2908 163.59 75.2979 163.599 75.3032C163.609 75.3085 163.619 75.312 163.63 75.3134C163.64 75.3147 163.651 75.314 163.661 75.3112C163.671 75.3084 163.681 75.3037 163.69 75.2971C163.698 75.2906 163.705 75.2825 163.71 75.2732C163.716 75.264 163.719 75.2538 163.721 75.2432C163.722 75.2326 163.721 75.2218 163.718 75.2115C163.665 75.0558 163.565 74.92 163.433 74.8222C163.414 74.8145 163.392 74.8145 163.373 74.8222C163.354 74.8281 163.337 74.841 163.326 74.8583C163.316 74.8765 163.313 74.898 163.318 74.9182C163.323 74.9385 163.336 74.9558 163.354 74.9666L163.351 74.9541Z" fill="#447CAC"/>
<path d="M162.793 75.0823C162.817 75.0962 162.841 75.1114 162.863 75.1278L162.896 75.1514H162.904L162.922 75.1671C162.965 75.2025 163.005 75.2414 163.042 75.2833C163.05 75.2906 163.058 75.2965 163.068 75.3004C163.078 75.3044 163.088 75.3065 163.098 75.3065C163.109 75.3065 163.119 75.3044 163.128 75.3004C163.138 75.2965 163.147 75.2906 163.154 75.2833C163.168 75.2684 163.176 75.2487 163.176 75.2283C163.176 75.2079 163.168 75.1882 163.154 75.1734C163.074 75.0828 162.98 75.0054 162.876 74.9441C162.858 74.9338 162.836 74.9309 162.816 74.9362C162.796 74.9415 162.778 74.9545 162.768 74.9724C162.758 74.9904 162.755 75.0116 162.76 75.0314C162.766 75.0513 162.778 75.0684 162.796 75.0792L162.793 75.0823Z" fill="#447CAC"/>
<path d="M182.321 72.3906C182.423 72.2964 186.493 70.9619 187.345 73.1756C188.198 75.3893 189.05 79.633 189.152 82.3915" stroke="#447CAC" stroke-width="0.157" stroke-miterlimit="10"/>
<path d="M184.55 80.8888C184.55 80.8888 183.167 79.8997 182.239 80.8888C181.971 81.16 181.766 81.4871 181.639 81.8468C181.512 82.2064 181.466 82.5896 181.504 82.9691" stroke="#447CAC" stroke-width="0.157" stroke-miterlimit="10"/>
<path d="M182.136 83.0356C182.092 82.7687 182.072 82.4531 182.271 82.2412C182.34 82.1674 182.231 82.0559 182.16 82.1297C181.918 82.3872 181.931 82.7577 181.984 83.0717C181.99 83.0917 182.003 83.1087 182.022 83.119C182.04 83.1292 182.061 83.132 182.081 83.1266C182.101 83.1205 182.117 83.1072 182.128 83.0895C182.138 83.0717 182.141 83.0508 182.136 83.0309V83.0356Z" fill="#447CAC"/>
<path d="M182.763 82.9119C182.735 82.8161 182.73 82.715 182.749 82.617C182.768 82.519 182.81 82.4269 182.871 82.3483C182.881 82.33 182.884 82.3087 182.879 82.2885C182.874 82.2684 182.861 82.251 182.843 82.24C182.825 82.2304 182.804 82.2279 182.784 82.2332C182.763 82.2384 182.746 82.2509 182.735 82.2682C182.663 82.3655 182.615 82.4779 182.593 82.597C182.572 82.716 182.579 82.8383 182.612 82.9543C182.618 82.9752 182.632 82.9929 182.65 83.0036C182.669 83.0144 182.691 83.0173 182.712 83.0116C182.733 83.006 182.751 82.9923 182.761 82.9737C182.772 82.955 182.775 82.9328 182.769 82.9119H182.763Z" fill="#447CAC"/>
<path d="M183.471 82.8975C183.483 82.7981 183.505 82.7003 183.537 82.6055C183.545 82.5718 183.561 82.5406 183.584 82.5144C183.615 82.4884 183.654 82.474 183.694 82.4736C183.868 82.4209 184.019 82.3101 184.121 82.1596L184.044 82.18C184.021 82.1643 184.013 82.1596 184.024 82.1706L184.041 82.2004C184.052 82.2208 184.063 82.2428 184.072 82.2648C184.099 82.3292 184.121 82.3967 184.141 82.4642C184.147 82.485 184.161 82.5027 184.179 82.5135C184.198 82.5242 184.22 82.5271 184.241 82.5215C184.262 82.5159 184.28 82.5022 184.29 82.4835C184.301 82.4648 184.304 82.4426 184.298 82.4218C184.274 82.3361 184.243 82.2522 184.207 82.1706C184.189 82.111 184.147 82.061 184.093 82.0309C184.079 82.0266 184.065 82.0262 184.051 82.0298C184.038 82.0334 184.025 82.0409 184.016 82.0513C183.96 82.1238 183.895 82.1891 183.823 82.246C183.789 82.2719 183.75 82.2921 183.71 82.3056C183.663 82.3213 183.612 82.3229 183.567 82.3417C183.522 82.3635 183.483 82.395 183.453 82.4338C183.422 82.4727 183.4 82.5179 183.389 82.5662C183.356 82.6732 183.333 82.7831 183.32 82.8944C183.32 82.9152 183.329 82.9352 183.343 82.9499C183.358 82.9646 183.378 82.9729 183.399 82.9729C183.42 82.9729 183.44 82.9646 183.454 82.9499C183.469 82.9352 183.477 82.9152 183.477 82.8944L183.471 82.8975Z" fill="#447CAC"/>
<path d="M181.19 82.1885L181.391 81.84C181.401 81.822 181.404 81.8008 181.399 81.7808C181.393 81.7608 181.38 81.7437 181.363 81.7332C181.344 81.7228 181.323 81.72 181.303 81.7252C181.282 81.7305 181.265 81.7435 181.254 81.7615L181.055 82.1084C181.044 82.1264 181.041 82.1478 181.046 82.168C181.051 82.1882 181.064 82.2057 181.082 82.2168C181.1 82.2267 181.121 82.2294 181.141 82.2241C181.161 82.2189 181.179 82.2061 181.19 82.1885Z" fill="#447CAC"/>
<path d="M178.7 72.3444C178.828 72.7295 179.046 73.0788 179.335 73.3634C179.625 73.6481 179.977 73.8601 180.365 73.9819C180.745 74.0923 181.147 74.0987 181.531 74.0004C181.914 73.9021 182.264 73.7027 182.544 73.423C182.866 73.1128 183.078 72.7051 183.147 72.2627C183.161 72.1638 183.01 72.1215 182.99 72.2204C182.927 72.585 182.766 72.9258 182.525 73.2062C182.283 73.4866 181.97 73.6961 181.619 73.8123C181.263 73.924 180.885 73.9401 180.521 73.859C180.157 73.778 179.821 73.6027 179.547 73.3508C179.224 73.0699 178.982 72.7078 178.846 72.302C178.815 72.2078 178.664 72.2486 178.689 72.3444H178.7Z" fill="#447CAC"/>
<path d="M176.028 75.9035C175.871 77.5991 175.731 79.2994 175.557 80.9934C175.512 81.463 175.437 81.9292 175.333 82.3892C175.309 82.4865 175.461 82.5289 175.49 82.43C175.656 81.6159 175.766 80.7912 175.818 79.9619L176.058 77.3667L176.194 75.9035C176.204 75.803 176.047 75.803 176.037 75.9035H176.028Z" fill="#447CAC"/>
<path d="M171.866 80.3599C172.103 80.5426 172.293 80.7788 172.422 81.0491C172.432 81.0669 172.449 81.0799 172.469 81.0852C172.489 81.0905 172.511 81.0877 172.529 81.0774C172.546 81.0666 172.559 81.0492 172.565 81.029C172.57 81.0087 172.567 80.9872 172.557 80.969C172.422 80.6866 172.223 80.4397 171.976 80.2484C171.961 80.2344 171.941 80.2266 171.921 80.2266C171.901 80.2266 171.881 80.2344 171.866 80.2484C171.859 80.2557 171.853 80.2644 171.849 80.2739C171.845 80.2835 171.843 80.2938 171.843 80.3041C171.843 80.3145 171.845 80.3248 171.849 80.3343C171.853 80.3439 171.859 80.3526 171.866 80.3599Z" fill="#447CAC"/>
<path d="M172.795 77.953C172.86 78.0235 172.943 78.075 173.035 78.1021C173.156 78.147 173.275 78.1994 173.39 78.2591L174.143 78.6281L175.668 79.3754C175.757 79.4209 175.837 79.2844 175.746 79.2404L174.258 78.5103L173.522 78.1492C173.41 78.0943 173.299 78.0315 173.183 77.9922C173.079 77.9683 172.983 77.918 172.905 77.8462C172.839 77.7693 172.729 77.8808 172.795 77.9577V77.953Z" fill="#447CAC"/>
<path d="M184.811 79.1852C185.471 79.0553 186.119 78.8656 186.745 78.6184C187.371 78.3837 187.968 78.0799 188.527 77.7125C188.61 77.656 188.527 77.5194 188.448 77.5759C187.893 77.9431 187.297 78.246 186.673 78.4787C186.056 78.7201 185.418 78.9061 184.768 79.0345C184.669 79.0533 184.712 79.2056 184.811 79.1915V79.1852Z" fill="#447CAC"/>
<path d="M184.414 80.8936C184.85 81.173 185.255 81.4982 185.622 81.8639C185.635 81.8753 185.651 81.8824 185.668 81.8842C185.685 81.8859 185.702 81.8823 185.717 81.8737C185.731 81.8651 185.743 81.8521 185.75 81.8365C185.756 81.8209 185.758 81.8035 185.754 81.7869C185.477 80.9005 185.249 79.9995 185.071 79.0881C185.053 78.9892 184.902 79.03 184.914 79.1289C185.093 80.0407 185.32 80.9421 185.596 81.8293L185.728 81.7524C185.35 81.3775 184.934 81.0439 184.486 80.757C184.401 80.7036 184.321 80.8386 184.407 80.8936H184.414Z" fill="#447CAC"/>
<path d="M208.979 78.9531C208.979 78.9531 211.462 80.9564 211.68 81.9785L212.287 81.1935C212.287 81.1935 212.674 80.9517 211.834 80.4603C210.994 79.9689 208.979 78.9531 208.979 78.9531Z" fill="#447CAC"/>
<path d="M185.287 79.0546C185.287 79.0546 187.78 79.2728 188.688 78.7861L188.59 77.8975C188.59 77.8975 188.666 77.5647 188.22 77.8174" fill="#447CAC"/>
<path d="M185.494 81.7145C185.561 81.8128 185.636 81.9062 185.716 81.994C185.753 82.0332 185.792 82.0693 185.828 82.1102C185.862 82.1454 185.89 82.187 185.908 82.2326C185.919 82.2505 185.936 82.2635 185.956 82.2688C185.977 82.2741 185.998 82.2712 186.016 82.2609C186.034 82.2496 186.046 82.2322 186.051 82.2122C186.057 82.1921 186.054 82.1709 186.045 82.1525C185.992 82.056 185.923 81.9694 185.841 81.8966C185.764 81.8149 185.693 81.7278 185.629 81.636C185.624 81.626 185.617 81.6171 185.609 81.6097C185.601 81.6024 185.591 81.5969 185.581 81.5936C185.57 81.5902 185.559 81.5891 185.549 81.5903C185.538 81.5915 185.527 81.595 185.518 81.6005C185.508 81.606 185.5 81.6134 185.493 81.6223C185.487 81.6313 185.482 81.6414 185.48 81.6522C185.478 81.6629 185.478 81.674 185.48 81.6847C185.483 81.6955 185.487 81.7056 185.494 81.7145Z" fill="#447CAC"/>
<path d="M167.069 81.3522C167.459 81.8223 167.929 82.2198 168.457 82.5266C168.475 82.5368 168.496 82.5395 168.516 82.5343C168.536 82.529 168.553 82.5161 168.563 82.4984C168.574 82.4807 168.577 82.4596 168.572 82.4396C168.567 82.4196 168.555 82.4024 168.537 82.3916C168.021 82.0903 167.562 81.7008 167.181 81.2408C167.116 81.1638 167.005 81.2753 167.069 81.3522Z" fill="#447CAC"/>
<path d="M173.45 78.1992C173.45 78.1992 175.394 80.7395 175.552 81.6281L175.755 79.9137C175.755 79.9137 176.047 79.3547 175.518 79.1554" fill="#447CAC"/>
<path d="M178.957 80.6778C178.533 80.3532 178.214 79.9122 178.038 79.4087C177.862 78.9053 177.837 78.3615 177.966 77.844C178.095 77.3151 178.381 76.8374 178.785 76.4733C179.225 76.0889 179.745 75.8078 180.307 75.6507C180.579 75.5676 180.866 75.5411 181.149 75.5727C181.432 75.6043 181.706 75.6933 181.954 75.8343C182.417 76.1256 182.774 76.559 182.971 77.0699C183.168 77.5568 183.228 78.0881 183.145 78.6066C183.062 79.1251 182.839 79.611 182.5 80.0121C182.118 80.457 181.597 80.7592 181.021 80.8693C180.346 80.9981 179.652 80.885 178.991 80.7359C178.966 80.7359 178.955 80.7689 178.98 80.7736C179.591 80.9352 180.225 80.9883 180.855 80.9306C181.39 80.8643 181.893 80.6352 182.294 80.2743C182.686 79.9098 182.97 79.4439 183.113 78.9282C183.257 78.4125 183.255 77.8672 183.108 77.3525C182.965 76.8238 182.667 76.3503 182.25 75.9945C182.039 75.816 181.794 75.6822 181.53 75.6013C181.266 75.5203 180.988 75.4939 180.713 75.5235C180.114 75.6092 179.546 75.8417 179.059 76.2002C178.601 76.5111 178.247 76.9517 178.041 77.4656C177.843 77.9702 177.795 78.5214 177.903 79.0526C178.011 79.5839 178.271 80.0725 178.65 80.4596C178.739 80.5477 178.834 80.6291 178.935 80.7029C178.955 80.7186 178.975 80.6841 178.955 80.6684L178.957 80.6778Z" fill="#447CAC"/>
<path d="M179.431 80.0816C179.134 79.8536 178.911 79.5438 178.788 79.1903C178.665 78.8369 178.649 78.4552 178.74 78.0924C178.938 77.3074 179.632 76.7595 180.397 76.5601C180.589 76.5035 180.791 76.4875 180.989 76.5132C181.188 76.5389 181.379 76.6056 181.551 76.7092C181.868 76.9145 182.11 77.2161 182.243 77.5696C182.378 77.9106 182.418 78.2821 182.358 78.644C182.297 79.0059 182.139 79.3444 181.901 79.6232C181.634 79.931 181.271 80.1396 180.871 80.2151C180.398 80.2798 179.918 80.2478 179.458 80.1208C179.433 80.1208 179.422 80.1538 179.447 80.1585C179.88 80.2754 180.331 80.3131 180.778 80.27C181.153 80.2199 181.503 80.0555 181.781 79.799C182.056 79.5421 182.254 79.2144 182.354 78.852C182.454 78.4897 182.452 78.1067 182.348 77.7454C182.138 76.9981 181.488 76.3827 180.678 76.4643C180.251 76.5197 179.846 76.6817 179.499 76.9353C179.243 77.1095 179.033 77.3419 178.884 77.6134C178.736 77.8849 178.654 78.1878 178.646 78.497C178.638 78.8062 178.703 79.1129 178.837 79.392C178.97 79.671 179.168 79.9144 179.414 80.102C179.434 80.1177 179.453 80.0832 179.434 80.069L179.431 80.0816Z" fill="#447CAC"/>
<path d="M179.895 79.3613C179.723 79.228 179.593 79.0469 179.523 78.8406C179.453 78.6344 179.445 78.4119 179.5 78.2011C179.567 77.9861 179.689 77.7924 179.855 77.6393C180.02 77.4861 180.222 77.3789 180.442 77.3281C180.555 77.2927 180.674 77.2814 180.792 77.2949C180.909 77.3084 181.023 77.3465 181.125 77.4066C181.315 77.5285 181.459 77.7103 181.534 77.9232C181.609 78.1186 181.63 78.3305 181.594 78.5366C181.558 78.7427 181.468 78.9354 181.332 79.0944C180.963 79.5167 180.415 79.4963 179.919 79.3833C179.894 79.3833 179.883 79.4147 179.908 79.4209C180.379 79.5277 180.905 79.5607 181.286 79.2043C181.445 79.0526 181.559 78.8602 181.616 78.6481C181.673 78.436 181.67 78.2124 181.608 78.0017C181.481 77.5558 181.089 77.1994 180.607 77.2559C180.374 77.2841 180.152 77.3709 179.963 77.5082C179.773 77.6455 179.621 77.8288 179.522 78.0409C179.426 78.275 179.411 78.5338 179.477 78.7778C179.543 79.0217 179.687 79.2372 179.888 79.3911C179.906 79.4068 179.927 79.3723 179.906 79.3581L179.895 79.3613Z" fill="#447CAC"/>
<path d="M180.31 78.7606C180.25 78.714 180.205 78.6507 180.181 78.5786C180.157 78.5066 180.154 78.429 180.174 78.3555C180.197 78.2799 180.241 78.2119 180.299 78.1584C180.358 78.1049 180.429 78.0678 180.507 78.0509C180.583 78.0322 180.664 78.0428 180.732 78.0806C180.801 78.1184 180.854 78.1806 180.879 78.255C180.906 78.3241 180.913 78.3993 180.9 78.4723C180.888 78.5454 180.855 78.6136 180.807 78.6695C180.741 78.7296 180.66 78.7705 180.573 78.7877C180.486 78.8049 180.395 78.7977 180.312 78.7668C180.287 78.7668 180.276 78.7982 180.301 78.8045C180.386 78.8346 180.477 78.8427 180.566 78.8282C180.655 78.8136 180.739 78.7769 180.81 78.7213C180.869 78.6648 180.911 78.593 180.931 78.514C180.952 78.435 180.95 78.3519 180.926 78.2739C180.907 78.1923 180.859 78.1201 180.792 78.0701C180.725 78.0201 180.642 77.9955 180.558 78.0007C180.471 78.0108 180.387 78.0434 180.316 78.0954C180.245 78.1474 180.188 78.217 180.152 78.2974C180.118 78.3839 180.113 78.4791 180.138 78.5686C180.163 78.6582 180.216 78.7371 180.29 78.7935C180.31 78.8092 180.329 78.7747 180.31 78.7606Z" fill="#447CAC"/>
<path d="M166.474 55.4502L168.365 62.4917L170.259 69.5347L171.317 73.4722C171.319 73.476 171.323 73.4789 171.327 73.4804C171.331 73.482 171.336 73.4822 171.34 73.481C171.344 73.4797 171.348 73.4771 171.351 73.4736C171.353 73.47 171.355 73.4657 171.355 73.4612L169.463 66.4198L167.569 59.3768L166.514 55.4392C166.512 55.4355 166.509 55.4326 166.504 55.431C166.5 55.4294 166.496 55.4293 166.491 55.4305C166.487 55.4317 166.483 55.4343 166.481 55.4379C166.478 55.4415 166.477 55.4458 166.477 55.4502H166.474Z" fill="#447CAC"/>
<path d="M165.532 69.6804C166.142 70.8414 166.691 72.033 167.178 73.2505C167.187 73.2741 167.225 73.2631 167.215 73.2396C166.729 72.0171 166.181 70.8202 165.573 69.6537C165.562 69.6317 165.528 69.6537 165.54 69.6741L165.532 69.6804Z" fill="#447CAC"/>
<path d="M191.24 62.8118C191.135 64.3515 191.077 65.8937 191.065 67.4386C191.065 67.8751 191.065 68.3115 191.065 68.748C191.067 68.7522 191.069 68.756 191.073 68.7587C191.076 68.7613 191.081 68.7628 191.085 68.7628C191.089 68.7628 191.094 68.7613 191.097 68.7587C191.101 68.756 191.103 68.7522 191.105 68.748C191.095 67.2041 191.129 65.6608 191.207 64.118C191.229 63.6832 191.254 63.2467 191.282 62.8118C191.282 62.7867 191.244 62.7867 191.243 62.8118H191.24Z" fill="#447CAC"/>
<path d="M193.048 70.4835L192.673 74.677C192.673 74.7021 192.709 74.7021 192.712 74.677L193.081 70.4804C193.081 70.4537 193.043 70.4553 193.042 70.4804L193.048 70.4835Z" fill="#447CAC"/>
<path d="M218.249 59.0334L216.255 64.464L214.262 69.8947L213.145 72.953C213.137 72.9766 213.174 72.9876 213.182 72.964L215.175 67.5334L217.167 62.1027L218.29 59.0475C218.29 59.024 218.26 59.013 218.252 59.0365L218.249 59.0334Z" fill="#447CAC"/>
<path d="M219.876 69.7668C219.163 71.1547 218.401 72.5153 217.591 73.8488C217.361 74.2256 217.129 74.6008 216.892 74.9713C216.89 74.9758 216.89 74.9807 216.892 74.9852C216.893 74.9897 216.897 74.9935 216.901 74.9959C216.905 74.9983 216.91 74.9992 216.914 74.9985C216.919 74.9977 216.923 74.9953 216.926 74.9918C217.764 73.674 218.553 72.328 219.294 70.9537C219.503 70.5644 219.708 70.1745 219.909 69.7841C219.922 69.7605 219.887 69.7417 219.876 69.7637V69.7668Z" fill="#447CAC"/>
<path d="M217.746 80.8271L218.974 78.7861C218.987 78.7657 218.954 78.7453 218.939 78.7673L217.712 80.8083C217.699 80.8303 217.734 80.8491 217.746 80.8287V80.8271Z" fill="#447CAC"/>
<path d="M221.528 67.6356L221.63 67.5336C221.632 67.5319 221.634 67.5297 221.636 67.5271C221.638 67.5245 221.639 67.5216 221.639 67.5186C221.639 67.5156 221.639 67.5125 221.638 67.5097C221.637 67.5068 221.635 67.5042 221.633 67.5021C221.631 67.4999 221.628 67.4983 221.625 67.4973C221.623 67.4963 221.619 67.4959 221.616 67.4962C221.613 67.4965 221.611 67.4975 221.608 67.4991C221.605 67.5006 221.603 67.5028 221.601 67.5053L221.499 67.6074C221.497 67.609 221.495 67.6112 221.493 67.6138C221.492 67.6164 221.491 67.6193 221.49 67.6223C221.49 67.6254 221.49 67.6284 221.491 67.6313C221.492 67.6341 221.494 67.6367 221.496 67.6389C221.498 67.641 221.501 67.6426 221.504 67.6437C221.507 67.6447 221.51 67.645 221.513 67.6447C221.516 67.6444 221.519 67.6434 221.521 67.6419C221.524 67.6403 221.526 67.6382 221.528 67.6356Z" fill="#447CAC"/>
<path d="M154.758 64.1209C155.949 66.3064 157.123 68.5012 158.279 70.7055C158.606 71.3251 158.93 71.9458 159.251 72.5675C159.263 72.5895 159.296 72.5675 159.285 72.5471C158.134 70.3387 156.97 68.1407 155.792 65.9531C155.459 65.3377 155.126 64.7222 154.791 64.1068C154.78 64.0848 154.745 64.1068 154.758 64.1272V64.1209Z" fill="#447CAC"/>
<path d="M184.24 52.163C184.24 50.2069 182.654 48.6211 180.698 48.6211C178.742 48.6211 177.156 50.2069 177.156 52.163C177.156 54.1192 178.742 55.7049 180.698 55.7049C182.654 55.7049 184.24 54.1192 184.24 52.163Z" fill="#FF6679"/>
<path d="M229.139 72.8575V69.7253C229.14 69.614 229.111 69.5046 229.056 69.4079C229.001 69.3113 228.921 69.2307 228.825 69.1742L226.112 67.6042C226.016 67.5487 225.906 67.5195 225.795 67.5195C225.683 67.5195 225.573 67.5487 225.477 67.6042L222.765 69.1742C222.669 69.23 222.589 69.3104 222.534 69.4072C222.478 69.5041 222.45 69.6139 222.451 69.7253V72.8575C222.45 72.9687 222.479 73.0781 222.534 73.1747C222.589 73.2712 222.669 73.3514 222.765 73.407L225.477 74.977C225.573 75.0325 225.683 75.0617 225.795 75.0617C225.906 75.0617 226.016 75.0325 226.112 74.977L228.825 73.407C228.922 73.3514 229.002 73.2712 229.057 73.1747C229.112 73.0781 229.14 72.9687 229.139 72.8575Z" fill="#FFA766"/>
<path d="M165.091 60.4035L161.3 57.3723C161.083 57.199 160.767 57.2343 160.594 57.451L157.562 61.2427C157.389 61.4595 157.424 61.7756 157.641 61.9489L161.433 64.9801C161.649 65.1534 161.966 65.1181 162.139 64.9014L165.17 61.1097C165.343 60.8929 165.308 60.5768 165.091 60.4035Z" fill="#8F8FEF"/>
<path d="M209.131 52.5751L213.517 57.1281C213.561 57.1735 213.616 57.2069 213.676 57.2247C213.736 57.2426 213.8 57.2444 213.861 57.23C213.923 57.2156 213.979 57.1854 214.025 57.1424C214.071 57.0995 214.105 57.0453 214.123 56.9852L215.934 51.1526C215.953 51.0926 215.955 51.0287 215.942 50.9673C215.928 50.9059 215.899 50.8491 215.857 50.8024C215.815 50.7558 215.761 50.721 215.701 50.7015C215.642 50.6819 215.578 50.6783 215.516 50.6911L209.318 51.9643C209.253 51.9767 209.193 52.0064 209.144 52.0503C209.095 52.0941 209.059 52.1505 209.04 52.2134C209.021 52.2762 209.019 52.3431 209.035 52.4068C209.051 52.4706 209.084 52.5287 209.131 52.5751Z" fill="#60D8D2"/>
<path d="M199.929 55.8285C200.077 55.813 200.218 55.7588 200.338 55.6715C200.391 55.6387 200.435 55.5949 200.469 55.5431C200.503 55.4913 200.524 55.4328 200.533 55.3716C200.535 55.3512 200.532 55.3306 200.524 55.3114C200.517 55.2923 200.505 55.2751 200.49 55.2613C200.475 55.2475 200.457 55.2374 200.437 55.2317C200.417 55.2261 200.396 55.225 200.376 55.2287C200.249 55.246 200.167 55.3952 200.126 55.5004C200.098 55.5602 200.085 55.6264 200.09 55.6925C200.095 55.7586 200.118 55.8223 200.155 55.8772C200.186 55.9221 200.231 55.9559 200.283 55.9737C200.335 55.9915 200.391 55.9923 200.444 55.9761C200.494 55.9513 200.541 55.919 200.582 55.8803C200.602 55.8628 200.626 55.8496 200.651 55.8415C200.677 55.8334 200.704 55.8305 200.73 55.833C200.757 55.8355 200.783 55.8433 200.806 55.856C200.83 55.8687 200.851 55.8861 200.867 55.907C200.957 56.0072 201.08 56.0723 201.213 56.0907C201.437 56.0975 201.662 56.0901 201.885 56.0687L202.627 56.0357C202.632 56.0345 202.635 56.0319 202.638 56.0284C202.641 56.0249 202.642 56.0205 202.642 56.0161C202.642 56.0117 202.641 56.0074 202.638 56.0038C202.635 56.0003 202.632 55.9977 202.627 55.9965L201.455 56.0483C201.258 56.0561 201.097 56.064 200.943 55.9243C200.871 55.8583 200.786 55.7673 200.679 55.7877C200.541 55.8081 200.477 55.9839 200.321 55.9447C200.089 55.8881 200.108 55.6087 200.196 55.4423C200.235 55.3685 200.338 55.2146 200.444 55.2853C200.549 55.3559 200.453 55.5051 200.398 55.5647C200.273 55.6951 200.106 55.7783 199.927 55.8002C199.902 55.8002 199.902 55.8411 199.927 55.8395L199.929 55.8285Z" fill="#447CAC"/>
<path d="M199.964 57.2891C200.391 57.4383 200.818 57.5906 201.243 57.7429C201.269 57.7523 201.278 57.7146 201.254 57.7052C200.829 57.5482 200.402 57.4006 199.973 57.2515C199.95 57.242 199.94 57.2813 199.964 57.2891Z" fill="#447CAC"/>
<path d="M195.874 78.3669C195.973 78.3141 196.086 78.2915 196.197 78.3018C196.309 78.3121 196.415 78.3549 196.502 78.425C196.523 78.4407 196.55 78.414 196.531 78.3983C196.437 78.3228 196.324 78.2764 196.205 78.2647C196.085 78.2529 195.965 78.2765 195.859 78.3324C195.856 78.3355 195.853 78.3395 195.853 78.344C195.852 78.3484 195.853 78.3529 195.855 78.3568C195.857 78.3607 195.861 78.3638 195.865 78.3657C195.869 78.3675 195.873 78.3679 195.878 78.3669H195.874Z" fill="#447CAC"/>
<path d="M197.525 78.133H197.78C197.785 78.1318 197.788 78.1292 197.791 78.1257C197.794 78.1221 197.795 78.1178 197.795 78.1134C197.795 78.1089 197.794 78.1046 197.791 78.1011C197.788 78.0975 197.785 78.095 197.78 78.0938H197.525C197.52 78.095 197.517 78.0975 197.514 78.1011C197.511 78.1046 197.51 78.1089 197.51 78.1134C197.51 78.1178 197.511 78.1221 197.514 78.1257C197.517 78.1292 197.52 78.1318 197.525 78.133Z" fill="#447CAC"/>
<path d="M195.468 80.1733C195.611 80.2393 195.821 80.3303 195.967 80.2204C196.009 80.1864 196.038 80.1394 196.049 80.0871C196.061 80.0347 196.055 79.98 196.032 79.9316C196.02 79.9097 196.002 79.8914 195.98 79.8788C195.958 79.8661 195.934 79.8594 195.909 79.8594C195.883 79.8594 195.859 79.8661 195.837 79.8788C195.816 79.8914 195.798 79.9097 195.785 79.9316C195.768 79.9596 195.758 79.9908 195.753 80.0233C195.749 80.0557 195.752 80.0887 195.761 80.1201C195.77 80.1515 195.786 80.1807 195.807 80.2058C195.827 80.2309 195.853 80.2514 195.883 80.266C196.071 80.3775 196.308 80.3068 196.497 80.4151C196.501 80.4176 196.506 80.4183 196.511 80.417C196.516 80.4156 196.52 80.4124 196.522 80.4081C196.525 80.4037 196.526 80.3985 196.524 80.3936C196.523 80.3888 196.52 80.3847 196.515 80.3822C196.386 80.3262 196.248 80.2963 196.107 80.2942C195.989 80.2785 195.823 80.233 195.793 80.098C195.773 80.0054 195.861 79.8248 195.972 79.9174C196.002 79.9517 196.018 79.9954 196.018 80.0407C196.018 80.0859 196.002 80.1297 195.972 80.1639C195.856 80.3021 195.621 80.1969 195.492 80.1372C195.47 80.1262 195.449 80.1608 195.471 80.1718L195.468 80.1733Z" fill="#447CAC"/>
<path d="M183.214 106.078H141.541" stroke="#4E95D1" stroke-width="0.853261" stroke-miterlimit="10" stroke-linecap="round"/>
<path d="M184.123 112.121H142.452" stroke="#4E95D1" stroke-width="0.853261" stroke-miterlimit="10" stroke-linecap="round"/>
<path d="M161.041 118.16H143.361" stroke="#4E95D1" stroke-width="0.853261" stroke-miterlimit="10" stroke-linecap="round"/>
</svg>
