<svg width="20" height="20" viewBox="0 0 20 20" fill="none" xmlns="http://www.w3.org/2000/svg">
<mask id="mask0_832_2599" style="mask-type:alpha" maskUnits="userSpaceOnUse" x="0" y="0" width="20" height="20">
<rect width="20" height="20" fill="#D9D9D9"/>
</mask>
<g mask="url(#mask0_832_2599)">
<path d="M4.99998 17.9153C4.41773 17.9153 3.92494 17.7137 3.52162 17.3104C3.11832 16.907 2.91667 16.4143 2.91667 15.832V14.9346C2.91667 14.519 3.06384 14.164 3.35819 13.8697C3.65252 13.5753 4.00749 13.4282 4.42308 13.4282H5.41667V3.58845C5.41667 3.17285 5.56384 2.81789 5.85819 2.52355C6.15252 2.2292 6.50749 2.08203 6.92308 2.08203H15.5769C15.9925 2.08203 16.3474 2.2292 16.6418 2.52355C16.9361 2.81789 17.0833 3.17285 17.0833 3.58845V9.16855C16.875 9.12582 16.6645 9.11433 16.4519 9.1341C16.2393 9.15386 16.0331 9.20327 15.8333 9.28232V3.58845C15.8333 3.51366 15.8093 3.45222 15.7612 3.40414C15.7131 3.35605 15.6517 3.33201 15.5769 3.33201H6.92308C6.84829 3.33201 6.78685 3.35605 6.73877 3.40414C6.69069 3.45222 6.66664 3.51366 6.66664 3.58845V13.4282H11.298L10.0481 14.6781H4.42308C4.34829 14.6781 4.28685 14.7022 4.23877 14.7503C4.19069 14.7983 4.16665 14.8598 4.16665 14.9346V15.832C4.16665 16.0681 4.24651 16.266 4.40623 16.4258C4.56595 16.5855 4.76387 16.6653 4.99998 16.6653H9.83971V17.9153H4.99998ZM12.6602 16.9217H13.5352L16.7564 13.7134L17.4551 14.4121L14.1778 17.6893C14.0998 17.7673 14.0154 17.8245 13.9246 17.8608C13.8338 17.8972 13.7382 17.9153 13.6378 17.9153H12.4199C12.2051 17.9153 12.0259 17.8435 11.8822 17.6998C11.7385 17.5561 11.6666 17.3769 11.6666 17.1621V15.9522C11.6666 15.8518 11.6848 15.7562 11.7211 15.6653C11.7575 15.5745 11.8146 15.4901 11.8926 15.4121L15.1699 12.1349L15.8814 12.8384L12.6602 16.0467V16.9217ZM17.4551 14.4121L15.1699 12.1349L16.1554 11.1493C16.2975 11.0126 16.4746 10.9442 16.6867 10.9442C16.8987 10.9442 17.0731 11.0126 17.2099 11.1493L18.4406 12.3801C18.5774 12.5168 18.6458 12.6912 18.6458 12.9033C18.6458 13.1154 18.5774 13.2925 18.4406 13.4346L17.4551 14.4121ZM8.28523 7.24224C8.10788 7.24224 7.95938 7.18241 7.83973 7.06276C7.72008 6.94311 7.66025 6.79461 7.66025 6.61726C7.66025 6.43991 7.72008 6.29141 7.83973 6.17176C7.95938 6.05211 8.10788 5.99228 8.28523 5.99228H14.2147C14.3921 5.99228 14.5406 6.05211 14.6602 6.17176C14.7799 6.29141 14.8397 6.43991 14.8397 6.61726C14.8397 6.79461 14.7799 6.94311 14.6602 7.06276C14.5406 7.18241 14.3921 7.24224 14.2147 7.24224H8.28523ZM8.28523 9.64609C8.10788 9.64609 7.95938 9.58627 7.83973 9.46662C7.72008 9.34695 7.66025 9.19844 7.66025 9.02109C7.66025 8.84375 7.72008 8.69525 7.83973 8.5756C7.95938 8.45594 8.10788 8.39612 8.28523 8.39612H14.2147C14.3921 8.39612 14.5406 8.45594 14.6602 8.5756C14.7799 8.69525 14.8397 8.84375 14.8397 9.02109C14.8397 9.19844 14.7799 9.34695 14.6602 9.46662C14.5406 9.58627 14.3921 9.64609 14.2147 9.64609H8.28523Z" fill="#003366"/>
</g>
</svg>
