<svg width="20" height="20" viewBox="0 0 20 20" fill="none" xmlns="http://www.w3.org/2000/svg">
<mask id="mask0_832_3981" style="mask-type:alpha" maskUnits="userSpaceOnUse" x="0" y="0" width="20" height="20">
<rect width="20" height="20" fill="#D9D9D9"/>
</mask>
<g mask="url(#mask0_832_3981)">
<path d="M6.66648 13.9596H10.8331C11.0105 13.9596 11.159 13.8998 11.2787 13.7801C11.3983 13.6605 11.4581 13.512 11.4581 13.3346C11.4581 13.1573 11.3983 13.0088 11.2787 12.8891C11.159 12.7695 11.0105 12.7096 10.8331 12.7096H6.66648C6.48914 12.7096 6.34064 12.7695 6.22098 12.8891C6.10133 13.0088 6.0415 13.1573 6.0415 13.3346C6.0415 13.512 6.10133 13.6605 6.22098 13.7801C6.34064 13.8998 6.48914 13.9596 6.66648 13.9596ZM6.66648 10.6263H13.3332C13.5105 10.6263 13.659 10.5664 13.7786 10.4468C13.8983 10.3271 13.9581 10.1786 13.9581 10.0013C13.9581 9.82394 13.8983 9.67544 13.7786 9.55578C13.659 9.43613 13.5105 9.3763 13.3332 9.3763H6.66648C6.48914 9.3763 6.34064 9.43613 6.22098 9.55578C6.10133 9.67544 6.0415 9.82394 6.0415 10.0013C6.0415 10.1786 6.10133 10.3271 6.22098 10.4468C6.34064 10.5664 6.48914 10.6263 6.66648 10.6263ZM6.66648 7.29293H13.3332C13.5105 7.29293 13.659 7.2331 13.7786 7.11345C13.8983 6.9938 13.9581 6.8453 13.9581 6.66795C13.9581 6.4906 13.8983 6.3421 13.7786 6.22245C13.659 6.1028 13.5105 6.04297 13.3332 6.04297H6.66648C6.48914 6.04297 6.34064 6.1028 6.22098 6.22245C6.10133 6.3421 6.0415 6.4906 6.0415 6.66795C6.0415 6.8453 6.10133 6.9938 6.22098 7.11345C6.34064 7.2331 6.48914 7.29293 6.66648 7.29293ZM4.42292 17.0846C4.00198 17.0846 3.64567 16.9388 3.354 16.6471C3.06234 16.3554 2.9165 15.9991 2.9165 15.5782V4.42439C2.9165 4.00344 3.06234 3.64714 3.354 3.35547C3.64567 3.0638 4.00198 2.91797 4.42292 2.91797H15.5767C15.9977 2.91797 16.354 3.0638 16.6456 3.35547C16.9373 3.64714 17.0831 4.00344 17.0831 4.42439V15.5782C17.0831 15.9991 16.9373 16.3554 16.6456 16.6471C16.354 16.9388 15.9977 17.0846 15.5767 17.0846H4.42292ZM4.42292 15.8346H15.5767C15.6408 15.8346 15.6996 15.8079 15.753 15.7545C15.8064 15.7011 15.8332 15.6423 15.8332 15.5782V4.42439C15.8332 4.36028 15.8064 4.3015 15.753 4.24807C15.6996 4.19466 15.6408 4.16795 15.5767 4.16795H4.42292C4.35881 4.16795 4.30004 4.19466 4.24661 4.24807C4.19319 4.3015 4.16648 4.36028 4.16648 4.42439V15.5782C4.16648 15.6423 4.19319 15.7011 4.24661 15.7545C4.30004 15.8079 4.35881 15.8346 4.42292 15.8346Z" fill="#003366"/>
</g>
</svg>
