<svg width="20" height="20" viewBox="0 0 20 20" fill="none" xmlns="http://www.w3.org/2000/svg">
<mask id="mask0_3522_44563" style="mask-type:alpha" maskUnits="userSpaceOnUse" x="0" y="0" width="20" height="20">
<rect width="20" height="20" fill="#D9D9D9"/>
</mask>
<g mask="url(#mask0_3522_44563)">
<path d="M9.99327 13.789C10.1456 13.789 10.2746 13.7371 10.3804 13.6333C10.4861 13.5295 10.539 13.4008 10.539 13.2474V9.53902C10.539 9.38556 10.4875 9.25692 10.3845 9.1531C10.2815 9.04928 10.1538 8.99738 10.0015 8.99738C9.84917 8.99738 9.72014 9.04928 9.61438 9.1531C9.50861 9.25692 9.45573 9.38556 9.45573 9.53902V13.2474C9.45573 13.4008 9.50724 13.5295 9.61027 13.6333C9.7133 13.7371 9.84097 13.789 9.99327 13.789ZM9.99298 7.73777C10.1588 7.73777 10.2993 7.68168 10.4144 7.5695C10.5295 7.45731 10.5871 7.31829 10.5871 7.15244C10.5871 6.98659 10.531 6.84611 10.4188 6.73098C10.3066 6.61587 10.1676 6.55831 10.0018 6.55831C9.83591 6.55831 9.69542 6.61441 9.58031 6.7266C9.4652 6.8388 9.40765 6.97782 9.40765 7.14367C9.40765 7.30951 9.46374 7.44999 9.57594 7.5651C9.68812 7.68022 9.82713 7.73777 9.99298 7.73777ZM10.0045 17.5807C8.9613 17.5807 7.9788 17.3833 7.05702 16.9886C6.13523 16.5939 5.32841 16.0508 4.63656 15.3592C3.9447 14.6677 3.40132 13.8615 3.00642 12.9408C2.61151 12.02 2.41406 11.0361 2.41406 9.98923C2.41406 8.94231 2.61142 7.96144 3.00615 7.0466C3.40087 6.13176 3.94399 5.32841 4.63552 4.63656C5.32706 3.9447 6.13322 3.40132 7.054 3.00642C7.97478 2.61151 8.95862 2.41406 10.0055 2.41406C11.0524 2.41406 12.0333 2.61142 12.9481 3.00615C13.863 3.40087 14.6663 3.94399 15.3582 4.63552C16.05 5.32706 16.5934 6.1316 16.9883 7.04913C17.3832 7.96665 17.5807 8.94702 17.5807 9.99023C17.5807 11.0335 17.3833 12.016 16.9886 12.9377C16.5939 13.8595 16.0508 14.6663 15.3592 15.3582C14.6677 16.05 13.8632 16.5934 12.9456 16.9883C12.0281 17.3832 11.0477 17.5807 10.0045 17.5807ZM9.99738 16.4974C11.8029 16.4974 13.3377 15.8654 14.6015 14.6015C15.8654 13.3377 16.4974 11.8029 16.4974 9.99738C16.4974 8.19182 15.8654 6.6571 14.6015 5.39321C13.3377 4.12932 11.8029 3.49738 9.99738 3.49738C8.19182 3.49738 6.6571 4.12932 5.39321 5.39321C4.12932 6.6571 3.49738 8.19182 3.49738 9.99738C3.49738 11.8029 4.12932 13.3377 5.39321 14.6015C6.6571 15.8654 8.19182 16.4974 9.99738 16.4974Z" fill="#0074D6"/>
</g>
</svg>
