<svg width="20" height="21" viewBox="0 0 20 21" fill="none" xmlns="http://www.w3.org/2000/svg">
<path d="M4.24461 8.06866L4.10853 8.12076C3.85327 8.21859 3.72576 8.50463 3.82351 8.75985C3.89802 8.95655 4.08514 9.07671 4.28501 9.07671C4.34455 9.07671 4.40408 9.06607 4.46154 9.04483L4.59976 8.99164C5.58235 8.61305 6.59685 8.22176 7.93459 8.68432C8.19407 8.77471 8.47472 8.63644 8.56413 8.37806C8.65135 8.11967 8.5152 7.83785 8.25786 7.74961C6.58406 7.17326 5.28461 7.66774 4.24461 8.06866ZM8.25779 9.88703C6.57976 9.30858 5.28246 9.80834 4.24035 10.2093L4.10638 10.2603C3.85327 10.3581 3.72568 10.6453 3.82351 10.8994C3.89802 11.0962 4.08514 11.2163 4.28501 11.2163C4.34455 11.2163 4.40408 11.2056 4.46365 11.1843L4.59761 11.1311C5.5802 10.7526 6.59892 10.3602 7.93451 10.8228C8.19399 10.9121 8.47464 10.7738 8.56405 10.5165C8.65128 10.2592 8.51516 9.97637 8.25779 9.88703ZM8.25779 12.0266C6.58406 11.4502 5.28457 11.9468 4.24461 12.3466L4.10849 12.3987C3.85324 12.4966 3.72572 12.7826 3.82347 13.0368C3.89798 13.2345 4.0851 13.3557 4.28498 13.3557C4.34451 13.3557 4.40404 13.3451 4.4615 13.3217L4.59973 13.2686C5.58231 12.8921 6.59681 12.5008 7.93455 12.9624C8.19403 13.0528 8.47468 12.9134 8.56409 12.6561C8.65128 12.3987 8.51516 12.1159 8.25779 12.0266ZM18.1494 5.84194C17.5517 5.84194 16.9286 5.59947 16.2671 5.3432C15.4525 5.02633 14.5275 4.66797 13.4343 4.66797C12.3582 4.66797 11.282 5.01464 10.1548 5.72921C9.02763 5.01464 7.95364 4.66797 6.87749 4.66797C5.78222 4.66797 4.85921 5.02633 4.04251 5.3432C3.38317 5.59947 2.75789 5.84194 2.16245 5.84194H1.66699V16.7235H2.16257C2.94097 16.7235 3.64914 16.4523 4.39993 16.1652C5.17196 15.8686 5.97161 15.5623 6.88398 15.5623C7.81764 15.5623 8.77042 15.8909 9.7934 16.5661L10.1549 16.8096H10.1571L10.6526 16.4789C11.6246 15.8632 12.5348 15.5623 13.428 15.5623C14.3383 15.5623 15.1379 15.8685 15.9121 16.1651C16.6628 16.4523 17.371 16.7234 18.1495 16.7234H18.645V5.84194H18.1494ZM9.66148 15.3485C8.71718 14.8381 7.80055 14.5733 6.88391 14.5733C5.78864 14.5733 4.86347 14.9274 4.0447 15.2401C3.56403 15.425 3.10252 15.6026 2.65591 15.6845V6.79464C3.24931 6.71172 3.81287 6.4937 4.40197 6.26508C5.17185 5.96628 5.96938 5.65681 6.87749 5.65681C7.76859 5.65681 8.68523 5.97477 9.66144 6.5979V15.3485H9.66148ZM17.656 15.6846C17.2093 15.6027 16.7478 15.4251 16.2651 15.2401C15.4484 14.9275 14.5232 14.5733 13.428 14.5733C12.5114 14.5733 11.5947 14.8382 10.6504 15.3486V6.59907C11.6266 5.97489 12.5411 5.65693 13.4343 5.65693C14.3425 5.65693 15.1401 5.96636 15.9099 6.26519C16.499 6.49381 17.0626 6.7118 17.656 6.79476V15.6846ZM12.0541 7.74965C11.7968 7.83789 11.6606 8.11971 11.7479 8.37809C11.8372 8.63648 12.12 8.77264 12.3774 8.68436C13.7151 8.22179 14.7296 8.61309 15.7122 8.99168L15.8504 9.04487C15.9078 9.06611 15.9674 9.07675 16.027 9.07675C16.2248 9.07675 16.4141 8.95659 16.4885 8.75988C16.5863 8.50467 16.4587 8.21862 16.2035 8.1208L16.0674 8.0687C15.0273 7.66774 13.7278 7.17326 12.0541 7.74965ZM16.2034 12.3987L16.0673 12.3466C15.0274 11.9457 13.7278 11.4502 12.0541 12.0266C11.7968 12.1159 11.6606 12.3987 11.7479 12.6561C11.8372 12.9134 12.12 13.0517 12.3774 12.9624C13.7151 12.5009 14.7296 12.8922 15.7122 13.2686L15.8504 13.3217C15.9078 13.3451 15.9674 13.3557 16.027 13.3557C16.2248 13.3557 16.4141 13.2345 16.4885 13.0368C16.5862 12.7826 16.4586 12.4966 16.2034 12.3987ZM16.2034 10.2603L16.0716 10.2092C15.0294 9.80834 13.7342 9.30854 12.0541 9.887C11.7968 9.97633 11.6606 10.2592 11.7479 10.5165C11.8372 10.7739 12.12 10.91 12.3774 10.8228C13.7173 10.3602 14.7317 10.7526 15.7143 11.1312L15.8483 11.1844C15.9078 11.2056 15.9674 11.2163 16.0269 11.2163C16.2247 11.2163 16.414 11.0961 16.4884 10.8994C16.5862 10.6452 16.4586 10.3581 16.2034 10.2603Z" fill="#323C47"/>
</svg>
