<svg width="70" height="18" viewBox="0 0 70 18" fill="none" xmlns="http://www.w3.org/2000/svg">
<rect width="70" height="18" rx="4" fill="#0A8FFF"/>
<path d="M11.3047 8.42383V9.44336H5.45703V8.42383H11.3047ZM8.92578 5.93359V12.1445H7.8418V5.93359H8.92578ZM19.1736 5.22461L16.3494 13H15.1951L18.447 4.46875H19.1912L19.1736 5.22461ZM21.5408 13L18.7107 5.22461L18.6931 4.46875H19.4373L22.7009 13H21.5408ZM21.3943 9.8418V10.7676H16.6013V9.8418H21.3943ZM27.7955 11.7695V4H28.8854V13H27.8893L27.7955 11.7695ZM23.5299 9.90039V9.77734C23.5299 9.29297 23.5885 8.85352 23.7057 8.45898C23.8268 8.06055 23.9967 7.71875 24.2155 7.43359C24.4381 7.14844 24.7018 6.92969 25.0065 6.77734C25.3151 6.62109 25.6588 6.54297 26.0377 6.54297C26.4362 6.54297 26.7838 6.61328 27.0807 6.75391C27.3815 6.89062 27.6354 7.0918 27.8424 7.35742C28.0534 7.61914 28.2194 7.93555 28.3405 8.30664C28.4616 8.67773 28.5455 9.09766 28.5924 9.56641V10.1055C28.5495 10.5703 28.4655 10.9883 28.3405 11.3594C28.2194 11.7305 28.0534 12.0469 27.8424 12.3086C27.6354 12.5703 27.3815 12.7715 27.0807 12.9121C26.7799 13.0488 26.4284 13.1172 26.026 13.1172C25.6549 13.1172 25.3151 13.0371 25.0065 12.877C24.7018 12.7168 24.4381 12.4922 24.2155 12.2031C23.9967 11.9141 23.8268 11.5742 23.7057 11.1836C23.5885 10.7891 23.5299 10.3613 23.5299 9.90039ZM24.6198 9.77734V9.90039C24.6198 10.2168 24.651 10.5137 24.7135 10.791C24.7799 11.0684 24.8815 11.3125 25.0182 11.5234C25.1549 11.7344 25.3288 11.9004 25.5397 12.0215C25.7506 12.1387 26.0026 12.1973 26.2955 12.1973C26.6549 12.1973 26.9498 12.1211 27.1803 11.9688C27.4147 11.8164 27.6022 11.6152 27.7428 11.3652C27.8834 11.1152 27.9928 10.8438 28.0709 10.5508V9.13867C28.0241 8.92383 27.9557 8.7168 27.8659 8.51758C27.7799 8.31445 27.6666 8.13477 27.526 7.97852C27.3893 7.81836 27.2194 7.69141 27.0163 7.59766C26.817 7.50391 26.5807 7.45703 26.3073 7.45703C26.0104 7.45703 25.7545 7.51953 25.5397 7.64453C25.3288 7.76562 25.1549 7.93359 25.0182 8.14844C24.8815 8.35938 24.7799 8.60547 24.7135 8.88672C24.651 9.16406 24.6198 9.46094 24.6198 9.77734ZM34.689 11.7695V4H35.7788V13H34.7827L34.689 11.7695ZM30.4234 9.90039V9.77734C30.4234 9.29297 30.482 8.85352 30.5991 8.45898C30.7202 8.06055 30.8902 7.71875 31.1089 7.43359C31.3316 7.14844 31.5952 6.92969 31.8999 6.77734C32.2085 6.62109 32.5523 6.54297 32.9312 6.54297C33.3296 6.54297 33.6773 6.61328 33.9741 6.75391C34.2749 6.89062 34.5288 7.0918 34.7359 7.35742C34.9468 7.61914 35.1128 7.93555 35.2339 8.30664C35.355 8.67773 35.439 9.09766 35.4859 9.56641V10.1055C35.4429 10.5703 35.3589 10.9883 35.2339 11.3594C35.1128 11.7305 34.9468 12.0469 34.7359 12.3086C34.5288 12.5703 34.2749 12.7715 33.9741 12.9121C33.6734 13.0488 33.3218 13.1172 32.9195 13.1172C32.5484 13.1172 32.2085 13.0371 31.8999 12.877C31.5952 12.7168 31.3316 12.4922 31.1089 12.2031C30.8902 11.9141 30.7202 11.5742 30.5991 11.1836C30.482 10.7891 30.4234 10.3613 30.4234 9.90039ZM31.5132 9.77734V9.90039C31.5132 10.2168 31.5445 10.5137 31.607 10.791C31.6734 11.0684 31.7749 11.3125 31.9116 11.5234C32.0484 11.7344 32.2222 11.9004 32.4331 12.0215C32.6441 12.1387 32.896 12.1973 33.189 12.1973C33.5484 12.1973 33.8433 12.1211 34.0737 11.9688C34.3081 11.8164 34.4956 11.6152 34.6362 11.3652C34.7769 11.1152 34.8862 10.8438 34.9644 10.5508V9.13867C34.9175 8.92383 34.8491 8.7168 34.7593 8.51758C34.6734 8.31445 34.5601 8.13477 34.4195 7.97852C34.2827 7.81836 34.1128 7.69141 33.9097 7.59766C33.7105 7.50391 33.4741 7.45703 33.2007 7.45703C32.9038 7.45703 32.648 7.51953 32.4331 7.64453C32.2222 7.76562 32.0484 7.93359 31.9116 8.14844C31.7749 8.35938 31.6734 8.60547 31.607 8.88672C31.5445 9.16406 31.5132 9.46094 31.5132 9.77734ZM47.4095 4.46875V13H46.2727L41.9778 6.41992V13H40.847V4.46875H41.9778L46.2903 11.0664V4.46875H47.4095ZM52.0002 13.1172C51.5588 13.1172 51.1584 13.043 50.799 12.8945C50.4435 12.7422 50.1369 12.5293 49.8791 12.2559C49.6252 11.9824 49.4298 11.6582 49.2931 11.2832C49.1564 10.9082 49.088 10.498 49.088 10.0527V9.80664C49.088 9.29102 49.1642 8.83203 49.3166 8.42969C49.4689 8.02344 49.6759 7.67969 49.9377 7.39844C50.1994 7.11719 50.4963 6.9043 50.8283 6.75977C51.1603 6.61523 51.5041 6.54297 51.8595 6.54297C52.3127 6.54297 52.7033 6.62109 53.0314 6.77734C53.3634 6.93359 53.6349 7.15234 53.8459 7.43359C54.0568 7.71094 54.213 8.03906 54.3146 8.41797C54.4162 8.79297 54.467 9.20312 54.467 9.64844V10.1348H49.7326V9.25H53.383V9.16797C53.3673 8.88672 53.3088 8.61328 53.2072 8.34766C53.1095 8.08203 52.9533 7.86328 52.7384 7.69141C52.5236 7.51953 52.2306 7.43359 51.8595 7.43359C51.6134 7.43359 51.3869 7.48633 51.1798 7.5918C50.9728 7.69336 50.7951 7.8457 50.6466 8.04883C50.4982 8.25195 50.383 8.5 50.3009 8.79297C50.2189 9.08594 50.1779 9.42383 50.1779 9.80664V10.0527C50.1779 10.3535 50.2189 10.6367 50.3009 10.9023C50.3869 11.1641 50.5099 11.3945 50.6701 11.5938C50.8341 11.793 51.0314 11.9492 51.2619 12.0625C51.4963 12.1758 51.7619 12.2324 52.0588 12.2324C52.4416 12.2324 52.7658 12.1543 53.0314 11.998C53.297 11.8418 53.5295 11.6328 53.7287 11.3711L54.3849 11.8926C54.2482 12.0996 54.0744 12.2969 53.8634 12.4844C53.6525 12.6719 53.3927 12.8242 53.0841 12.9414C52.7795 13.0586 52.4181 13.1172 52.0002 13.1172ZM57.458 11.875L59.087 6.66016H59.8018L59.6612 7.69727L58.003 13H57.3057L57.458 11.875ZM56.3623 6.66016L57.751 11.9336L57.8506 13H57.1182L55.2784 6.66016H56.3623ZM61.3604 11.8926L62.6846 6.66016H63.7627L61.9229 13H61.1963L61.3604 11.8926ZM59.96 6.66016L61.5537 11.7871L61.7354 13H61.044L59.3389 7.68555L59.1983 6.66016H59.96Z" fill="white"/>
</svg>
