<svg width="21" height="20" viewBox="0 0 21 20" fill="none" xmlns="http://www.w3.org/2000/svg">
<mask id="mask0_2528_12251" style="mask-type:alpha" maskUnits="userSpaceOnUse" x="0" y="0" width="21" height="20">
<rect x="0.5" width="20" height="20" fill="#D9D9D9"/>
</mask>
<g mask="url(#mask0_2528_12251)">
<path d="M5.17818 17.497C4.79464 17.497 4.47439 17.3685 4.21745 17.1116C3.9605 16.8546 3.83203 16.5344 3.83203 16.1509V5.50981C3.83203 5.12627 3.9605 4.80603 4.21745 4.54908C4.47439 4.29214 4.79464 4.16367 5.17818 4.16367H6.65253V2.75342C6.65253 2.62414 6.695 2.51703 6.77995 2.43208C6.86488 2.34715 6.97198 2.30469 7.10126 2.30469C7.23054 2.30469 7.33764 2.34715 7.42257 2.43208C7.5075 2.51703 7.54997 2.62414 7.54997 2.75342V4.16367H13.5115V2.72135C13.5115 2.60277 13.5513 2.50368 13.6309 2.42408C13.7105 2.34449 13.8096 2.30469 13.9282 2.30469C14.0468 2.30469 14.1459 2.34449 14.2255 2.42408C14.3051 2.50368 14.3449 2.60277 14.3449 2.72135V4.16367H15.8192C16.2028 4.16367 16.523 4.29214 16.7799 4.54908C17.0369 4.80603 17.1654 5.12627 17.1654 5.50981V16.1509C17.1654 16.5344 17.0369 16.8546 16.7799 17.1116C16.523 17.3685 16.2028 17.497 15.8192 17.497H5.17818ZM5.17818 16.6637H15.8192C15.9474 16.6637 16.0649 16.6102 16.1718 16.5034C16.2786 16.3966 16.332 16.279 16.332 16.1509V8.84315H4.66536V16.1509C4.66536 16.279 4.71878 16.3966 4.82561 16.5034C4.93246 16.6102 5.04998 16.6637 5.17818 16.6637ZM4.66536 8.00981H16.332V5.50981C16.332 5.38162 16.2786 5.2641 16.1718 5.15725C16.0649 5.05042 15.9474 4.997 15.8192 4.997H5.17818C5.04998 4.997 4.93246 5.05042 4.82561 5.15725C4.71878 5.2641 4.66536 5.38162 4.66536 5.50981V8.00981ZM10.4987 11.7919C10.3267 11.7919 10.1768 11.728 10.0492 11.6004C9.92151 11.4727 9.85768 11.3229 9.85768 11.1509C9.85768 10.9788 9.92151 10.829 10.0492 10.7013C10.1768 10.5737 10.3267 10.5098 10.4987 10.5098C10.6707 10.5098 10.8206 10.5737 10.9482 10.7013C11.0759 10.829 11.1397 10.9788 11.1397 11.1509C11.1397 11.3229 11.0759 11.4727 10.9482 11.6004C10.8206 11.728 10.6707 11.7919 10.4987 11.7919ZM7.16536 11.7919C6.99335 11.7919 6.84351 11.728 6.71584 11.6004C6.58818 11.4727 6.52434 11.3229 6.52434 11.1509C6.52434 10.9788 6.58818 10.829 6.71584 10.7013C6.84351 10.5737 6.99335 10.5098 7.16536 10.5098C7.33738 10.5098 7.48722 10.5737 7.61489 10.7013C7.74255 10.829 7.80639 10.9788 7.80639 11.1509C7.80639 11.3229 7.74255 11.4727 7.61489 11.6004C7.48722 11.728 7.33738 11.7919 7.16536 11.7919ZM13.832 11.7919C13.66 11.7919 13.5102 11.728 13.3825 11.6004C13.2548 11.4727 13.191 11.3229 13.191 11.1509C13.191 10.9788 13.2548 10.829 13.3825 10.7013C13.5102 10.5737 13.66 10.5098 13.832 10.5098C14.004 10.5098 14.1539 10.5737 14.2816 10.7013C14.4092 10.829 14.4731 10.9788 14.4731 11.1509C14.4731 11.3229 14.4092 11.4727 14.2816 11.6004C14.1539 11.728 14.004 11.7919 13.832 11.7919ZM10.4987 14.997C10.3267 14.997 10.1768 14.9332 10.0492 14.8055C9.92151 14.6778 9.85768 14.528 9.85768 14.356C9.85768 14.184 9.92151 14.0341 10.0492 13.9065C10.1768 13.7788 10.3267 13.7149 10.4987 13.7149C10.6707 13.7149 10.8206 13.7788 10.9482 13.9065C11.0759 14.0341 11.1397 14.184 11.1397 14.356C11.1397 14.528 11.0759 14.6778 10.9482 14.8055C10.8206 14.9332 10.6707 14.997 10.4987 14.997ZM7.16536 14.997C6.99335 14.997 6.84351 14.9332 6.71584 14.8055C6.58818 14.6778 6.52434 14.528 6.52434 14.356C6.52434 14.184 6.58818 14.0341 6.71584 13.9065C6.84351 13.7788 6.99335 13.7149 7.16536 13.7149C7.33738 13.7149 7.48722 13.7788 7.61489 13.9065C7.74255 14.0341 7.80639 14.184 7.80639 14.356C7.80639 14.528 7.74255 14.6778 7.61489 14.8055C7.48722 14.9332 7.33738 14.997 7.16536 14.997ZM13.832 14.997C13.66 14.997 13.5102 14.9332 13.3825 14.8055C13.2548 14.6778 13.191 14.528 13.191 14.356C13.191 14.184 13.2548 14.0341 13.3825 13.9065C13.5102 13.7788 13.66 13.7149 13.832 13.7149C14.004 13.7149 14.1539 13.7788 14.2816 13.9065C14.4092 14.0341 14.4731 14.184 14.4731 14.356C14.4731 14.528 14.4092 14.6778 14.2816 14.8055C14.1539 14.9332 14.004 14.997 13.832 14.997Z" fill="#323C47"/>
</g>
</svg>
