<svg width="24" height="25" viewBox="0 0 24 25" fill="none" xmlns="http://www.w3.org/2000/svg">
<rect x="0.5" y="1" width="23" height="23" rx="11.5" fill="#EFF8FF"/>
<rect x="0.5" y="1" width="23" height="23" rx="11.5" stroke="#84CAFF"/>
<path d="M7.625 7.6875H16.375C16.8563 7.6875 17.25 8.08125 17.25 8.5625V17.3125C17.25 17.7938 16.8563 18.1875 16.375 18.1875H7.625C7.14375 18.1875 6.75 17.7938 6.75 17.3125V9.4375" stroke="#1570EF" stroke-width="0.875" stroke-miterlimit="10" stroke-linecap="round" stroke-linejoin="round"/>
<path d="M14.1875 6.8125V8.5625" stroke="#1570EF" stroke-width="0.875" stroke-miterlimit="10" stroke-linecap="round" stroke-linejoin="round"/>
<path d="M9.8125 6.8125V8.5625" stroke="#1570EF" stroke-width="0.875" stroke-miterlimit="10" stroke-linecap="round" stroke-linejoin="round"/>
<path d="M6.75 10.3125H15.4125" stroke="#1570EF" stroke-width="0.875" stroke-miterlimit="10" stroke-linecap="round" stroke-linejoin="round"/>
<path d="M13.9688 12.9375C13.9688 12.5875 14.275 12.2812 14.625 12.2812C14.975 12.2812 15.2812 12.5875 15.2812 12.9375C15.2812 13.2875 14.975 13.5938 14.625 13.5938C14.275 13.5938 13.9688 13.2875 13.9688 12.9375ZM11.3438 12.9375C11.3438 12.5875 11.65 12.2812 12 12.2812C12.35 12.2812 12.6562 12.5875 12.6562 12.9375C12.6562 13.2875 12.35 13.5938 12 13.5938C11.65 13.5938 11.3438 13.2875 11.3438 12.9375Z" fill="#1570EF"/>
<path d="M13.9688 15.5625C13.9688 15.2125 14.275 14.9062 14.625 14.9062C14.975 14.9062 15.2812 15.2125 15.2812 15.5625C15.2812 15.9125 14.975 16.2188 14.625 16.2188C14.275 16.2188 13.9688 15.9125 13.9688 15.5625ZM11.3438 15.5625C11.3438 15.2125 11.65 14.9062 12 14.9062C12.35 14.9062 12.6562 15.2125 12.6562 15.5625C12.6562 15.9125 12.35 16.2188 12 16.2188C11.65 16.2188 11.3438 15.9125 11.3438 15.5625ZM8.71875 15.5625C8.71875 15.2125 9.025 14.9062 9.375 14.9062C9.725 14.9062 10.0312 15.2125 10.0312 15.5625C10.0312 15.9125 9.725 16.2188 9.375 16.2188C9.025 16.2188 8.71875 15.9125 8.71875 15.5625Z" fill="#1570EF"/>
</svg>
