<svg width="20" height="21" viewBox="0 0 20 21" fill="none" xmlns="http://www.w3.org/2000/svg">
<path d="M6.13452 17.5455L6.13466 17.5455C6.20477 17.5787 6.27998 17.595 6.35484 17.595C6.47119 17.595 6.58701 17.5553 6.68055 17.4788C6.68056 17.4787 6.68056 17.4787 6.68056 17.4787L8.89927 15.6635C9.16527 15.6917 9.43553 15.7079 9.70968 15.7079C13.3833 15.7079 16.5144 13.0873 16.5144 9.95161C16.5144 6.87562 13.4425 4.405 9.70968 4.405C5.97684 4.405 2.905 6.87562 2.905 9.95161C2.905 11.8744 4.086 13.6044 5.84048 14.653V17.0806C5.84048 17.2796 5.9552 17.4604 6.13452 17.5455ZM6.86919 15.9952V14.1038V14.0444L6.81583 14.0184C6.52372 13.8759 6.24749 13.7134 5.99002 13.5329L5.99001 13.5329C4.7357 12.6538 3.93371 11.3596 3.93371 9.95161C3.93371 7.48055 6.50231 5.43371 9.70968 5.43371C12.9171 5.43371 15.4856 7.48055 15.4856 9.95161C15.4856 12.4618 12.9293 14.6178 9.83766 14.6766L9.83947 14.7716L9.83832 14.6766C9.8158 14.6769 9.79676 14.6774 9.77856 14.6779C9.75598 14.6786 9.73469 14.6792 9.70968 14.6792C9.34365 14.6792 8.98442 14.6485 8.63496 14.5919L8.59273 14.5851L8.55962 14.6122L6.86919 15.9952Z" fill="#323C47" stroke="#323C47" stroke-width="0.19"/>
<path d="M10.1007 12.3983L10.1007 12.3984C10.2161 12.5132 10.2743 12.6534 10.2743 12.8133C10.2743 12.9733 10.2156 13.1135 10.101 13.2282L10.1007 12.3983ZM10.1007 12.3983C9.98587 12.2843 9.84625 12.2253 9.68575 12.2253C9.52567 12.2253 9.38572 12.2843 9.27104 12.3991M10.1007 12.3983L9.27104 12.3991M9.27104 12.3991C9.15644 12.5136 9.09738 12.6535 9.09738 12.814C9.09738 12.9743 9.15647 13.1143 9.27111 13.2287L9.33821 13.1614C9.43529 13.2587 9.55114 13.3069 9.68575 13.3069L9.27104 12.3991Z" fill="#323C47" stroke="#323C47" stroke-width="0.19"/>
<path d="M7.92694 8.6484L7.92522 8.64836C7.92128 8.64822 7.91597 8.64796 7.90963 8.64745C7.89713 8.64644 7.87972 8.64441 7.86032 8.64017C7.82647 8.63278 7.76457 8.61416 7.7244 8.56093L7.72402 8.56044L7.72403 8.56044C7.68395 8.50661 7.67588 8.44535 7.67552 8.40376C7.67516 8.36161 7.68267 8.328 7.68456 8.31958L7.68465 8.31914L7.68474 8.31873L7.68475 8.31873C7.79092 7.85278 8.01356 7.4752 8.3548 7.19187L7.92694 8.6484ZM7.92694 8.6484L8.47215 8.70208L8.47707 8.70269C8.48119 8.70317 8.48687 8.70377 8.49374 8.70433C8.50733 8.70544 8.52631 8.70646 8.54757 8.706C8.5685 8.70554 8.59385 8.7036 8.61943 8.69793C8.64414 8.69244 8.67552 8.68209 8.70328 8.66059L8.7033 8.66058C8.75274 8.62227 8.77988 8.57111 8.79466 8.53412C8.80234 8.5149 8.80747 8.49751 8.81085 8.48431C8.8132 8.47514 8.81602 8.46198 8.81607 8.46149C8.86711 8.2518 8.96126 8.07923 9.09742 7.94117L9.0975 7.94108C9.26646 7.76931 9.48756 7.68084 9.76952 7.68084C9.89434 7.68084 10.0103 7.70345 10.1199 7.74813L10.1557 7.66017M7.92694 8.6484L8.48315 8.6077C8.48315 8.6077 8.59543 8.62395 8.64512 8.58548C8.70268 8.54089 8.7191 8.46123 8.72276 8.44351C8.723 8.44232 8.72319 8.4414 8.72333 8.4408C8.77795 8.21519 8.88006 8.02627 9.02977 7.87446C9.2189 7.68219 9.46559 7.58584 9.76952 7.58584C9.90623 7.58584 10.0344 7.61069 10.1557 7.66017M10.1557 7.66017C10.2767 7.70986 10.3802 7.77811 10.4674 7.86492C10.5542 7.95173 10.6237 8.05552 10.6769 8.17671M10.1557 7.66017L10.1196 7.74805C10.2296 7.79321 10.3224 7.85464 10.4003 7.93216M10.6769 8.17671L10.5897 8.21445C10.5897 8.21452 10.5898 8.21458 10.5898 8.21465M10.6769 8.17671C10.7293 8.2978 10.7558 8.42948 10.7558 8.57206C10.7558 8.71495 10.7292 8.84359 10.6769 8.95828M10.6769 8.17671L10.5899 8.21487C10.5899 8.2148 10.5898 8.21472 10.5898 8.21465M10.5898 8.21465C10.541 8.10342 10.478 8.00982 10.4003 7.93216M10.5898 8.21465C10.6367 8.32298 10.6608 8.44165 10.6608 8.57206C10.6608 8.70291 10.6365 8.81789 10.5905 8.91886L10.6769 8.95828M10.4003 7.93216C10.4004 7.93219 10.4004 7.93223 10.4004 7.93226L10.4674 7.86493L10.4003 7.9321C10.4003 7.93212 10.4003 7.93214 10.4003 7.93216ZM10.207 9.58187C10.1075 9.678 10.0083 9.77257 9.90948 9.86545M10.207 9.58187C10.3062 9.48562 10.3959 9.38634 10.4768 9.28391C10.557 9.1818 10.624 9.0734 10.6769 8.95828M10.207 9.58187L10.1409 9.51369C10.1409 9.51364 10.1409 9.5136 10.141 9.51355M10.207 9.58187L10.141 9.51355M9.90948 9.86545L10.141 9.51355C10.2372 9.42017 10.3241 9.32405 10.4021 9.22511C10.478 9.12855 10.5409 9.02652 10.5906 8.91859L10.6769 8.95828M9.90948 9.86545C9.78514 9.9834 9.68135 10.084 9.59748 10.168L9.90948 9.86545ZM10.141 9.51355C10.0418 9.6094 9.94295 9.70365 9.84442 9.79622L9.8441 9.79653C9.71939 9.91483 9.61494 10.0161 9.53026 10.1009L9.53018 10.101C9.4413 10.1902 9.36876 10.284 9.31431 10.383L9.39755 10.4288L9.31437 10.3829C9.25991 10.4815 9.21946 10.591 9.19313 10.7108M10.141 9.51355L10.5493 6.8311C10.7867 6.91252 10.9944 7.0297 11.1718 7.18424C11.3503 7.33949 11.4901 7.53078 11.5913 7.75639C11.694 7.98464 11.7436 8.24171 11.7436 8.52582C11.7436 8.77061 11.7084 8.98885 11.6353 9.1789L11.6353 9.17894C11.5636 9.3651 11.4624 9.53975 11.3322 9.70202L11.3267 9.70889L11.3264 9.7086L10.7686 10.2855L10.7641 10.2902L10.7639 10.29L10.6718 10.3732C10.5735 10.4651 10.4969 10.5418 10.4405 10.6044L10.4402 10.6047C10.3867 10.6637 10.3458 10.7243 10.3163 10.7863L10.3161 10.7866C10.2865 10.8483 10.2654 10.9178 10.2549 10.9953L10.2548 10.9963L10.2548 10.9963C10.243 11.0775 10.2366 11.1809 10.2366 11.3085V11.5203V11.5205C10.2363 11.6811 10.1054 11.8121 9.9447 11.8121H9.44598C9.28519 11.8121 9.15383 11.6813 9.15368 11.5204L9.15368 11.5203V11.5199V11.3472V11.15C9.15368 10.9785 9.16628 10.8316 9.19313 10.7108M9.19313 10.7108C9.19314 10.7108 9.19315 10.7107 9.19316 10.7107L9.2859 10.7313M9.19313 10.7108C9.19312 10.7109 9.19311 10.7109 9.1931 10.7109L9.2859 10.7313M9.2859 10.7313C9.26105 10.843 9.24868 10.9825 9.24868 11.15V11.3472V11.5199V11.5203M9.2859 10.7313L9.24868 11.5203M9.24868 11.5203C9.24878 11.6286 9.33748 11.7171 9.44598 11.7171H9.9447C10.0529 11.7171 10.1414 11.6286 10.1416 11.5203V11.3085C10.1416 11.1781 10.1481 11.0698 10.1608 10.9826C10.1725 10.8957 10.1963 10.8166 10.2305 10.7455C10.2644 10.6743 10.3107 10.606 10.3699 10.5408L9.24868 11.5203ZM9.78807 6.70969C10.0582 6.70969 10.3125 6.7498 10.5493 6.83109L9.78807 6.70969ZM9.78807 6.70969C9.22335 6.70969 8.74325 6.86899 8.35484 7.19184L9.78807 6.70969Z" fill="#323C47" stroke="#323C47" stroke-width="0.19"/>
</svg>
