<svg width="28" height="24" viewBox="0 0 28 24" fill="none" xmlns="http://www.w3.org/2000/svg">
<rect width="28" height="28" transform="translate(0 -2)" fill="#33A679"/>
<path d="M12.5849 13.8181L10.2426 11.4758C10.103 11.3361 9.92752 11.2647 9.71617 11.2615C9.50483 11.2583 9.32613 11.3297 9.18006 11.4758C9.03398 11.6218 8.96094 11.7989 8.96094 12.007C8.96094 12.2151 9.03398 12.3922 9.18006 12.5383L11.947 15.3052C12.1293 15.4875 12.3419 15.5786 12.5849 15.5786C12.8279 15.5786 13.0406 15.4875 13.2228 15.3052L18.8324 9.69572C18.972 9.55612 19.0434 9.38064 19.0466 9.16929C19.0499 8.95794 18.9785 8.77923 18.8324 8.63316C18.6863 8.4871 18.5092 8.41406 18.3011 8.41406C18.093 8.41406 17.9159 8.4871 17.7698 8.63316L12.5849 13.8181Z" fill="white"/>
</svg>
