<svg width="13" height="12" viewBox="0 0 13 12" fill="none" xmlns="http://www.w3.org/2000/svg">
<rect x="0.332031" width="12" height="12" rx="2" fill="#93A2B2"/>
<mask id="mask0_2398_26558" style="mask-type:alpha" maskUnits="userSpaceOnUse" x="0" y="-1" width="13" height="13">
<rect x="0.453125" y="-0.0078125" width="12" height="12" fill="#D9D9D9"/>
</mask>
<g mask="url(#mask0_2398_26558)">
<path d="M6.45177 6.59611L8.2307 8.37504C8.3106 8.45494 8.41103 8.49397 8.53198 8.49213C8.65295 8.49027 8.75337 8.44939 8.83327 8.3695C8.91317 8.28959 8.95312 8.18916 8.95312 8.06821C8.95312 7.94725 8.91317 7.84682 8.83327 7.76693L7.05434 5.99354L8.83327 4.21462C8.91317 4.13471 8.95312 4.03428 8.95312 3.91333C8.95312 3.79237 8.91317 3.69194 8.83327 3.61204C8.75337 3.53214 8.65295 3.49219 8.53198 3.49219C8.41103 3.49219 8.3106 3.53214 8.2307 3.61204L6.45177 5.39097L4.67285 3.61204C4.59294 3.53214 4.49344 3.49219 4.37433 3.49219C4.25522 3.49219 4.15572 3.53214 4.07581 3.61204C3.99592 3.69194 3.95597 3.79237 3.95597 3.91333C3.95597 4.03428 3.99592 4.13471 4.07581 4.21462L5.8492 5.99354L4.07027 7.77247C3.99037 7.85237 3.95134 7.95187 3.95319 8.07098C3.95504 8.19009 3.99592 8.28959 4.07581 8.3695C4.15572 8.44939 4.25615 8.48934 4.3771 8.48934C4.49806 8.48934 4.59849 8.44939 4.67839 8.3695L6.45177 6.59611Z" fill="white"/>
</g>
</svg>
