<svg width="17" height="16" viewBox="0 0 17 16" fill="none" xmlns="http://www.w3.org/2000/svg">
<path d="M5.84633 11.873L8.84633 8.87296L11.8463 11.873L12.7245 10.9948L9.72452 7.99477L12.7245 4.99477L11.8463 4.11658L8.84633 7.11658L5.84633 4.11658L4.96815 4.99477L7.96815 7.99477L4.96815 10.9948L5.84633 11.873ZM8.84773 15.9114C7.75278 15.9114 6.72359 15.7036 5.76015 15.2881C4.79669 14.8725 3.95862 14.3086 3.24594 13.5962C2.53324 12.8838 1.96903 12.0461 1.55329 11.0831C1.13756 10.1201 0.929688 9.09111 0.929688 7.99617C0.929688 6.90122 1.13747 5.87203 1.55302 4.90858C1.96858 3.94513 2.53253 3.10706 3.2449 2.39438C3.95727 1.68168 4.79497 1.11747 5.758 0.70173C6.72101 0.285994 7.74999 0.078125 8.84494 0.078125C9.93988 0.078125 10.9691 0.285904 11.9325 0.701459C12.896 1.11701 13.7341 1.68097 14.4467 2.39333C15.1594 3.10571 15.7236 3.94341 16.1394 4.90644C16.5551 5.86945 16.763 6.89843 16.763 7.99338C16.763 9.08832 16.5552 10.1175 16.1396 11.081C15.7241 12.0444 15.1601 12.8825 14.4478 13.5952C13.7354 14.3079 12.8977 14.8721 11.9347 15.2878C10.9717 15.7036 9.94267 15.9114 8.84773 15.9114Z" fill="#E11313"/>
</svg>
