<svg width="21" height="20" viewBox="0 0 21 20" fill="none" xmlns="http://www.w3.org/2000/svg">
<mask id="mask0_3513_36506" style="mask-type:alpha" maskUnits="userSpaceOnUse" x="0" y="0" width="21" height="20">
<rect x="0.507812" width="20" height="20" fill="#D9D9D9"/>
</mask>
<g mask="url(#mask0_3513_36506)">
<path d="M9.24037 13.4591L14.8417 7.85774L13.9637 6.97974L9.24037 11.7031L6.86586 9.3286L5.98786 10.2066L9.24037 13.4591ZM10.4242 17.83C9.32949 17.83 8.30051 17.6223 7.33727 17.2068C6.37401 16.7913 5.53611 16.2275 4.82358 15.5153C4.11103 14.803 3.54694 13.9655 3.13129 13.0027C2.71564 12.0399 2.50781 11.0111 2.50781 9.9164C2.50781 8.82168 2.71555 7.7927 3.13102 6.82945C3.54649 5.8662 4.11033 5.0283 4.82254 4.31577C5.53477 3.60322 6.37229 3.03913 7.33512 2.62348C8.29793 2.20783 9.3267 2 10.4214 2C11.5161 2 12.5451 2.20774 13.5084 2.6232C14.4716 3.03867 15.3095 3.60251 16.022 4.31473C16.7346 5.02695 17.2987 5.86448 17.7143 6.82731C18.13 7.79012 18.3378 8.81889 18.3378 9.9136C18.3378 11.0083 18.1301 12.0373 17.7146 13.0005C17.2991 13.9638 16.7353 14.8017 16.0231 15.5142C15.3109 16.2268 14.4733 16.7909 13.5105 17.2065C12.5477 17.6222 11.5189 17.83 10.4242 17.83Z" fill="#06B217"/>
</g>
</svg>
