<svg width="12" height="12" viewBox="0 0 12 12" fill="none" xmlns="http://www.w3.org/2000/svg">
<path d="M6 6.69813L8.13244 8.83057C8.2376 8.93573 8.35396 8.98393 8.4815 8.97517C8.60906 8.9664 8.72541 8.90944 8.83056 8.80429C8.93573 8.69912 8.98831 8.58277 8.98831 8.45522C8.98831 8.32767 8.93573 8.21131 8.83056 8.10616L6.69813 6L8.83056 3.86756C8.93573 3.7624 8.98831 3.64604 8.98831 3.5185C8.98831 3.39094 8.93573 3.27459 8.83056 3.16943C8.72541 3.06427 8.60906 3.01169 8.4815 3.01169C8.35396 3.01169 8.2376 3.06427 8.13244 3.16943L6 5.30187L3.86756 3.16943C3.7624 3.06427 3.65042 3.01169 3.53164 3.01169C3.41285 3.01169 3.30088 3.06427 3.19571 3.16943C3.09056 3.27459 3.03798 3.39094 3.03798 3.5185C3.03798 3.64604 3.09056 3.7624 3.19571 3.86756L5.30187 6L3.16943 8.13244C3.06427 8.2376 3.01607 8.34958 3.02483 8.46836C3.0336 8.58715 3.09056 8.69912 3.19571 8.80429C3.30088 8.90944 3.41723 8.96202 3.54478 8.96202C3.67233 8.96202 3.78869 8.90944 3.89384 8.80429L6 6.69813ZM1.22104 12C0.879167 12 0.590192 11.882 0.354115 11.6459C0.118038 11.4098 0 11.1208 0 10.779L0 1.22104C0 0.879168 0.118038 0.590192 0.354115 0.354115C0.590192 0.118039 0.879167 0 1.22104 0L10.779 0C11.1208 0 11.4098 0.118039 11.6459 0.354115C11.882 0.590192 12 0.879168 12 1.22104L12 10.779C12 11.1208 11.882 11.4098 11.6459 11.6459C11.4098 11.882 11.1208 12 10.779 12L1.22104 12ZM1.22104 11.0127L10.779 11.0127C10.8374 11.0127 10.891 10.9883 10.9396 10.9396C10.9883 10.891 11.0127 10.8374 11.0127 10.779L11.0127 1.22104C11.0127 1.16261 10.9883 1.10905 10.9396 1.06035C10.891 1.01167 10.8374 0.987326 10.779 0.987326L1.22104 0.987326C1.16261 0.987326 1.10905 1.01167 1.06035 1.06035C1.01167 1.10905 0.987326 1.16261 0.987326 1.22104L0.987326 10.779C0.987326 10.8374 1.01167 10.891 1.06035 10.9396C1.10905 10.9883 1.16261 11.0127 1.22104 11.0127Z" fill="#0074D6"/>
</svg>
