<svg width="21" height="20" viewBox="0 0 21 20" fill="none" xmlns="http://www.w3.org/2000/svg">
<mask id="mask0_2737_19264" style="mask-type:alpha" maskUnits="userSpaceOnUse" x="0" y="0" width="21" height="20">
<rect x="0.5" width="20" height="20" fill="#D9D9D9"/>
</mask>
<g mask="url(#mask0_2737_19264)">
<path d="M11.0429 9.4525V5.53902C11.0429 5.38556 10.9914 5.25692 10.8884 5.1531C10.7854 5.04928 10.6577 4.99738 10.5054 4.99738C10.3531 4.99738 10.224 5.04928 10.1183 5.1531C10.0125 5.25692 9.95964 5.38556 9.95964 5.53902V9.64481C9.95964 9.74291 9.9778 9.831 10.0141 9.90908C10.0504 9.98717 10.1006 10.0583 10.1648 10.1224L13.0574 13.015C13.1749 13.1325 13.3036 13.1891 13.4436 13.1849C13.5836 13.1806 13.7139 13.1181 13.8346 12.9974C13.9553 12.8767 14.0157 12.7477 14.0157 12.6104C14.0157 12.4731 13.953 12.3423 13.8276 12.2181L11.0429 9.4525ZM10.5027 17.5807C9.45808 17.5807 8.47619 17.3833 7.55701 16.9886C6.63783 16.5939 5.83232 16.0508 5.14047 15.3592C4.44861 14.6677 3.90523 13.8615 3.51032 12.9408C3.11542 12.02 2.91797 11.0361 2.91797 9.98923C2.91797 8.94231 3.11533 7.95797 3.51005 7.03619C3.90477 6.1144 4.4479 5.31105 5.13943 4.62615C5.83097 3.94123 6.63713 3.40132 7.55791 3.00642C8.47868 2.61151 9.46252 2.41406 10.5094 2.41406C11.5563 2.41406 12.5407 2.61309 13.4626 3.01115C14.3845 3.4092 15.1864 3.94941 15.8683 4.63177C16.5502 5.31415 17.0901 6.11657 17.4879 7.03904C17.8857 7.9615 18.0846 8.94715 18.0846 9.99598C18.0846 11.0406 17.8872 12.0225 17.4925 12.9416C17.0978 13.8608 16.5581 14.6663 15.8736 15.3582C15.189 16.05 14.3851 16.5934 13.4619 16.9883C12.5387 17.3832 11.5523 17.5807 10.5027 17.5807ZM10.5112 16.4974C12.3095 16.4974 13.8408 15.862 15.105 14.5911C16.3692 13.3203 17.0013 11.7857 17.0013 9.98744C17.0013 8.18915 16.3692 6.6579 15.105 5.39369C13.8408 4.12948 12.3095 3.49738 10.5112 3.49738C8.71293 3.49738 7.17836 4.12948 5.90753 5.39369C4.6367 6.6579 4.00128 8.18915 4.00128 9.98744C4.00128 11.7857 4.6367 13.3203 5.90753 14.5911C7.17836 15.862 8.71293 16.4974 10.5112 16.4974Z" fill="#323C47"/>
</g>
</svg>
