<svg width="18" height="18" viewBox="0 0 18 18" fill="none" xmlns="http://www.w3.org/2000/svg">
<path d="M10.0601 9.05813L13.6701 5.44813C13.9501 5.16813 13.9501 4.71813 13.6701 4.43813C13.5401 4.30813 13.3601 4.22813 13.1701 4.22813C12.9801 4.22813 12.8001 4.29813 12.6701 4.43813L9.05006 8.04813L5.29006 4.28813C5.16006 4.15813 4.98006 4.07812 4.79006 4.07812C4.60006 4.07812 4.42006 4.14813 4.29006 4.28813C4.00006 4.56813 4.00006 5.01812 4.28006 5.29813L8.04006 9.05813L4.43006 12.6681C4.30006 12.7981 4.22006 12.9781 4.22006 13.1681C4.22006 13.3581 4.29006 13.5381 4.43006 13.6681C4.56006 13.7981 4.74006 13.8781 4.93006 13.8781C5.12006 13.8781 5.30006 13.8081 5.43006 13.6681L9.04006 10.0581L12.5101 13.5281C12.6401 13.6581 12.8201 13.7381 13.0101 13.7381C13.2001 13.7381 13.3801 13.6681 13.5101 13.5281C13.6401 13.3981 13.7201 13.2181 13.7201 13.0281C13.7201 12.8381 13.6501 12.6581 13.5101 12.5281L10.0601 9.05813Z" fill="#475665"/>
</svg>
