<svg width="24" height="24" viewBox="0 0 24 24" fill="none" xmlns="http://www.w3.org/2000/svg">
<g id="code">
<mask id="mask0_3242_55320" style="mask-type:alpha" maskUnits="userSpaceOnUse" x="0" y="0" width="24" height="24">
<rect id="Bounding box" width="24" height="24" fill="#D9D9D9"/>
</mask>
<g mask="url(#mask0_3242_55320)">
<path id="code_2" d="M4.46924 12.0187L8.52694 16.0764C8.66541 16.2149 8.73624 16.3889 8.73944 16.5985C8.74266 16.8081 8.67183 16.9854 8.52694 17.1302C8.38208 17.2751 8.20644 17.3476 8.00004 17.3476C7.79364 17.3476 7.61801 17.2751 7.47315 17.1302L2.97892 12.636C2.88532 12.5424 2.81929 12.4437 2.78084 12.3399C2.74238 12.236 2.72314 12.1239 2.72314 12.0033C2.72314 11.8828 2.74238 11.7706 2.78084 11.6668C2.81929 11.563 2.88532 11.4642 2.97892 11.3707L7.47315 6.87644C7.62185 6.72772 7.79844 6.65175 8.00292 6.64853C8.2074 6.64533 8.38721 6.7213 8.54234 6.87644C8.69746 7.03155 8.77502 7.20975 8.77502 7.41103C8.77502 7.6123 8.69746 7.7905 8.54234 7.94564L4.46924 12.0187ZM19.5308 11.988L15.4731 7.93023C15.3347 7.79178 15.2638 7.61775 15.2606 7.40814C15.2574 7.19854 15.3283 7.0213 15.4731 6.87644C15.618 6.73155 15.7936 6.65911 16 6.65911C16.2064 6.65911 16.3821 6.73155 16.5269 6.87644L21.0212 11.3707C21.1148 11.4642 21.1808 11.563 21.2192 11.6668C21.2577 11.7706 21.2769 11.8828 21.2769 12.0033C21.2769 12.1239 21.2577 12.236 21.2192 12.3399C21.1808 12.4437 21.1148 12.5424 21.0212 12.636L16.5269 17.1302C16.3782 17.279 16.2042 17.3524 16.0048 17.3504C15.8055 17.3485 15.6283 17.27 15.4731 17.1149C15.318 16.9597 15.2404 16.7815 15.2404 16.5803C15.2404 16.379 15.318 16.2008 15.4731 16.0457L19.5308 11.988Z" fill="white"/>
</g>
</g>
</svg>
