<svg width="20" height="20" viewBox="0 0 20 20" fill="none" xmlns="http://www.w3.org/2000/svg">
<mask id="mask0_832_3656" style="mask-type:alpha" maskUnits="userSpaceOnUse" x="0" y="0" width="20" height="20">
<rect width="20" height="20" fill="#D9D9D9"/>
</mask>
<g mask="url(#mask0_832_3656)">
<path d="M5.86536 13.7828C4.81899 13.7828 3.92706 13.4141 3.18956 12.6767C2.45206 11.9393 2.08331 11.0475 2.08331 10.0012C2.08331 8.95499 2.45206 8.06302 3.18956 7.32531C3.92706 6.5876 4.81899 6.21875 5.86536 6.21875H8.38138C8.55846 6.21875 8.70689 6.27867 8.82667 6.39852C8.94646 6.51835 9.00636 6.66685 9.00636 6.84402C9.00636 7.02117 8.94646 7.16958 8.82667 7.28923C8.70689 7.40888 8.55846 7.46871 8.38138 7.46871H5.8644C5.16524 7.46871 4.5686 7.71577 4.07448 8.2099C3.58035 8.70402 3.33329 9.30098 3.33329 10.0008C3.33329 10.7006 3.58035 11.2975 4.07448 11.7916C4.5686 12.2858 5.16524 12.5328 5.8644 12.5328H8.38138C8.55846 12.5328 8.70689 12.5928 8.82667 12.7126C8.94646 12.8324 9.00636 12.9809 9.00636 13.1581C9.00636 13.3352 8.94646 13.4837 8.82667 13.6033C8.70689 13.723 8.55846 13.7828 8.38138 13.7828H5.86536ZM7.49996 10.6258C7.32288 10.6258 7.17445 10.5658 7.05467 10.446C6.93488 10.3262 6.87498 10.1777 6.87498 10.0005C6.87498 9.82333 6.93488 9.67492 7.05467 9.55527C7.17445 9.43562 7.32288 9.37579 7.49996 9.37579H12.5C12.677 9.37579 12.8255 9.43571 12.9453 9.55554C13.0651 9.67539 13.1249 9.82389 13.1249 10.001C13.1249 10.1782 13.0651 10.3266 12.9453 10.4463C12.8255 10.5659 12.677 10.6258 12.5 10.6258H7.49996ZM11.6185 13.7828C11.4415 13.7828 11.293 13.7229 11.1733 13.603C11.0535 13.4832 10.9936 13.3347 10.9936 13.1575C10.9936 12.9804 11.0535 12.832 11.1733 12.7123C11.293 12.5927 11.4415 12.5328 11.6185 12.5328H14.1355C14.8347 12.5328 15.4313 12.2858 15.9254 11.7916C16.4196 11.2975 16.6666 10.7006 16.6666 10.0008C16.6666 9.30098 16.4196 8.70402 15.9254 8.2099C15.4313 7.71577 14.8347 7.46871 14.1355 7.46871H11.6185C11.4415 7.46871 11.293 7.40879 11.1733 7.28896C11.0535 7.16911 10.9936 7.02061 10.9936 6.84346C10.9936 6.66629 11.0535 6.51788 11.1733 6.39823C11.293 6.27858 11.4415 6.21875 11.6185 6.21875H14.1346C15.1809 6.21875 16.0729 6.58745 16.8104 7.32485C17.5479 8.06226 17.9166 8.95408 17.9166 10.0003C17.9166 11.0465 17.5479 11.9385 16.8104 12.6762C16.0729 13.4139 15.1809 13.7828 14.1346 13.7828H11.6185Z" fill="#323C47"/>
</g>
</svg>
