<svg width="20" height="20" viewBox="0 0 20 20" fill="none" xmlns="http://www.w3.org/2000/svg">
<mask id="mask0_1560_20059" style="mask-type:alpha" maskUnits="userSpaceOnUse" x="0" y="0" width="20" height="20">
<rect width="20" height="20" fill="#D9D9D9"/>
</mask>
<g mask="url(#mask0_1560_20059)">
<path d="M14 14.0603L12.5833 15.477C12.4306 15.6298 12.2569 15.7027 12.0625 15.6958C11.8681 15.6888 11.6944 15.609 11.5417 15.4562C11.3889 15.3034 11.3125 15.1263 11.3125 14.9249C11.3125 14.7235 11.3889 14.5465 11.5417 14.3937L12.9375 12.9978L11.5208 11.5812C11.3681 11.4284 11.2951 11.2513 11.3021 11.0499C11.309 10.8485 11.3889 10.6715 11.5417 10.5187C11.6944 10.3659 11.8715 10.2895 12.0729 10.2895C12.2743 10.2895 12.4514 10.3659 12.6042 10.5187L14 11.9353L15.4167 10.5187C15.5694 10.3659 15.7465 10.2895 15.9479 10.2895C16.1493 10.2895 16.3264 10.3659 16.4792 10.5187C16.6319 10.6715 16.7083 10.8485 16.7083 11.0499C16.7083 11.2513 16.6319 11.4284 16.4792 11.5812L15.0625 12.9978L16.4792 14.4145C16.6319 14.5673 16.7083 14.7409 16.7083 14.9353C16.7083 15.1298 16.6319 15.3034 16.4792 15.4562C16.3264 15.609 16.1493 15.6853 15.9479 15.6853C15.7465 15.6853 15.5694 15.609 15.4167 15.4562L14 14.0603ZM13.3958 6.87285L16.3958 3.87285C16.5486 3.72007 16.7257 3.64021 16.9271 3.63327C17.1285 3.62632 17.3056 3.69924 17.4583 3.85202C17.6111 4.00479 17.6875 4.18535 17.6875 4.39368C17.6875 4.60202 17.6111 4.78257 17.4583 4.93535L13.9167 8.47702C13.7639 8.62979 13.5903 8.70618 13.3958 8.70618C13.2014 8.70618 13.0278 8.62979 12.875 8.47702L11.0833 6.68535C10.9306 6.53257 10.8576 6.35549 10.8646 6.1541C10.8715 5.95271 10.9514 5.77563 11.1042 5.62285C11.2569 5.47007 11.434 5.39368 11.6354 5.39368C11.8368 5.39368 12.0139 5.47007 12.1667 5.62285L13.3958 6.87285ZM2.75 12.4978H8.25C8.45833 12.4978 8.63542 12.5708 8.78125 12.7166C8.92708 12.8624 9 13.0395 9 13.2478C9 13.4562 8.92708 13.6333 8.78125 13.7791C8.63542 13.9249 8.45833 13.9978 8.25 13.9978H2.75C2.54167 13.9978 2.36458 13.9249 2.21875 13.7791C2.07292 13.6333 2 13.4562 2 13.2478C2 13.0395 2.07292 12.8624 2.21875 12.7166C2.36458 12.5708 2.54167 12.4978 2.75 12.4978ZM2.75 5.99785H8.25C8.45833 5.99785 8.63542 6.07077 8.78125 6.2166C8.92708 6.36243 9 6.53952 9 6.74785C9 6.95618 8.92708 7.13327 8.78125 7.2791C8.63542 7.42493 8.45833 7.49785 8.25 7.49785H2.75C2.54167 7.49785 2.36458 7.42493 2.21875 7.2791C2.07292 7.13327 2 6.95618 2 6.74785C2 6.53952 2.07292 6.36243 2.21875 6.2166C2.36458 6.07077 2.54167 5.99785 2.75 5.99785Z" fill="#93A2B2"/>
</g>
</svg>
