<svg width="20" height="20" viewBox="0 0 20 20" fill="none" xmlns="http://www.w3.org/2000/svg">
<mask id="mask0_832_2457" style="mask-type:alpha" maskUnits="userSpaceOnUse" x="0" y="0" width="20" height="20">
<rect width="20" height="20" fill="#D9D9D9"/>
</mask>
<g mask="url(#mask0_832_2457)">
<path d="M4.99994 17.9153C4.41769 17.9153 3.9249 17.7137 3.52158 17.3104C3.11828 16.907 2.91663 16.4143 2.91663 15.832V14.9346C2.91663 14.519 3.0638 14.164 3.35815 13.8697C3.65248 13.5753 4.00745 13.4282 4.42304 13.4282H5.41663V3.58845C5.41663 3.17285 5.5638 2.81789 5.85815 2.52355C6.15248 2.2292 6.50745 2.08203 6.92304 2.08203H15.5768C15.9924 2.08203 16.3474 2.2292 16.6417 2.52355C16.9361 2.81789 17.0833 3.17285 17.0833 3.58845V9.16855C16.8749 9.12582 16.6645 9.11433 16.4519 9.1341C16.2392 9.15386 16.0331 9.20327 15.8333 9.28232V3.58845C15.8333 3.51366 15.8092 3.45222 15.7611 3.40414C15.7131 3.35605 15.6516 3.33201 15.5768 3.33201H6.92304C6.84825 3.33201 6.78681 3.35605 6.73873 3.40414C6.69065 3.45222 6.6666 3.51366 6.6666 3.58845V13.4282H11.298L10.048 14.6781H4.42304C4.34825 14.6781 4.28681 14.7022 4.23873 14.7503C4.19065 14.7983 4.1666 14.8598 4.1666 14.9346V15.832C4.1666 16.0681 4.24647 16.266 4.40619 16.4258C4.56591 16.5855 4.76383 16.6653 4.99994 16.6653H9.83967V17.9153H4.99994ZM12.6602 16.9217H13.5352L16.7563 13.7134L17.455 14.4121L14.1778 17.6893C14.0998 17.7673 14.0154 17.8245 13.9246 17.8608C13.8338 17.8972 13.7382 17.9153 13.6377 17.9153H12.4198C12.2051 17.9153 12.0258 17.8435 11.8821 17.6998C11.7385 17.5561 11.6666 17.3769 11.6666 17.1621V15.9522C11.6666 15.8518 11.6848 15.7562 11.7211 15.6653C11.7574 15.5745 11.8146 15.4901 11.8926 15.4121L15.1698 12.1349L15.8813 12.8384L12.6602 16.0467V16.9217ZM17.455 14.4121L15.1698 12.1349L16.1554 11.1493C16.2975 11.0126 16.4746 10.9442 16.6866 10.9442C16.8987 10.9442 17.0731 11.0126 17.2099 11.1493L18.4406 12.3801C18.5774 12.5168 18.6457 12.6912 18.6457 12.9033C18.6457 13.1154 18.5774 13.2925 18.4406 13.4346L17.455 14.4121ZM8.28519 7.24224C8.10784 7.24224 7.95934 7.18241 7.83969 7.06276C7.72004 6.94311 7.66021 6.79461 7.66021 6.61726C7.66021 6.43991 7.72004 6.29141 7.83969 6.17176C7.95934 6.05211 8.10784 5.99228 8.28519 5.99228H14.2147C14.392 5.99228 14.5405 6.05211 14.6602 6.17176C14.7798 6.29141 14.8397 6.43991 14.8397 6.61726C14.8397 6.79461 14.7798 6.94311 14.6602 7.06276C14.5405 7.18241 14.392 7.24224 14.2147 7.24224H8.28519ZM8.28519 9.64609C8.10784 9.64609 7.95934 9.58627 7.83969 9.46662C7.72004 9.34695 7.66021 9.19844 7.66021 9.02109C7.66021 8.84375 7.72004 8.69525 7.83969 8.5756C7.95934 8.45594 8.10784 8.39612 8.28519 8.39612H14.2147C14.392 8.39612 14.5405 8.45594 14.6602 8.5756C14.7798 8.69525 14.8397 8.84375 14.8397 9.02109C14.8397 9.19844 14.7798 9.34695 14.6602 9.46662C14.5405 9.58627 14.392 9.64609 14.2147 9.64609H8.28519Z" fill="#93A2B2"/>
</g>
</svg>
