<svg width="17" height="16" viewBox="0 0 17 16" fill="none" xmlns="http://www.w3.org/2000/svg">
<g id="Component 389">
<mask id="mask0_3926_20926" style="mask-type:alpha" maskUnits="userSpaceOnUse" x="0" y="0" width="17" height="16">
<rect id="Bounding box" x="0.666748" width="16" height="16" fill="#D9D9D9"/>
</mask>
<g mask="url(#mask0_3926_20926)">
<path id="admin_panel_settings" d="M11.8667 11.2017C12.2 11.2017 12.4834 11.0851 12.7167 10.8517C12.95 10.6184 13.0667 10.3351 13.0667 10.0017C13.0667 9.6684 12.95 9.38507 12.7167 9.15173C12.4834 8.9184 12.2 8.80173 11.8667 8.80173C11.5334 8.80173 11.25 8.9184 11.0167 9.15173C10.7834 9.38507 10.6667 9.6684 10.6667 10.0017C10.6667 10.3351 10.7834 10.6184 11.0167 10.8517C11.25 11.0851 11.5334 11.2017 11.8667 11.2017ZM11.8667 13.6017C12.2932 13.6017 12.6859 13.4964 13.0449 13.2858C13.4039 13.0751 13.6966 12.7937 13.9231 12.4415C13.6077 12.2372 13.2791 12.0795 12.9372 11.9684C12.5953 11.8573 12.2398 11.8017 11.8705 11.8017C11.5013 11.8017 11.1445 11.8573 10.8 11.9684C10.4556 12.0795 10.1257 12.2372 9.81028 12.4415C10.0368 12.7937 10.3295 13.0751 10.6885 13.2858C11.0475 13.4964 11.4402 13.6017 11.8667 13.6017ZM8.6667 14.0556C7.29149 13.718 6.13658 12.9192 5.20197 11.6594C4.26735 10.3996 3.80005 8.98591 3.80005 7.4184V4.56585C3.80005 4.33935 3.86202 4.13486 3.98595 3.95238C4.10988 3.76991 4.27569 3.6385 4.48338 3.55817L8.27825 2.10817C8.40987 2.05689 8.53935 2.03125 8.6667 2.03125C8.79404 2.03125 8.92353 2.05689 9.05515 2.10817L12.85 3.55817C13.0577 3.6385 13.2235 3.76991 13.3474 3.95238C13.4714 4.13486 13.5333 4.33935 13.5333 4.56585V7.50945C13.3445 7.42397 13.1812 7.35859 13.0436 7.3133C12.906 7.268 12.7804 7.23637 12.6667 7.21842V4.55303C12.6667 4.51029 12.6549 4.47182 12.6314 4.43763C12.6079 4.40344 12.5748 4.3778 12.5321 4.3607L8.73722 2.91072C8.71585 2.90216 8.69234 2.89788 8.6667 2.89788C8.64105 2.89788 8.61755 2.90216 8.59618 2.91072L4.80133 4.3607C4.75859 4.3778 4.72547 4.40344 4.70197 4.43763C4.67845 4.47182 4.6667 4.51029 4.6667 4.55303V7.4184C4.6667 8.03122 4.75003 8.61905 4.9167 9.18187C5.08337 9.7447 5.3214 10.2652 5.63082 10.7434C5.94022 11.2216 6.31223 11.6471 6.74685 12.0197C7.18147 12.3923 7.65904 12.706 8.17955 12.9607L8.19878 12.9543C8.25348 13.0988 8.34814 13.2635 8.48275 13.4485C8.61736 13.6336 8.76287 13.812 8.91927 13.9838C8.90218 13.9923 8.86008 14.0043 8.79298 14.0197C8.72589 14.035 8.6838 14.047 8.6667 14.0556ZM11.8629 14.0684C11.0663 14.0684 10.39 13.7891 9.83402 13.2306C9.27804 12.6721 9.00005 11.9946 9.00005 11.198C9.00005 10.4013 9.2793 9.72504 9.8378 9.16905C10.3963 8.61307 11.0738 8.33508 11.8705 8.33508C12.6671 8.33508 13.3434 8.61433 13.8994 9.17283C14.4554 9.73132 14.7333 10.4089 14.7333 11.2055C14.7333 12.0021 14.4541 12.6784 13.8956 13.2344C13.3371 13.7904 12.6596 14.0684 11.8629 14.0684Z" fill="#5C6F83"/>
</g>
</g>
</svg>
