<svg width="20" height="20" viewBox="0 0 20 20" fill="none" xmlns="http://www.w3.org/2000/svg">
<path d="M11.1559 6.82547V3.03137C11.1559 2.76822 11.3692 2.55489 11.6324 2.55489H16.9706C17.2337 2.55489 17.4471 2.76822 17.4471 3.03137V6.82547C17.4471 7.08862 17.2337 7.30195 16.9706 7.30195H11.6324C11.3692 7.30195 11.1559 7.08862 11.1559 6.82547ZM2.55294 9.9137V3.03137C2.55294 2.76822 2.76627 2.55489 3.02941 2.55489H8.36762C8.63077 2.55489 8.84409 2.76822 8.84409 3.03137V9.9137C8.84409 10.1768 8.63077 10.3902 8.36762 10.3902H3.02941C2.76627 10.3902 2.55294 10.1768 2.55294 9.9137ZM11.1559 16.9725V10.0902C11.1559 9.82706 11.3692 9.61374 11.6324 9.61374H16.9706C17.2337 9.61374 17.4471 9.82706 17.4471 10.0902V16.9725C17.4471 17.2357 17.2337 17.449 16.9706 17.449H11.6324C11.3692 17.449 11.1559 17.2357 11.1559 16.9725ZM2.55294 16.9725V13.1784C2.55294 12.9153 2.76627 12.702 3.02941 12.702H8.36762C8.63077 12.702 8.84409 12.9153 8.84409 13.1784V16.9725C8.84409 17.2357 8.63077 17.449 8.36762 17.449H3.02941C2.76627 17.449 2.55294 17.2357 2.55294 16.9725ZM4.35292 9.17254H7.04413C7.36576 9.17254 7.62649 8.91181 7.62649 8.59018V4.35488C7.62649 4.03325 7.36576 3.77252 7.04413 3.77252H4.35292C4.0313 3.77252 3.77057 4.03325 3.77057 4.35488V8.59018C3.77057 8.91181 4.0313 9.17254 4.35292 9.17254ZM12.9559 16.2314H15.6471C15.9687 16.2314 16.2294 15.9707 16.2294 15.649V11.4137C16.2294 11.0921 15.9687 10.8314 15.6471 10.8314H12.9559C12.6342 10.8314 12.3735 11.0921 12.3735 11.4137V15.649C12.3735 15.9707 12.6342 16.2314 12.9559 16.2314ZM12.9559 6.08432H15.6471C15.9687 6.08432 16.2294 5.82359 16.2294 5.50196V4.35488C16.2294 4.03325 15.9687 3.77252 15.6471 3.77252H12.9559C12.6342 3.77252 12.3735 4.03325 12.3735 4.35488V5.50196C12.3735 5.82359 12.6342 6.08432 12.9559 6.08432ZM4.35292 16.2314H7.04413C7.36576 16.2314 7.62649 15.9707 7.62649 15.649V14.5019C7.62649 14.1803 7.36576 13.9196 7.04413 13.9196H4.35292C4.0313 13.9196 3.77057 14.1803 3.77057 14.5019V15.649C3.77057 15.9707 4.0313 16.2314 4.35292 16.2314Z" fill="white" stroke="white" stroke-width="0.105883"/>
</svg>
