<svg width="20" height="20" viewBox="0 0 20 20" fill="none" xmlns="http://www.w3.org/2000/svg">
<mask id="mask0_2754_40855" style="mask-type:alpha" maskUnits="userSpaceOnUse" x="0" y="0" width="20" height="20">
<rect width="20" height="20" fill="#D9D9D9"/>
</mask>
<g mask="url(#mask0_2754_40855)">
<path d="M12.2449 14.9972C11.7096 14.9972 11.2553 14.8105 10.8819 14.4371C10.5085 14.0637 10.3218 13.6094 10.3218 13.0741C10.3218 12.5389 10.5085 12.0845 10.8819 11.7111C11.2553 11.3377 11.7096 11.151 12.2449 11.151C12.7801 11.151 13.2345 11.3377 13.6079 11.7111C13.9813 12.0845 14.1679 12.5389 14.1679 13.0741C14.1679 13.6094 13.9813 14.0637 13.6079 14.4371C13.2345 14.8105 12.7801 14.9972 12.2449 14.9972ZM4.42439 17.9138C4.00344 17.9138 3.64714 17.768 3.35547 17.4763C3.0638 17.1846 2.91797 16.8283 2.91797 16.4074V5.25361C2.91797 4.83266 3.0638 4.47635 3.35547 4.18469C3.64714 3.89302 4.00344 3.74719 4.42439 3.74719H5.57824V2.62538C5.57824 2.44269 5.63941 2.29019 5.76174 2.16785C5.88406 2.04553 6.03657 1.98438 6.21926 1.98438C6.40194 1.98438 6.55445 2.04553 6.67678 2.16785C6.7991 2.29019 6.86026 2.44269 6.86026 2.62538V3.74719H13.1743V2.60935C13.1743 2.43201 13.2342 2.28351 13.3538 2.16385C13.4735 2.0442 13.622 1.98438 13.7993 1.98438C13.9767 1.98438 14.1252 2.0442 14.2448 2.16385C14.3645 2.28351 14.4243 2.43201 14.4243 2.60935V3.74719H15.5782C15.9991 3.74719 16.3554 3.89302 16.6471 4.18469C16.9388 4.47635 17.0846 4.83266 17.0846 5.25361V16.4074C17.0846 16.8283 16.9388 17.1846 16.6471 17.4763C16.3554 17.768 15.9991 17.9138 15.5782 17.9138H4.42439ZM4.42439 16.6638H15.5782C15.6423 16.6638 15.7011 16.6371 15.7545 16.5837C15.8079 16.5303 15.8346 16.4715 15.8346 16.4074V8.58694H4.16795V16.4074C4.16795 16.4715 4.19466 16.5303 4.24807 16.5837C4.3015 16.6371 4.36027 16.6638 4.42439 16.6638ZM4.16795 7.33696H15.8346V5.25361C15.8346 5.18949 15.8079 5.13072 15.7545 5.07729C15.7011 5.02388 15.6423 4.99717 15.5782 4.99717H4.42439C4.36027 4.99717 4.3015 5.02388 4.24807 5.07729C4.19466 5.13072 4.16795 5.18949 4.16795 5.25361V7.33696Z" fill="white"/>
</g>
</svg>
