<svg width="24" height="25" viewBox="0 0 24 25" fill="none" xmlns="http://www.w3.org/2000/svg">
<rect x="0.5" y="1" width="23" height="23" rx="11.5" fill="#EFF8FF"/>
<rect x="0.5" y="1" width="23" height="23" rx="11.5" stroke="#84CAFF"/>
<g clip-path="url(#clip0_2398_26448)">
<path d="M16.8125 9H14.625C14.1437 9 13.75 8.60625 13.75 8.125V6.375L16.8125 9ZM16.8125 9V17.75C16.8125 18.2313 16.4188 18.625 15.9375 18.625H8.0625C7.58125 18.625 7.1875 18.2313 7.1875 17.75V7.25C7.1875 6.76875 7.58125 6.375 8.0625 6.375H12" stroke="#1570EF" stroke-width="0.875" stroke-miterlimit="10" stroke-linecap="round" stroke-linejoin="round"/>
<path d="M14.625 12.0625H12" stroke="#1570EF" stroke-width="0.875" stroke-miterlimit="10" stroke-linecap="round" stroke-linejoin="round"/>
<path d="M14.625 14.6875H12" stroke="#1570EF" stroke-width="0.875" stroke-miterlimit="10" stroke-linecap="round" stroke-linejoin="round"/>
<path d="M9.24219 11.9312L9.81094 12.5L10.6859 11.625" stroke="#1570EF" stroke-width="0.875" stroke-miterlimit="10" stroke-linecap="round" stroke-linejoin="round"/>
<path d="M9.8125 15.125C10.0541 15.125 10.25 14.9291 10.25 14.6875C10.25 14.4459 10.0541 14.25 9.8125 14.25C9.57088 14.25 9.375 14.4459 9.375 14.6875C9.375 14.9291 9.57088 15.125 9.8125 15.125Z" fill="#1570EF"/>
</g>
<defs>
<clipPath id="clip0_2398_26448">
<rect width="14" height="14" fill="white" transform="translate(5 5.5)"/>
</clipPath>
</defs>
</svg>
