<svg width="24" height="24" viewBox="0 0 24 24" fill="none" xmlns="http://www.w3.org/2000/svg">
<path d="M19.7143 6.28571H16.1429C15.3571 6.28571 14.7143 5.64286 14.7143 4.85714V2L19.7143 6.28571ZM19.7143 6.28571V20.5714C19.7143 21.3571 19.0714 22 18.2857 22H5.42857C4.64286 22 4 21.3571 4 20.5714V3.42857C4 2.64286 4.64286 2 5.42857 2H11.8571" stroke="#0074D6" stroke-width="1.40317" stroke-miterlimit="10" stroke-linecap="round" stroke-linejoin="round"/>
<path d="M16.1373 11.2734H11.8516" stroke="#3DA6FF" stroke-width="1.40317" stroke-miterlimit="10" stroke-linecap="round" stroke-linejoin="round"/>
<path d="M16.1373 15.5781H11.8516" stroke="#3DA6FF" stroke-width="1.40317" stroke-miterlimit="10" stroke-linecap="round" stroke-linejoin="round"/>
<path d="M7.33594 11.0781L8.26451 12.0067L9.69308 10.5781" stroke="#3DA6FF" stroke-width="1.40317" stroke-miterlimit="10" stroke-linecap="round" stroke-linejoin="round"/>
<path d="M8.29241 16.2801C8.6869 16.2801 9.0067 15.9603 9.0067 15.5658C9.0067 15.1714 8.6869 14.8516 8.29241 14.8516C7.89792 14.8516 7.57812 15.1714 7.57812 15.5658C7.57812 15.9603 7.89792 16.2801 8.29241 16.2801Z" fill="#3DA6FF"/>
</svg>
