<svg width="14" height="4" viewBox="0 0 14 4" fill="none" xmlns="http://www.w3.org/2000/svg">
<path d="M2.19234 3.24996C1.84861 3.24996 1.55434 3.12756 1.30955 2.88277C1.06477 2.63798 0.942383 2.34372 0.942383 1.99998C0.942383 1.65624 1.06477 1.36198 1.30955 1.11719C1.55434 0.872396 1.84861 0.75 2.19234 0.75C2.53609 0.75 2.83036 0.872396 3.07513 1.11719C3.31992 1.36198 3.44232 1.65624 3.44232 1.99998C3.44232 2.34372 3.31992 2.63798 3.07513 2.88277C2.83036 3.12756 2.53609 3.24996 2.19234 3.24996ZM7.00003 3.24996C6.65629 3.24996 6.36203 3.12756 6.11724 2.88277C5.87245 2.63798 5.75005 2.34372 5.75005 1.99998C5.75005 1.65624 5.87245 1.36198 6.11724 1.11719C6.36203 0.872396 6.65629 0.75 7.00003 0.75C7.34377 0.75 7.63803 0.872396 7.88282 1.11719C8.12761 1.36198 8.25001 1.65624 8.25001 1.99998C8.25001 2.34372 8.12761 2.63798 7.88282 2.88277C7.63803 3.12756 7.34377 3.24996 7.00003 3.24996ZM11.8077 3.24996C11.464 3.24996 11.1697 3.12756 10.9249 2.88277C10.6801 2.63798 10.5577 2.34372 10.5577 1.99998C10.5577 1.65624 10.6801 1.36198 10.9249 1.11719C11.1697 0.872396 11.464 0.75 11.8077 0.75C12.1515 0.75 12.4457 0.872396 12.6905 1.11719C12.9353 1.36198 13.0577 1.65624 13.0577 1.99998C13.0577 2.34372 12.9353 2.63798 12.6905 2.88277C12.4457 3.12756 12.1515 3.24996 11.8077 3.24996Z" fill="#475665"/>
</svg>
