<svg width="20" height="20" viewBox="0 0 20 20" fill="none" xmlns="http://www.w3.org/2000/svg">
<mask id="mask0_3018_22265" style="mask-type:alpha" maskUnits="userSpaceOnUse" x="0" y="0" width="20" height="20">
<rect width="20" height="20" fill="#D9D9D9"/>
</mask>
<g mask="url(#mask0_3018_22265)">
<path d="M4.375 11.6666C4.19792 11.6666 4.04948 11.6067 3.92969 11.4869C3.8099 11.367 3.75 11.2185 3.75 11.0414C3.75 10.8642 3.8099 10.7158 3.92969 10.5962C4.04948 10.4765 4.19792 10.4167 4.375 10.4167H8.95835C9.13544 10.4167 9.28388 10.4766 9.40367 10.5964C9.52345 10.7163 9.58333 10.8648 9.58333 11.0419C9.58333 11.2191 9.52345 11.3675 9.40367 11.4872C9.28388 11.6068 9.13544 11.6666 8.95835 11.6666H4.375ZM4.375 8.33331C4.19792 8.33331 4.04948 8.27339 3.92969 8.15354C3.8099 8.03371 3.75 7.88521 3.75 7.70804C3.75 7.53089 3.8099 7.38249 3.92969 7.26283C4.04948 7.14317 4.19792 7.08333 4.375 7.08333H12.2917C12.4688 7.08333 12.6172 7.14326 12.737 7.26311C12.8568 7.38295 12.9167 7.53145 12.9167 7.7086C12.9167 7.88577 12.8568 8.03418 12.737 8.15383C12.6172 8.27349 12.4688 8.33331 12.2917 8.33331H4.375ZM4.375 4.99998C4.19792 4.99998 4.04948 4.94006 3.92969 4.82021C3.8099 4.70037 3.75 4.55188 3.75 4.37471C3.75 4.19756 3.8099 4.04915 3.92969 3.9295C4.04948 3.80983 4.19792 3.75 4.375 3.75H12.2917C12.4688 3.75 12.6172 3.80992 12.737 3.92977C12.8568 4.04962 12.9167 4.19812 12.9167 4.37527C12.9167 4.55244 12.8568 4.70085 12.737 4.8205C12.6172 4.94015 12.4688 4.99998 12.2917 4.99998H4.375ZM10.9295 15.4968V14.3621C10.9295 14.2641 10.9476 14.169 10.984 14.077C11.0203 13.9851 11.0774 13.9001 11.1554 13.8221L15.4535 9.54485C15.5571 9.44123 15.669 9.36831 15.7891 9.32611C15.9093 9.28391 16.0294 9.26281 16.1495 9.26281C16.2806 9.26281 16.4073 9.28738 16.5298 9.33652C16.6522 9.38567 16.7635 9.45939 16.8637 9.55767L17.6346 10.3365C17.7243 10.4401 17.7938 10.5523 17.8429 10.673C17.892 10.7938 17.9166 10.9145 17.9166 11.0352C17.9166 11.156 17.8942 11.2788 17.8493 11.4038C17.8044 11.5288 17.7329 11.6431 17.6346 11.7468L13.3573 16.024C13.2793 16.102 13.1943 16.1591 13.1024 16.1955C13.0104 16.2318 12.9154 16.25 12.8173 16.25H11.6827C11.4693 16.25 11.2904 16.1778 11.146 16.0334C11.0017 15.889 10.9295 15.7102 10.9295 15.4968ZM11.923 15.2564H12.7147L15.4199 12.5384L15.0368 12.1426L14.649 11.7516L11.923 14.4647V15.2564ZM15.0368 12.1426L14.649 11.7516L15.4199 12.5384L15.0368 12.1426Z" fill="#93A2B2"/>
</g>
</svg>
