<svg width="12" height="13" viewBox="0 0 12 13" fill="none" xmlns="http://www.w3.org/2000/svg">
<path d="M2.16042 12.1506C2.23516 12.1208 2.30576 12.0715 2.37247 12.0048L10.0655 4.31087L10.1009 4.27551L10.0655 4.24016L8.25899 2.43341L8.22363 2.39805L8.18827 2.43341L0.495219 10.1273C0.428509 10.194 0.379242 10.2646 0.349348 10.3394C0.319943 10.4129 0.305469 10.4917 0.305469 10.5755V11.5608C0.305469 11.7407 0.365382 11.893 0.486186 12.0138C0.606979 12.1346 0.759221 12.1945 0.939124 12.1945H1.92439C2.00808 12.1945 2.08692 12.1801 2.16042 12.1506ZM2.16042 12.1506L2.14186 12.1042M2.16042 12.1506C2.16043 12.1506 2.16043 12.1506 2.16043 12.1506L2.14186 12.1042M2.14186 12.1042C2.07469 12.1311 2.0022 12.1445 1.92439 12.1445H0.939124C0.771441 12.1445 0.632248 12.0892 0.521543 11.9785L8.22363 2.46876L8.25899 2.50411L9.99481 4.24016L10.0302 4.27551L9.99481 4.31087L2.33711 11.9694C2.27411 12.0324 2.20903 12.0774 2.14186 12.1042ZM10.5146 3.787L10.55 3.82219L10.5853 3.78691L11.476 2.89605C11.6239 2.7481 11.6965 2.56516 11.6935 2.35063C11.6906 2.13657 11.6152 1.95421 11.4677 1.80662L10.6923 1.03111C10.5444 0.8832 10.3603 0.809375 10.1434 0.809375C9.92657 0.809375 9.74248 0.883201 9.59459 1.03111L8.70799 1.9178L8.67256 1.95324L8.70807 1.98859L10.5146 3.787ZM8.93251 4.27134L1.83281 11.3718H1.1281V10.667L8.2278 3.56655L8.93251 4.27134Z" fill="#323C47" stroke="#323C47" stroke-width="0.1"/>
</svg>
