<svg width="20" height="20" viewBox="0 0 20 20" fill="none" xmlns="http://www.w3.org/2000/svg">
<mask id="mask0_3165_15802" style="mask-type:alpha" maskUnits="userSpaceOnUse" x="0" y="0" width="20" height="20">
<rect width="20" height="20" fill="#D9D9D9"/>
</mask>
<g mask="url(#mask0_3165_15802)">
<path d="M8.8199 13.5474L14.4224 7.9449L13.5443 7.06671L8.8199 11.7911L6.4449 9.41606L5.56671 10.2943L8.8199 13.5474ZM10.004 17.9192C8.90903 17.9192 7.87984 17.7115 6.9164 17.2959C5.95294 16.8803 5.11487 16.3164 4.40219 15.604C3.68949 14.8916 3.12528 14.0539 2.70954 13.0909C2.29381 12.1279 2.08594 11.0989 2.08594 10.004C2.08594 8.90904 2.29372 7.87984 2.70927 6.9164C3.12483 5.95294 3.68878 5.11487 4.40115 4.40219C5.11352 3.68949 5.95122 3.12528 6.91425 2.70954C7.87726 2.29381 8.90624 2.08594 10.0012 2.08594C11.0961 2.08594 12.1253 2.29372 13.0888 2.70927C14.0522 3.12483 14.8903 3.68879 15.603 4.40115C16.3157 5.11352 16.8799 5.95122 17.2956 6.91425C17.7114 7.87727 17.9192 8.90624 17.9192 10.0012C17.9192 11.0961 17.7115 12.1253 17.2959 13.0888C16.8803 14.0522 16.3164 14.8903 15.604 15.603C14.8916 16.3157 14.0539 16.8799 13.0909 17.2956C12.1279 17.7114 11.0989 17.9192 10.004 17.9192Z" fill="#06B217"/>
</g>
</svg>
