<svg width="20" height="20" viewBox="0 0 20 20" fill="none" xmlns="http://www.w3.org/2000/svg">
<mask id="mask0_2829_20136" style="mask-type:alpha" maskUnits="userSpaceOnUse" x="0" y="0" width="20" height="20">
<rect width="20" height="20" fill="#D9D9D9"/>
</mask>
<g mask="url(#mask0_2829_20136)">
<path d="M5.23166 16.8139V16.7908C5.28502 16.8382 5.35127 16.8612 5.42725 16.8612H14.1593H14.2551L14.1969 16.7851L11.9468 13.8414C11.9468 13.8413 11.9468 13.8413 11.9468 13.8413C11.8436 13.7056 11.7202 13.5997 11.5765 13.5244C11.4323 13.4488 11.2751 13.4112 11.1059 13.4112H5.23166V12.3218H11.1059C11.45 12.3218 11.7675 12.3961 12.0591 12.5443C12.3511 12.6928 12.5991 12.9025 12.8034 13.1743L12.8037 13.1747L14.6212 15.5431L14.7062 15.6538V15.5143V4.42518C14.7062 4.34314 14.6793 4.27244 14.6239 4.21707C14.5686 4.16171 14.4979 4.13487 14.4158 4.13487H5.42725C5.35127 4.13487 5.28502 4.15789 5.23166 4.20526V4.18224H5.13692V4.42518V12.2744V12.3218V13.4112V13.4586V16.5709V16.8139H5.23166ZM7.00815 10.2533V9.16385H12.8349V10.2533H7.00815ZM7.00815 7.09539V6.00595H12.8349V7.09539H7.00815ZM14.4158 17.9507H5.42725C5.0407 17.9507 4.71526 17.8173 4.448 17.5501C4.18075 17.2828 4.04737 16.9574 4.04737 16.5709V4.42518C4.04737 4.03867 4.18075 3.71325 4.448 3.44602C4.71526 3.17879 5.0407 3.04542 5.42725 3.04542H14.4158C14.8024 3.04542 15.1278 3.17879 15.3951 3.44602C15.6623 3.71325 15.7957 4.03867 15.7957 4.42518V16.5709C15.7957 16.9574 15.6623 17.2828 15.3951 17.5501C15.1278 17.8173 14.8024 17.9507 14.4158 17.9507Z" fill="white" stroke="white" stroke-width="0.094741"/>
</g>
</svg>
