<svg width="20" height="20" viewBox="0 0 20 20" fill="none" xmlns="http://www.w3.org/2000/svg">
<circle cx="10" cy="10" r="9.58333" stroke="#CED5DD" stroke-width="0.833333"/>
<mask id="mask0_3165_15780" style="mask-type:alpha" maskUnits="userSpaceOnUse" x="0" y="-1" width="20" height="21">
<rect y="-0.414062" width="20" height="20" fill="#D9D9D9"/>
</mask>
<g mask="url(#mask0_3165_15780)">
<path d="M9.45573 10.125H5.95573C5.80226 10.125 5.67361 10.0734 5.56979 9.97042C5.46597 9.86739 5.41406 9.73972 5.41406 9.58742C5.41406 9.43511 5.46597 9.30608 5.56979 9.20031C5.67361 9.09455 5.80226 9.04167 5.95573 9.04167H9.45573V5.54167C9.45573 5.38819 9.50724 5.25955 9.61027 5.15573C9.7133 5.05191 9.84097 5 9.99327 5C10.1456 5 10.2746 5.05191 10.3804 5.15573C10.4861 5.25955 10.539 5.38819 10.539 5.54167V9.04167H14.039C14.1925 9.04167 14.3211 9.09318 14.425 9.19621C14.5288 9.29924 14.5807 9.4269 14.5807 9.57921C14.5807 9.73151 14.5288 9.86055 14.425 9.96631C14.3211 10.0721 14.1925 10.125 14.039 10.125H10.539V13.625C10.539 13.7784 10.4875 13.9071 10.3845 14.0109C10.2815 14.1147 10.1538 14.1666 10.0015 14.1666C9.84917 14.1666 9.72014 14.1147 9.61438 14.0109C9.50861 13.9071 9.45573 13.7784 9.45573 13.625V10.125Z" fill="#06B217"/>
</g>
</svg>
