<svg width="20" height="20" viewBox="0 0 20 20" fill="none" xmlns="http://www.w3.org/2000/svg">
<circle cx="10" cy="10" r="9.58333" stroke="#D9D9D9" stroke-width="0.833333"/>
<path d="M10.2189 7.41406C8.79273 7.41406 7.63281 8.57456 7.63281 10.0005C7.63281 11.4273 8.79311 12.5874 10.2189 12.5874C11.6455 12.5874 12.8058 11.4269 12.8058 10.0005C12.8058 8.57418 11.6451 7.41406 10.2189 7.41406ZM10.2189 11.4496C9.42048 11.4496 8.77073 10.7996 8.77073 10.0005C8.77073 9.20184 9.42048 8.55181 10.2189 8.55181C11.0177 8.55181 11.6679 9.20184 11.6679 10.0005C11.6679 10.7996 11.0177 11.4496 10.2189 11.4496Z" fill="#06B217"/>
<path d="M17.3999 9.78042C16.1854 6.87652 13.3671 5 10.2201 5C7.07372 5 4.2551 6.87614 3.04019 9.78004C2.9814 9.92074 2.9814 10.0789 3.04019 10.2192C4.25586 13.1235 7.0741 15 10.2201 15C13.3664 15 16.185 13.1239 17.3999 10.22C17.4587 10.0793 17.4587 9.92112 17.3999 9.78042ZM10.2201 13.8623C7.61423 13.8623 5.27164 12.354 4.18645 10C5.27126 7.64601 7.61385 6.13774 10.2201 6.13774C12.8266 6.13774 15.1688 7.64601 16.2537 10C15.1688 12.354 12.8266 13.8623 10.2201 13.8623Z" fill="#06B217"/>
</svg>
