<svg width="20" height="20" viewBox="0 0 20 20" fill="none" xmlns="http://www.w3.org/2000/svg">
<mask id="mask0_2528_12468" style="mask-type:alpha" maskUnits="userSpaceOnUse" x="0" y="0" width="20" height="20">
<rect width="20" height="20" fill="#D9D9D9"/>
</mask>
<g mask="url(#mask0_2528_12468)">
<path d="M6.66536 13.7526H10.832C10.9506 13.7526 11.0497 13.7128 11.1293 13.6332C11.2089 13.5536 11.2487 13.4545 11.2487 13.3359C11.2487 13.2173 11.2089 13.1182 11.1293 13.0387C11.0497 12.9591 10.9506 12.9193 10.832 12.9193H6.66536C6.54677 12.9193 6.44768 12.9591 6.36809 13.0387C6.2885 13.1182 6.2487 13.2173 6.2487 13.3359C6.2487 13.4545 6.2885 13.5536 6.36809 13.6332C6.44768 13.7128 6.54677 13.7526 6.66536 13.7526ZM6.66536 10.4193H13.332C13.4506 10.4193 13.5497 10.3795 13.6293 10.2999C13.7089 10.2203 13.7487 10.1212 13.7487 10.0026C13.7487 9.88401 13.7089 9.78492 13.6293 9.70533C13.5497 9.62574 13.4506 9.58594 13.332 9.58594H6.66536C6.54677 9.58594 6.44768 9.62574 6.36809 9.70533C6.2885 9.78492 6.2487 9.88401 6.2487 10.0026C6.2487 10.1212 6.2885 10.2203 6.36809 10.2999C6.44768 10.3795 6.54677 10.4193 6.66536 10.4193ZM6.66536 7.08594H13.332C13.4506 7.08594 13.5497 7.04614 13.6293 6.96654C13.7089 6.88696 13.7487 6.78787 13.7487 6.66927C13.7487 6.55067 13.7089 6.45158 13.6293 6.372C13.5497 6.2924 13.4506 6.2526 13.332 6.2526H6.66536C6.54677 6.2526 6.44768 6.2924 6.36809 6.372C6.2885 6.45158 6.2487 6.55067 6.2487 6.66927C6.2487 6.78787 6.2885 6.88696 6.36809 6.96654C6.44768 7.04614 6.54677 7.08594 6.66536 7.08594ZM4.67818 16.6693C4.29464 16.6693 3.97439 16.5408 3.71745 16.2839C3.4605 16.0269 3.33203 15.7067 3.33203 15.3231V4.68208C3.33203 4.29854 3.4605 3.9783 3.71745 3.72135C3.97439 3.46441 4.29464 3.33594 4.67818 3.33594H15.3192C15.7028 3.33594 16.023 3.46441 16.2799 3.72135C16.5369 3.9783 16.6654 4.29854 16.6654 4.68208V15.3231C16.6654 15.7067 16.5369 16.0269 16.2799 16.2839C16.023 16.5408 15.7028 16.6693 15.3192 16.6693H4.67818ZM4.67818 15.8359H15.3192C15.4474 15.8359 15.5649 15.7825 15.6718 15.6757C15.7786 15.5688 15.832 15.4513 15.832 15.3231V4.68208C15.832 4.55389 15.7786 4.43637 15.6718 4.32952C15.5649 4.22269 15.4474 4.16927 15.3192 4.16927H4.67818C4.54998 4.16927 4.43246 4.22269 4.32561 4.32952C4.21878 4.43637 4.16536 4.55389 4.16536 4.68208V15.3231C4.16536 15.4513 4.21878 15.5688 4.32561 15.6757C4.43246 15.7825 4.54998 15.8359 4.67818 15.8359Z" fill="#323C47"/>
</g>
</svg>
