<svg width="20" height="20" viewBox="0 0 20 20" fill="none" xmlns="http://www.w3.org/2000/svg">
<mask id="mask0_2737_18503" style="mask-type:alpha" maskUnits="userSpaceOnUse" x="0" y="0" width="20" height="20">
<rect width="20" height="20" fill="#D9D9D9"/>
</mask>
<g mask="url(#mask0_2737_18503)">
<path d="M5.00128 17.9192C4.41903 17.9192 3.92625 17.7176 3.52293 17.3143C3.11962 16.911 2.91797 16.4182 2.91797 15.8359V14.9385C2.91797 14.5229 3.06514 14.1679 3.35949 13.8736C3.65382 13.5793 4.00879 13.4321 4.42439 13.4321H5.41797V3.59236C5.41797 3.17676 5.56514 2.82179 5.85949 2.52746C6.15382 2.23311 6.50879 2.08594 6.92439 2.08594H15.5782C15.9938 2.08594 16.3487 2.23311 16.6431 2.52746C16.9374 2.82179 17.0846 3.17676 17.0846 3.59236V9.17246C16.8763 9.12972 16.6658 9.11824 16.4532 9.138C16.2406 9.15777 16.0344 9.20718 15.8346 9.28623V3.59236C15.8346 3.51756 15.8106 3.45613 15.7625 3.40804C15.7144 3.35996 15.653 3.33592 15.5782 3.33592H6.92439C6.84959 3.33592 6.78816 3.35996 6.74007 3.40804C6.69199 3.45613 6.66795 3.51756 6.66795 3.59236V13.4321H11.2993L10.0494 14.682H4.42439C4.34959 14.682 4.28816 14.7061 4.24007 14.7542C4.19199 14.8023 4.16795 14.8637 4.16795 14.9385V15.8359C4.16795 16.072 4.24781 16.2699 4.40753 16.4297C4.56725 16.5894 4.76517 16.6693 5.00128 16.6693H9.84101V17.9192H5.00128ZM12.6615 16.9256H13.5365L16.7577 13.7173L17.4564 14.416L14.1791 17.6933C14.1011 17.7713 14.0167 17.8284 13.9259 17.8647C13.8351 17.9011 13.7395 17.9192 13.6391 17.9192H12.4212C12.2064 17.9192 12.0272 17.8474 11.8835 17.7037C11.7398 17.56 11.6679 17.3808 11.6679 17.166V15.9561C11.6679 15.8557 11.6861 15.7601 11.7224 15.6693C11.7588 15.5784 11.8159 15.494 11.8939 15.416L15.1712 12.1388L15.8827 12.8423L12.6615 16.0506V16.9256ZM17.4564 14.416L15.1712 12.1388L16.1567 11.1532C16.2988 11.0165 16.4759 10.9481 16.688 10.9481C16.9 10.9481 17.0744 11.0165 17.2112 11.1532L18.4419 12.384C18.5787 12.5207 18.6471 12.6951 18.6471 12.9072C18.6471 13.1193 18.5787 13.2964 18.4419 13.4385L17.4564 14.416ZM8.28653 7.24615C8.10918 7.24615 7.96068 7.18632 7.84103 7.06667C7.72138 6.94701 7.66155 6.79852 7.66155 6.62117C7.66155 6.44382 7.72138 6.29532 7.84103 6.17567C7.96068 6.05601 8.10918 5.99619 8.28653 5.99619H14.216C14.3934 5.99619 14.5419 6.05601 14.6615 6.17567C14.7812 6.29532 14.841 6.44382 14.841 6.62117C14.841 6.79852 14.7812 6.94701 14.6615 7.06667C14.5419 7.18632 14.3934 7.24615 14.216 7.24615H8.28653ZM8.28653 9.65C8.10918 9.65 7.96068 9.59018 7.84103 9.47052C7.72138 9.35086 7.66155 9.20235 7.66155 9.025C7.66155 8.84765 7.72138 8.69915 7.84103 8.5795C7.96068 8.45985 8.10918 8.40002 8.28653 8.40002H14.216C14.3934 8.40002 14.5419 8.45985 14.6615 8.5795C14.7812 8.69915 14.841 8.84765 14.841 9.025C14.841 9.20235 14.7812 9.35086 14.6615 9.47052C14.5419 9.59018 14.3934 9.65 14.216 9.65H8.28653Z" fill="#1D2329"/>
</g>
</svg>
