<svg width="24" height="24" viewBox="0 0 24 24" fill="none" xmlns="http://www.w3.org/2000/svg">
<rect x="0.5" y="0.5" width="23" height="23" rx="11.5" fill="#EFF8FF"/>
<path d="M9.41246 15.0727H12.6475C12.7851 15.0727 12.9004 15.0263 12.9933 14.9334C13.0862 14.8405 13.1327 14.7252 13.1327 14.5875C13.1327 14.4498 13.0862 14.3345 12.9933 14.2416C12.9004 14.1487 12.7851 14.1022 12.6475 14.1022H9.41246C9.27477 14.1022 9.15947 14.1487 9.06657 14.2416C8.97367 14.3345 8.92722 14.4498 8.92722 14.5875C8.92722 14.7252 8.97367 14.8405 9.06657 14.9334C9.15947 15.0263 9.27477 15.0727 9.41246 15.0727ZM9.41246 12.4847H14.5885C14.7261 12.4847 14.8414 12.4383 14.9343 12.3454C15.0272 12.2525 15.0737 12.1372 15.0737 11.9995C15.0737 11.8618 15.0272 11.7465 14.9343 11.6536C14.8414 11.5607 14.7261 11.5142 14.5885 11.5142H9.41246C9.27477 11.5142 9.15947 11.5607 9.06657 11.6536C8.97367 11.7465 8.92722 11.8618 8.92722 11.9995C8.92722 12.1372 8.97367 12.2525 9.06657 12.3454C9.15947 12.4383 9.27477 12.4847 9.41246 12.4847ZM9.41246 9.89672H14.5885C14.7261 9.89672 14.8414 9.85027 14.9343 9.75737C15.0272 9.66447 15.0737 9.54917 15.0737 9.41148C15.0737 9.27379 15.0272 9.15849 14.9343 9.0656C14.8414 8.9727 14.7261 8.92625 14.5885 8.92625H9.41246C9.27477 8.92625 9.15947 8.9727 9.06657 9.0656C8.97367 9.15849 8.92722 9.27379 8.92722 9.41148C8.92722 9.54917 8.97367 9.66447 9.06657 9.75737C9.15947 9.85027 9.27477 9.89672 9.41246 9.89672ZM7.67056 17.499C7.34374 17.499 7.0671 17.3857 6.84065 17.1593C6.6142 16.9328 6.50098 16.6562 6.50098 16.3294V7.66958C6.50098 7.34276 6.6142 7.06612 6.84065 6.83967C7.0671 6.61322 7.34374 6.5 7.67056 6.5H16.3304C16.6572 6.5 16.9338 6.61322 17.1603 6.83967C17.3867 7.06612 17.4999 7.34276 17.4999 7.66958V16.3294C17.4999 16.6562 17.3867 16.9328 17.1603 17.1593C16.9338 17.3857 16.6572 17.499 16.3304 17.499H7.67056ZM7.67056 16.5285H16.3304C16.3801 16.5285 16.4258 16.5077 16.4672 16.4663C16.5087 16.4248 16.5295 16.3792 16.5295 16.3294V7.66958C16.5295 7.61981 16.5087 7.57418 16.4672 7.53269C16.4258 7.49122 16.3801 7.47048 16.3304 7.47048H7.67056C7.62078 7.47048 7.57515 7.49122 7.53367 7.53269C7.4922 7.57418 7.47146 7.61981 7.47146 7.66958V16.3294C7.47146 16.3792 7.4922 16.4248 7.53367 16.4663C7.57515 16.5077 7.62078 16.5285 7.67056 16.5285Z" fill="#1570EF"/>
<rect x="0.5" y="0.5" width="23" height="23" rx="11.5" stroke="#84CAFF"/>
</svg>
