<svg width="24" height="24" viewBox="0 0 24 24" fill="none" xmlns="http://www.w3.org/2000/svg">
<path d="M14.8047 3.62891L18.5509 7.37141L14.8047 7.38266V3.62891Z" fill="#70BEFF"/>
<path d="M18 7.12891H15.75C15.5511 7.12891 15.3603 7.04989 15.2197 6.90924C15.079 6.76858 15 6.57782 15 6.37891V4.12891C15 3.92999 14.921 3.73923 14.7803 3.59858C14.6397 3.45792 14.4489 3.37891 14.25 3.37891H6C5.80109 3.37891 5.61032 3.45792 5.46967 3.59858C5.32902 3.73923 5.25 3.92999 5.25 4.12891V19.8789C5.25 20.0778 5.32902 20.2686 5.46967 20.4092C5.61032 20.5499 5.80109 20.6289 6 20.6289H18C18.1989 20.6289 18.3897 20.5499 18.5303 20.4092C18.671 20.2686 18.75 20.0778 18.75 19.8789V7.87891C18.75 7.67999 18.671 7.48923 18.5303 7.34858C18.3897 7.20792 18.1989 7.12891 18 7.12891Z" fill="url(#paint0_linear_2654_21186)"/>
<path d="M14.625 12.3789H4.125C3.91789 12.3789 3.75 12.5468 3.75 12.7539V17.2539C3.75 17.461 3.91789 17.6289 4.125 17.6289H14.625C14.8321 17.6289 15 17.461 15 17.2539V12.7539C15 12.5468 14.8321 12.3789 14.625 12.3789Z" fill="#0074D6"/>
<path d="M6.27734 13.8789H7.07984C7.19196 13.8786 7.30381 13.8899 7.41359 13.9127C7.51332 13.933 7.60857 13.9711 7.69484 14.0252C7.77282 14.0854 7.83466 14.164 7.87484 14.2539C7.92455 14.3567 7.94898 14.4698 7.94609 14.5839C7.95383 14.7137 7.92663 14.8432 7.86734 14.9589C7.81866 15.0493 7.746 15.1246 7.65734 15.1764C7.5629 15.2279 7.46004 15.2622 7.35359 15.2777C7.22953 15.2967 7.1041 15.3055 6.97859 15.3039H6.67484V16.2939H6.27734V13.8789ZM6.95984 14.9139H7.14734C7.20918 14.91 7.26997 14.896 7.32734 14.8727C7.38091 14.8522 7.42767 14.8171 7.46234 14.7714C7.5002 14.7165 7.51868 14.6505 7.51484 14.5839C7.51796 14.522 7.50228 14.4605 7.46984 14.4077C7.43775 14.3641 7.39519 14.3292 7.34609 14.3064C7.29435 14.2813 7.2384 14.2661 7.18109 14.2614H7.00484H6.70109V14.9327L6.95984 14.9139Z" fill="white"/>
<path d="M8.42578 13.8789H9.37828C9.53363 13.8779 9.68812 13.9019 9.83578 13.9502C9.974 13.9988 10.1014 14.074 10.2108 14.1714C10.3265 14.2757 10.4186 14.4036 10.4808 14.5464C10.5517 14.7135 10.5862 14.8938 10.582 15.0752C10.5875 15.2595 10.5476 15.4424 10.4658 15.6077C10.3951 15.7536 10.2926 15.8817 10.1658 15.9827C10.0426 16.0806 9.90293 16.1555 9.75328 16.2039C9.61172 16.2507 9.46363 16.2748 9.31453 16.2752H8.42578V13.8789ZM9.17578 15.8814C9.30215 15.8819 9.4281 15.8668 9.55078 15.8364C9.662 15.8106 9.76669 15.7621 9.85828 15.6939C9.94631 15.6296 10.0172 15.5446 10.0645 15.4464C10.1188 15.3291 10.1445 15.2006 10.1395 15.0714C10.1422 14.9435 10.1205 14.8163 10.0758 14.6964C10.034 14.5991 9.96974 14.513 9.88828 14.4452C9.8034 14.3805 9.70653 14.3334 9.60328 14.3064C9.48161 14.2707 9.35506 14.2542 9.22828 14.2577H8.85328V15.8777L9.17578 15.8814Z" fill="white"/>
<path d="M11.0703 13.8789H12.6116V14.2539H11.4866V14.8839H12.5403V15.2589H11.4941V16.2527H11.0703V13.8789Z" fill="white"/>
<defs>
<linearGradient id="paint0_linear_2654_21186" x1="5.25002" y1="12.0039" x2="18.75" y2="12.0039" gradientUnits="userSpaceOnUse">
<stop stop-color="#E9F3FC"/>
<stop offset="1" stop-color="#CADCF0"/>
</linearGradient>
</defs>
</svg>
