<svg width="20" height="20" viewBox="0 0 20 20" fill="none" xmlns="http://www.w3.org/2000/svg">
<g id="frame_source">
<mask id="mask0_3461_33959" style="mask-type:alpha" maskUnits="userSpaceOnUse" x="0" y="0" width="20" height="20">
<rect id="Bounding box" width="20" height="20" fill="#D9D9D9"/>
</mask>
<g mask="url(#mask0_3461_33959)">
<path id="frame_source_2" d="M6.22171 9.99738L7.60312 11.3788C7.71851 11.4942 7.77621 11.6371 7.77621 11.8075C7.77621 11.9779 7.71851 12.125 7.60312 12.249C7.47921 12.3782 7.33071 12.4415 7.15763 12.4389C6.98456 12.4362 6.83606 12.3729 6.71213 12.249L4.98777 10.5246C4.83713 10.374 4.76181 10.1982 4.76181 9.99738C4.76181 9.79653 4.83713 9.62079 4.98777 9.47015L6.72496 7.73296C6.84888 7.60903 6.99524 7.54787 7.16404 7.54948C7.33285 7.55108 7.47921 7.61651 7.60312 7.74579C7.71851 7.86971 7.77701 8.01607 7.7786 8.18488C7.78022 8.35368 7.71906 8.50004 7.59512 8.62396L6.22171 9.99738ZM13.773 9.99738L12.3916 8.61596C12.2762 8.50057 12.2185 8.35767 12.2185 8.18727C12.2185 8.01687 12.2762 7.86971 12.3916 7.74579C12.5155 7.61651 12.664 7.55321 12.8371 7.55588C13.0102 7.55856 13.1587 7.62186 13.2826 7.74579L15.007 9.47015C15.1576 9.62079 15.2329 9.79653 15.2329 9.99738C15.2329 10.1982 15.1576 10.374 15.007 10.5246L13.2698 12.2618C13.1459 12.3857 12.9995 12.4469 12.8307 12.4453C12.6619 12.4437 12.5155 12.3782 12.3916 12.249C12.2762 12.125 12.2177 11.9787 12.2161 11.8099C12.2145 11.6411 12.2757 11.4947 12.3996 11.3708L13.773 9.99738ZM4.42048 17.0807C3.99953 17.0807 3.64323 16.9349 3.35156 16.6432C3.0599 16.3515 2.91406 15.9952 2.91406 15.5743V13.1224C2.91406 12.945 2.9739 12.7965 3.09356 12.6769C3.21322 12.5572 3.36172 12.4974 3.53906 12.4974C3.71641 12.4974 3.86491 12.5572 3.98456 12.6769C4.10422 12.7965 4.16404 12.945 4.16404 13.1224V15.5743C4.16404 15.6384 4.19075 15.6972 4.24417 15.7506C4.2976 15.804 4.35637 15.8307 4.42048 15.8307H6.8724C7.04974 15.8307 7.19824 15.8905 7.3179 16.0102C7.43755 16.1298 7.49738 16.2783 7.49738 16.4557C7.49738 16.633 7.43755 16.7815 7.3179 16.9012C7.19824 17.0209 7.04974 17.0807 6.8724 17.0807H4.42048ZM15.5743 17.0807H13.1224C12.945 17.0807 12.7965 17.0209 12.6769 16.9012C12.5572 16.7815 12.4974 16.633 12.4974 16.4557C12.4974 16.2783 12.5572 16.1298 12.6769 16.0102C12.7965 15.8905 12.945 15.8307 13.1224 15.8307H15.5743C15.6384 15.8307 15.6972 15.804 15.7506 15.7506C15.804 15.6972 15.8307 15.6384 15.8307 15.5743V13.1224C15.8307 12.945 15.8905 12.7965 16.0102 12.6769C16.1298 12.5572 16.2783 12.4974 16.4557 12.4974C16.633 12.4974 16.7815 12.5572 16.9012 12.6769C17.0209 12.7965 17.0807 12.945 17.0807 13.1224V15.5743C17.0807 15.9952 16.9349 16.3515 16.6432 16.6432C16.3515 16.9349 15.9952 17.0807 15.5743 17.0807ZM2.91406 6.8724V4.42048C2.91406 3.99954 3.0599 3.64323 3.35156 3.35156C3.64323 3.0599 3.99953 2.91406 4.42048 2.91406H6.8724C7.04974 2.91406 7.19824 2.9739 7.3179 3.09356C7.43755 3.21322 7.49738 3.36172 7.49738 3.53906C7.49738 3.71641 7.43755 3.86491 7.3179 3.98456C7.19824 4.10422 7.04974 4.16404 6.8724 4.16404H4.42048C4.35637 4.16404 4.2976 4.19075 4.24417 4.24417C4.19075 4.2976 4.16404 4.35637 4.16404 4.42048V6.8724C4.16404 7.04974 4.10422 7.19824 3.98456 7.3179C3.86491 7.43755 3.71641 7.49738 3.53906 7.49738C3.36172 7.49738 3.21322 7.43755 3.09356 7.3179C2.9739 7.19824 2.91406 7.04974 2.91406 6.8724ZM15.8307 6.8724V4.42048C15.8307 4.35637 15.804 4.2976 15.7506 4.24417C15.6972 4.19075 15.6384 4.16404 15.5743 4.16404H13.1224C12.945 4.16404 12.7965 4.10422 12.6769 3.98456C12.5572 3.86491 12.4974 3.71641 12.4974 3.53906C12.4974 3.36172 12.5572 3.21322 12.6769 3.09356C12.7965 2.9739 12.945 2.91406 13.1224 2.91406H15.5743C15.9952 2.91406 16.3515 3.0599 16.6432 3.35156C16.9349 3.64323 17.0807 3.99954 17.0807 4.42048V6.8724C17.0807 7.04974 17.0209 7.19824 16.9012 7.3179C16.7815 7.43755 16.633 7.49738 16.4557 7.49738C16.2783 7.49738 16.1298 7.43755 16.0102 7.3179C15.8905 7.19824 15.8307 7.04974 15.8307 6.8724Z" fill="#93A2B2"/>
</g>
</g>
</svg>
