<svg width="20" height="20" viewBox="0 0 20 20" fill="none" xmlns="http://www.w3.org/2000/svg">
<mask id="mask0_2398_28394" style="mask-type:alpha" maskUnits="userSpaceOnUse" x="0" y="0" width="20" height="20">
<rect width="20" height="20" fill="#D9D9D9"/>
</mask>
<g mask="url(#mask0_2398_28394)">
<path d="M5.83201 11.5038C6.02272 11.5038 6.18257 11.4393 6.31157 11.3103C6.44057 11.1813 6.50507 11.0214 6.50507 10.8307C6.50507 10.64 6.44057 10.4801 6.31157 10.3511C6.18257 10.2221 6.02272 10.1576 5.83201 10.1576C5.6413 10.1576 5.48145 10.2221 5.35245 10.3511C5.22345 10.4801 5.15895 10.64 5.15895 10.8307C5.15895 11.0214 5.22345 11.1813 5.35245 11.3103C5.48145 11.4393 5.6413 11.5038 5.83201 11.5038ZM5.83201 8.17044C6.02272 8.17044 6.18257 8.10594 6.31157 7.97694C6.44057 7.84794 6.50507 7.68808 6.50507 7.49738C6.50507 7.30667 6.44057 7.14681 6.31157 7.01781C6.18257 6.88881 6.02272 6.82431 5.83201 6.82431C5.6413 6.82431 5.48145 6.88881 5.35245 7.01781C5.22345 7.14681 5.15895 7.30667 5.15895 7.49738C5.15895 7.68808 5.22345 7.84794 5.35245 7.97694C5.48145 8.10594 5.6413 8.17044 5.83201 8.17044ZM8.17174 11.4557H14.1653C14.3424 11.4557 14.4909 11.3958 14.6107 11.2759C14.7304 11.1561 14.7903 11.0076 14.7903 10.8304C14.7903 10.6533 14.7304 10.5049 14.6107 10.3852C14.4909 10.2656 14.3424 10.2057 14.1653 10.2057H8.17174C7.99466 10.2057 7.84623 10.2656 7.72645 10.3855C7.60666 10.5053 7.54676 10.6538 7.54676 10.831C7.54676 11.0081 7.60666 11.1566 7.72645 11.2762C7.84623 11.3959 7.99466 11.4557 8.17174 11.4557ZM8.17174 8.12236H14.1653C14.3424 8.12236 14.4909 8.06244 14.6107 7.9426C14.7304 7.82276 14.7903 7.67426 14.7903 7.4971C14.7903 7.31994 14.7304 7.17153 14.6107 7.05188C14.4909 6.93222 14.3424 6.8724 14.1653 6.8724H8.17174C7.99466 6.8724 7.84623 6.93231 7.72645 7.05215C7.60666 7.17199 7.54676 7.32049 7.54676 7.49765C7.54676 7.67481 7.60666 7.82322 7.72645 7.94288C7.84623 8.06253 7.99466 8.12236 8.17174 8.12236ZM3.58845 15.414C3.1675 15.414 2.8112 15.2682 2.51953 14.9765C2.22786 14.6849 2.08203 14.3286 2.08203 13.9076V4.42048C2.08203 3.99954 2.22786 3.64323 2.51953 3.35156C2.8112 3.0599 3.1675 2.91406 3.58845 2.91406H16.4089C16.8299 2.91406 17.1862 3.0599 17.4778 3.35156C17.7695 3.64323 17.9153 3.99954 17.9153 4.42048V13.9076C17.9153 14.3286 17.7695 14.6849 17.4778 14.9765C17.1862 15.2682 16.8299 15.414 16.4089 15.414H12.9153V16.3275C12.9153 16.5409 12.8431 16.7198 12.6988 16.8641C12.5544 17.0085 12.3755 17.0807 12.1621 17.0807H7.83524C7.62184 17.0807 7.44296 17.0085 7.29859 16.8641C7.15422 16.7198 7.08203 16.5409 7.08203 16.3275V15.414H3.58845ZM3.58845 14.164H16.4089C16.473 14.164 16.5318 14.1373 16.5852 14.0839C16.6386 14.0305 16.6653 13.9717 16.6653 13.9076V4.42048C16.6653 4.35637 16.6386 4.2976 16.5852 4.24417C16.5318 4.19075 16.473 4.16404 16.4089 4.16404H3.58845C3.52434 4.16404 3.46557 4.19075 3.41214 4.24417C3.35872 4.2976 3.33201 4.35637 3.33201 4.42048V13.9076C3.33201 13.9717 3.35872 14.0305 3.41214 14.0839C3.46557 14.1373 3.52434 14.164 3.58845 14.164Z" fill="#003366"/>
</g>
</svg>
