<svg width="20" height="20" viewBox="0 0 20 20" fill="none" xmlns="http://www.w3.org/2000/svg">
<mask id="mask0_832_3839" style="mask-type:alpha" maskUnits="userSpaceOnUse" x="0" y="0" width="20" height="20">
<rect width="20" height="20" fill="#D9D9D9"/>
</mask>
<g mask="url(#mask0_832_3839)">
<path d="M4.99998 15.8347H7.78846V11.636C7.78846 11.4226 7.86064 11.2437 8.005 11.0993C8.14936 10.955 8.32825 10.8828 8.54167 10.8828H11.4583C11.6717 10.8828 11.8506 10.955 11.995 11.0993C12.1393 11.2437 12.2115 11.4226 12.2115 11.636V15.8347H15V8.46292C15 8.42018 14.9906 8.38145 14.9719 8.34673C14.9532 8.31201 14.9279 8.28129 14.8958 8.25458L10.1522 4.68887C10.1095 4.65149 10.0587 4.63279 9.99998 4.63279C9.94122 4.63279 9.89046 4.65149 9.84773 4.68887L5.10415 8.25458C5.0721 8.28129 5.04673 8.31201 5.02802 8.34673C5.00933 8.38145 4.99998 8.42018 4.99998 8.46292V15.8347ZM3.75 15.8347V8.46292C3.75 8.2244 3.80335 7.99845 3.91006 7.78504C4.01677 7.57164 4.16427 7.3959 4.35256 7.25781L9.09615 3.6841C9.35938 3.48324 9.66023 3.38281 9.99869 3.38281C10.3371 3.38281 10.6389 3.48324 10.9038 3.6841L15.6474 7.25781C15.8357 7.3959 15.9832 7.57164 16.0899 7.78504C16.1966 7.99845 16.25 8.2244 16.25 8.46292V15.8347C16.25 16.1755 16.1268 16.469 15.8806 16.7153C15.6343 16.9616 15.3408 17.0847 15 17.0847H11.7147C11.5013 17.0847 11.3224 17.0125 11.1781 16.8681C11.0337 16.7238 10.9615 16.5449 10.9615 16.3315V12.1328H9.03844V16.3315C9.03844 16.5449 8.96626 16.7238 8.8219 16.8681C8.67752 17.0125 8.49863 17.0847 8.28523 17.0847H4.99998C4.65917 17.0847 4.36565 16.9616 4.1194 16.7153C3.87313 16.469 3.75 16.1755 3.75 15.8347Z" fill="#93A2B2"/>
</g>
</svg>
