<svg width="25" height="24" viewBox="0 0 25 24" fill="none" xmlns="http://www.w3.org/2000/svg">
<g id="Nodes">
<mask id="mask0_3188_29590" style="mask-type:alpha" maskUnits="userSpaceOnUse" x="0" y="0" width="25" height="24">
<rect id="Bounding box" x="0.305908" width="24" height="24" fill="#D9D9D9"/>
</mask>
<g mask="url(#mask0_3188_29590)">
<path id="check_circle" d="M10.5132 17.3733L19.0055 8.88097L17.6743 7.54982L10.5132 14.711L6.91319 11.111L5.58204 12.4421L10.5132 17.3733ZM12.308 24C10.6483 24 9.08827 23.6851 7.62788 23.0552C6.16748 22.4253 4.89714 21.5704 3.81686 20.4906C2.73657 19.4108 1.88133 18.141 1.25116 16.6813C0.620993 15.2215 0.305908 13.6618 0.305908 12.0021C0.305908 10.3424 0.620857 8.78236 1.25075 7.32198C1.88065 5.86157 2.73549 4.59123 3.81529 3.51096C4.8951 2.43066 6.16488 1.57543 7.62463 0.945256C9.08436 0.315086 10.6441 0 12.3038 0C13.9635 0 15.5235 0.31495 16.9839 0.944846C18.4443 1.57474 19.7147 2.42959 20.795 3.50938C21.8752 4.58919 22.7305 5.85897 23.3607 7.31873C23.9908 8.77846 24.3059 10.3382 24.3059 11.9979C24.3059 13.6576 23.991 15.2176 23.3611 16.678C22.7312 18.1384 21.8763 19.4088 20.7965 20.489C19.7167 21.5693 18.4469 22.4246 16.9872 23.0547C15.5275 23.6849 13.9677 24 12.308 24Z" fill="#06B217"/>
</g>
</g>
</svg>
