<svg width="8" height="8" viewBox="0 0 8 8" fill="none" xmlns="http://www.w3.org/2000/svg">
<g id="Frame" clip-path="url(#clip0_3621_8629)">
<g id="stroke-4px">
<g id="The-Icons">
<g id="9.12">
<g id="Combined-Shape">
<path id="Vector" fill-rule="evenodd" clip-rule="evenodd" d="M4.52473 3.90868L7.22417 1.20956C7.39009 1.04366 7.3906 0.774528 7.2249 0.608851C7.05805 0.442019 6.79023 0.443505 6.62413 0.609589L3.9247 3.30871L1.22527 0.609589C1.05935 0.443688 0.790186 0.443174 0.62449 0.608851C0.457639 0.775683 0.459125 1.04347 0.625229 1.20956L3.32466 3.90868L0.625229 6.60781C0.459308 6.77371 0.458794 7.04284 0.62449 7.20851C0.791341 7.37535 1.05916 7.37386 1.22527 7.20778L3.9247 4.50865L6.62413 7.20778C6.79005 7.37368 7.05921 7.37419 7.2249 7.20851C7.39176 7.04168 7.39027 6.77389 7.22417 6.60781L4.52473 3.90868Z" fill="#B0BCC7"/>
</g>
</g>
</g>
</g>
</g>
<defs>
<clipPath id="clip0_3621_8629">
<rect width="7" height="7" fill="white" transform="translate(0.5 0.5)"/>
</clipPath>
</defs>
</svg>
