<svg width="18" height="18" viewBox="0 0 18 18" fill="none" xmlns="http://www.w3.org/2000/svg">
<mask id="mask0_3522_44578" style="mask-type:alpha" maskUnits="userSpaceOnUse" x="0" y="0" width="18" height="18">
<rect width="18" height="18" fill="#D9D9D9"/>
</mask>
<g mask="url(#mask0_3522_44578)">
<path d="M8.99316 12.4093C9.13024 12.4093 9.24637 12.3626 9.34156 12.2692C9.43674 12.1758 9.48434 12.06 9.48434 11.9219V8.58434C9.48434 8.44623 9.43797 8.33045 9.34525 8.23701C9.25252 8.14358 9.13762 8.09686 9.00055 8.09686C8.86347 8.09686 8.74734 8.14358 8.65216 8.23701C8.55697 8.33045 8.50938 8.44623 8.50938 8.58434V11.9219C8.50938 12.06 8.55574 12.1758 8.64846 12.2692C8.74119 12.3626 8.85609 12.4093 8.99316 12.4093ZM8.9929 6.96321C9.14217 6.96321 9.26861 6.91273 9.37221 6.81177C9.47581 6.71079 9.52761 6.58568 9.52761 6.43641C9.52761 6.28715 9.47713 6.16071 9.37615 6.0571C9.27519 5.9535 9.15007 5.9017 9.00081 5.9017C8.85154 5.9017 8.7251 5.95219 8.6215 6.05316C8.5179 6.15414 8.4661 6.27926 8.4661 6.42852C8.4661 6.57778 8.51659 6.70421 8.61756 6.80781C8.71852 6.91141 8.84364 6.96321 8.9929 6.96321ZM9.00329 15.8218C8.06439 15.8218 7.18014 15.6442 6.35054 15.289C5.52093 14.9337 4.79479 14.4449 4.17213 13.8225C3.54945 13.2001 3.06041 12.4746 2.70499 11.6459C2.34958 10.8172 2.17187 9.93174 2.17188 8.98953C2.17188 8.0473 2.3495 7.16451 2.70475 6.34116C3.06 5.5178 3.54881 4.79479 4.17119 4.17213C4.79358 3.54945 5.51912 3.06041 6.34782 2.70499C7.17652 2.34958 8.06197 2.17188 9.00419 2.17188C9.94641 2.17188 10.8292 2.3495 11.6526 2.70475C12.4759 3.06 13.1989 3.54881 13.8216 4.17119C14.4443 4.79358 14.9333 5.51766 15.2887 6.34343C15.6441 7.16921 15.8218 8.05154 15.8218 8.99043C15.8218 9.92933 15.6442 10.8136 15.289 11.6432C14.9337 12.4728 14.4449 13.1989 13.8225 13.8216C13.2001 14.4443 12.4761 14.9333 11.6503 15.2887C10.8245 15.6441 9.94217 15.8218 9.00329 15.8218ZM8.99686 14.8469C10.6219 14.8469 12.0031 14.2781 13.1406 13.1406C14.2781 12.0031 14.8469 10.6219 14.8469 8.99686C14.8469 7.37186 14.2781 5.99061 13.1406 4.85311C12.0031 3.71561 10.6219 3.14686 8.99686 3.14686C7.37186 3.14686 5.99061 3.71561 4.85311 4.85311C3.71561 5.99061 3.14686 7.37186 3.14686 8.99686C3.14686 10.6219 3.71561 12.0031 4.85311 13.1406C5.99061 14.2781 7.37186 14.8469 8.99686 14.8469Z" fill="#75899D"/>
</g>
</svg>
