<svg width="14" height="13" viewBox="0 0 14 13" fill="none" xmlns="http://www.w3.org/2000/svg">
<path d="M8.09375 0.164062H13.3438C13.6992 0.164062 14 0.464844 14 0.820312V5.19531C14 5.57812 13.6992 5.85156 13.3438 5.85156H8.09375C7.71094 5.85156 7.4375 5.57812 7.4375 5.19531V0.820312C7.4375 0.464844 7.71094 0.164062 8.09375 0.164062ZM5.90625 0.164062C6.26172 0.164062 6.5625 0.464844 6.5625 0.820312V5.19531C6.5625 5.57812 6.26172 5.85156 5.90625 5.85156H0.65625C0.273438 5.85156 0 5.57812 0 5.19531V0.820312C0 0.464844 0.273438 0.164062 0.65625 0.164062H5.90625ZM0 7.38281C0 7.02734 0.273438 6.72656 0.65625 6.72656H5.90625C6.26172 6.72656 6.5625 7.02734 6.5625 7.38281V11.7578C6.5625 12.1406 6.26172 12.4141 5.90625 12.4141H0.65625C0.273438 12.4141 0 12.1406 0 11.7578V7.38281ZM8.09375 12.4141C7.71094 12.4141 7.4375 12.1406 7.4375 11.7578V7.38281C7.4375 7.02734 7.71094 6.72656 8.09375 6.72656H13.3438C13.6992 6.72656 14 7.02734 14 7.38281V11.7578C14 12.1406 13.6992 12.4141 13.3438 12.4141H8.09375Z" fill="#5C6F83"/>
</svg>
