<svg width="15" height="15" viewBox="0 0 15 15" fill="none" xmlns="http://www.w3.org/2000/svg">
<g clip-path="url(#clip0_832_3638)">
<path d="M5.20317 5.76225C5.25603 5.70384 5.32148 5.65821 5.39457 5.62882C5.4746 5.59716 5.56008 5.58155 5.64613 5.58288C5.72314 5.58042 5.79983 5.59383 5.87145 5.62225C5.9243 5.64424 5.97199 5.67703 6.01145 5.7185C6.05748 5.77173 6.09987 5.828 6.13832 5.88694C6.15636 5.9102 6.17958 5.92892 6.20613 5.94163C6.23234 5.95453 6.26115 5.96127 6.29035 5.96132C6.34085 5.96246 6.38984 5.94404 6.42707 5.90991C6.44595 5.89503 6.46126 5.8761 6.47186 5.85452C6.48246 5.83294 6.48808 5.80926 6.48832 5.78522C6.48505 5.73051 6.46813 5.67749 6.4391 5.631C6.40117 5.56715 6.35143 5.5111 6.29254 5.46585C6.2163 5.40809 6.13037 5.36439 6.03879 5.33678C5.92128 5.30032 5.79868 5.28297 5.67567 5.28538C5.52706 5.28334 5.37918 5.30626 5.23817 5.35319C5.11604 5.39476 5.00419 5.46187 4.91004 5.55007C4.81858 5.63732 4.74825 5.74431 4.70442 5.86288C4.65471 5.99278 4.62914 6.13067 4.62895 6.26976C4.62706 6.40944 4.65155 6.54822 4.70113 6.67882C4.74604 6.79652 4.81623 6.90293 4.90676 6.99054C5.00076 7.07867 5.11269 7.14545 5.23488 7.18632C5.37071 7.23288 5.5135 7.25582 5.65707 7.25414C5.78087 7.2553 5.90433 7.24097 6.02457 7.21148C6.14634 7.17916 6.26411 7.1333 6.37567 7.07476C6.41283 7.0563 6.44771 7.03354 6.47957 7.00695C6.50485 6.98614 6.52411 6.95895 6.53535 6.9282C6.54435 6.89174 6.54767 6.85411 6.5452 6.81663V6.44804C6.5489 6.39626 6.53628 6.34462 6.5091 6.30038C6.48609 6.26843 6.45229 6.2459 6.41395 6.23694C6.36658 6.22622 6.31813 6.22109 6.26957 6.22163H5.80801C5.76033 6.21907 5.71332 6.23383 5.67567 6.26319C5.65969 6.27643 5.64703 6.29321 5.63868 6.31219C5.63032 6.33118 5.62651 6.35185 5.62754 6.37257C5.62588 6.39441 5.63045 6.41628 5.64071 6.43564C5.65097 6.455 5.6665 6.47105 5.68551 6.48194C5.73919 6.50679 5.79816 6.51806 5.85723 6.51476H6.17223V6.81663C6.09184 6.85798 6.00758 6.89131 5.92067 6.91617C5.83446 6.93992 5.74539 6.9517 5.65598 6.95117C5.57191 6.95592 5.48782 6.94222 5.4096 6.91105C5.33138 6.87987 5.26092 6.83197 5.20317 6.7707C5.08667 6.62527 5.02891 6.44146 5.04129 6.25554C5.04002 6.15986 5.05405 6.0646 5.08285 5.97335C5.10801 5.89546 5.14897 5.82359 5.20317 5.76225Z" fill="#323C47"/>
<path d="M7.94409 6.89165C7.85676 6.94832 7.75388 6.97624 7.64987 6.97149C7.57704 6.97257 7.50489 6.95724 7.43878 6.92665C7.38914 6.90408 7.34591 6.8695 7.313 6.82602C7.27957 6.77869 7.25168 6.72768 7.22987 6.67399C7.21361 6.62997 7.18741 6.5903 7.15331 6.55805C7.12309 6.53165 7.08405 6.5176 7.04394 6.51868C7.01981 6.51786 6.99576 6.52189 6.97321 6.53053C6.95067 6.53917 6.93008 6.55225 6.91269 6.56899C6.89622 6.58436 6.88314 6.603 6.87429 6.62372C6.86543 6.64444 6.861 6.66678 6.86128 6.6893C6.86431 6.77872 6.89402 6.86519 6.94659 6.93759C7.00233 7.02208 7.0773 7.09217 7.16534 7.14212C7.31686 7.21926 7.4854 7.25688 7.65534 7.25149C7.80206 7.25511 7.94796 7.22869 8.08409 7.17384C8.19489 7.1291 8.29027 7.05309 8.35862 6.95509C8.42147 6.86604 8.4558 6.76001 8.45706 6.65102C8.45998 6.56651 8.44155 6.48262 8.40347 6.40711C8.36728 6.34094 8.31546 6.28462 8.25253 6.24305C8.17982 6.19616 8.10108 6.15936 8.01847 6.13368C7.92659 6.10378 7.82414 6.07607 7.71112 6.05055C7.62071 6.02868 7.55581 6.01227 7.51644 6.00133C7.47633 5.98951 7.4375 5.97376 7.4005 5.9543C7.36555 5.9373 7.3346 5.91306 7.30972 5.88321C7.28774 5.85517 7.27614 5.82039 7.2769 5.78477C7.27817 5.75248 7.28767 5.72106 7.30452 5.69349C7.32137 5.66591 7.345 5.64312 7.37315 5.62727C7.44921 5.58036 7.53764 5.55749 7.6269 5.56164C7.71328 5.55452 7.79964 5.57563 7.873 5.6218C7.9285 5.66771 7.97329 5.7252 8.00425 5.79024C8.02469 5.83054 8.05126 5.86744 8.083 5.89961C8.11381 5.92435 8.15304 5.93611 8.19237 5.93242C8.21637 5.93295 8.2402 5.92835 8.26227 5.91891C8.28434 5.90948 8.30414 5.89544 8.32034 5.87774C8.35298 5.84485 8.37143 5.80048 8.37175 5.75414C8.37054 5.70014 8.35628 5.64722 8.33018 5.59992C8.29765 5.54119 8.25334 5.4898 8.20003 5.44899C8.13468 5.39749 8.06058 5.35821 7.98128 5.33305C7.87771 5.30208 7.76998 5.28732 7.6619 5.2893C7.52486 5.2865 7.38846 5.30874 7.2594 5.35492C7.1559 5.39102 7.0651 5.45637 6.998 5.54305C6.93793 5.62352 6.90602 5.72154 6.90722 5.82196C6.90367 5.92083 6.93374 6.018 6.99253 6.09758C7.05245 6.17312 7.13027 6.23252 7.21894 6.2704C7.33618 6.31845 7.45778 6.35508 7.58206 6.37977C7.68998 6.4031 7.77602 6.42498 7.84019 6.4454C7.89897 6.46314 7.95287 6.49421 7.99769 6.53618C8.0181 6.55618 8.0341 6.58023 8.04465 6.6068C8.0552 6.63336 8.06007 6.66184 8.05894 6.6904C8.05859 6.73096 8.04785 6.77076 8.02774 6.80599C8.00764 6.84122 7.97884 6.87071 7.94409 6.89165Z" fill="#323C47"/>
<path d="M9.66018 7.02023V5.63773H10.1086C10.1643 5.6419 10.2196 5.62641 10.265 5.59398C10.2813 5.58075 10.2944 5.56408 10.3035 5.54517C10.3126 5.52626 10.3174 5.50558 10.3175 5.4846C10.3183 5.46265 10.314 5.44081 10.3051 5.42073C10.2962 5.40066 10.2829 5.38285 10.2661 5.36866C10.2207 5.33614 10.1654 5.32065 10.1097 5.32491H8.81471C8.76028 5.32111 8.70621 5.33617 8.66159 5.36757C8.64524 5.38214 8.63216 5.4 8.62321 5.41998C8.61425 5.43996 8.60962 5.46161 8.60962 5.48351C8.60962 5.5054 8.61425 5.52705 8.62321 5.54703C8.63216 5.56701 8.64524 5.58488 8.66159 5.59945C8.70649 5.63206 8.76157 5.64758 8.8169 5.6432H9.26096V7.02023C9.25605 7.08412 9.27648 7.14738 9.31784 7.19633C9.33669 7.21568 9.35935 7.23092 9.38439 7.24108C9.40943 7.25124 9.43629 7.25612 9.4633 7.25539C9.49025 7.25639 9.51711 7.25175 9.54216 7.24177C9.56721 7.23179 9.5899 7.21668 9.60877 7.19742C9.64824 7.14726 9.66667 7.08373 9.66018 7.02023Z" fill="#323C47"/>
<path d="M6.4763 10.9356C6.52448 10.9677 6.58342 10.9794 6.64021 10.9681C6.697 10.9569 6.74701 10.9235 6.77927 10.8754L8.52927 8.25043C8.54521 8.22652 8.55629 8.1997 8.56186 8.1715C8.56744 8.1433 8.56741 8.11429 8.56177 8.0861C8.55614 8.05792 8.54501 8.03112 8.52901 8.00724C8.51302 7.98336 8.49248 7.96286 8.46856 7.94691C8.44465 7.93097 8.41783 7.9199 8.38963 7.91432C8.36144 7.90874 8.33242 7.90877 8.30423 7.91441C8.27605 7.92004 8.24925 7.93118 8.22537 7.94717C8.20149 7.96316 8.18099 7.9837 8.16505 8.00762L6.41505 10.6326C6.38304 10.6809 6.37152 10.74 6.383 10.7968C6.39448 10.8536 6.42804 10.9035 6.4763 10.9356Z" fill="#323C47"/>
<path d="M6.16019 9.44141C6.31161 9.44141 6.45964 9.39651 6.58555 9.31238C6.71145 9.22825 6.80958 9.10868 6.86753 8.96878C6.92548 8.82888 6.94064 8.67494 6.9111 8.52642C6.88156 8.3779 6.80864 8.24148 6.70157 8.1344C6.59449 8.02733 6.45807 7.95441 6.30955 7.92487C6.16104 7.89533 6.00709 7.91049 5.86719 7.96844C5.7273 8.02639 5.60772 8.12452 5.52359 8.25042C5.43947 8.37633 5.39456 8.52436 5.39456 8.67579C5.39456 8.87884 5.47523 9.07358 5.61881 9.21717C5.76239 9.36075 5.95713 9.44141 6.16019 9.44141ZM6.16019 8.34766C6.22508 8.34766 6.28852 8.3669 6.34248 8.40296C6.39644 8.43901 6.4385 8.49026 6.46333 8.55022C6.48817 8.61017 6.49467 8.67615 6.48201 8.7398C6.46935 8.80345 6.4381 8.86192 6.39221 8.90781C6.34632 8.9537 6.28785 8.98495 6.2242 8.99761C6.16055 9.01027 6.09458 9.00377 6.03462 8.97893C5.97466 8.9541 5.92342 8.91204 5.88736 8.85808C5.85131 8.80412 5.83206 8.74068 5.83206 8.67579C5.83206 8.58876 5.86663 8.5053 5.92817 8.44376C5.9897 8.38223 6.07316 8.34766 6.16019 8.34766Z" fill="#323C47"/>
<path d="M8.78519 10.9727C8.93661 10.9727 9.08464 10.9278 9.21055 10.8436C9.33645 10.7595 9.43458 10.6399 9.49253 10.5C9.55048 10.3601 9.56564 10.2062 9.5361 10.0577C9.50656 9.90915 9.43364 9.77273 9.32657 9.66565C9.21949 9.55858 9.08307 9.48566 8.93455 9.45612C8.78604 9.42658 8.63209 9.44174 8.49219 9.49969C8.35229 9.55764 8.23272 9.65577 8.14859 9.78167C8.06446 9.90758 8.01956 10.0556 8.01956 10.207C8.01956 10.4101 8.10023 10.6048 8.24381 10.7484C8.38739 10.892 8.58213 10.9727 8.78519 10.9727ZM8.78519 9.87891C8.85008 9.87891 8.91352 9.89815 8.96748 9.93421C9.02144 9.97026 9.0635 10.0215 9.08833 10.0815C9.11317 10.1414 9.11967 10.2074 9.10701 10.271C9.09435 10.3347 9.0631 10.3932 9.01721 10.4391C8.97132 10.4849 8.91285 10.5162 8.8492 10.5289C8.78555 10.5415 8.71958 10.535 8.65962 10.5102C8.59966 10.4853 8.54842 10.4433 8.51236 10.3893C8.47631 10.3354 8.45706 10.2719 8.45706 10.207C8.45706 10.12 8.49163 10.0365 8.55317 9.97501C8.6147 9.91348 8.69816 9.87891 8.78519 9.87891Z" fill="#323C47"/>
<path d="M12.5477 12.4569L12.9414 12.0522V4.3008L9.33206 0.910156H2.87019C2.63964 0.912462 2.41932 1.00567 2.25712 1.16951C2.09491 1.33336 2.00393 1.5546 2.00394 1.78516V14.0352C2.00393 14.2658 2.09491 14.487 2.25712 14.6509C2.41932 14.8147 2.63964 14.9079 2.87019 14.9102H12.0752C12.3057 14.9079 12.5261 14.8147 12.6883 14.6509C12.8505 14.487 12.9414 14.2658 12.9414 14.0352V13.9171C12.8317 13.9937 12.7012 14.0349 12.5674 14.0352C12.5466 14.0352 12.5258 14.0352 12.5039 14.0298V14.0352C12.504 14.1498 12.4591 14.2597 12.3789 14.3415C12.2987 14.4233 12.1897 14.4704 12.0752 14.4727H2.87019C2.75568 14.4704 2.64663 14.4233 2.56647 14.3415C2.4863 14.2597 2.44141 14.1498 2.44144 14.0352V1.78516C2.44141 1.67063 2.4863 1.56065 2.56647 1.47885C2.64663 1.39705 2.75568 1.34995 2.87019 1.34766H9.00394V3.50126C9.00072 3.79659 9.11475 4.08114 9.32101 4.29253C9.52727 4.50392 9.80893 4.62489 10.1042 4.62893H12.5039V12.4143L12.5477 12.4569ZM10.1042 4.19142C9.92496 4.1874 9.75457 4.11253 9.63035 3.98319C9.50614 3.85384 9.43821 3.68057 9.44144 3.50126V1.61344L12.1857 4.19142H10.1042Z" fill="#323C47"/>
<path d="M14.8435 11.0368C14.8232 11.0165 14.799 11.0003 14.7725 10.9893C14.7459 10.9783 14.7175 10.9727 14.6887 10.9727C14.66 10.9727 14.6315 10.9783 14.6049 10.9893C14.5784 11.0003 14.5543 11.0165 14.5339 11.0368L12.5652 13.069L11.3424 11.9173C11.2999 11.8802 11.2446 11.8609 11.1882 11.8636C11.1319 11.8663 11.0787 11.8906 11.0398 11.9316C11.001 11.9726 10.9795 12.0269 10.9798 12.0834C10.9802 12.1398 11.0023 12.194 11.0416 12.2345L12.4175 13.5393C12.4593 13.5789 12.515 13.6004 12.5726 13.5991C12.6301 13.5979 12.6848 13.5741 12.7249 13.5328L14.849 11.3453C14.889 11.3035 14.9109 11.2477 14.9098 11.1899C14.9088 11.1321 14.885 11.0771 14.8435 11.0368Z" fill="#323C47"/>
</g>
<defs>
<clipPath id="clip0_832_3638">
<rect width="14" height="14.0001" fill="white" transform="translate(0.910156 0.910156)"/>
</clipPath>
</defs>
</svg>
