<svg width="20" height="20" viewBox="0 0 20 20" fill="none" xmlns="http://www.w3.org/2000/svg">
<mask id="mask0_832_4112" style="mask-type:alpha" maskUnits="userSpaceOnUse" x="0" y="0" width="20" height="20">
<rect width="20" height="20" fill="#D9D9D9"/>
</mask>
<g mask="url(#mask0_832_4112)">
<path d="M14.2628 7.40121H15.7371V5.92688H14.2628V7.40121ZM14.2628 10.7345H15.7371V9.26021H14.2628V10.7345ZM14.2628 14.0679H15.7371V12.5935H14.2628V14.0679ZM13.75 17.0807V15.8307H17.5V4.16404H9.74354V5.65925L8.49358 4.75544V2.91406H18.75V17.0807H13.75ZM1.25 17.0807V9.3724L6.66665 5.51023L12.0833 9.3724V17.0807H7.61217V13.1224H5.72113V17.0807H1.25ZM2.49998 15.8307H4.47115V11.8724H8.86215V15.8307H10.8333V9.99738L6.66665 7.05506L2.49998 9.99738V15.8307Z" fill="#323C47"/>
</g>
</svg>
