<svg width="20" height="20" viewBox="0 0 20 20" fill="none" xmlns="http://www.w3.org/2000/svg">
<mask id="mask0_2297_12194" style="mask-type:alpha" maskUnits="userSpaceOnUse" x="0" y="0" width="20" height="20">
<rect width="20" height="20" fill="#D9D9D9"/>
</mask>
<g mask="url(#mask0_2297_12194)">
<path d="M10.0003 17.5807C8.9565 17.5807 7.97387 17.383 7.05241 16.9877C6.13094 16.5924 5.32564 16.0502 4.63653 15.3611C3.94744 14.672 3.40524 13.8667 3.00995 12.9453C2.61464 12.0238 2.41699 11.0412 2.41699 9.99738C2.41699 8.94503 2.62506 7.96026 3.0412 7.04306C3.45733 6.12587 4.00994 5.32272 4.69903 4.6336C5.38814 3.94451 6.19344 3.40231 7.11491 3.00702C8.03637 2.61172 8.99817 2.41406 10.0003 2.41406C10.2845 2.41406 10.5553 2.42662 10.8128 2.45173C11.0703 2.47684 11.2647 2.50756 11.3961 2.54388V6.50054C11.1686 5.91935 10.9322 5.33068 10.687 4.73454C10.4418 4.13839 10.2129 3.73882 10.0003 3.53583C9.64667 3.86276 9.35099 4.38921 9.11328 5.11517C8.87556 5.84114 8.68779 6.55936 8.54997 7.26983H11.3961V8.35313H8.45062C8.41216 8.66296 8.38812 8.95009 8.37849 9.21452C8.36888 9.47894 8.36408 9.73989 8.36408 9.99738C8.36408 10.2549 8.36888 10.5193 8.37849 10.7906C8.38812 11.062 8.41216 11.3457 8.45062 11.6416H11.55C11.5885 11.3318 11.6125 11.0447 11.6221 10.7802C11.6317 10.5158 11.6365 10.2757 11.6365 10.0599C11.6365 9.89749 11.6323 9.68595 11.6237 9.42527C11.6152 9.16459 11.6066 8.90872 11.5981 8.65765H12.7022C12.7108 8.9696 12.7193 9.24551 12.7278 9.48535C12.7364 9.72522 12.7407 9.90978 12.7407 10.039C12.7407 10.2997 12.7359 10.565 12.7262 10.8347C12.7166 11.1045 12.6926 11.3735 12.6541 11.6416H16.2727C16.3529 11.3585 16.4108 11.078 16.4466 10.8003C16.4824 10.5225 16.5003 10.2549 16.5003 9.99738C16.5003 9.77943 16.4856 9.55401 16.4562 9.32111C16.4269 9.0882 16.3897 8.86705 16.3449 8.65765H17.4618C17.5067 8.91726 17.5382 9.14963 17.5564 9.35475C17.5745 9.55988 17.5836 9.77408 17.5836 9.99738C17.5836 11.0134 17.386 11.9821 16.9907 12.9036C16.5954 13.8251 16.0532 14.6304 15.3641 15.3195C14.675 16.0086 13.8718 16.5577 12.9546 16.9669C12.0374 17.3761 11.0527 17.5807 10.0003 17.5807ZM3.72787 11.6416H7.34647C7.30801 11.3457 7.28398 11.0559 7.27437 10.7722C7.26476 10.4886 7.25995 10.2164 7.25995 9.95571C7.25995 9.69503 7.26476 9.4298 7.27437 9.16002C7.28398 8.89026 7.30801 8.62129 7.34647 8.35313H3.72787C3.64774 8.63625 3.58978 8.91323 3.55399 9.18406C3.5182 9.4549 3.5003 9.726 3.5003 9.99738C3.5003 10.2549 3.5182 10.5225 3.55399 10.8003C3.58978 11.078 3.64774 11.3585 3.72787 11.6416ZM8.65739 16.3708C8.3935 15.9573 8.15525 15.4343 7.94264 14.8019C7.73003 14.1694 7.5671 13.4771 7.45385 12.7249H4.10605C4.54624 13.6875 5.17124 14.4875 5.98108 15.1248C6.79092 15.7621 7.68303 16.1774 8.65739 16.3708ZM4.10605 7.26983H7.45385C7.57778 6.52303 7.74685 5.83739 7.96108 5.21292C8.17528 4.58845 8.41433 4.05879 8.67822 3.62396C7.67715 3.82803 6.77624 4.2447 5.97547 4.87398C5.17472 5.50326 4.55158 6.30188 4.10605 7.26983ZM10.0003 16.4589C10.3005 16.1587 10.582 15.6696 10.8449 14.9918C11.1077 14.3139 11.3096 13.5583 11.4506 12.7249H8.54997C8.70168 13.5796 8.90628 14.3459 9.16376 15.0238C9.42124 15.7017 9.70008 16.1801 10.0003 16.4589ZM11.3432 16.3708C12.3176 16.1828 13.2097 15.7688 14.0195 15.1288C14.8294 14.4888 15.4544 13.6875 15.8946 12.7249H12.5468C12.4068 13.4824 12.2305 14.1774 12.0179 14.8099C11.8053 15.4424 11.5804 15.9627 11.3432 16.3708ZM13.0003 6.3275V3.08394C13.0003 2.89698 13.0652 2.7386 13.195 2.60879C13.3248 2.47897 13.4832 2.41406 13.6702 2.41406H16.9137C17.1007 2.41406 17.2591 2.47897 17.3889 2.60879C17.5187 2.7386 17.5836 2.89698 17.5836 3.08394V6.3275C17.5836 6.51447 17.5187 6.67286 17.3889 6.80267C17.2591 6.93247 17.1007 6.99738 16.9137 6.99738H13.6702C13.4832 6.99738 13.3248 6.93247 13.195 6.80267C13.0652 6.67286 13.0003 6.51447 13.0003 6.3275ZM15.3721 4.62558H16.6798V3.31792H15.3721V4.62558Z" fill="#323C47"/>
</g>
</svg>
