<svg width="20" height="20" viewBox="0 0 20 20" fill="none" xmlns="http://www.w3.org/2000/svg">
<mask id="mask0_2297_12218" style="mask-type:alpha" maskUnits="userSpaceOnUse" x="0" y="0" width="20" height="20">
<rect width="20" height="20" fill="#D9D9D9"/>
</mask>
<g mask="url(#mask0_2297_12218)">
<path d="M5.86505 13.7828C4.81869 13.7828 3.92676 13.4141 3.18926 12.6767C2.45176 11.9393 2.08301 11.0475 2.08301 10.0012C2.08301 8.95499 2.45176 8.06302 3.18926 7.32531C3.92676 6.5876 4.81869 6.21875 5.86505 6.21875H8.38107C8.55815 6.21875 8.70658 6.27867 8.82636 6.39852C8.94615 6.51835 9.00605 6.66685 9.00605 6.84402C9.00605 7.02117 8.94615 7.16958 8.82636 7.28923C8.70658 7.40888 8.55815 7.46871 8.38107 7.46871H5.86409C5.16494 7.46871 4.5683 7.71577 4.07417 8.2099C3.58005 8.70402 3.33299 9.30098 3.33299 10.0008C3.33299 10.7006 3.58005 11.2975 4.07417 11.7916C4.5683 12.2858 5.16494 12.5328 5.86409 12.5328H8.38107C8.55815 12.5328 8.70658 12.5928 8.82636 12.7126C8.94615 12.8324 9.00605 12.9809 9.00605 13.1581C9.00605 13.3352 8.94615 13.4837 8.82636 13.6033C8.70658 13.723 8.55815 13.7828 8.38107 13.7828H5.86505ZM7.49965 10.6258C7.32257 10.6258 7.17414 10.5658 7.05436 10.446C6.93457 10.3262 6.87468 10.1777 6.87468 10.0005C6.87468 9.82333 6.93457 9.67492 7.05436 9.55527C7.17414 9.43562 7.32257 9.37579 7.49965 9.37579H12.4997C12.6767 9.37579 12.8252 9.43571 12.945 9.55554C13.0647 9.67539 13.1246 9.82389 13.1246 10.001C13.1246 10.1782 13.0647 10.3266 12.945 10.4463C12.8252 10.5659 12.6767 10.6258 12.4997 10.6258H7.49965ZM11.6182 13.7828C11.4412 13.7828 11.2927 13.7229 11.1729 13.603C11.0532 13.4832 10.9933 13.3347 10.9933 13.1575C10.9933 12.9804 11.0532 12.832 11.1729 12.7123C11.2927 12.5927 11.4412 12.5328 11.6182 12.5328H14.1352C14.8344 12.5328 15.431 12.2858 15.9251 11.7916C16.4193 11.2975 16.6663 10.7006 16.6663 10.0008C16.6663 9.30098 16.4193 8.70402 15.9251 8.2099C15.431 7.71577 14.8344 7.46871 14.1352 7.46871H11.6182C11.4412 7.46871 11.2927 7.40879 11.1729 7.28896C11.0532 7.16911 10.9933 7.02061 10.9933 6.84346C10.9933 6.66629 11.0532 6.51788 11.1729 6.39823C11.2927 6.27858 11.4412 6.21875 11.6182 6.21875H14.1343C15.1806 6.21875 16.0726 6.58745 16.8101 7.32485C17.5476 8.06226 17.9163 8.95408 17.9163 10.0003C17.9163 11.0465 17.5476 11.9385 16.8101 12.6762C16.0726 13.4139 15.1806 13.7828 14.1343 13.7828H11.6182Z" fill="#323C47"/>
</g>
</svg>
