<svg width="14" height="12" viewBox="0 0 14 12" fill="none" xmlns="http://www.w3.org/2000/svg">
<path d="M2.1875 9.35156C2.40625 9.35156 2.625 9.57031 2.625 9.78906V11.5391C2.625 11.7852 2.40625 11.9766 2.1875 11.9766H0.4375C0.191406 11.9766 0 11.7852 0 11.5391V9.78906C0 9.57031 0.191406 9.35156 0.4375 9.35156H2.1875ZM2.1875 0.601562C2.40625 0.601562 2.625 0.820312 2.625 1.03906V2.78906C2.625 3.03516 2.40625 3.22656 2.1875 3.22656H0.4375C0.191406 3.22656 0 3.03516 0 2.78906V1.03906C0 0.820312 0.191406 0.601562 0.4375 0.601562H2.1875ZM2.1875 4.97656C2.40625 4.97656 2.625 5.19531 2.625 5.41406V7.16406C2.625 7.41016 2.40625 7.60156 2.1875 7.60156H0.4375C0.191406 7.60156 0 7.41016 0 7.16406V5.41406C0 5.19531 0.191406 4.97656 0.4375 4.97656H2.1875ZM13.5625 9.78906C13.7812 9.78906 14 10.0078 14 10.2266V11.1016C14 11.3477 13.7812 11.5391 13.5625 11.5391H4.8125C4.56641 11.5391 4.375 11.3477 4.375 11.1016V10.2266C4.375 10.0078 4.56641 9.78906 4.8125 9.78906H13.5625ZM13.5625 1.03906C13.7812 1.03906 14 1.25781 14 1.47656V2.35156C14 2.59766 13.7812 2.78906 13.5625 2.78906H4.8125C4.56641 2.78906 4.375 2.59766 4.375 2.35156V1.47656C4.375 1.25781 4.56641 1.03906 4.8125 1.03906H13.5625ZM13.5625 5.41406C13.7812 5.41406 14 5.63281 14 5.85156V6.72656C14 6.97266 13.7812 7.16406 13.5625 7.16406H4.8125C4.56641 7.16406 4.375 6.97266 4.375 6.72656V5.85156C4.375 5.63281 4.56641 5.41406 4.8125 5.41406H13.5625Z" fill="#475665"/>
</svg>
