<svg width="14" height="12" viewBox="0 0 14 12" fill="none" xmlns="http://www.w3.org/2000/svg">
<path d="M6.32256 7.56108L9.08278 5.79229C9.26291 5.67375 9.35297 5.50769 9.35297 5.29412C9.35297 5.08054 9.26291 4.91448 9.08278 4.79594L6.32256 3.02715C6.12795 2.89684 5.92747 2.88621 5.7211 2.99526C5.51474 3.10431 5.41155 3.27738 5.41155 3.51448V7.07376C5.41155 7.31085 5.51474 7.48392 5.7211 7.59297C5.92747 7.70202 6.12795 7.69139 6.32256 7.56108ZM1.56923 10.5882C1.2126 10.5882 0.910729 10.4647 0.663625 10.2176C0.416521 9.97058 0.292969 9.66877 0.292969 9.31221V1.27603C0.292969 0.919462 0.416521 0.617649 0.663625 0.370589C0.910729 0.12353 1.2126 0 1.56923 0H12.4309C12.7875 0 13.0894 0.12353 13.3365 0.370589C13.5836 0.617649 13.7072 0.919462 13.7072 1.27603V9.31221C13.7072 9.66877 13.5836 9.97058 13.3365 10.2176C13.0894 10.4647 12.7875 10.5882 12.4309 10.5882H9.47109V11.362C9.47109 11.5439 9.41021 11.6957 9.28846 11.8174C9.16672 11.9391 9.01488 12 8.83296 12H5.16717C4.98524 12 4.83341 11.9391 4.71167 11.8174C4.58991 11.6957 4.52904 11.5439 4.52904 11.362V10.5882H1.56923ZM1.56923 9.52942H12.4309C12.4852 9.52942 12.535 9.5068 12.5803 9.46155C12.6255 9.41629 12.6482 9.36651 12.6482 9.31221V1.27603C12.6482 1.22172 12.6255 1.17194 12.5803 1.12668C12.535 1.08143 12.4852 1.05881 12.4309 1.05881H1.56923C1.51491 1.05881 1.46512 1.08143 1.41985 1.12668C1.3746 1.17194 1.35197 1.22172 1.35197 1.27603V9.31221C1.35197 9.36651 1.3746 9.41629 1.41985 9.46155C1.46512 9.5068 1.51491 9.52942 1.56923 9.52942Z" fill="#323C47"/>
</svg>
