<svg width="20" height="20" viewBox="0 0 20 20" fill="none" xmlns="http://www.w3.org/2000/svg">
<mask id="mask0_591_37170" style="mask-type:alpha" maskUnits="userSpaceOnUse" x="0" y="0" width="20" height="20">
<rect width="20" height="20" fill="#D9D9D9"/>
</mask>
<g mask="url(#mask0_591_37170)">
<path d="M9.99992 10.0013C10.4583 10.0013 10.8506 9.83811 11.177 9.51172C11.5034 9.18533 11.6666 8.79297 11.6666 8.33464C11.6666 7.8763 11.5034 7.48394 11.177 7.15755C10.8506 6.83116 10.4583 6.66797 9.99992 6.66797C9.54159 6.66797 9.14922 6.83116 8.82284 7.15755C8.49645 7.48394 8.33325 7.8763 8.33325 8.33464C8.33325 8.79297 8.49645 9.18533 8.82284 9.51172C9.14922 9.83811 9.54159 10.0013 9.99992 10.0013ZM9.99992 16.1263C11.6944 14.5707 12.9513 13.1576 13.7708 11.8867C14.5902 10.6159 14.9999 9.48741 14.9999 8.5013C14.9999 6.98741 14.5173 5.74783 13.552 4.78255C12.5867 3.81727 11.4027 3.33464 9.99992 3.33464C8.59714 3.33464 7.41311 3.81727 6.44784 4.78255C5.48256 5.74783 4.99992 6.98741 4.99992 8.5013C4.99992 9.48741 5.40964 10.6159 6.22909 11.8867C7.04853 13.1576 8.30547 14.5707 9.99992 16.1263ZM9.99992 18.3346C7.76381 16.4319 6.09367 14.6645 4.9895 13.0326C3.88534 11.4006 3.33325 9.89019 3.33325 8.5013C3.33325 6.41797 4.00339 4.75825 5.34367 3.52214C6.68395 2.28602 8.23603 1.66797 9.99992 1.66797C11.7638 1.66797 13.3159 2.28602 14.6562 3.52214C15.9964 4.75825 16.6666 6.41797 16.6666 8.5013C16.6666 9.89019 16.1145 11.4006 15.0103 13.0326C13.9062 14.6645 12.236 16.4319 9.99992 18.3346Z" fill="#323C47"/>
</g>
</svg>
