<svg width="14" height="15" viewBox="0 0 14 15" fill="none" xmlns="http://www.w3.org/2000/svg">
<path id="edit" d="M1.49737 12.9974H2.42365L10.6208 4.80023L9.69452 3.87396L1.49737 12.0711V12.9974ZM1.08773 14.0807C0.899576 14.0807 0.740264 14.0169 0.609791 13.8892C0.479305 13.7615 0.414062 13.6033 0.414062 13.4146V12.1821C0.414062 12.0021 0.446118 11.8304 0.510229 11.6671C0.574326 11.5038 0.67475 11.3537 0.8115 11.217L10.7811 1.23138C10.8932 1.11692 11.0138 1.03542 11.143 0.986875C11.2721 0.938333 11.4075 0.914062 11.5491 0.914062C11.6907 0.914062 11.8259 0.936771 11.9547 0.982188C12.0836 1.02759 12.2084 1.10798 12.3291 1.22335L13.2634 2.14963C13.3788 2.27035 13.4605 2.39538 13.5086 2.52471C13.5566 2.65403 13.5807 2.78711 13.5807 2.92396C13.5807 3.06992 13.5554 3.20924 13.5048 3.34194C13.4542 3.47462 13.3737 3.59587 13.2634 3.70569L3.27779 13.6833C3.14104 13.82 2.99135 13.9204 2.82871 13.9845C2.66607 14.0486 2.49501 14.0807 2.31554 14.0807H1.08773ZM10.1495 4.34523L9.69452 3.87396L10.6208 4.80023L10.1495 4.34523Z" fill="#475665"/>
</svg>
