<svg width="20" height="20" viewBox="0 0 20 20" fill="none" xmlns="http://www.w3.org/2000/svg">
<mask id="mask0_2297_12206" style="mask-type:alpha" maskUnits="userSpaceOnUse" x="0" y="0" width="20" height="20">
<rect width="20" height="20" fill="#D9D9D9"/>
</mask>
<g mask="url(#mask0_2297_12206)">
<path d="M1.97119 17.1458V2.5625H9.88781V5.89583H18.0288V17.1458H1.97119ZM3.22115 15.8958H5.3045V13.8125H3.22115V15.8958ZM3.22115 12.5625H5.3045V10.4791H3.22115V12.5625ZM3.22115 9.22917H5.3045V7.14581H3.22115V9.22917ZM3.22115 5.89583H5.3045V3.81248H3.22115V5.89583ZM6.55448 15.8958H8.63783V13.8125H6.55448V15.8958ZM6.55448 12.5625H8.63783V10.4791H6.55448V12.5625ZM6.55448 9.22917H8.63783V7.14581H6.55448V9.22917ZM6.55448 5.89583H8.63783V3.81248H6.55448V5.89583ZM9.88781 15.8958H16.7788V7.14581H9.88781V9.22917H11.7147V10.4791H9.88781V12.5625H11.7147V13.8125H9.88781V15.8958ZM13.5417 10.4791V9.22917H14.7916V10.4791H13.5417ZM13.5417 13.8125V12.5625H14.7916V13.8125H13.5417Z" fill="#323C47"/>
</g>
</svg>
