<svg width="21" height="20" viewBox="0 0 21 20" fill="none" xmlns="http://www.w3.org/2000/svg">
<path d="M11.7577 10.0007L7.31414 13.5275C7.13678 13.6694 7.02568 13.8725 7.00517 14.0922C6.98466 14.312 7.05642 14.5305 7.20473 14.7C7.35304 14.8695 7.56581 14.9761 7.79645 14.9964C8.02709 15.0168 8.2568 14.9493 8.43528 14.8087L13.6855 10.6413C13.784 10.5629 13.8632 10.4649 13.9175 10.3543C13.9718 10.2436 14 10.1229 14 10.0007C14 9.87849 13.9718 9.75779 13.9175 9.6471C13.8632 9.53642 13.784 9.43844 13.6855 9.3601L8.43528 5.19272C8.25688 5.05142 8.02689 4.98335 7.79583 5.00346C7.56478 5.02358 7.35155 5.13023 7.203 5.29999C7.05444 5.46974 6.9827 5.68873 7.00354 5.90883C7.02438 6.12894 7.13609 6.33216 7.31414 6.47387L11.7577 10.0007Z" fill="#93A2B2"/>
</svg>
