<svg width="200" height="137" viewBox="0 0 200 137" fill="none" xmlns="http://www.w3.org/2000/svg">
<path d="M198.042 73.9093C195.554 85.653 188.873 96.0429 179.597 104.82C159.708 123.639 127.88 135.037 99.8129 136.426C99.2975 136.451 98.7845 136.473 98.274 136.492C94.8091 136.618 91.1863 136.598 87.4575 136.426C63.8418 135.328 36.0607 128.095 18.524 113.121C11.4018 107.042 5.96888 99.6853 3.18954 90.9454C2.938 90.1488 2.70371 89.3399 2.49409 88.5137C-1.42954 73.2138 1.81344 53.2233 13.9098 43.0949C18.7928 39.006 24.8891 36.715 31.0471 35.5189H31.0495C35.782 34.64 40.5929 34.2548 45.4049 34.3697C50.1981 34.4549 54.9769 34.9208 59.6962 35.7631C62.256 36.2341 64.7518 36.8506 67.3116 37.4696H67.3141C68.779 37.8223 70.2636 38.1774 71.7951 38.5054H71.7975C75.7026 39.3849 79.6814 39.8976 83.6819 40.0369C86.5124 40.1154 89.3449 39.9927 92.158 39.6694C93.3319 39.5363 97.4232 39.043 104.913 36.9592C127.039 30.7987 131.69 23.8541 144.137 20.69C152.921 18.4557 164.783 18.3053 175.156 22.2807C178.924 23.6932 182.435 25.7125 185.551 28.2586H185.553C186.027 28.6507 186.49 29.0527 186.944 29.4744C196.569 38.3846 198.89 51.2726 199.073 60.8831C199.208 68.0621 198.148 73.4111 198.042 73.9093Z" fill="#E6EDFA"/>
<path d="M197.884 73.9085C189.959 111.292 139.573 134.978 98.1151 136.492C63.7953 137.746 13.7325 124.603 3.03066 90.9428C2.77846 90.1476 2.5464 89.3377 2.33447 88.5132C37.3223 97.9982 74.8989 98.0588 109.615 87.538C139.365 78.5223 168.694 62.1645 198.914 60.8828C199.05 68.061 197.99 73.4105 197.884 73.9085Z" fill="#FAFDFF"/>
<path d="M69.3372 28.5642C61.0391 26.7772 52.2513 23.3414 48.1661 15.9005C46.699 13.2285 45.9594 9.96356 47.0376 7.11246C48.486 3.28354 52.7536 1.26131 56.8035 0.672151C61.873 -0.0515167 67.0413 0.854487 71.5624 3.25937C77.7125 6.55117 82.644 12.5942 89.5514 13.5678C94.8354 14.3119 99.9649 11.8687 105.055 10.2652C110.144 8.66169 116.369 8.12161 120.195 11.8413C121.11 12.7306 121.263 13.9128 121.351 14.3957C122.098 18.4648 118.067 22.1988 116.609 23.549C114.62 25.3922 110 28.8744 95.5402 30.0406C87.76 30.667 79.8269 30.8229 69.3372 28.5642Z" fill="#EFF8FF"/>
<path d="M179.439 82.8438V104.824C159.549 123.644 127.721 135.042 99.6548 136.43H87.2995C63.6837 135.333 35.9027 128.1 18.3662 113.125V82.8438H179.439Z" fill="#A3D5FF"/>
<path d="M179.438 82.8438H18.3643V84.5876H179.438V82.8438Z" fill="#0074D6"/>
<path d="M179.491 73.9609H18.3113C16.9396 73.9609 15.8276 75.0729 15.8276 76.4446V80.3554C15.8276 81.7271 16.9396 82.839 18.3113 82.839H179.491C180.863 82.839 181.975 81.7271 181.975 80.3554V76.4446C181.975 75.0729 180.863 73.9609 179.491 73.9609Z" fill="#A3D5FF"/>
<path d="M86.8522 73.9635H34.6625L30.5194 31.7532C30.1263 27.7474 33.2339 24.5 37.4603 24.5H74.3446C78.5711 24.5 82.3162 27.7474 82.7093 31.7532L86.8522 73.9635Z" fill="#D6ECFF"/>
<path d="M49.1321 73.9628H34.6628L30.4809 31.3559C30.1093 27.5691 33.0457 24.5 37.0426 24.5C41.0377 24.5 44.5784 27.5699 44.9503 31.3559L49.1321 73.9628Z" fill="#70BEFF"/>
<path d="M169.487 40.1565C170.629 37.7279 169.535 34.7924 169.349 34.3766C168.83 33.2131 168.017 32.0802 167.952 30.8853C167.911 30.1359 168.314 29.4813 168.987 28.1726C169.774 26.6421 170.002 26.6988 170.143 25.9826C170.336 24.7597 170.057 23.5092 169.364 22.4837C168.709 21.5122 167.764 20.7727 166.664 20.3712C165.716 20.0133 164.685 19.9428 163.698 20.1686C162.711 20.3944 161.812 20.9064 161.115 21.6405C160.743 22.0289 159.368 23.4654 159.639 25.5451C159.931 27.7861 161.865 28.7472 161.704 30.8678C161.686 31.1085 161.661 31.1087 160.993 32.8005C159.462 36.6827 159.409 37.1444 159.433 37.6292C159.524 39.5281 160.724 40.9259 161.072 41.3038C161.522 41.7923 162.669 42.8789 164.317 43.1127C166.599 43.4357 168.645 41.9486 169.487 40.1565Z" fill="#A1EDD0"/>
<path d="M146.963 32.5342C147.417 35.2568 149.789 36.8692 150.149 37.0771C151.158 37.6603 152.365 38.0142 153.07 38.9466C153.513 39.5348 153.584 40.3654 153.825 41.9437C154.111 43.8091 153.912 43.929 154.213 44.6422C154.453 45.1992 154.804 45.7014 155.245 46.1179C155.686 46.5345 156.208 46.8566 156.778 47.0647C157.824 47.409 158.963 47.3354 159.956 46.8592C162.004 45.95 163.032 43.669 163.143 41.702C163.177 41.1119 163.301 38.9481 161.927 37.4467C160.461 35.8437 158.579 36.4109 157.513 34.5991C157.393 34.3949 157.41 34.3771 156.944 32.584C155.895 28.5494 155.683 28.1617 155.407 27.8066C154.638 26.86 153.536 26.2426 152.328 26.0803C151.204 25.9141 150.058 26.1736 149.115 26.8078C147.328 28.0493 146.635 30.5571 146.963 32.5342Z" fill="#A1EDD0"/>
<path d="M185.412 29.2911C185.261 30.4829 184.843 31.6252 184.189 32.633C183.535 33.6407 182.662 34.4878 181.635 35.1112C180.405 35.8542 178.922 36.3169 178.136 37.4518C177.421 38.4844 177.481 39.7946 177.491 41.0013C177.501 42.3634 177.405 43.7483 176.865 44.9925C176.33 46.2256 175.297 47.3033 173.969 47.6266C173.06 47.8485 172.098 47.7043 171.194 47.4835C168.412 46.8049 165.719 45.2485 164.47 42.756C163.218 40.2592 163.879 36.6875 166.389 35.3442C168.347 34.2959 171.249 34.4909 172.323 32.4445C172.712 31.7015 172.728 30.8386 172.79 30.0075C172.946 27.9693 173.407 25.9659 174.157 24.0641C174.65 22.8064 175.292 21.5413 176.309 20.5888C177.337 19.6251 178.816 19.0332 180.093 19.3824C182.819 20.1264 185.7 26.5939 185.412 29.2911Z" fill="#A1EDD0"/>
<path d="M165.759 53.3185L165.062 53.1725C165.21 52.4633 168.812 35.7483 178.118 30.7344L178.456 31.3613C169.439 36.2208 165.796 53.1481 165.759 53.3185Z" fill="#5394A5"/>
<path d="M165.658 55.0859L165.122 53.3532C165.074 53.1978 160.229 37.7773 152.393 33.9787L152.704 33.3375C159.301 36.5351 163.697 47.1953 165.217 51.4188C165.515 43.7915 164.252 30.7348 164.238 30.5927L164.946 30.5234C164.962 30.6781 166.451 46.0749 165.817 53.2787L165.658 55.0859Z" fill="#5394A5"/>
<path d="M170.606 73.96H156.974C156.59 73.9601 156.219 73.8175 155.933 73.5598C155.647 73.3021 155.468 72.9476 155.428 72.5649L153.247 51.3697C153.225 51.1533 153.248 50.9346 153.315 50.7278C153.383 50.521 153.493 50.3306 153.639 50.1691C153.785 50.0076 153.963 49.8785 154.162 49.7901C154.36 49.7018 154.575 49.6562 154.793 49.6563H172.787C173.005 49.6562 173.22 49.7018 173.419 49.7901C173.618 49.8785 173.796 50.0076 173.941 50.1691C174.087 50.3306 174.197 50.521 174.265 50.7278C174.332 50.9346 174.356 51.1533 174.333 51.3697L172.152 72.5649C172.113 72.9477 171.933 73.3022 171.647 73.5599C171.362 73.8176 170.99 73.9602 170.606 73.96Z" fill="#FEBCCC"/>
<path d="M153.785 55.1484H173.945L173.459 59.8736H154.121L153.785 55.1484Z" fill="white"/>
<path d="M85.7954 70.7969H131.56V73.9676H85.7954C85.3749 73.9676 84.9717 73.8005 84.6743 73.5032C84.377 73.2059 84.21 72.8026 84.21 72.3821C84.21 71.9617 84.3771 71.5585 84.6744 71.2612C84.9718 70.9639 85.375 70.7969 85.7954 70.7969Z" fill="#3DA6FF"/>
<path d="M154.049 73.9618H115.675C115.31 73.9617 114.949 73.8775 114.622 73.7156C114.295 73.5538 114.009 73.3186 113.787 73.0285C113.565 72.7384 113.413 72.401 113.343 72.0426C113.273 71.6842 113.286 71.3145 113.381 70.962L120.632 44.2468C120.768 43.7432 121.067 43.2985 121.482 42.9814C121.896 42.6643 122.403 42.4924 122.925 42.4922H161.3C161.665 42.4923 162.025 42.5766 162.353 42.7385C162.68 42.9004 162.966 43.1355 163.187 43.4257C163.409 43.7158 163.561 44.0532 163.632 44.4116C163.702 44.77 163.689 45.1398 163.593 45.4922L156.343 72.2074C156.206 72.7111 155.907 73.1557 155.493 73.4728C155.078 73.7899 154.571 73.9617 154.049 73.9618Z" fill="#70BEFF"/>
<path d="M156.515 73.9618H118.141C117.775 73.9617 117.415 73.8775 117.088 73.7156C116.76 73.5538 116.475 73.3186 116.253 73.0285C116.031 72.7384 115.879 72.401 115.809 72.0426C115.738 71.6842 115.751 71.3145 115.847 70.962L123.098 44.2468C123.234 43.7432 123.533 43.2985 123.947 42.9814C124.362 42.6643 124.869 42.4924 125.391 42.4922H163.765C164.131 42.4923 164.491 42.5766 164.818 42.7385C165.146 42.9004 165.431 43.1355 165.653 43.4257C165.875 43.7158 166.027 44.0532 166.097 44.4116C166.168 44.77 166.155 45.1398 166.059 45.4922L158.809 72.2074C158.672 72.7111 158.373 73.1557 157.959 73.4728C157.544 73.7899 157.037 73.9617 156.515 73.9618Z" fill="#D6ECFF"/>
<path d="M142.053 62.6552C144.499 62.6552 146.482 60.6722 146.482 58.2261C146.482 55.7799 144.499 53.7969 142.053 53.7969C139.607 53.7969 137.624 55.7799 137.624 58.2261C137.624 60.6722 139.607 62.6552 142.053 62.6552Z" fill="white"/>
<path d="M7.02368 32.8972L6.82861 31.889C16.2113 30.0725 22.7466 27.8446 26.4253 26.0616C25.382 25.2998 24.5513 24.2833 24.0127 23.1091C23.3439 21.6425 23.1293 19.8974 23.3374 17.6175C23.6294 14.4219 24.6216 12.0127 26.2862 10.4566C27.3166 9.51305 28.6313 8.93868 30.0236 8.82375C31.5233 8.70365 32.8696 9.15396 33.8153 10.0926C35.2782 11.5444 35.8025 13.7918 35.3734 16.7758C35.019 19.2378 33.8284 20.9317 33.1887 21.842C32.1445 23.2471 30.8898 24.4827 29.4688 25.5052C29.1834 25.7082 28.8646 25.9131 28.5149 26.1198C30.9159 27.2692 33.9529 27.5706 36.5444 27.5587C45.8487 27.4985 55.0605 25.7062 63.7086 22.2736L64.0892 23.2272C55.325 26.7194 45.9835 28.5369 36.5493 28.5854C33.5995 28.5995 30.1018 28.2155 27.433 26.7136C23.1157 28.9287 15.5131 31.2535 7.02368 32.8972ZM30.5921 9.83068C29.2605 9.82132 27.9739 10.3124 26.9873 11.2068C25.5123 12.5856 24.6282 14.7738 24.3602 17.7107C24.1688 19.8069 24.3552 21.3853 24.9468 22.6829C25.4929 23.8553 26.3665 24.8446 27.4623 25.5316C27.9494 25.2719 28.4208 24.9837 28.8739 24.6684C30.1976 23.7102 31.3694 22.5581 32.35 21.2509C32.9401 20.4124 34.0388 18.8481 34.3579 16.6293C34.7384 13.9861 34.3128 12.0322 33.093 10.8218C32.4203 10.1782 31.523 9.8226 30.5921 9.83068Z" fill="#323C47"/>
<path d="M73.0353 21.4018C74.589 22.6694 81.9085 27.4254 86.1725 13.0727C86.4013 12.3025 85.8094 11.6811 84.9231 11.7205C81.0621 11.8914 73.4869 12.9235 72.6972 20.5121C72.6768 20.6767 72.6969 20.8439 72.7558 20.9989C72.8147 21.154 72.9107 21.2924 73.0353 21.4018Z" fill="#A1EDD0"/>
<path d="M68.4888 22.3212L68.3408 21.3052C68.4148 21.2943 75.8793 20.1658 80.3583 16L81.0575 16.7519C76.3407 21.1392 68.8072 22.2751 68.4888 22.3212Z" fill="#5394A5"/>
<path d="M155.775 97.2079C152.882 97.3697 149.98 97.2917 147.1 96.9748C145.418 96.7894 143.656 96.4952 142.172 95.6034C141.195 95.0075 140.382 94.1767 139.809 93.1866C137.269 94.4094 134.561 95.2477 131.774 95.6739C128.933 96.1393 126.019 96.3107 123.201 96.4764C120.202 96.6528 117.102 96.835 114.111 97.3733L113.955 96.4929C116.997 95.9452 120.124 95.7612 123.149 95.5834C125.944 95.4189 128.835 95.249 131.632 94.7911C134.325 94.3682 136.942 93.5574 139.402 92.3841C138.804 91.0295 138.648 89.5209 138.956 88.0726C139.295 86.6512 140.063 85.3685 141.155 84.3981C142.248 83.4277 143.612 82.8164 145.064 82.6471C145.865 82.5694 146.474 82.6964 146.924 83.0355C148.036 83.874 147.759 85.5492 146.993 86.8388C145.564 89.2418 143.413 91.2388 140.597 92.7767C141.095 93.6192 141.792 94.3264 142.628 94.8359C143.892 95.5953 145.369 95.885 147.198 96.0863C151.365 96.5448 155.572 96.4941 159.726 95.9351L159.844 96.8229C158.493 97.0034 157.136 97.1318 155.775 97.2079ZM145.318 83.5235C145.264 83.5265 145.207 83.5308 145.15 83.5366C143.884 83.6841 142.694 84.217 141.741 85.0632C140.788 85.9094 140.119 87.0279 139.823 88.2674C139.558 89.511 139.686 90.8063 140.189 91.974C142.527 90.6963 144.73 88.9007 146.229 86.3788C146.772 85.4644 147.056 84.2518 146.391 83.7504C146.071 83.551 145.691 83.4705 145.317 83.5228L145.318 83.5235Z" fill="#323C47"/>
<path d="M166.747 96.3992C168.078 97.5583 172.563 100.73 179.849 90.9983C180.436 90.2146 180.383 89.3167 179.709 89.0851C176.431 87.9591 167.717 86.2624 166.439 95.5829C166.419 95.7338 166.437 95.8872 166.491 96.0295C166.545 96.1718 166.633 96.2988 166.747 96.3992Z" fill="#A1EDD0"/>
<path d="M163.452 96.5289C162.579 96.5782 162.017 96.5732 161.936 96.5723L161.946 95.678C162.02 95.678 169.457 95.7274 174.117 92.75L174.593 93.5051C170.976 95.8179 165.945 96.3893 163.452 96.5289Z" fill="#5394A5"/>
</svg>
