<svg width="28" height="29" viewBox="0 0 28 29" fill="none" xmlns="http://www.w3.org/2000/svg">
<rect y="0.5" width="28" height="28" rx="4.66667" fill="white" fill-opacity="0.1"/>
<path d="M19.5998 15.7688V12.9C19.5998 10.3264 17.8518 8.15839 15.4838 7.5064C15.2494 6.916 14.6766 6.5 13.9998 6.5C13.323 6.5 12.7502 6.916 12.5158 7.5064C10.1478 8.15919 8.3998 10.3264 8.3998 12.9V15.7688L7.0342 17.1344C6.8838 17.284 6.7998 17.4872 6.7998 17.7V19.2999C6.7998 19.7423 7.1574 20.0999 7.5998 20.0999H20.3997C20.8421 20.0999 21.1997 19.7423 21.1997 19.2999V17.7C21.1997 17.4872 21.1157 17.284 20.9653 17.1344L19.5998 15.7688ZM19.5998 18.5H8.3998V18.0312L9.76539 16.6656C9.91579 16.516 9.99979 16.3128 9.99979 16.1V12.9C9.99979 10.6944 11.7942 8.89999 13.9998 8.89999C16.2054 8.89999 17.9998 10.6944 17.9998 12.9V16.1C17.9998 16.3128 18.0838 16.516 18.2342 16.6656L19.5998 18.0312V18.5ZM13.9998 22.4999C15.0486 22.4999 15.9254 21.8327 16.2542 20.8999H11.7454C12.0742 21.8327 12.951 22.4999 13.9998 22.4999Z" fill="white"/>
<ellipse cx="18.9998" cy="9.5" rx="3.99979" ry="4" fill="#3EC48C"/>
</svg>
