<svg width="20" height="20" viewBox="0 0 20 20" fill="none" xmlns="http://www.w3.org/2000/svg">
<mask id="mask0_2405_20948" style="mask-type:alpha" maskUnits="userSpaceOnUse" x="0" y="0" width="20" height="20">
<rect width="20" height="20" fill="#D9D9D9"/>
</mask>
<g mask="url(#mask0_2405_20948)">
<path d="M6.66795 13.9557H10.8346C11.012 13.9557 11.1605 13.8959 11.2801 13.7762C11.3998 13.6566 11.4596 13.5081 11.4596 13.3307C11.4596 13.1534 11.3998 13.0049 11.2801 12.8852C11.1605 12.7656 11.012 12.7057 10.8346 12.7057H6.66795C6.4906 12.7057 6.3421 12.7656 6.22245 12.8852C6.1028 13.0049 6.04297 13.1534 6.04297 13.3307C6.04297 13.5081 6.1028 13.6566 6.22245 13.7762C6.3421 13.8959 6.4906 13.9557 6.66795 13.9557ZM6.66795 10.6224H13.3346C13.512 10.6224 13.6605 10.5625 13.7801 10.4429C13.8998 10.3232 13.9596 10.1747 13.9596 9.99738C13.9596 9.82003 13.8998 9.67153 13.7801 9.55188C13.6605 9.43222 13.512 9.3724 13.3346 9.3724H6.66795C6.4906 9.3724 6.3421 9.43222 6.22245 9.55188C6.1028 9.67153 6.04297 9.82003 6.04297 9.99738C6.04297 10.1747 6.1028 10.3232 6.22245 10.4429C6.3421 10.5625 6.4906 10.6224 6.66795 10.6224ZM6.66795 7.28902H13.3346C13.512 7.28902 13.6605 7.22919 13.7801 7.10954C13.8998 6.98989 13.9596 6.84139 13.9596 6.66404C13.9596 6.4867 13.8998 6.3382 13.7801 6.21854C13.6605 6.09889 13.512 6.03906 13.3346 6.03906H6.66795C6.4906 6.03906 6.3421 6.09889 6.22245 6.21854C6.1028 6.3382 6.04297 6.4867 6.04297 6.66404C6.04297 6.84139 6.1028 6.98989 6.22245 7.10954C6.3421 7.22919 6.4906 7.28902 6.66795 7.28902ZM4.42439 17.0807C4.00344 17.0807 3.64714 16.9349 3.35547 16.6432C3.0638 16.3515 2.91797 15.9952 2.91797 15.5743V4.42048C2.91797 3.99954 3.0638 3.64323 3.35547 3.35156C3.64714 3.0599 4.00344 2.91406 4.42439 2.91406H15.5782C15.9991 2.91406 16.3554 3.0599 16.6471 3.35156C16.9388 3.64323 17.0846 3.99954 17.0846 4.42048V15.5743C17.0846 15.9952 16.9388 16.3515 16.6471 16.6432C16.3554 16.9349 15.9991 17.0807 15.5782 17.0807H4.42439ZM4.42439 15.8307H15.5782C15.6423 15.8307 15.7011 15.804 15.7545 15.7506C15.8079 15.6972 15.8346 15.6384 15.8346 15.5743V4.42048C15.8346 4.35637 15.8079 4.2976 15.7545 4.24417C15.7011 4.19075 15.6423 4.16404 15.5782 4.16404H4.42439C4.36027 4.16404 4.3015 4.19075 4.24807 4.24417C4.19466 4.2976 4.16795 4.35637 4.16795 4.42048V15.5743C4.16795 15.6384 4.19466 15.6972 4.24807 15.7506C4.3015 15.804 4.36027 15.8307 4.42439 15.8307Z" fill="#003366"/>
</g>
</svg>
