<svg width="20" height="20" viewBox="0 0 20 20" fill="none" xmlns="http://www.w3.org/2000/svg">
<mask id="mask0_2398_28460" style="mask-type:alpha" maskUnits="userSpaceOnUse" x="0" y="0" width="20" height="20">
<rect width="20" height="20" fill="#D9D9D9"/>
</mask>
<g mask="url(#mask0_2398_28460)">
<path d="M6.66663 15.4192C5.15915 15.4192 3.87951 14.8933 2.82771 13.8415C1.7759 12.7897 1.25 11.5101 1.25 10.0026C1.25 8.49511 1.7759 7.21547 2.82771 6.16367C3.87951 5.11185 5.15915 4.58594 6.66663 4.58594C7.10574 4.58594 7.52908 4.63936 7.93667 4.74621C8.34426 4.85304 8.72808 5.00635 9.08812 5.20615C8.91612 5.35252 8.754 5.51091 8.60175 5.68131C8.44951 5.85172 8.30449 6.02719 8.16667 6.20773C7.94765 6.08913 7.71181 5.99751 7.45913 5.93288C7.20645 5.86824 6.94228 5.83592 6.66663 5.83592C5.51385 5.83592 4.53121 6.24217 3.71871 7.05467C2.90621 7.86717 2.49996 8.84981 2.49996 10.0026C2.49996 11.1554 2.90621 12.138 3.71871 12.9505C4.53121 13.763 5.51385 14.1693 6.66663 14.1693C6.94228 14.1693 7.20645 14.1369 7.45913 14.0723C7.71181 14.0077 7.94765 13.916 8.16667 13.7974C8.30449 13.978 8.44951 14.1535 8.60175 14.3239C8.754 14.4943 8.91612 14.6526 9.08812 14.799C8.72808 14.9988 8.34426 15.1521 7.93667 15.259C7.52908 15.3658 7.10574 15.4192 6.66663 15.4192ZM13.3333 15.4192C12.8942 15.4192 12.4708 15.3658 12.0633 15.259C11.6557 15.1521 11.2718 14.9988 10.9118 14.799C11.0838 14.6526 11.2459 14.4943 11.3982 14.3239C11.5504 14.1535 11.6954 13.978 11.8333 13.7974C12.0608 13.916 12.2988 14.0077 12.5472 14.0723C12.7956 14.1369 13.0576 14.1693 13.3333 14.1693C14.4861 14.1693 15.4687 13.763 16.2812 12.9505C17.0937 12.138 17.5 11.1554 17.5 10.0026C17.5 8.84981 17.0937 7.86717 16.2812 7.05467C15.4687 6.24217 14.4861 5.83592 13.3333 5.83592C13.0576 5.83592 12.7956 5.86824 12.5472 5.93288C12.2988 5.99751 12.0608 6.08913 11.8333 6.20773C11.6954 6.02719 11.5504 5.85172 11.3982 5.68131C11.2459 5.51091 11.0838 5.35252 10.9118 5.20615C11.2718 5.00635 11.6557 4.85304 12.0633 4.74621C12.4708 4.63936 12.8942 4.58594 13.3333 4.58594C14.8408 4.58594 16.1204 5.11185 17.1722 6.16367C18.224 7.21547 18.7499 8.49511 18.7499 10.0026C18.7499 11.5101 18.224 12.7897 17.1722 13.8415C16.1204 14.8933 14.8408 15.4192 13.3333 15.4192ZM9.99996 13.9673C9.90808 13.9673 9.8162 13.9486 9.72431 13.9112C9.63244 13.8738 9.55178 13.8204 9.48233 13.7509C8.977 13.2712 8.58972 12.7042 8.3205 12.0498C8.05126 11.3955 7.91665 10.713 7.91665 10.0026C7.91665 9.29213 8.05126 8.60971 8.3205 7.95533C8.58972 7.30096 8.977 6.73392 9.48233 6.25423C9.55178 6.18478 9.63244 6.13137 9.72431 6.09398C9.8162 6.05658 9.90808 6.03787 9.99996 6.03787C10.0918 6.03787 10.1837 6.05658 10.2756 6.09398C10.3675 6.13137 10.4481 6.18478 10.5176 6.25423C11.0229 6.73392 11.4102 7.30096 11.6794 7.95533C11.9487 8.60971 12.0833 9.29213 12.0833 10.0026C12.0833 10.713 11.9487 11.3955 11.6794 12.0498C11.4102 12.7042 11.0229 13.2712 10.5176 13.7509C10.4481 13.8204 10.3675 13.8738 10.2756 13.9112C10.1837 13.9486 10.0918 13.9673 9.99996 13.9673Z" fill="#003366"/>
</g>
</svg>
