<svg width="24" height="24" viewBox="0 0 24 24" fill="none" xmlns="http://www.w3.org/2000/svg">
<path d="M8.80195 15.4219H8.26758V17.8266H8.80195C9.06445 17.8266 9.27539 17.7375 9.43008 17.5594C9.58477 17.3813 9.66445 17.1516 9.66445 16.875V16.3734C9.66445 16.0969 9.58477 15.8719 9.43008 15.6937C9.27539 15.5109 9.06445 15.4219 8.80195 15.4219Z" fill="white"/>
<path d="M17.141 13.4062H1.89258V19.6828H14.8441L17.141 13.4062ZM6.74883 16.7484C6.54258 16.9359 6.26133 17.025 5.90039 17.025H5.19258V18.2672H4.64414V14.9859H5.90039C6.26133 14.9859 6.54727 15.0797 6.74883 15.2672C6.95508 15.4547 7.0582 15.6984 7.0582 16.0031C7.0582 16.3172 6.95508 16.5609 6.74883 16.7484ZM10.2082 16.8797C10.2082 17.2922 10.077 17.625 9.81914 17.8828C9.55664 18.1406 9.21914 18.2719 8.80195 18.2719H7.71914V14.9906H8.80195C9.21914 14.9906 9.55664 15.1219 9.81914 15.3797C10.0816 15.6375 10.2082 15.975 10.2082 16.3828V16.8797ZM13.0488 15.4266H11.4973V16.4297H12.8191V16.8703H11.4973V18.2719H10.9488V14.9906H13.0488V15.4266Z" fill="white"/>
<path d="M5.89922 15.4219H5.19141V16.5797H5.89922C6.10078 16.5797 6.25547 16.5234 6.35859 16.4156C6.46172 16.3078 6.51328 16.1719 6.51328 16.0031C6.51328 15.8344 6.46172 15.6984 6.35859 15.5859C6.25547 15.4781 6.10078 15.4219 5.89922 15.4219Z" fill="white"/>
<path d="M16.5434 0.28125H5.03555C4.69336 0.28125 4.41211 0.5625 4.41211 0.904687V12.9422H5.65898V1.52812H16.5434V5.85H20.8652V22.4719H5.65898V20.1375H4.41211V23.0953C4.41211 23.4375 4.69336 23.7188 5.03555 23.7188H21.4887C21.8309 23.7188 22.1121 23.4375 22.1121 23.0953V5.85L16.5434 0.28125Z" fill="white"/>
<path d="M19.2023 8.03906H7.32422V8.95781H19.2023V8.03906Z" fill="white"/>
<path d="M17.3227 9.82031H7.32422V10.7391H17.3227V9.82031Z" fill="white"/>
</svg>
