<svg width="71" height="20" viewBox="0 0 71 20" fill="none" xmlns="http://www.w3.org/2000/svg">
<path d="M0.125 4C0.125 1.79086 1.91586 0 4.125 0H55.125V20H4.125C1.91586 20 0.125 18.2091 0.125 16V4Z" fill="#D89B0E"/>
<path d="M9.26172 10.6543H6.98242V9.73438H9.26172C9.70312 9.73438 10.0605 9.66406 10.334 9.52344C10.6074 9.38281 10.8066 9.1875 10.9316 8.9375C11.0605 8.6875 11.125 8.40234 11.125 8.08203C11.125 7.78906 11.0605 7.51367 10.9316 7.25586C10.8066 6.99805 10.6074 6.79102 10.334 6.63477C10.0605 6.47461 9.70312 6.39453 9.26172 6.39453H7.24609V14H6.11523V5.46875H9.26172C9.90625 5.46875 10.4512 5.58008 10.8965 5.80273C11.3418 6.02539 11.6797 6.33398 11.9102 6.72852C12.1406 7.11914 12.2559 7.56641 12.2559 8.07031C12.2559 8.61719 12.1406 9.08398 11.9102 9.4707C11.6797 9.85742 11.3418 10.1523 10.8965 10.3555C10.4512 10.5547 9.90625 10.6543 9.26172 10.6543ZM16.1903 14.1172C15.7489 14.1172 15.3485 14.043 14.9891 13.8945C14.6337 13.7422 14.327 13.5293 14.0692 13.2559C13.8153 12.9824 13.62 12.6582 13.4833 12.2832C13.3466 11.9082 13.2782 11.498 13.2782 11.0527V10.8066C13.2782 10.291 13.3544 9.83203 13.5067 9.42969C13.6591 9.02344 13.8661 8.67969 14.1278 8.39844C14.3895 8.11719 14.6864 7.9043 15.0184 7.75977C15.3505 7.61523 15.6942 7.54297 16.0497 7.54297C16.5028 7.54297 16.8934 7.62109 17.2216 7.77734C17.5536 7.93359 17.8251 8.15234 18.036 8.43359C18.247 8.71094 18.4032 9.03906 18.5048 9.41797C18.6063 9.79297 18.6571 10.2031 18.6571 10.6484V11.1348H13.9227V10.25H17.5731V10.168C17.5575 9.88672 17.4989 9.61328 17.3973 9.34766C17.2997 9.08203 17.1434 8.86328 16.9286 8.69141C16.7137 8.51953 16.4208 8.43359 16.0497 8.43359C15.8036 8.43359 15.577 8.48633 15.37 8.5918C15.163 8.69336 14.9852 8.8457 14.8368 9.04883C14.6884 9.25195 14.5731 9.5 14.4911 9.79297C14.4091 10.0859 14.368 10.4238 14.368 10.8066V11.0527C14.368 11.3535 14.4091 11.6367 14.4911 11.9023C14.577 12.1641 14.7001 12.3945 14.8602 12.5938C15.0243 12.793 15.2216 12.9492 15.452 13.0625C15.6864 13.1758 15.952 13.2324 16.2489 13.2324C16.6317 13.2324 16.9559 13.1543 17.2216 12.998C17.4872 12.8418 17.7196 12.6328 17.9188 12.3711L18.5751 12.8926C18.4384 13.0996 18.2645 13.2969 18.0536 13.4844C17.8427 13.6719 17.5829 13.8242 17.2743 13.9414C16.9696 14.0586 16.6083 14.1172 16.1903 14.1172ZM21.1267 9.01367V14H20.0427V7.66016H21.0681L21.1267 9.01367ZM20.8689 10.5898L20.4177 10.5723C20.4216 10.1387 20.4861 9.73828 20.6111 9.37109C20.7361 9 20.9119 8.67773 21.1384 8.4043C21.365 8.13086 21.6345 7.91992 21.947 7.77148C22.2634 7.61914 22.613 7.54297 22.9959 7.54297C23.3084 7.54297 23.5896 7.58594 23.8396 7.67188C24.0896 7.75391 24.3025 7.88672 24.4783 8.07031C24.658 8.25391 24.7947 8.49219 24.8884 8.78516C24.9822 9.07422 25.0291 9.42773 25.0291 9.8457V14H23.9392V9.83398C23.9392 9.50195 23.8904 9.23633 23.7927 9.03711C23.6951 8.83398 23.5525 8.6875 23.365 8.59766C23.1775 8.50391 22.947 8.45703 22.6736 8.45703C22.4041 8.45703 22.158 8.51367 21.9353 8.62695C21.7166 8.74023 21.5271 8.89648 21.367 9.0957C21.2107 9.29492 21.0877 9.52344 20.9978 9.78125C20.9119 10.0352 20.8689 10.3047 20.8689 10.5898ZM30.7916 12.7695V5H31.8815V14H30.8854L30.7916 12.7695ZM26.526 10.9004V10.7773C26.526 10.293 26.5846 9.85352 26.7018 9.45898C26.8229 9.06055 26.9928 8.71875 27.2116 8.43359C27.4342 8.14844 27.6979 7.92969 28.0026 7.77734C28.3112 7.62109 28.6549 7.54297 29.0338 7.54297C29.4323 7.54297 29.7799 7.61328 30.0768 7.75391C30.3776 7.89062 30.6315 8.0918 30.8385 8.35742C31.0495 8.61914 31.2155 8.93555 31.3366 9.30664C31.4577 9.67773 31.5416 10.0977 31.5885 10.5664V11.1055C31.5455 11.5703 31.4616 11.9883 31.3366 12.3594C31.2155 12.7305 31.0495 13.0469 30.8385 13.3086C30.6315 13.5703 30.3776 13.7715 30.0768 13.9121C29.776 14.0488 29.4245 14.1172 29.0221 14.1172C28.651 14.1172 28.3112 14.0371 28.0026 13.877C27.6979 13.7168 27.4342 13.4922 27.2116 13.2031C26.9928 12.9141 26.8229 12.5742 26.7018 12.1836C26.5846 11.7891 26.526 11.3613 26.526 10.9004ZM27.6159 10.7773V10.9004C27.6159 11.2168 27.6471 11.5137 27.7096 11.791C27.776 12.0684 27.8776 12.3125 28.0143 12.5234C28.151 12.7344 28.3248 12.9004 28.5358 13.0215C28.7467 13.1387 28.9987 13.1973 29.2916 13.1973C29.651 13.1973 29.9459 13.1211 30.1764 12.9688C30.4108 12.8164 30.5983 12.6152 30.7389 12.3652C30.8795 12.1152 30.9889 11.8438 31.067 11.5508V10.1387C31.0202 9.92383 30.9518 9.7168 30.862 9.51758C30.776 9.31445 30.6627 9.13477 30.5221 8.97852C30.3854 8.81836 30.2155 8.69141 30.0123 8.59766C29.8131 8.50391 29.5768 8.45703 29.3034 8.45703C29.0065 8.45703 28.7506 8.51953 28.5358 8.64453C28.3248 8.76562 28.151 8.93359 28.0143 9.14844C27.8776 9.35938 27.776 9.60547 27.7096 9.88672C27.6471 10.1641 27.6159 10.4609 27.6159 10.7773ZM34.8667 7.66016V14H33.7769V7.66016H34.8667ZM33.6948 5.97852C33.6948 5.80273 33.7476 5.6543 33.853 5.5332C33.9624 5.41211 34.1226 5.35156 34.3335 5.35156C34.5405 5.35156 34.6987 5.41211 34.8081 5.5332C34.9214 5.6543 34.978 5.80273 34.978 5.97852C34.978 6.14648 34.9214 6.29102 34.8081 6.41211C34.6987 6.5293 34.5405 6.58789 34.3335 6.58789C34.1226 6.58789 33.9624 6.5293 33.853 6.41211C33.7476 6.29102 33.6948 6.14648 33.6948 5.97852ZM37.8109 9.01367V14H36.727V7.66016H37.7523L37.8109 9.01367ZM37.5531 10.5898L37.102 10.5723C37.1059 10.1387 37.1703 9.73828 37.2953 9.37109C37.4203 9 37.5961 8.67773 37.8227 8.4043C38.0492 8.13086 38.3188 7.91992 38.6313 7.77148C38.9477 7.61914 39.2973 7.54297 39.6801 7.54297C39.9926 7.54297 40.2738 7.58594 40.5238 7.67188C40.7738 7.75391 40.9867 7.88672 41.1625 8.07031C41.3422 8.25391 41.4789 8.49219 41.5727 8.78516C41.6664 9.07422 41.7133 9.42773 41.7133 9.8457V14H40.6234V9.83398C40.6234 9.50195 40.5746 9.23633 40.477 9.03711C40.3793 8.83398 40.2367 8.6875 40.0492 8.59766C39.8617 8.50391 39.6313 8.45703 39.3578 8.45703C39.0883 8.45703 38.8422 8.51367 38.6195 8.62695C38.4008 8.74023 38.2113 8.89648 38.0512 9.0957C37.8949 9.29492 37.7719 9.52344 37.682 9.78125C37.5961 10.0352 37.5531 10.3047 37.5531 10.5898ZM47.5872 7.66016H48.5716V13.8652C48.5716 14.4238 48.4583 14.9004 48.2317 15.2949C48.0052 15.6895 47.6888 15.9883 47.2825 16.1914C46.8802 16.3984 46.4153 16.502 45.888 16.502C45.6692 16.502 45.4114 16.4668 45.1145 16.3965C44.8216 16.3301 44.5325 16.2148 44.2473 16.0508C43.9661 15.8906 43.7298 15.6738 43.5384 15.4004L44.1067 14.7559C44.3723 15.0762 44.6497 15.2988 44.9388 15.4238C45.2317 15.5488 45.5208 15.6113 45.8059 15.6113C46.1497 15.6113 46.4466 15.5469 46.6966 15.418C46.9466 15.2891 47.1399 15.0977 47.2766 14.8438C47.4173 14.5938 47.4876 14.2852 47.4876 13.918V9.05469L47.5872 7.66016ZM43.222 10.9004V10.7773C43.222 10.293 43.2786 9.85352 43.3919 9.45898C43.5091 9.06055 43.6751 8.71875 43.8899 8.43359C44.1087 8.14844 44.3723 7.92969 44.6809 7.77734C44.9895 7.62109 45.3372 7.54297 45.7239 7.54297C46.1223 7.54297 46.47 7.61328 46.7669 7.75391C47.0677 7.89062 47.3216 8.0918 47.5286 8.35742C47.7395 8.61914 47.9055 8.93555 48.0266 9.30664C48.1477 9.67773 48.2317 10.0977 48.2786 10.5664V11.1055C48.2356 11.5703 48.1516 11.9883 48.0266 12.3594C47.9055 12.7305 47.7395 13.0469 47.5286 13.3086C47.3216 13.5703 47.0677 13.7715 46.7669 13.9121C46.4661 14.0488 46.1145 14.1172 45.7122 14.1172C45.3333 14.1172 44.9895 14.0371 44.6809 13.877C44.3763 13.7168 44.1145 13.4922 43.8958 13.2031C43.677 12.9141 43.5091 12.5742 43.3919 12.1836C43.2786 11.7891 43.222 11.3613 43.222 10.9004ZM44.3059 10.7773V10.9004C44.3059 11.2168 44.3372 11.5137 44.3997 11.791C44.4661 12.0684 44.5657 12.3125 44.6985 12.5234C44.8352 12.7344 45.0091 12.9004 45.22 13.0215C45.4309 13.1387 45.6829 13.1973 45.9759 13.1973C46.3352 13.1973 46.6321 13.1211 46.8665 12.9688C47.1009 12.8164 47.2864 12.6152 47.4231 12.3652C47.5638 12.1152 47.6731 11.8438 47.7513 11.5508V10.1387C47.7083 9.92383 47.6419 9.7168 47.552 9.51758C47.4661 9.31445 47.3528 9.13477 47.2122 8.97852C47.0755 8.81836 46.9055 8.69141 46.7024 8.59766C46.4993 8.50391 46.261 8.45703 45.9876 8.45703C45.6907 8.45703 45.4348 8.51953 45.22 8.64453C45.0091 8.76562 44.8352 8.93359 44.6985 9.14844C44.5657 9.35938 44.4661 9.60547 44.3997 9.88672C44.3372 10.1641 44.3059 10.4609 44.3059 10.7773Z" fill="white"/>
<path d="M55.125 0H66.9969C69.206 0 70.9969 1.79086 70.9969 4V16C70.9969 18.2091 69.206 20 66.9969 20H55.125V0Z" fill="#C48D0D"/>
<path d="M62.566 12.5C62.6661 12.5 62.7593 12.484 62.8455 12.4521C62.9317 12.4201 63.0137 12.3653 63.0914 12.2876L66.8235 8.55555C66.9384 8.44058 66.9973 8.29607 66.9999 8.122C67.0026 7.94793 66.9438 7.80075 66.8235 7.68045C66.7032 7.56015 66.5573 7.5 66.3859 7.5C66.2145 7.5 66.0687 7.56015 65.9484 7.68045L62.566 11.0628L59.1837 7.68045C59.0687 7.56548 58.9242 7.50666 58.7501 7.50398C58.5761 7.50133 58.4289 7.56015 58.3086 7.68045C58.1883 7.80074 58.1281 7.9466 58.1281 8.11801C58.1281 8.28941 58.1883 8.43525 58.3086 8.55555L62.0406 12.2876C62.1184 12.3653 62.2003 12.4201 62.2866 12.4521C62.3728 12.484 62.4659 12.5 62.566 12.5Z" fill="white"/>
</svg>
