<svg width="12" height="13" viewBox="0 0 12 13" fill="none" xmlns="http://www.w3.org/2000/svg">
<path d="M6 1C2.96243 1 0.5 3.46243 0.5 6.5C0.5 9.53757 2.96243 12 6 12C9.03757 12 11.5 9.53757 11.5 6.5C11.5 3.46243 9.03757 1 6 1ZM6 11.2143C3.40046 11.2143 1.28571 9.09954 1.28571 6.5C1.28571 3.90046 3.40046 1.78571 6 1.78571C8.59954 1.78571 10.7143 3.90046 10.7143 6.5C10.7143 9.09954 8.59954 11.2143 6 11.2143Z" fill="#B77E0C"/>
<path d="M8.24036 8.18877C8.39397 8.34237 8.39397 8.59066 8.24036 8.74427C8.08675 8.89788 7.83847 8.89788 7.68486 8.74427L5.72058 6.77998C5.64672 6.70652 5.60547 6.60673 5.60547 6.50223V3.75223C5.60547 3.53498 5.78108 3.35938 5.99833 3.35938C6.21558 3.35938 6.39118 3.53498 6.39118 3.75223V6.33959L8.24036 8.18877Z" fill="#B77E0C"/>
</svg>
