<svg width="20" height="21" viewBox="0 0 20 21" fill="none" xmlns="http://www.w3.org/2000/svg">
<path d="M12.6486 7.49805L13.9279 5.28191C13.99 5.17365 14.0729 5.07869 14.1717 5.00246C14.2706 4.92622 14.3835 4.87022 14.504 4.83763C14.6245 4.80505 14.7502 4.79653 14.874 4.81255C14.9978 4.82858 15.1172 4.86884 15.2254 4.93104L15.4037 5.03349C15.512 5.09562 15.6069 5.17848 15.6832 5.27732C15.7594 5.37617 15.8154 5.48907 15.848 5.60956C15.8806 5.73006 15.8891 5.8558 15.8731 5.97959C15.857 6.10339 15.8168 6.22281 15.7546 6.33104L14.5377 8.4363L14.7047 8.14718L11.7616 13.2447C11.1398 14.3219 10.3167 14.804 9.8135 14.5135C9.30964 14.223 9.31595 13.2693 9.93841 12.1921L13.003 6.88402" stroke="#323C47" stroke-width="0.833333" stroke-miterlimit="10" stroke-linecap="round"/>
<path d="M9.34961 15.3148L9.70049 14.707" stroke="#323C47" stroke-width="0.833333" stroke-miterlimit="10" stroke-linecap="round"/>
<path d="M13.3496 6.28516L15.7258 7.67463C15.8991 7.77617 16.0252 7.94214 16.0766 8.13632C16.128 8.3305 16.1005 8.53713 16.0001 8.71112L15.3356 9.8627" stroke="#323C47" stroke-width="0.833333" stroke-miterlimit="10" stroke-linecap="round"/>
<path d="M13.9916 11.6654V16.4675C13.9916 16.6536 13.9177 16.8321 13.7861 16.9637C13.6544 17.0953 13.476 17.1693 13.2898 17.1693H4.86875C4.68263 17.1693 4.50414 17.0953 4.37253 16.9637C4.24093 16.8321 4.16699 16.6536 4.16699 16.4675V4.53769C4.16699 4.35158 4.24093 4.17308 4.37253 4.04148C4.50414 3.90987 4.68263 3.83594 4.86875 3.83594H13.2898" stroke="#323C47" stroke-width="0.833333" stroke-linecap="round" stroke-linejoin="round"/>
<path d="M6.27344 5.23828V17.1681" stroke="#323C47" stroke-width="0.833333" stroke-miterlimit="10" stroke-linecap="round"/>
</svg>
