<svg width="20" height="20" viewBox="0 0 20 20" fill="none" xmlns="http://www.w3.org/2000/svg">
<path d="M8.50781 14.4121H13.7257" stroke="white" stroke-miterlimit="10" stroke-linecap="round"/>
<path d="M8.50781 12.7793H13.7257" stroke="white" stroke-miterlimit="10" stroke-linecap="round"/>
<path d="M10.4609 11.1504H13.7221" stroke="white" stroke-miterlimit="10" stroke-linecap="round"/>
<path d="M10.4609 9.51953H13.7221" stroke="white" stroke-miterlimit="10" stroke-linecap="round"/>
<path d="M10.4609 7.89062H13.7221" stroke="white" stroke-miterlimit="10" stroke-linecap="round"/>
<path d="M12.5925 3.19102C12.7148 3.31332 12.7836 3.47921 12.7836 3.65217V5.6087C12.7836 5.78166 12.8523 5.94755 12.9746 6.06985C13.0969 6.19216 13.2628 6.26087 13.4358 6.26087H15.3925C15.5655 6.26087 15.7314 6.32958 15.8537 6.45189M12.5925 3.19102C12.4702 3.06871 12.3043 3 12.1313 3H4.95671C4.78373 3 4.61783 3.06871 4.49551 3.19102C4.37319 3.31332 4.30448 3.47921 4.30448 3.65217V5.96312M12.5925 3.19102L15.8537 6.45189M15.8537 6.45189C15.976 6.57419 16.0448 6.74008 16.0448 6.91304V17.3478C16.0448 17.5208 15.976 17.6867 15.8537 17.809C15.7314 17.9313 15.5655 18 15.3925 18H4.95671C4.78373 18 4.61783 17.9313 4.49551 17.809C4.37319 17.6867 4.30448 17.5208 4.30448 17.3478V11.4375M7.95701 5.93478H3.2609C3.1917 5.93478 3.12534 5.96227 3.07641 6.01119C3.02749 6.06011 3 6.12646 3 6.19565V10.0467C2.9999 10.2982 3.07249 10.5443 3.20904 10.7555C3.34558 10.9667 3.54026 11.1339 3.76964 11.237L5.60895 12.0652L7.44826 11.237C7.67764 11.1339 7.87232 10.9667 8.00887 10.7555C8.14541 10.5443 8.21801 10.2982 8.2179 10.0467V6.19565C8.2179 6.12646 8.19041 6.06011 8.14149 6.01119C8.09256 5.96227 8.0262 5.93478 7.95701 5.93478Z" stroke="white"/>
<path d="M4.42578 8.59883L5.32587 9.49883L6.90102 7.92383" stroke="white" stroke-miterlimit="10" stroke-linecap="round"/>
</svg>
