<svg width="21" height="20" viewBox="0 0 21 20" fill="none" xmlns="http://www.w3.org/2000/svg">
<path d="M9.2423 9.99933L13.6859 6.47248C13.8632 6.33058 13.9743 6.12752 13.9948 5.90776C14.0153 5.688 13.9436 5.46945 13.7953 5.29998C13.647 5.13051 13.4342 5.02392 13.2036 5.00356C12.9729 4.9832 12.7432 5.05072 12.5647 5.19135L7.31448 9.35875C7.21603 9.43709 7.13684 9.53506 7.0825 9.64575C7.02816 9.75643 7 9.87713 7 9.99932C7 10.1215 7.02816 10.2422 7.0825 10.3529C7.13684 10.4636 7.21603 10.5616 7.31448 10.6399L12.5647 14.8073C12.7431 14.9486 12.9731 15.0167 13.2042 14.9965C13.4352 14.9764 13.6484 14.8698 13.797 14.7C13.9456 14.5303 14.0173 14.3113 13.9965 14.0912C13.9756 13.8711 13.8639 13.6678 13.6859 13.5261L9.2423 9.99933Z" fill="#93A2B2"/>
</svg>
