<svg width="20" height="20" viewBox="0 0 20 20" fill="none" xmlns="http://www.w3.org/2000/svg">
<mask id="mask0_3018_22323" style="mask-type:alpha" maskUnits="userSpaceOnUse" x="0" y="0" width="20" height="20">
<rect width="20" height="20" fill="#D9D9D9"/>
</mask>
<g mask="url(#mask0_3018_22323)">
<path d="M10.0026 12.9807C10.9468 12.9807 11.7488 12.6502 12.4085 11.9893C13.0682 11.3283 13.3981 10.5257 13.3981 9.58142C13.3981 8.63718 13.0676 7.8352 12.4066 7.17548C11.7457 6.51576 10.943 6.1859 9.99878 6.1859C9.05455 6.1859 8.25257 6.51638 7.59284 7.17735C6.93312 7.83834 6.60326 8.64096 6.60326 9.58521C6.60326 10.5294 6.93375 11.3314 7.59472 11.9911C8.2557 12.6509 9.05832 12.9807 10.0026 12.9807ZM10.0007 11.8333C9.37568 11.8333 8.84443 11.6146 8.40693 11.1771C7.96943 10.7396 7.75068 10.2083 7.75068 9.58331C7.75068 8.95831 7.96943 8.42706 8.40693 7.98956C8.84443 7.55206 9.37568 7.33331 10.0007 7.33331C10.6257 7.33331 11.1569 7.55206 11.5944 7.98956C12.0319 8.42706 12.2507 8.95831 12.2507 9.58331C12.2507 10.2083 12.0319 10.7396 11.5944 11.1771C11.1569 11.6146 10.6257 11.8333 10.0007 11.8333ZM10.0007 15.4166C8.24641 15.4166 6.64199 14.9487 5.18741 14.0128C3.73281 13.0769 2.57175 11.8456 1.70424 10.3189C1.6348 10.1992 1.58405 10.0786 1.55199 9.9571C1.51993 9.83556 1.50391 9.71083 1.50391 9.5829C1.50391 9.45497 1.51993 9.33038 1.55199 9.20913C1.58405 9.08786 1.6348 8.9674 1.70424 8.84775C2.57175 7.32104 3.73281 6.08974 5.18741 5.15385C6.64199 4.21795 8.24641 3.75 10.0007 3.75C11.7549 3.75 13.3594 4.21795 14.8139 5.15385C16.2685 6.08974 17.4296 7.32104 18.2971 8.84775C18.3666 8.9674 18.4173 9.08799 18.4494 9.20952C18.4814 9.33106 18.4974 9.4558 18.4974 9.58373C18.4974 9.71166 18.4814 9.83625 18.4494 9.9575C18.4173 10.0788 18.3666 10.1992 18.2971 10.3189C17.4296 11.8456 16.2685 13.0769 14.8139 14.0128C13.3594 14.9487 11.7549 15.4166 10.0007 15.4166ZM10.0007 14.1666C11.5701 14.1666 13.0111 13.7535 14.3236 12.9271C15.6361 12.1007 16.6396 10.9861 17.334 9.58331C16.6396 8.18054 15.6361 7.06595 14.3236 6.23956C13.0111 5.41317 11.5701 4.99998 10.0007 4.99998C8.43123 4.99998 6.99026 5.41317 5.67776 6.23956C4.36526 7.06595 3.36179 8.18054 2.66734 9.58331C3.36179 10.9861 4.36526 12.1007 5.67776 12.9271C6.99026 13.7535 8.43123 14.1666 10.0007 14.1666Z" fill="#93A2B2"/>
</g>
</svg>
