<svg width="24" height="24" viewBox="0 0 24 24" fill="none" xmlns="http://www.w3.org/2000/svg">
<g id="Component 419">
<g id="Ellipse 283">
<mask id="path-1-inside-1_3958_22331" fill="white">
<path d="M12 1.2C12 0.537258 12.5386 -0.00622467 13.1981 0.0599261C15.8132 0.322264 18.2825 1.43808 20.2146 3.25238C22.1466 5.06668 23.4153 7.46106 23.8413 10.0546C23.9487 10.7086 23.4401 11.2803 22.7787 11.3219C22.1173 11.3635 21.5549 10.8584 21.4312 10.2073C21.0541 8.22363 20.0584 6.39807 18.5717 5.0019C17.0849 3.60573 15.2004 2.72661 13.1969 2.47488C12.5394 2.39226 12 1.86274 12 1.2Z"/>
</mask>
<path d="M12 1.2C12 0.537258 12.5386 -0.00622467 13.1981 0.0599261C15.8132 0.322264 18.2825 1.43808 20.2146 3.25238C22.1466 5.06668 23.4153 7.46106 23.8413 10.0546C23.9487 10.7086 23.4401 11.2803 22.7787 11.3219C22.1173 11.3635 21.5549 10.8584 21.4312 10.2073C21.0541 8.22363 20.0584 6.39807 18.5717 5.0019C17.0849 3.60573 15.2004 2.72661 13.1969 2.47488C12.5394 2.39226 12 1.86274 12 1.2Z" stroke="#06B217" stroke-width="2.4" mask="url(#path-1-inside-1_3958_22331)"/>
</g>
<g id="Ellipse 284" opacity="0.2">
<mask id="path-2-inside-2_3958_22331" fill="white">
<path d="M22.8 12C23.4627 12 24.0062 12.5386 23.9401 13.1981C23.6777 15.8132 22.5619 18.2825 20.7476 20.2146C18.9333 22.1466 16.5389 23.4153 13.9454 23.8413C13.2914 23.9487 12.7197 23.4401 12.6781 22.7787C12.6365 22.1173 13.1416 21.5549 13.7927 21.4312C15.7764 21.0541 17.6019 20.0584 18.9981 18.5717C20.3943 17.0849 21.2734 15.2004 21.5251 13.1969C21.6077 12.5394 22.1373 12 22.8 12Z"/>
</mask>
<path d="M22.8 12C23.4627 12 24.0062 12.5386 23.9401 13.1981C23.6777 15.8132 22.5619 18.2825 20.7476 20.2146C18.9333 22.1466 16.5389 23.4153 13.9454 23.8413C13.2914 23.9487 12.7197 23.4401 12.6781 22.7787C12.6365 22.1173 13.1416 21.5549 13.7927 21.4312C15.7764 21.0541 17.6019 20.0584 18.9981 18.5717C20.3943 17.0849 21.2734 15.2004 21.5251 13.1969C21.6077 12.5394 22.1373 12 22.8 12Z" stroke="#06B217" stroke-width="2.4" mask="url(#path-2-inside-2_3958_22331)"/>
</g>
<g id="Ellipse 285" opacity="0.2">
<mask id="path-3-inside-3_3958_22331" fill="white">
<path d="M12 22.8C12 23.4627 11.4614 24.0062 10.8019 23.9401C8.18678 23.6777 5.71747 22.5619 3.78544 20.7476C1.8534 18.9333 0.58474 16.5389 0.158715 13.9454C0.0512895 13.2914 0.559878 12.7197 1.22131 12.6781C1.88275 12.6365 2.44509 13.1416 2.56883 13.7927C2.94586 15.7764 3.94158 17.6019 5.42835 18.9981C6.91511 20.3943 8.7996 21.2734 10.8031 21.5251C11.4606 21.6077 12 22.1373 12 22.8Z"/>
</mask>
<path d="M12 22.8C12 23.4627 11.4614 24.0062 10.8019 23.9401C8.18678 23.6777 5.71747 22.5619 3.78544 20.7476C1.8534 18.9333 0.58474 16.5389 0.158715 13.9454C0.0512895 13.2914 0.559878 12.7197 1.22131 12.6781C1.88275 12.6365 2.44509 13.1416 2.56883 13.7927C2.94586 15.7764 3.94158 17.6019 5.42835 18.9981C6.91511 20.3943 8.7996 21.2734 10.8031 21.5251C11.4606 21.6077 12 22.1373 12 22.8Z" stroke="#06B217" stroke-width="2.4" mask="url(#path-3-inside-3_3958_22331)"/>
</g>
<g id="Ellipse 286" opacity="0.2">
<mask id="path-4-inside-4_3958_22331" fill="white">
<path d="M1.2 12C0.537258 12 -0.00622522 11.4614 0.0599256 10.8019C0.322263 8.18678 1.43808 5.71747 3.25238 3.78543C5.06668 1.8534 7.46106 0.584739 10.0546 0.158714C10.7085 0.0512881 11.2802 0.559877 11.3219 1.22131C11.3635 1.88275 10.8584 2.44509 10.2073 2.56883C8.22363 2.94586 6.39807 3.94158 5.0019 5.42835C3.60573 6.91511 2.72661 8.7996 2.47488 10.8031C2.39226 11.4606 1.86274 12 1.2 12Z"/>
</mask>
<path d="M1.2 12C0.537258 12 -0.00622522 11.4614 0.0599256 10.8019C0.322263 8.18678 1.43808 5.71747 3.25238 3.78543C5.06668 1.8534 7.46106 0.584739 10.0546 0.158714C10.7085 0.0512881 11.2802 0.559877 11.3219 1.22131C11.3635 1.88275 10.8584 2.44509 10.2073 2.56883C8.22363 2.94586 6.39807 3.94158 5.0019 5.42835C3.60573 6.91511 2.72661 8.7996 2.47488 10.8031C2.39226 11.4606 1.86274 12 1.2 12Z" stroke="#06B217" stroke-width="2.4" mask="url(#path-4-inside-4_3958_22331)"/>
</g>
</g>
</svg>
