<svg width="13" height="14" viewBox="0 0 13 14" fill="none" xmlns="http://www.w3.org/2000/svg">
<path d="M6.61725 13.3346C5.74887 13.3346 4.92944 13.1681 4.15894 12.8352C3.38842 12.5023 2.71641 12.0491 2.1429 11.4756C1.5694 10.9021 1.1162 10.2301 0.783302 9.4596C0.450391 8.6891 0.283936 7.86966 0.283936 7.00129C0.283936 6.12608 0.450391 5.30492 0.783302 4.53784C1.1162 3.77075 1.5694 3.10045 2.1429 2.52694C2.71641 1.95344 3.38842 1.50024 4.15894 1.16734C4.92944 0.834425 5.74887 0.667969 6.61725 0.667969C7.49246 0.667969 8.31361 0.834425 9.0807 1.16734C9.84779 1.50024 10.5181 1.95344 11.0916 2.52694C11.6651 3.10045 12.1183 3.77075 12.4512 4.53784C12.7841 5.30492 12.9506 6.12608 12.9506 7.00129C12.9506 7.86966 12.7841 8.6891 12.4512 9.4596C12.1183 10.2301 11.6651 10.9021 11.0916 11.4756C10.5181 12.0491 9.84779 12.5023 9.0807 12.8352C8.31361 13.1681 7.49246 13.3346 6.61725 13.3346ZM6.61725 12.3205C6.95743 11.8692 7.24376 11.4141 7.47624 10.9551C7.70871 10.4961 7.89803 9.99443 8.04419 9.44999H5.19032C5.34502 10.0115 5.53648 10.5218 5.76469 10.9808C5.99289 11.4397 6.27707 11.8863 6.61725 12.3205ZM5.32625 12.1372C5.0707 11.7705 4.84121 11.3536 4.63779 10.8865C4.43436 10.4194 4.27624 9.94059 4.16342 9.44999H1.90185C2.254 10.1423 2.72622 10.7239 3.31854 11.1949C3.91086 11.6658 4.5801 11.9799 5.32625 12.1372ZM7.90825 12.1372C8.65441 11.9799 9.32365 11.6658 9.91597 11.1949C10.5083 10.7239 10.9805 10.1423 11.3327 9.44999H9.07109C8.9369 9.94487 8.76809 10.4259 8.56467 10.893C8.36125 11.3601 8.14244 11.7748 7.90825 12.1372ZM1.48264 8.45002H3.96085C3.91897 8.20215 3.88864 7.9592 3.86984 7.72117C3.85104 7.48313 3.84164 7.24316 3.84164 7.00129C3.84164 6.75941 3.85104 6.51945 3.86984 6.2814C3.88864 6.04337 3.91897 5.80042 3.96085 5.55255H1.48264C1.41854 5.77905 1.36939 6.01453 1.3352 6.25897C1.30101 6.50341 1.28392 6.75085 1.28392 7.00129C1.28392 7.25172 1.30101 7.49916 1.3352 7.7436C1.36939 7.98805 1.41854 8.22352 1.48264 8.45002ZM4.96084 8.45002H8.27367C8.31555 8.20215 8.34589 7.96134 8.3647 7.72757C8.3835 7.49381 8.3929 7.25172 8.3929 7.00129C8.3929 6.75085 8.3835 6.50876 8.3647 6.275C8.34589 6.04124 8.31555 5.80042 8.27367 5.55255H4.96084C4.91896 5.80042 4.88861 6.04124 4.8698 6.275C4.851 6.50876 4.8416 6.75085 4.8416 7.00129C4.8416 7.25172 4.851 7.49381 4.8698 7.72757C4.88861 7.96134 4.91896 8.20215 4.96084 8.45002ZM9.27365 8.45002H11.7519C11.816 8.22352 11.8651 7.98805 11.8993 7.7436C11.9335 7.49916 11.9506 7.25172 11.9506 7.00129C11.9506 6.75085 11.9335 6.50341 11.8993 6.25897C11.8651 6.01453 11.816 5.77905 11.7519 5.55255H9.27365C9.31553 5.80042 9.34587 6.04337 9.36467 6.2814C9.38347 6.51945 9.39287 6.75941 9.39287 7.00129C9.39287 7.24316 9.38347 7.48313 9.36467 7.72117C9.34587 7.9592 9.31553 8.20215 9.27365 8.45002ZM9.07109 4.55259H11.3327C10.9762 3.85172 10.5072 3.27009 9.92559 2.80769C9.34395 2.3453 8.67151 2.02906 7.90825 1.85897C8.16381 2.247 8.39116 2.67136 8.5903 3.13205C8.78946 3.59274 8.94972 4.06625 9.07109 4.55259ZM5.19032 4.55259H8.04419C7.88949 3.99532 7.69483 3.48185 7.4602 3.01219C7.22559 2.54253 6.94461 2.09915 6.61725 1.68205C6.2899 2.09915 6.00891 2.54253 5.7743 3.01219C5.53968 3.48185 5.34502 3.99532 5.19032 4.55259ZM1.90185 4.55259H4.16342C4.28479 4.06625 4.44505 3.59274 4.6442 3.13205C4.84335 2.67136 5.0707 2.247 5.32625 1.85897C4.55873 2.02906 3.88522 2.34637 3.30572 2.8109C2.72623 3.27544 2.25827 3.856 1.90185 4.55259Z" fill="#5C6F83"/>
</svg>
