<svg width="45" height="45" viewBox="0 0 45 45" fill="none" xmlns="http://www.w3.org/2000/svg">
<rect y="0.300781" width="44.4" height="44.4" rx="22.2" fill="#C1E5FC"/>
<g clip-path="url(#clip0_574_25518)">
<path d="M29.0036 17.3911L27.3127 15.7002C26.7854 15.1729 25.9279 15.1729 25.4005 15.7002L23.8117 17.2926L27.3864 20.8673L28.9789 19.2785C29.5324 18.7754 29.5324 17.9181 29.0036 17.3911ZM22.0624 16.8145C21.623 16.3752 20.9129 16.3752 20.4736 16.8145L17.1306 20.1535C16.9549 20.3293 16.9549 20.6139 17.1306 20.7897L17.4487 21.1078C17.6245 21.2835 17.9091 21.2835 18.0849 21.1078L21.2687 17.9297L22.223 18.8839L17.6442 23.461C16.1679 24.9373 15.2364 26.8754 15.0044 28.951C14.9587 29.3799 15.3208 29.7475 15.7494 29.7019C17.8267 29.4735 19.7629 28.5418 21.2422 27.0621L26.7744 21.5299L22.0624 16.8145Z" fill="#3F70F6"/>
</g>
<defs>
<clipPath id="clip0_574_25518">
<rect width="14.4" height="14.4" fill="white" transform="translate(15 15.3008)"/>
</clipPath>
</defs>
</svg>
