<svg width="24" height="24" viewBox="0 0 24 24" fill="none" xmlns="http://www.w3.org/2000/svg">
<rect x="0.5" y="0.5" width="23" height="23" rx="11.5" fill="#EFF8FF"/>
<path fill-rule="evenodd" clip-rule="evenodd" d="M9.375 17.8333C9.375 17.6786 9.43646 17.5303 9.54585 17.4209C9.65525 17.3115 9.80362 17.25 9.95833 17.25H12.875C13.0297 17.25 13.1781 17.3115 13.2875 17.4209C13.3969 17.5303 13.4583 17.6786 13.4583 17.8333C13.4583 17.988 13.3969 18.1364 13.2875 18.2458C13.1781 18.3552 13.0297 18.4167 12.875 18.4167H9.95833C9.80362 18.4167 9.65525 18.3552 9.54585 18.2458C9.43646 18.1364 9.375 17.988 9.375 17.8333Z" fill="#1570EF"/>
<path d="M11.4165 5.58204C10.3889 5.58164 9.38988 5.92044 8.57449 6.54588C7.75911 7.17131 7.17296 8.04839 6.90703 9.04102C6.64109 10.0336 6.71022 11.0863 7.10371 12.0356C7.49719 12.9849 8.19302 13.7778 9.0832 14.2912V14.3507C9.0832 14.6068 9.0832 14.8273 9.09545 15.0099C9.10887 15.2024 9.13745 15.3949 9.2162 15.585C9.30415 15.7974 9.43308 15.9904 9.59562 16.1529C9.75817 16.3155 9.95115 16.4444 10.1635 16.5324C10.3537 16.6111 10.5462 16.6397 10.7387 16.6531C10.9213 16.6654 11.1418 16.6654 11.3979 16.6654H11.4352C11.6913 16.6654 11.9118 16.6654 12.0944 16.6531C12.2869 16.6397 12.4794 16.6111 12.6695 16.5324C12.8819 16.4444 13.0749 16.3155 13.2374 16.1529C13.4 15.9904 13.5289 15.7974 13.6169 15.585C13.6956 15.3949 13.7242 15.2024 13.7376 15.0099C13.7423 14.937 13.7452 14.8582 13.7469 14.7725C13.7507 14.5006 13.6518 14.2372 13.4699 14.0351L13.3532 13.9039C13.0942 13.6122 12.5832 13.5498 12.5832 13.9389V14.332C12.5832 14.612 12.5832 14.7929 12.5733 14.9305C12.5645 15.0635 12.5488 15.1143 12.5383 15.1388C12.4791 15.2813 12.3658 15.3946 12.2233 15.4538C12.1988 15.4643 12.148 15.48 12.015 15.4888C11.8774 15.4987 11.6965 15.4987 11.4165 15.4987C11.1365 15.4987 10.9557 15.4987 10.818 15.4888C10.685 15.48 10.6343 15.4643 10.6098 15.4538C10.4672 15.3946 10.354 15.2813 10.2948 15.1388C10.2843 15.1143 10.2685 15.0635 10.2598 14.9305C10.2504 14.7312 10.2471 14.5316 10.2499 14.332V13.9389C10.2499 13.8286 10.2187 13.7206 10.1598 13.6274C10.101 13.5342 10.0169 13.4595 9.91737 13.4121C9.5032 13.2126 9.1324 12.9334 8.82613 12.5905C8.51986 12.2477 8.28412 11.8478 8.13237 11.4139C7.98062 10.9799 7.91583 10.5203 7.94171 10.0613C7.96758 9.60232 8.0836 9.15291 8.28316 8.73874C8.48271 8.32458 8.76189 7.95378 9.10474 7.64751C9.4476 7.34124 9.84743 7.1055 10.2814 6.95375C10.7154 6.802 11.175 6.73721 11.634 6.76308C12.093 6.78896 12.5424 6.90498 12.9565 7.10454C13.2377 7.24279 13.5935 7.16929 13.7499 6.89745C13.9144 6.61104 13.8327 6.24179 13.5381 6.09129C12.8814 5.75556 12.1541 5.581 11.4165 5.58204Z" fill="#1570EF"/>
<path fill-rule="evenodd" clip-rule="evenodd" d="M13.3417 7.90969C13.5826 7.25927 14.5025 7.25927 14.7434 7.90969C14.7504 7.928 14.7562 7.9467 14.7609 7.96569L15.1214 9.46369L16.6194 9.82535C16.6384 9.82971 16.6571 9.83516 16.6754 9.84169C17.3259 10.0826 17.3259 11.0025 16.6754 11.2434C16.6571 11.2503 16.6384 11.2562 16.6194 11.2609L15.1214 11.622L14.7604 13.12C14.7556 13.1388 14.7497 13.1573 14.7429 13.1754C14.5025 13.8264 13.582 13.8264 13.3417 13.1754C13.3348 13.1573 13.329 13.1388 13.3242 13.12L12.9637 11.622L11.4657 11.2604C11.4467 11.2558 11.428 11.2502 11.4097 11.2434C10.7593 11.0031 10.7593 10.0826 11.4097 9.84169C11.428 9.83496 11.4467 9.82931 11.4657 9.82477L12.9637 9.46369L13.3248 7.96569C13.3293 7.94671 13.335 7.92801 13.3417 7.90969ZM14.0423 9.21985L13.8854 9.87144C13.8505 9.99393 13.785 10.1055 13.695 10.1955C13.6049 10.2856 13.4933 10.3511 13.3709 10.3859L12.7193 10.5429L13.3709 10.7004C13.4933 10.7352 13.6049 10.8008 13.6949 10.8908C13.7849 10.9808 13.8505 11.0924 13.8854 11.2149L14.0429 11.8659L14.1998 11.2143C14.2346 11.0918 14.3002 10.9803 14.3902 10.8902C14.4803 10.8002 14.5918 10.7346 14.7143 10.6998L15.3659 10.5423L14.7143 10.3859C14.5918 10.3511 14.4802 10.2856 14.3902 10.1955C14.3001 10.1055 14.2346 9.99393 14.1998 9.87144L14.0423 9.21985Z" fill="#1570EF"/>
<rect x="0.5" y="0.5" width="23" height="23" rx="11.5" stroke="#84CAFF"/>
</svg>
