<svg width="20" height="20" viewBox="0 0 20 20" fill="none" xmlns="http://www.w3.org/2000/svg">
<path d="M9.70968 4C6.00992 4 3 6.44557 3 9.45161C3 11.3503 4.17713 13.0661 5.93548 14.0989V16.5806C5.93548 16.7428 6.029 16.8902 6.17525 16.9596C6.23249 16.9867 6.29382 17 6.35484 17C6.44972 17 6.54418 16.9676 6.6204 16.9052L8.86992 15.0648C9.14575 15.0953 9.42577 15.1129 9.70968 15.1129C13.3466 15.1129 16.4194 12.5203 16.4194 9.45161C16.4194 6.44557 13.4094 4 9.70968 4ZM9.83947 14.2716C9.79606 14.2721 9.75319 14.2742 9.70968 14.2742C9.33834 14.2742 8.97402 14.2431 8.61977 14.1857L6.77419 15.6957V13.6038C6.47771 13.4592 6.19716 13.2942 5.93548 13.1107C4.66201 12.2182 3.83871 10.8974 3.83871 9.45161C3.83871 6.90802 6.47247 4.83871 9.70968 4.83871C12.947 4.83871 15.5806 6.90802 15.5806 9.45161C15.5806 12.03 12.9647 14.2121 9.83947 14.2716Z" fill="#323C47"/>
<path d="M9.68575 11.8203C9.55146 11.8203 9.4355 11.8689 9.33821 11.9662C9.24103 12.0633 9.19238 12.1793 9.19238 12.314C9.19238 12.4485 9.24103 12.5645 9.33821 12.6614C9.43529 12.7587 9.55114 12.8069 9.68575 12.8069C9.82047 12.8069 9.93632 12.7587 10.0337 12.6611C10.1309 12.5638 10.1793 12.4477 10.1793 12.3133C10.1793 12.179 10.1313 12.0629 10.0337 11.9657C9.93621 11.8689 9.82047 11.8203 9.68575 11.8203Z" fill="#323C47"/>
<path d="M11.1095 6.75591C10.942 6.61008 10.7453 6.49874 10.5185 6.42095C10.2925 6.34337 10.0487 6.30469 9.78807 6.30469C9.24228 6.30469 8.78456 6.45817 8.41552 6.76493C8.09189 7.03363 7.87938 7.39218 7.77737 7.83984C7.77475 7.85158 7.7541 7.94174 7.80023 8.0037C7.83797 8.05371 7.93264 8.0535 7.93264 8.0535L8.48315 8.1077C8.48315 8.1077 8.59543 8.12395 8.64512 8.08548C8.70656 8.03788 8.72113 7.95034 8.72333 7.9408C8.77795 7.71519 8.88006 7.52627 9.02977 7.37446C9.2189 7.18219 9.46559 7.08584 9.76952 7.08584C9.90623 7.08584 10.0344 7.11069 10.1557 7.16017C10.2767 7.20986 10.3802 7.27811 10.4674 7.36492C10.5542 7.45173 10.6237 7.55552 10.6769 7.67671C10.7293 7.7978 10.7558 7.92948 10.7558 8.07206C10.7558 8.21495 10.7292 8.34359 10.6769 8.45828C10.624 8.5734 10.557 8.6818 10.4768 8.78391C10.3959 8.88634 10.3062 8.98562 10.207 9.08187C10.1075 9.178 10.0083 9.27257 9.90948 9.36545C9.78514 9.4834 9.68135 9.58404 9.59748 9.66802C9.51381 9.75199 9.44703 9.8388 9.39755 9.92875C9.34785 10.0188 9.31043 10.1196 9.2859 10.2313C9.26105 10.343 9.24868 10.4825 9.24868 10.65V10.8472V11.0199V11.0203C9.24878 11.1286 9.33748 11.2171 9.44598 11.2171H9.9447C10.0529 11.2171 10.1414 11.1286 10.1416 11.0203V10.8085C10.1416 10.6781 10.1481 10.5698 10.1608 10.4826C10.1725 10.3957 10.1963 10.3166 10.2305 10.2455C10.2644 10.1743 10.3107 10.106 10.3699 10.0408C10.429 9.9753 10.5079 9.89636 10.6075 9.80326L10.7003 9.71949L11.2581 9.14257C11.3825 8.98762 11.4786 8.82145 11.5466 8.64479C11.6147 8.46793 11.6486 8.26171 11.6486 8.02582C11.6486 7.75282 11.6009 7.50939 11.5046 7.29531C11.4088 7.08154 11.277 6.90164 11.1095 6.75591Z" fill="#323C47"/>
</svg>
