<svg width="294" height="175" viewBox="0 0 294 175" fill="none" xmlns="http://www.w3.org/2000/svg">
<rect width="293.333" height="175" transform="translate(0.333008)" fill="white"/>
<rect x="12.833" y="8.5" width="268.333" height="27" rx="3.5" fill="#DFE3EC" fill-opacity="0.2"/>
<path d="M29.7178 24.8633L31.9619 26.6445L31.0068 27.4824L28.8037 25.7188L29.7178 24.8633ZM31.9795 21.5V21.9688C31.9795 22.6133 31.8955 23.1914 31.7275 23.7031C31.5596 24.2148 31.3193 24.6504 31.0068 25.0098C30.6943 25.3691 30.3213 25.6445 29.8877 25.8359C29.4541 26.0234 28.9736 26.1172 28.4463 26.1172C27.9229 26.1172 27.4443 26.0234 27.0107 25.8359C26.5811 25.6445 26.208 25.3691 25.8916 25.0098C25.5752 24.6504 25.3291 24.2148 25.1533 23.7031C24.9814 23.1914 24.8955 22.6133 24.8955 21.9688V21.5C24.8955 20.8555 24.9814 20.2793 25.1533 19.7715C25.3252 19.2598 25.5674 18.8242 25.8799 18.4648C26.1963 18.1016 26.5693 17.8262 26.999 17.6387C27.4326 17.4473 27.9111 17.3516 28.4346 17.3516C28.9619 17.3516 29.4424 17.4473 29.876 17.6387C30.3135 17.8262 30.6885 18.1016 31.001 18.4648C31.3135 18.8242 31.5537 19.2598 31.7217 19.7715C31.8936 20.2793 31.9795 20.8555 31.9795 21.5ZM30.5029 21.9688V21.4883C30.5029 21.0117 30.4561 20.5918 30.3623 20.2285C30.2725 19.8613 30.1377 19.5547 29.958 19.3086C29.7822 19.0586 29.5654 18.8711 29.3076 18.7461C29.0537 18.6172 28.7627 18.5527 28.4346 18.5527C28.1143 18.5527 27.8271 18.6172 27.5732 18.7461C27.3193 18.8711 27.1025 19.0586 26.9229 19.3086C26.7432 19.5547 26.6064 19.8613 26.5127 20.2285C26.4189 20.5918 26.3721 21.0117 26.3721 21.4883V21.9688C26.3721 22.4453 26.4189 22.8672 26.5127 23.2344C26.6064 23.6016 26.7432 23.9121 26.9229 24.166C27.1064 24.416 27.3252 24.6055 27.5791 24.7344C27.8369 24.8594 28.126 24.9219 28.4463 24.9219C28.7744 24.9219 29.0654 24.8594 29.3193 24.7344C29.5732 24.6055 29.7881 24.416 29.9639 24.166C30.1396 23.9121 30.2725 23.6016 30.3623 23.2344C30.4561 22.8672 30.5029 22.4453 30.5029 21.9688Z" fill="#6C98F0"/>
<rect opacity="0.5" x="41.333" y="16" width="150.497" height="12" rx="2" fill="#CDE0FD" fill-opacity="0.8"/>
<path d="M203.199 23.4863H201.893C201.896 23.123 201.928 22.8184 201.986 22.5723C202.045 22.3223 202.143 22.0957 202.279 21.8926C202.42 21.6895 202.605 21.4746 202.836 21.248C203.016 21.0762 203.178 20.9141 203.322 20.7617C203.467 20.6055 203.582 20.4414 203.668 20.2695C203.754 20.0938 203.797 19.8926 203.797 19.666C203.797 19.4199 203.756 19.2109 203.674 19.0391C203.592 18.8672 203.471 18.7363 203.311 18.6465C203.154 18.5566 202.959 18.5117 202.725 18.5117C202.529 18.5117 202.346 18.5508 202.174 18.6289C202.002 18.7031 201.863 18.8203 201.758 18.9805C201.652 19.1367 201.596 19.3438 201.588 19.6016H200.176C200.184 19.1094 200.301 18.6953 200.527 18.3594C200.754 18.0234 201.059 17.7715 201.441 17.6035C201.824 17.4355 202.252 17.3516 202.725 17.3516C203.248 17.3516 203.695 17.4414 204.066 17.6211C204.438 17.7969 204.721 18.0547 204.916 18.3945C205.115 18.7305 205.215 19.1367 205.215 19.6133C205.215 19.957 205.146 20.2695 205.01 20.5508C204.873 20.8281 204.695 21.0879 204.477 21.3301C204.258 21.5684 204.021 21.8066 203.768 22.0449C203.549 22.2441 203.4 22.4609 203.322 22.6953C203.244 22.9258 203.203 23.1895 203.199 23.4863ZM201.775 25.3145C201.775 25.1035 201.848 24.9258 201.992 24.7812C202.137 24.6328 202.334 24.5586 202.584 24.5586C202.834 24.5586 203.031 24.6328 203.176 24.7812C203.32 24.9258 203.393 25.1035 203.393 25.3145C203.393 25.5254 203.32 25.7051 203.176 25.8535C203.031 25.998 202.834 26.0703 202.584 26.0703C202.334 26.0703 202.137 25.998 201.992 25.8535C201.848 25.7051 201.775 25.5254 201.775 25.3145Z" fill="#6C98F0"/>
<rect x="12.833" y="8.5" width="268.333" height="27" rx="3.5" stroke="#ECEFF2"/>
<rect x="12.7007" y="44.3676" width="130.99" height="46.3235" rx="2.57353" fill="#DFE3EC" fill-opacity="0.2"/>
<path d="M29.0027 54.773C29.0027 56.9184 27.3034 58.6468 25.2205 58.6468C23.1375 58.6468 21.4383 56.9184 21.4383 54.773C21.4383 52.6276 23.1375 50.8992 25.2205 50.8992C27.3034 50.8992 29.0027 52.6276 29.0027 54.773Z" fill="white" stroke="#A6C4FF" stroke-width="0.564084"/>
<path opacity="0.3" d="M63.1215 49.8828H38.273C36.5576 49.8828 35.167 51.2408 35.167 52.9159V71.1143C35.167 72.7894 36.5576 74.1474 38.273 74.1474H63.1215C64.8369 74.1474 66.2275 72.7894 66.2275 71.1143V52.9159C66.2275 51.2408 64.8369 49.8828 63.1215 49.8828Z" fill="#5798F7"/>
<path opacity="0.3" fill-rule="evenodd" clip-rule="evenodd" d="M38.2744 74.1488L48.3691 60.5L58.4638 74.1488H38.2744Z" fill="#5798F7"/>
<path fill-rule="evenodd" clip-rule="evenodd" d="M49.1455 74.1461L56.1341 65.0469L63.1228 74.1461H49.1455Z" fill="#5798F7"/>
<path opacity="0.3" d="M60.7915 58.9832C62.078 58.9832 63.121 57.9647 63.121 56.7084C63.121 55.4521 62.078 54.4336 60.7915 54.4336C59.5049 54.4336 58.4619 55.4521 58.4619 56.7084C58.4619 57.9647 59.5049 58.9832 60.7915 58.9832Z" fill="#5798F7"/>
<rect x="12.7007" y="44.3676" width="130.99" height="46.3235" rx="2.57353" stroke="#ECEFF2" stroke-width="0.735294"/>
<rect x="150.308" y="44.3676" width="130.99" height="46.3235" rx="2.57353" fill="#DFE3EC" fill-opacity="0.2"/>
<path d="M166.61 54.773C166.61 56.9184 164.911 58.6468 162.828 58.6468C160.745 58.6468 159.046 56.9184 159.046 54.773C159.046 52.6276 160.745 50.8992 162.828 50.8992C164.911 50.8992 166.61 52.6276 166.61 54.773Z" fill="white" stroke="#A6C4FF" stroke-width="0.564084"/>
<path opacity="0.3" d="M200.729 49.8828H175.88C174.165 49.8828 172.774 51.2408 172.774 52.9159V71.1143C172.774 72.7894 174.165 74.1474 175.88 74.1474H200.729C202.444 74.1474 203.835 72.7894 203.835 71.1143V52.9159C203.835 51.2408 202.444 49.8828 200.729 49.8828Z" fill="#5798F7"/>
<path opacity="0.3" fill-rule="evenodd" clip-rule="evenodd" d="M175.88 74.1488L185.975 60.5L196.069 74.1488H175.88Z" fill="#5798F7"/>
<path fill-rule="evenodd" clip-rule="evenodd" d="M186.752 74.1461L193.741 65.0469L200.729 74.1461H186.752Z" fill="#5798F7"/>
<path opacity="0.3" d="M198.399 58.9832C199.685 58.9832 200.728 57.9647 200.728 56.7084C200.728 55.4521 199.685 54.4336 198.399 54.4336C197.112 54.4336 196.069 55.4521 196.069 56.7084C196.069 57.9647 197.112 58.9832 198.399 58.9832Z" fill="#5798F7"/>
<rect x="150.308" y="44.3676" width="130.99" height="46.3235" rx="2.57353" stroke="#ECEFF2" stroke-width="0.735294"/>
<rect x="12.7007" y="97.3091" width="130.99" height="46.3235" rx="2.57353" fill="#DFE3EC" fill-opacity="0.2"/>
<path d="M29.0027 107.714C29.0027 109.86 27.3034 111.588 25.2205 111.588C23.1375 111.588 21.4383 109.86 21.4383 107.714C21.4383 105.569 23.1375 103.841 25.2205 103.841C27.3034 103.841 29.0027 105.569 29.0027 107.714Z" fill="#6C98F0" stroke="#A6C4FF" stroke-width="0.564084"/>
<path opacity="0.3" d="M63.1215 102.824H38.273C36.5576 102.824 35.167 104.182 35.167 105.857V124.056C35.167 125.731 36.5576 127.089 38.273 127.089H63.1215C64.8369 127.089 66.2275 125.731 66.2275 124.056V105.857C66.2275 104.182 64.8369 102.824 63.1215 102.824Z" fill="#5798F7"/>
<path opacity="0.3" fill-rule="evenodd" clip-rule="evenodd" d="M38.2734 127.09L48.3681 113.441L58.4628 127.09H38.2734Z" fill="#5798F7"/>
<path fill-rule="evenodd" clip-rule="evenodd" d="M49.1445 127.087L56.1332 117.988L63.1218 127.087H49.1445Z" fill="#5798F7"/>
<path opacity="0.3" d="M60.7915 111.925C62.078 111.925 63.121 110.906 63.121 109.65C63.121 108.393 62.078 107.375 60.7915 107.375C59.5049 107.375 58.4619 108.393 58.4619 109.65C58.4619 110.906 59.5049 111.925 60.7915 111.925Z" fill="#5798F7"/>
<rect x="12.7007" y="97.3091" width="130.99" height="46.3235" rx="2.57353" stroke="#ECEFF2" stroke-width="0.735294"/>
<rect x="150.308" y="97.3091" width="130.99" height="46.3235" rx="2.57353" fill="#DFE3EC" fill-opacity="0.2"/>
<path d="M166.61 107.714C166.61 109.86 164.911 111.588 162.828 111.588C160.745 111.588 159.046 109.86 159.046 107.714C159.046 105.569 160.745 103.841 162.828 103.841C164.911 103.841 166.61 105.569 166.61 107.714Z" fill="white" stroke="#A6C4FF" stroke-width="0.564084"/>
<path opacity="0.3" d="M200.729 102.824H175.88C174.165 102.824 172.774 104.182 172.774 105.857V124.056C172.774 125.731 174.165 127.089 175.88 127.089H200.729C202.444 127.089 203.835 125.731 203.835 124.056V105.857C203.835 104.182 202.444 102.824 200.729 102.824Z" fill="#5798F7"/>
<path opacity="0.3" fill-rule="evenodd" clip-rule="evenodd" d="M175.881 127.09L185.976 113.441L196.07 127.09H175.881Z" fill="#5798F7"/>
<path fill-rule="evenodd" clip-rule="evenodd" d="M186.752 127.087L193.741 117.988L200.729 127.087H186.752Z" fill="#5798F7"/>
<path opacity="0.3" d="M198.399 111.925C199.685 111.925 200.728 110.906 200.728 109.65C200.728 108.393 199.685 107.375 198.399 107.375C197.112 107.375 196.069 108.393 196.069 109.65C196.069 110.906 197.112 111.925 198.399 111.925Z" fill="#5798F7"/>
<rect x="150.308" y="97.3091" width="130.99" height="46.3235" rx="2.57353" stroke="#ECEFF2" stroke-width="0.735294"/>
</svg>
