<svg width="20" height="20" viewBox="0 0 20 20" fill="none" xmlns="http://www.w3.org/2000/svg">
<mask id="mask0_2737_19187" style="mask-type:alpha" maskUnits="userSpaceOnUse" x="0" y="0" width="20" height="20">
<rect width="20" height="20" fill="#D9D9D9"/>
</mask>
<g mask="url(#mask0_2737_19187)">
<path d="M13.3827 8.33071C13.56 8.33071 13.7085 8.27088 13.8282 8.15123C13.9479 8.03158 14.0077 7.88308 14.0077 7.70573C14.0077 7.52838 13.9479 7.37988 13.8282 7.26023C13.7085 7.14056 13.56 7.08073 13.3827 7.08073H10.6263C10.4489 7.08073 10.3004 7.14056 10.1808 7.26023C10.0611 7.37988 10.0013 7.52838 10.0013 7.70573C10.0013 7.88308 10.0611 8.03158 10.1808 8.15123C10.3004 8.27088 10.4489 8.33071 10.6263 8.33071H13.3827ZM13.3827 12.914C13.56 12.914 13.7085 12.8542 13.8282 12.7345C13.9479 12.6149 14.0077 12.4664 14.0077 12.289C14.0077 12.1117 13.9479 11.9632 13.8282 11.8435C13.7085 11.7239 13.56 11.664 13.3827 11.664H10.6263C10.4489 11.664 10.3004 11.7239 10.1808 11.8435C10.0611 11.9632 10.0013 12.1117 10.0013 12.289C10.0013 12.4664 10.0611 12.6149 10.1808 12.7345C10.3004 12.8542 10.4489 12.914 10.6263 12.914H13.3827ZM7.50128 9.05186C7.87414 9.05186 8.19171 8.92072 8.45399 8.65844C8.71627 8.39615 8.84741 8.07858 8.84741 7.70573C8.84741 7.33287 8.71627 7.0153 8.45399 6.75302C8.19171 6.49073 7.87414 6.35958 7.50128 6.35958C7.12842 6.35958 6.81085 6.49073 6.54857 6.75302C6.28629 7.0153 6.15516 7.33287 6.15516 7.70573C6.15516 8.07858 6.28629 8.39615 6.54857 8.65844C6.81085 8.92072 7.12842 9.05186 7.50128 9.05186ZM7.50128 13.6352C7.87414 13.6352 8.19171 13.504 8.45399 13.2417C8.71627 12.9795 8.84741 12.6619 8.84741 12.289C8.84741 11.9162 8.71627 11.5986 8.45399 11.3363C8.19171 11.074 7.87414 10.9429 7.50128 10.9429C7.12842 10.9429 6.81085 11.074 6.54857 11.3363C6.28629 11.5986 6.15516 11.9162 6.15516 12.289C6.15516 12.6619 6.28629 12.9795 6.54857 13.2417C6.81085 13.504 7.12842 13.6352 7.50128 13.6352ZM4.42439 17.0807C4.00344 17.0807 3.64714 16.9349 3.35547 16.6432C3.0638 16.3515 2.91797 15.9952 2.91797 15.5743V4.42048C2.91797 3.99954 3.0638 3.64323 3.35547 3.35156C3.64714 3.0599 4.00344 2.91406 4.42439 2.91406H15.5782C15.9991 2.91406 16.3554 3.0599 16.6471 3.35156C16.9388 3.64323 17.0846 3.99954 17.0846 4.42048V15.5743C17.0846 15.9952 16.9388 16.3515 16.6471 16.6432C16.3554 16.9349 15.9991 17.0807 15.5782 17.0807H4.42439ZM4.42439 15.8307H15.5782C15.6423 15.8307 15.7011 15.804 15.7545 15.7506C15.8079 15.6972 15.8346 15.6384 15.8346 15.5743V4.42048C15.8346 4.35637 15.8079 4.2976 15.7545 4.24417C15.7011 4.19075 15.6423 4.16404 15.5782 4.16404H4.42439C4.36027 4.16404 4.3015 4.19075 4.24807 4.24417C4.19466 4.2976 4.16795 4.35637 4.16795 4.42048V15.5743C4.16795 15.6384 4.19466 15.6972 4.24807 15.7506C4.3015 15.804 4.36027 15.8307 4.42439 15.8307Z" fill="#323C47"/>
</g>
</svg>
