<svg width="294" height="156" viewBox="0 0 294 156" fill="none" xmlns="http://www.w3.org/2000/svg">
<rect width="293.333" height="156" transform="translate(0.666992)" fill="white"/>
<rect x="13.167" y="8.5" width="268.333" height="27" rx="3.5" fill="#DFE3EC" fill-opacity="0.2"/>
<path d="M30.0518 24.8633L32.2959 26.6445L31.3408 27.4824L29.1377 25.7188L30.0518 24.8633ZM32.3135 21.5V21.9688C32.3135 22.6133 32.2295 23.1914 32.0615 23.7031C31.8936 24.2148 31.6533 24.6504 31.3408 25.0098C31.0283 25.3691 30.6553 25.6445 30.2217 25.8359C29.7881 26.0234 29.3076 26.1172 28.7803 26.1172C28.2568 26.1172 27.7783 26.0234 27.3447 25.8359C26.915 25.6445 26.542 25.3691 26.2256 25.0098C25.9092 24.6504 25.6631 24.2148 25.4873 23.7031C25.3154 23.1914 25.2295 22.6133 25.2295 21.9688V21.5C25.2295 20.8555 25.3154 20.2793 25.4873 19.7715C25.6592 19.2598 25.9014 18.8242 26.2139 18.4648C26.5303 18.1016 26.9033 17.8262 27.333 17.6387C27.7666 17.4473 28.2451 17.3516 28.7686 17.3516C29.2959 17.3516 29.7764 17.4473 30.21 17.6387C30.6475 17.8262 31.0225 18.1016 31.335 18.4648C31.6475 18.8242 31.8877 19.2598 32.0557 19.7715C32.2275 20.2793 32.3135 20.8555 32.3135 21.5ZM30.8369 21.9688V21.4883C30.8369 21.0117 30.79 20.5918 30.6963 20.2285C30.6064 19.8613 30.4717 19.5547 30.292 19.3086C30.1162 19.0586 29.8994 18.8711 29.6416 18.7461C29.3877 18.6172 29.0967 18.5527 28.7686 18.5527C28.4482 18.5527 28.1611 18.6172 27.9072 18.7461C27.6533 18.8711 27.4365 19.0586 27.2568 19.3086C27.0771 19.5547 26.9404 19.8613 26.8467 20.2285C26.7529 20.5918 26.7061 21.0117 26.7061 21.4883V21.9688C26.7061 22.4453 26.7529 22.8672 26.8467 23.2344C26.9404 23.6016 27.0771 23.9121 27.2568 24.166C27.4404 24.416 27.6592 24.6055 27.9131 24.7344C28.1709 24.8594 28.46 24.9219 28.7803 24.9219C29.1084 24.9219 29.3994 24.8594 29.6533 24.7344C29.9072 24.6055 30.1221 24.416 30.2979 24.166C30.4736 23.9121 30.6064 23.6016 30.6963 23.2344C30.79 22.8672 30.8369 22.4453 30.8369 21.9688Z" fill="#6C98F0"/>
<rect opacity="0.5" x="41.667" y="16" width="150.497" height="12" rx="2" fill="#CDE0FD" fill-opacity="0.8"/>
<path d="M203.533 23.4863H202.227C202.23 23.123 202.262 22.8184 202.32 22.5723C202.379 22.3223 202.477 22.0957 202.613 21.8926C202.754 21.6895 202.939 21.4746 203.17 21.248C203.35 21.0762 203.512 20.9141 203.656 20.7617C203.801 20.6055 203.916 20.4414 204.002 20.2695C204.088 20.0938 204.131 19.8926 204.131 19.666C204.131 19.4199 204.09 19.2109 204.008 19.0391C203.926 18.8672 203.805 18.7363 203.645 18.6465C203.488 18.5566 203.293 18.5117 203.059 18.5117C202.863 18.5117 202.68 18.5508 202.508 18.6289C202.336 18.7031 202.197 18.8203 202.092 18.9805C201.986 19.1367 201.93 19.3438 201.922 19.6016H200.51C200.518 19.1094 200.635 18.6953 200.861 18.3594C201.088 18.0234 201.393 17.7715 201.775 17.6035C202.158 17.4355 202.586 17.3516 203.059 17.3516C203.582 17.3516 204.029 17.4414 204.4 17.6211C204.771 17.7969 205.055 18.0547 205.25 18.3945C205.449 18.7305 205.549 19.1367 205.549 19.6133C205.549 19.957 205.48 20.2695 205.344 20.5508C205.207 20.8281 205.029 21.0879 204.811 21.3301C204.592 21.5684 204.355 21.8066 204.102 22.0449C203.883 22.2441 203.734 22.4609 203.656 22.6953C203.578 22.9258 203.537 23.1895 203.533 23.4863ZM202.109 25.3145C202.109 25.1035 202.182 24.9258 202.326 24.7812C202.471 24.6328 202.668 24.5586 202.918 24.5586C203.168 24.5586 203.365 24.6328 203.51 24.7812C203.654 24.9258 203.727 25.1035 203.727 25.3145C203.727 25.5254 203.654 25.7051 203.51 25.8535C203.365 25.998 203.168 26.0703 202.918 26.0703C202.668 26.0703 202.471 25.998 202.326 25.8535C202.182 25.7051 202.109 25.5254 202.109 25.3145Z" fill="#6C98F0"/>
<rect x="13.167" y="8.5" width="268.333" height="27" rx="3.5" stroke="#ECEFF2"/>
<g clip-path="url(#clip0_1121_2260)">
<rect x="12.9758" y="44.3088" width="131.578" height="38.9118" rx="2.16177" fill="#DFE3EC" fill-opacity="0.2"/>
<path d="M26.6701 53.0495C26.6701 54.8516 25.2427 56.3035 23.4931 56.3035C21.7434 56.3035 20.316 54.8516 20.316 53.0495C20.316 51.2474 21.7434 49.7955 23.4931 49.7955C25.2427 49.7955 26.6701 51.2474 26.6701 53.0495Z" fill="white" stroke="#A6C4FF" stroke-width="0.473831"/>
<path opacity="0.3" d="M55.3294 48.9414H34.4567C33.0158 48.9414 31.8477 50.0821 31.8477 51.4892V66.7759C31.8477 68.183 33.0158 69.3236 34.4567 69.3236H55.3294C56.7704 69.3236 57.9385 68.183 57.9385 66.7759V51.4892C57.9385 50.0821 56.7704 48.9414 55.3294 48.9414Z" fill="#5798F7"/>
<path opacity="0.3" fill-rule="evenodd" clip-rule="evenodd" d="M34.458 69.3244L42.9375 57.8594L51.4171 69.3244H34.458Z" fill="#5798F7"/>
<path fill-rule="evenodd" clip-rule="evenodd" d="M43.5898 69.323L49.4603 61.6797L55.3307 69.323H43.5898Z" fill="#5798F7"/>
<path opacity="0.3" d="M53.3728 56.5873C54.4535 56.5873 55.3296 55.7318 55.3296 54.6765C55.3296 53.6211 54.4535 52.7656 53.3728 52.7656C52.2921 52.7656 51.416 53.6211 51.416 54.6765C51.416 55.7318 52.2921 56.5873 53.3728 56.5873Z" fill="#5798F7"/>
<rect x="12.9758" y="44.3088" width="131.578" height="38.9118" rx="2.16177" stroke="#ECEFF2" stroke-width="0.617647"/>
<rect x="150.114" y="44.3088" width="131.578" height="38.9118" rx="2.16177" fill="#DFE3EC" fill-opacity="0.2"/>
<path d="M163.808 53.0495C163.808 54.8516 162.38 56.3035 160.631 56.3035C158.881 56.3035 157.454 54.8516 157.454 53.0495C157.454 51.2474 158.881 49.7955 160.631 49.7955C162.38 49.7955 163.808 51.2474 163.808 53.0495Z" fill="white" stroke="#A6C4FF" stroke-width="0.473831"/>
<path opacity="0.3" d="M192.467 48.9414H171.594C170.153 48.9414 168.985 50.0821 168.985 51.4892V66.7759C168.985 68.183 170.153 69.3236 171.594 69.3236H192.467C193.908 69.3236 195.076 68.183 195.076 66.7759V51.4892C195.076 50.0821 193.908 48.9414 192.467 48.9414Z" fill="#5798F7"/>
<path opacity="0.3" fill-rule="evenodd" clip-rule="evenodd" d="M171.594 69.3244L180.073 57.8594L188.553 69.3244H171.594Z" fill="#5798F7"/>
<path fill-rule="evenodd" clip-rule="evenodd" d="M180.727 69.323L186.597 61.6797L192.467 69.323H180.727Z" fill="#5798F7"/>
<path opacity="0.3" d="M190.51 56.5873C191.59 56.5873 192.466 55.7318 192.466 54.6765C192.466 53.6211 191.59 52.7656 190.51 52.7656C189.429 52.7656 188.553 53.6211 188.553 54.6765C188.553 55.7318 189.429 56.5873 190.51 56.5873Z" fill="#5798F7"/>
<rect x="150.114" y="44.3088" width="131.578" height="38.9118" rx="2.16177" stroke="#ECEFF2" stroke-width="0.617647"/>
<rect x="12.9758" y="88.7776" width="131.578" height="38.9118" rx="2.16177" fill="#DFE3EC" fill-opacity="0.2"/>
<path d="M26.6701 97.5182C26.6701 99.3204 25.2427 100.772 23.4931 100.772C21.7434 100.772 20.316 99.3204 20.316 97.5182C20.316 95.7161 21.7434 94.2643 23.4931 94.2643C25.2427 94.2643 26.6701 95.7161 26.6701 97.5182Z" fill="#6C98F0" stroke="#A6C4FF" stroke-width="0.473831"/>
<path opacity="0.3" d="M55.3294 93.4102H34.4567C33.0158 93.4102 31.8477 94.5508 31.8477 95.9579V111.245C31.8477 112.652 33.0158 113.792 34.4567 113.792H55.3294C56.7704 113.792 57.9385 112.652 57.9385 111.245V95.9579C57.9385 94.5508 56.7704 93.4102 55.3294 93.4102Z" fill="#5798F7"/>
<path opacity="0.3" fill-rule="evenodd" clip-rule="evenodd" d="M34.457 113.793L42.9366 102.328L51.4161 113.793H34.457Z" fill="#5798F7"/>
<path fill-rule="evenodd" clip-rule="evenodd" d="M43.5889 113.792L49.4593 106.148L55.3298 113.792H43.5889Z" fill="#5798F7"/>
<path opacity="0.3" d="M53.3728 101.056C54.4535 101.056 55.3296 100.201 55.3296 99.1452C55.3296 98.0899 54.4535 97.2344 53.3728 97.2344C52.2921 97.2344 51.416 98.0899 51.416 99.1452C51.416 100.201 52.2921 101.056 53.3728 101.056Z" fill="#5798F7"/>
<rect x="12.9758" y="88.7776" width="131.578" height="38.9118" rx="2.16177" stroke="#ECEFF2" stroke-width="0.617647"/>
<rect x="150.114" y="88.7776" width="131.578" height="38.9118" rx="2.16177" fill="#DFE3EC" fill-opacity="0.2"/>
<path d="M163.808 97.5182C163.808 99.3204 162.38 100.772 160.631 100.772C158.881 100.772 157.454 99.3204 157.454 97.5182C157.454 95.7161 158.881 94.2643 160.631 94.2643C162.38 94.2643 163.808 95.7161 163.808 97.5182Z" fill="white" stroke="#A6C4FF" stroke-width="0.473831"/>
<path opacity="0.3" d="M192.467 93.4102H171.594C170.153 93.4102 168.985 94.5508 168.985 95.9579V111.245C168.985 112.652 170.153 113.792 171.594 113.792H192.467C193.908 113.792 195.076 112.652 195.076 111.245V95.9579C195.076 94.5508 193.908 93.4102 192.467 93.4102Z" fill="#5798F7"/>
<path opacity="0.3" fill-rule="evenodd" clip-rule="evenodd" d="M171.595 113.793L180.074 102.328L188.554 113.793H171.595Z" fill="#5798F7"/>
<path fill-rule="evenodd" clip-rule="evenodd" d="M180.727 113.792L186.597 106.148L192.467 113.792H180.727Z" fill="#5798F7"/>
<path opacity="0.3" d="M190.51 101.056C191.59 101.056 192.466 100.201 192.466 99.1452C192.466 98.0899 191.59 97.2344 190.51 97.2344C189.429 97.2344 188.553 98.0899 188.553 99.1452C188.553 100.201 189.429 101.056 190.51 101.056Z" fill="#5798F7"/>
<rect x="150.114" y="88.7776" width="131.578" height="38.9118" rx="2.16177" stroke="#ECEFF2" stroke-width="0.617647"/>
</g>
<rect opacity="0.5" x="12.667" y="136" width="187.497" height="12" rx="2" fill="#CDE0FD" fill-opacity="0.8"/>
<defs>
<clipPath id="clip0_1121_2260">
<rect width="269.333" height="84" fill="white" transform="translate(12.667 44)"/>
</clipPath>
</defs>
</svg>
