<svg width="20" height="20" viewBox="0 0 20 20" fill="none" xmlns="http://www.w3.org/2000/svg">
<mask id="mask0_2829_20133" style="mask-type:alpha" maskUnits="userSpaceOnUse" x="0" y="0" width="20" height="20">
<rect width="20" height="20" fill="#D9D9D9"/>
</mask>
<g mask="url(#mask0_2829_20133)">
<path d="M9.48872 16.8849V17.0506C9.48872 17.5346 9.09635 17.927 8.61233 17.927H4.974C4.4407 17.927 3.99198 17.7431 3.62346 17.3747C3.25495 17.0062 3.07106 16.5576 3.07106 16.0244V14.6945C3.07106 14.2105 3.46343 13.8181 3.94745 13.8181H4.42137C4.98388 13.8181 5.43988 13.3621 5.43988 12.7996V3.9455C5.43988 3.46148 5.83225 3.06911 6.31627 3.06911H15.4758C15.9599 3.06911 16.3522 3.46148 16.3522 3.9455V9.11026C16.3522 9.37209 16.1044 9.58163 15.8184 9.60821C15.6918 9.61998 15.5628 9.5816 15.4664 9.50893C15.3705 9.4367 15.31 9.33358 15.31 9.21463V5.12969C15.31 4.56719 14.8539 4.11118 14.2914 4.11118H7.50066C6.93816 4.11118 6.48215 4.56718 6.48215 5.12969V12.7996C6.48215 13.3621 6.93816 13.8181 7.50066 13.8181H9.51198C9.97619 13.8181 10.2086 14.3794 9.88037 14.7076C9.78266 14.8053 9.65015 14.8602 9.51198 14.8602H5.13184C4.56933 14.8602 4.11333 15.3162 4.11333 15.8787V16.0244C4.11333 16.266 4.19583 16.4718 4.36116 16.6371C4.40126 16.6772 4.44374 16.7124 4.48855 16.7428H4.18439V16.8849H4.974H9.48872ZM11.3619 17.0506V16.2332C11.3619 16.0007 11.4543 15.7778 11.6187 15.6134L14.6085 12.624C14.903 12.9659 14.8879 13.4829 14.5626 13.8069L12.3545 16.0058C12.2308 16.129 12.1612 16.2965 12.1612 16.4711C12.1612 16.8339 12.4562 17.1278 12.8187 17.1278C12.9927 17.1278 13.1599 17.0589 13.2832 16.9361L15.5003 14.7282C15.8222 14.4077 16.3328 14.3921 16.673 14.6812L13.6834 17.6704C13.5191 17.8347 13.2962 17.927 13.0638 17.927H12.2383C11.7543 17.927 11.3619 17.5346 11.3619 17.0506ZM17.6588 13.7032L16.7757 14.579L14.7108 12.5218L15.5934 11.6393C15.5935 11.6392 15.5937 11.639 15.5939 11.6389C15.7141 11.5234 15.8636 11.4649 16.0475 11.4649C16.2316 11.4649 16.3781 11.5235 16.493 11.6384L17.6592 12.8044C17.7741 12.9192 17.8327 13.0657 17.8327 13.2498C17.8327 13.4336 17.7742 13.583 17.6588 13.7032ZM8.08677 6.77356H13.7053C13.9931 6.77356 14.2264 7.00683 14.2264 7.29459C14.2264 7.58235 13.9931 7.81562 13.7053 7.81562H8.08677C7.79901 7.81562 7.56574 7.58235 7.56574 7.29459C7.56574 7.00684 7.79901 6.77356 8.08677 6.77356ZM8.08678 9.05089H13.7053C13.9931 9.05089 14.2264 9.28416 14.2264 9.57192C14.2264 9.85968 13.9931 10.093 13.7053 10.093H8.08678C7.79902 10.093 7.56574 9.85968 7.56574 9.57192C7.56574 9.28416 7.79902 9.05089 8.08678 9.05089Z" fill="white" stroke="white" stroke-width="0.142117"/>
</g>
</svg>
