<svg width="294" height="175" viewBox="0 0 294 175" fill="none" xmlns="http://www.w3.org/2000/svg">
<rect width="293.333" height="175" fill="white"/>
<rect x="12.5" y="8.5" width="268.333" height="27" rx="3.5" fill="#DFE3EC" fill-opacity="0.2"/>
<path d="M29.3848 24.8633L31.6289 26.6445L30.6738 27.4824L28.4707 25.7188L29.3848 24.8633ZM31.6465 21.5V21.9688C31.6465 22.6133 31.5625 23.1914 31.3945 23.7031C31.2266 24.2148 30.9863 24.6504 30.6738 25.0098C30.3613 25.3691 29.9883 25.6445 29.5547 25.8359C29.1211 26.0234 28.6406 26.1172 28.1133 26.1172C27.5898 26.1172 27.1113 26.0234 26.6777 25.8359C26.248 25.6445 25.875 25.3691 25.5586 25.0098C25.2422 24.6504 24.9961 24.2148 24.8203 23.7031C24.6484 23.1914 24.5625 22.6133 24.5625 21.9688V21.5C24.5625 20.8555 24.6484 20.2793 24.8203 19.7715C24.9922 19.2598 25.2344 18.8242 25.5469 18.4648C25.8633 18.1016 26.2363 17.8262 26.666 17.6387C27.0996 17.4473 27.5781 17.3516 28.1016 17.3516C28.6289 17.3516 29.1094 17.4473 29.543 17.6387C29.9805 17.8262 30.3555 18.1016 30.668 18.4648C30.9805 18.8242 31.2207 19.2598 31.3887 19.7715C31.5605 20.2793 31.6465 20.8555 31.6465 21.5ZM30.1699 21.9688V21.4883C30.1699 21.0117 30.123 20.5918 30.0293 20.2285C29.9395 19.8613 29.8047 19.5547 29.625 19.3086C29.4492 19.0586 29.2324 18.8711 28.9746 18.7461C28.7207 18.6172 28.4297 18.5527 28.1016 18.5527C27.7812 18.5527 27.4941 18.6172 27.2402 18.7461C26.9863 18.8711 26.7695 19.0586 26.5898 19.3086C26.4102 19.5547 26.2734 19.8613 26.1797 20.2285C26.0859 20.5918 26.0391 21.0117 26.0391 21.4883V21.9688C26.0391 22.4453 26.0859 22.8672 26.1797 23.2344C26.2734 23.6016 26.4102 23.9121 26.5898 24.166C26.7734 24.416 26.9922 24.6055 27.2461 24.7344C27.5039 24.8594 27.793 24.9219 28.1133 24.9219C28.4414 24.9219 28.7324 24.8594 28.9863 24.7344C29.2402 24.6055 29.4551 24.416 29.6309 24.166C29.8066 23.9121 29.9395 23.6016 30.0293 23.2344C30.123 22.8672 30.1699 22.4453 30.1699 21.9688Z" fill="#6C98F0"/>
<rect opacity="0.5" x="41" y="16" width="150.497" height="12" rx="2" fill="#CDE0FD" fill-opacity="0.8"/>
<path d="M202.866 23.4863H201.56C201.563 23.123 201.595 22.8184 201.653 22.5723C201.712 22.3223 201.81 22.0957 201.946 21.8926C202.087 21.6895 202.272 21.4746 202.503 21.248C202.683 21.0762 202.845 20.9141 202.989 20.7617C203.134 20.6055 203.249 20.4414 203.335 20.2695C203.421 20.0938 203.464 19.8926 203.464 19.666C203.464 19.4199 203.423 19.2109 203.341 19.0391C203.259 18.8672 203.138 18.7363 202.978 18.6465C202.821 18.5566 202.626 18.5117 202.392 18.5117C202.196 18.5117 202.013 18.5508 201.841 18.6289C201.669 18.7031 201.53 18.8203 201.425 18.9805C201.319 19.1367 201.263 19.3438 201.255 19.6016H199.843C199.851 19.1094 199.968 18.6953 200.194 18.3594C200.421 18.0234 200.726 17.7715 201.108 17.6035C201.491 17.4355 201.919 17.3516 202.392 17.3516C202.915 17.3516 203.362 17.4414 203.733 17.6211C204.104 17.7969 204.388 18.0547 204.583 18.3945C204.782 18.7305 204.882 19.1367 204.882 19.6133C204.882 19.957 204.813 20.2695 204.677 20.5508C204.54 20.8281 204.362 21.0879 204.144 21.3301C203.925 21.5684 203.688 21.8066 203.435 22.0449C203.216 22.2441 203.067 22.4609 202.989 22.6953C202.911 22.9258 202.87 23.1895 202.866 23.4863ZM201.442 25.3145C201.442 25.1035 201.515 24.9258 201.659 24.7812C201.804 24.6328 202.001 24.5586 202.251 24.5586C202.501 24.5586 202.698 24.6328 202.843 24.7812C202.987 24.9258 203.06 25.1035 203.06 25.3145C203.06 25.5254 202.987 25.7051 202.843 25.8535C202.698 25.998 202.501 26.0703 202.251 26.0703C202.001 26.0703 201.804 25.998 201.659 25.8535C201.515 25.7051 201.442 25.5254 201.442 25.3145Z" fill="#6C98F0"/>
<rect x="12.5" y="8.5" width="268.333" height="27" rx="3.5" stroke="#ECEFF2"/>
</svg>
