<svg width="20" height="20" viewBox="0 0 20 20" fill="none" xmlns="http://www.w3.org/2000/svg">
<path d="M4.24461 7.56866L4.10853 7.62076C3.85327 7.71859 3.72576 8.00463 3.82351 8.25985C3.89802 8.45655 4.08514 8.57671 4.28501 8.57671C4.34455 8.57671 4.40408 8.56607 4.46154 8.54483L4.59976 8.49164C5.58235 8.11305 6.59685 7.72176 7.93459 8.18432C8.19407 8.27471 8.47472 8.13644 8.56413 7.87806C8.65135 7.61967 8.5152 7.33785 8.25786 7.24961C6.58406 6.67326 5.28461 7.16774 4.24461 7.56866ZM8.25779 9.38703C6.57976 8.80858 5.28246 9.30834 4.24035 9.70926L4.10638 9.7603C3.85327 9.85812 3.72568 10.1453 3.82351 10.3994C3.89802 10.5962 4.08514 10.7163 4.28501 10.7163C4.34455 10.7163 4.40408 10.7056 4.46365 10.6843L4.59761 10.6311C5.5802 10.2526 6.59892 9.8602 7.93451 10.3228C8.19399 10.4121 8.47464 10.2738 8.56405 10.0165C8.65128 9.75921 8.51516 9.47637 8.25779 9.38703ZM8.25779 11.5266C6.58406 10.9502 5.28457 11.4468 4.24461 11.8466L4.10849 11.8987C3.85324 11.9966 3.72572 12.2826 3.82347 12.5368C3.89798 12.7345 4.0851 12.8557 4.28498 12.8557C4.34451 12.8557 4.40404 12.8451 4.4615 12.8217L4.59973 12.7686C5.58231 12.3921 6.59681 12.0008 7.93455 12.4624C8.19403 12.5528 8.47468 12.4134 8.56409 12.1561C8.65128 11.8987 8.51516 11.6159 8.25779 11.5266ZM18.1494 5.34194C17.5517 5.34194 16.9286 5.09947 16.2671 4.8432C15.4525 4.52633 14.5275 4.16797 13.4343 4.16797C12.3582 4.16797 11.282 4.51464 10.1548 5.22921C9.02763 4.51464 7.95364 4.16797 6.87749 4.16797C5.78222 4.16797 4.85921 4.52633 4.04251 4.8432C3.38317 5.09947 2.75789 5.34194 2.16245 5.34194H1.66699V16.2235H2.16257C2.94097 16.2235 3.64914 15.9523 4.39993 15.6652C5.17196 15.3686 5.97161 15.0623 6.88398 15.0623C7.81764 15.0623 8.77042 15.3909 9.7934 16.0661L10.1549 16.3096H10.1571L10.6526 15.9789C11.6246 15.3632 12.5348 15.0623 13.428 15.0623C14.3383 15.0623 15.1379 15.3685 15.9121 15.6651C16.6628 15.9523 17.371 16.2234 18.1495 16.2234H18.645V5.34194H18.1494ZM9.66148 14.8485C8.71718 14.3381 7.80055 14.0733 6.88391 14.0733C5.78864 14.0733 4.86347 14.4274 4.0447 14.7401C3.56403 14.925 3.10252 15.1026 2.65591 15.1845V6.29464C3.24931 6.21172 3.81287 5.9937 4.40197 5.76508C5.17185 5.46628 5.96938 5.15681 6.87749 5.15681C7.76859 5.15681 8.68523 5.47477 9.66144 6.0979V14.8485H9.66148ZM17.656 15.1846C17.2093 15.1027 16.7478 14.9251 16.2651 14.7401C15.4484 14.4275 14.5232 14.0733 13.428 14.0733C12.5114 14.0733 11.5947 14.3382 10.6504 14.8486V6.09907C11.6266 5.47489 12.5411 5.15693 13.4343 5.15693C14.3425 5.15693 15.1401 5.46636 15.9099 5.76519C16.499 5.99381 17.0626 6.2118 17.656 6.29476V15.1846ZM12.0541 7.24965C11.7968 7.33789 11.6606 7.61971 11.7479 7.87809C11.8372 8.13648 12.12 8.27264 12.3774 8.18436C13.7151 7.72179 14.7296 8.11309 15.7122 8.49168L15.8504 8.54487C15.9078 8.56611 15.9674 8.57675 16.027 8.57675C16.2248 8.57675 16.4141 8.45659 16.4885 8.25988C16.5863 8.00467 16.4587 7.71862 16.2035 7.6208L16.0674 7.5687C15.0273 7.16774 13.7278 6.67326 12.0541 7.24965ZM16.2034 11.8987L16.0673 11.8466C15.0274 11.4457 13.7278 10.9502 12.0541 11.5266C11.7968 11.6159 11.6606 11.8987 11.7479 12.1561C11.8372 12.4134 12.12 12.5517 12.3774 12.4624C13.7151 12.0009 14.7296 12.3922 15.7122 12.7686L15.8504 12.8217C15.9078 12.8451 15.9674 12.8557 16.027 12.8557C16.2248 12.8557 16.4141 12.7345 16.4885 12.5368C16.5862 12.2826 16.4586 11.9966 16.2034 11.8987ZM16.2034 9.76026L16.0716 9.70922C15.0294 9.30834 13.7342 8.80854 12.0541 9.387C11.7968 9.47633 11.6606 9.75917 11.7479 10.0165C11.8372 10.2739 12.12 10.41 12.3774 10.3228C13.7173 9.8602 14.7317 10.2526 15.7143 10.6312L15.8483 10.6844C15.9078 10.7056 15.9674 10.7163 16.0269 10.7163C16.2247 10.7163 16.414 10.5961 16.4884 10.3994C16.5862 10.1452 16.4586 9.85809 16.2034 9.76026Z" fill="#323C47"/>
</svg>
