<svg width="20" height="20" viewBox="0 0 20 20" fill="none" xmlns="http://www.w3.org/2000/svg">
<path d="M12.6476 6.99805L13.9269 4.78191C13.9891 4.67365 14.0719 4.57869 14.1708 4.50246C14.2696 4.42622 14.3825 4.37022 14.503 4.33763C14.6235 4.30505 14.7492 4.29653 14.873 4.31255C14.9968 4.32858 15.1162 4.36884 15.2245 4.43104L15.4027 4.53349C15.511 4.59562 15.6059 4.67848 15.6822 4.77732C15.7584 4.87617 15.8144 4.98907 15.847 5.10956C15.8796 5.23006 15.8881 5.3558 15.8721 5.47959C15.8561 5.60339 15.8158 5.72281 15.7536 5.83104L14.5368 7.9363L14.7038 7.64718L11.7606 12.7447C11.1388 13.8219 10.3157 14.304 9.81252 14.0135C9.30866 13.723 9.31498 12.7693 9.93743 11.6921L13.002 6.38402" stroke="#323C47" stroke-width="0.833333" stroke-miterlimit="10" stroke-linecap="round"/>
<path d="M9.34863 14.8148L9.69951 14.207" stroke="#323C47" stroke-width="0.833333" stroke-miterlimit="10" stroke-linecap="round"/>
<path d="M13.3496 5.78516L15.7258 7.17463C15.8991 7.27617 16.0252 7.44214 16.0766 7.63632C16.128 7.8305 16.1005 8.03713 16.0001 8.21112L15.3356 9.3627" stroke="#323C47" stroke-width="0.833333" stroke-miterlimit="10" stroke-linecap="round"/>
<path d="M13.9916 11.1654V15.9675C13.9916 16.1536 13.9177 16.3321 13.7861 16.4637C13.6544 16.5953 13.476 16.6693 13.2898 16.6693H4.86875C4.68263 16.6693 4.50414 16.5953 4.37253 16.4637C4.24093 16.3321 4.16699 16.1536 4.16699 15.9675V4.03769C4.16699 3.85158 4.24093 3.67308 4.37253 3.54148C4.50414 3.40987 4.68263 3.33594 4.86875 3.33594H13.2898" stroke="#323C47" stroke-width="0.833333" stroke-linecap="round" stroke-linejoin="round"/>
<path d="M6.27246 4.73828V16.6681" stroke="#323C47" stroke-width="0.833333" stroke-miterlimit="10" stroke-linecap="round"/>
</svg>
