<svg width="20" height="21" viewBox="0 0 20 21" fill="none" xmlns="http://www.w3.org/2000/svg">
<g id="delete">
<mask id="mask0_3483_30334" style="mask-type:alpha" maskUnits="userSpaceOnUse" x="0" y="0" width="20" height="21">
<rect id="Bounding box" y="0.5" width="20" height="20" fill="#D9D9D9"/>
</mask>
<g mask="url(#mask0_3483_30334)">
<path id="delete_2" d="M6.75381 17.0861C6.38538 17.0861 6.06999 16.9549 5.80762 16.6925C5.54525 16.4302 5.41406 16.1148 5.41406 15.7463V6.00277H4.95573C4.80226 6.00277 4.67361 5.95126 4.56979 5.84823C4.46597 5.7452 4.41406 5.61753 4.41406 5.46523C4.41406 5.31292 4.46597 5.18389 4.56979 5.07812C4.67361 4.97235 4.80226 4.91946 4.95573 4.91946H7.99738V4.66946C7.99738 4.48901 8.06124 4.33493 8.18896 4.20721C8.31668 4.07949 8.47076 4.01562 8.65121 4.01562H11.3435C11.524 4.01562 11.6781 4.07949 11.8058 4.20721C11.9335 4.33493 11.9974 4.48901 11.9974 4.66946V4.91946H15.039C15.1925 4.91946 15.3211 4.97098 15.425 5.07402C15.5288 5.17705 15.5807 5.30472 15.5807 5.45702C15.5807 5.60933 15.5288 5.73836 15.425 5.84413C15.3211 5.94989 15.1925 6.00277 15.039 6.00277H14.5807V15.7373C14.5807 16.1159 14.4495 16.4354 14.1871 16.6956C13.9248 16.9559 13.6094 17.0861 13.2409 17.0861H6.75381ZM13.4974 6.00277H6.49738V15.7463C6.49738 15.8211 6.52142 15.8826 6.5695 15.9306C6.61758 15.9787 6.67902 16.0028 6.75381 16.0028H13.2409C13.3157 16.0028 13.3772 15.9787 13.4253 15.9306C13.4733 15.8826 13.4974 15.8211 13.4974 15.7463V6.00277ZM8.87148 14.5028C9.02378 14.5028 9.15282 14.4509 9.25858 14.347C9.36436 14.2432 9.41725 14.1146 9.41725 13.9611V8.04442C9.41725 7.89096 9.36573 7.76232 9.26269 7.6585C9.15966 7.55468 9.03199 7.50277 8.87969 7.50277C8.72738 7.50277 8.59835 7.55468 8.49258 7.6585C8.38682 7.76232 8.33394 7.89096 8.33394 8.04442V13.9611C8.33394 14.1146 8.38545 14.2432 8.48848 14.347C8.59151 14.4509 8.71917 14.5028 8.87148 14.5028ZM11.1151 14.5028C11.2674 14.5028 11.3964 14.4509 11.5022 14.347C11.6079 14.2432 11.6608 14.1146 11.6608 13.9611V8.04442C11.6608 7.89096 11.6093 7.76232 11.5063 7.6585C11.4032 7.55468 11.2756 7.50277 11.1233 7.50277C10.971 7.50277 10.8419 7.55468 10.7362 7.6585C10.6304 7.76232 10.5775 7.89096 10.5775 8.04442V13.9611C10.5775 14.1146 10.629 14.2432 10.7321 14.347C10.8351 14.4509 10.9628 14.5028 11.1151 14.5028Z" fill="#F24122"/>
</g>
</g>
</svg>
