<svg width="45" height="45" viewBox="0 0 45 45" fill="none" xmlns="http://www.w3.org/2000/svg">
<rect x="0.5" y="0.5" width="44" height="44" rx="22" fill="#F9DBCB"/>
<g clip-path="url(#clip0_574_25562)">
<path d="M29.1145 22.9676C29.3691 22.7112 29.4964 22.3745 29.4964 22.0379C29.4964 21.7013 29.3692 21.3644 29.1145 21.1082L24.7641 16.7332C24.4852 16.5024 24.1488 16.375 23.7879 16.375C23.4513 16.375 23.1147 16.5023 22.8828 16.757L15.882 23.7332C15.6273 24.0148 15.5 24.3512 15.5 24.6629C15.5 24.9746 15.6273 25.3364 15.882 25.5926L18.4824 28.2176C18.7275 28.4627 19.0612 28.6004 19.408 28.6004L29.1473 28.625C29.3523 28.625 29.5 28.4773 29.5 28.2723C29.5 27.487 28.8634 26.8504 28.0781 26.8504H25.2316L29.1145 22.9676ZM20.843 21.2805L24.5973 25.0348L22.7584 26.8772H19.618L17.4305 24.6629L20.843 21.2805Z" fill="#EC623E"/>
</g>
<defs>
<clipPath id="clip0_574_25562">
<rect width="14" height="14" fill="white" transform="translate(15.5 15.5)"/>
</clipPath>
</defs>
</svg>
