<svg width="21" height="20" viewBox="0 0 21 20" fill="none" xmlns="http://www.w3.org/2000/svg">
<path d="M15.2485 14.9994C18.0104 12.2383 18.0104 7.7617 15.2485 5.00063C12.4867 2.23955 8.00878 2.23955 5.24691 5.00063C2.48503 7.7617 2.48503 12.2383 5.24691 14.9994C8.00878 17.7604 12.4867 17.7604 15.2485 14.9994Z" fill="#FF4141"/>
<path fill-rule="evenodd" clip-rule="evenodd" d="M12.4028 13.159L7.40188 8.15949C7.12646 7.88419 7.12646 7.43504 7.40188 7.15969C7.67731 6.88434 8.12665 6.88429 8.40202 7.15964L13.4029 12.1591C13.6784 12.4344 13.6784 12.8836 13.4029 13.1589C13.1275 13.4342 12.6782 13.4343 12.4028 13.159Z" fill="white"/>
<path fill-rule="evenodd" clip-rule="evenodd" d="M7.40188 12.1591L12.4028 7.15964C12.6782 6.88429 13.1274 6.88429 13.4029 7.15964C13.6783 7.43498 13.6784 7.88419 13.4029 8.15949L8.40202 13.159C8.12665 13.4343 7.67737 13.4343 7.40194 13.159C7.12651 12.8836 7.12646 12.4344 7.40188 12.1591Z" fill="white"/>
</svg>
