<svg width="20" height="20" viewBox="0 0 20 20" fill="none" xmlns="http://www.w3.org/2000/svg">
<path d="M15.6059 13.3947C15.3218 13.2844 15.0061 13.2844 14.722 13.4048L14.5958 13.4549C14.4695 13.2443 14.2696 13.0838 14.0381 12.9935C13.754 12.8831 13.4383 12.8831 13.1542 13.0035L11.9336 13.4951C11.7757 13.5552 11.7021 13.7358 11.7652 13.8863C11.8178 13.9967 11.9336 14.0669 12.0598 14.0669C12.1019 14.0669 12.144 14.0568 12.1861 14.0468L13.4067 13.5553C13.533 13.5051 13.6803 13.5051 13.8066 13.5553C13.8908 13.5853 13.9539 13.6355 14.0065 13.6957L11.5232 14.6888C11.5337 14.5283 11.5127 14.3678 11.4495 14.2174C11.3338 13.9465 11.1233 13.7258 10.8392 13.6054L8.11392 12.4517C6.95645 11.9602 5.60957 12.1107 4.59942 12.843L4.18904 13.1439C4.17852 13.154 4.16799 13.164 4.15747 13.174L4.05225 13.2744C3.98911 13.3346 3.95755 13.4048 3.95755 13.485V16.6952H3.31567C3.13679 16.6952 3 16.8256 3 16.9962C3 17.1667 3.13679 17.2971 3.31567 17.2971H4.2627C4.44158 17.2971 4.57837 17.1667 4.57837 16.9962V13.6054L4.97822 13.3145C5.8095 12.7126 6.90384 12.5922 7.86138 12.9935L10.5762 14.1572C10.7025 14.2073 10.8077 14.3076 10.8498 14.4381C10.9024 14.5584 10.8919 14.6989 10.8392 14.8193C10.7866 14.9396 10.6814 15.0299 10.5551 15.0801C10.4289 15.1302 10.2816 15.1202 10.1553 15.0701L8.05079 14.1772C7.89295 14.107 7.70355 14.1772 7.62989 14.3277C7.55623 14.4782 7.62989 14.6588 7.78773 14.729L9.89222 15.6218C10.1763 15.7422 10.492 15.7522 10.7761 15.6419C10.8182 15.6318 14.9641 13.9465 14.9641 13.9465C15.0903 13.8963 15.2376 13.8963 15.3639 13.9465C15.4902 13.9967 15.5954 14.097 15.648 14.2174C15.7006 14.3377 15.7006 14.4782 15.648 14.5986C15.5954 14.7189 15.4902 14.8193 15.3639 14.8694L9.43975 17.267C8.96624 17.4576 8.41907 17.4476 7.95608 17.2269L5.45174 16.0632C5.2939 15.993 5.10449 16.0532 5.03084 16.2037C4.95718 16.3541 5.02032 16.5347 5.17815 16.6049L7.6825 17.7686C8.01922 17.9191 8.37698 17.9993 8.74527 17.9993C9.06094 17.9993 9.38714 17.9392 9.69229 17.8188L15.627 15.4312C15.9111 15.3209 16.132 15.1002 16.2478 14.8293C16.3635 14.5584 16.3635 14.2575 16.2373 13.9866C16.111 13.7158 15.89 13.5051 15.6059 13.3947Z" fill="white" stroke="white" stroke-width="0.416667"/>
<path d="M7.9987 7.05701V6.39913H11.332V7.05701H7.9987ZM7.9987 5.30262V4.64474H11.332V5.30262H7.9987ZM6.99869 8.15352H10.332C10.5298 8.15352 10.7127 8.19569 10.8807 8.28004C11.0488 8.36439 11.1916 8.48359 11.3089 8.63766L12.332 9.95346V3.79285C12.332 3.75349 12.3192 3.72115 12.2936 3.69585C12.2679 3.67054 12.2352 3.65789 12.1953 3.65789H7.13546C7.09557 3.65789 7.0628 3.67054 7.03716 3.69585C7.01151 3.72115 6.99869 3.75349 6.99869 3.79285V8.15352ZM7.13546 10.6754H12.0509L10.7842 9.03998C10.7283 8.96744 10.6618 8.91121 10.5846 8.87129C10.5074 8.83136 10.4232 8.8114 10.332 8.8114H6.99869V10.5405C6.99869 10.5798 7.01151 10.6122 7.03716 10.6375C7.0628 10.6628 7.09557 10.6754 7.13546 10.6754ZM12.1953 11.3333H7.13546C6.91095 11.3333 6.72092 11.2566 6.56537 11.1031C6.40981 10.9496 6.33203 10.762 6.33203 10.5405V3.79285C6.33203 3.5713 6.40981 3.38377 6.56537 3.23026C6.72092 3.07675 6.91095 3 7.13546 3H12.1953C12.4198 3 12.6098 3.07675 12.7654 3.23026C12.9209 3.38377 12.9987 3.5713 12.9987 3.79285V10.5405C12.9987 10.762 12.9209 10.9496 12.7654 11.1031C12.6098 11.2566 12.4198 11.3333 12.1953 11.3333Z" fill="white"/>
<path d="M6.99869 8.15352H10.332C10.5298 8.15352 10.7127 8.19569 10.8807 8.28004C11.0488 8.36439 11.1916 8.48359 11.3089 8.63766L12.332 9.95346V3.79285C12.332 3.75349 12.3192 3.72115 12.2936 3.69585C12.2679 3.67054 12.2352 3.65789 12.1953 3.65789H7.13546C7.09557 3.65789 7.0628 3.67054 7.03716 3.69585C7.01151 3.72115 6.99869 3.75349 6.99869 3.79285V8.15352ZM6.99869 8.15352V8.8114M6.99869 8.8114H10.332C10.4232 8.8114 10.5074 8.83136 10.5846 8.87129C10.6618 8.91121 10.7283 8.96744 10.7842 9.03998L12.0509 10.6754H7.13546C7.09557 10.6754 7.0628 10.6628 7.03716 10.6375C7.01151 10.6122 6.99869 10.5798 6.99869 10.5405V8.8114ZM6.99869 10.6754V3.65789M7.9987 7.05701V6.39913H11.332V7.05701H7.9987ZM7.9987 5.30262V4.64474H11.332V5.30262H7.9987ZM12.1953 11.3333H7.13546C6.91095 11.3333 6.72092 11.2566 6.56537 11.1031C6.40981 10.9496 6.33203 10.762 6.33203 10.5405V3.79285C6.33203 3.5713 6.40981 3.38377 6.56537 3.23026C6.72092 3.07675 6.91095 3 7.13546 3H12.1953C12.4198 3 12.6098 3.07675 12.7654 3.23026C12.9209 3.38377 12.9987 3.5713 12.9987 3.79285V10.5405C12.9987 10.762 12.9209 10.9496 12.7654 11.1031C12.6098 11.2566 12.4198 11.3333 12.1953 11.3333Z" stroke="white" stroke-width="0.25"/>
</svg>
