<svg width="44" height="45" viewBox="0 0 44 45" fill="none" xmlns="http://www.w3.org/2000/svg">
<rect y="0.5" width="44" height="44" rx="22" fill="#CAE7D3"/>
<g clip-path="url(#clip0_574_25546)">
<path d="M23.75 18.1251C23.75 17.9952 23.6923 17.8721 23.5928 17.7893L20.9678 15.6018C20.8379 15.4915 20.6547 15.4701 20.5016 15.5411C20.3484 15.6137 20.25 15.7675 20.25 15.9376V17.2501H18.9375C17.4899 17.2501 16.3125 18.4275 16.3125 19.8751V24.8735C15.5406 25.2098 15 25.9782 15 26.8751C15 28.0831 15.9795 29.0626 17.1875 29.0626C18.3961 29.0626 19.375 28.0837 19.375 26.8751C19.375 25.9785 18.8344 25.2101 18.0625 24.8721V19.8751C18.0625 19.3922 18.4552 19.0001 18.9375 19.0001H20.25V20.3126C20.25 20.4826 20.3483 20.6363 20.5021 20.709C20.5617 20.7364 20.6246 20.7501 20.6875 20.7501C20.7879 20.7501 20.8874 20.7159 20.9678 20.6484L23.5928 18.4609C23.6926 18.3794 23.75 18.2563 23.75 18.1251ZM17.1875 27.5313C16.8257 27.5313 16.5312 27.2368 16.5312 26.8751C16.5312 26.5133 16.8257 26.2188 17.1875 26.2188C17.5493 26.2188 17.8438 26.5133 17.8438 26.8751C17.8438 27.2368 17.5484 27.5313 17.1875 27.5313ZM26.8125 15.9376C25.6039 15.9376 24.625 16.917 24.625 18.1251C24.625 19.0217 25.1656 19.79 25.9375 20.128V25.1251C25.9375 25.608 25.5448 26.0001 25.0625 26.0001H23.75V24.6876C23.75 24.5175 23.6517 24.3638 23.4979 24.2911C23.3454 24.221 23.1635 24.2415 23.0323 24.3518L20.4073 26.5393C20.3074 26.6235 20.25 26.7465 20.25 26.8751C20.25 27.0036 20.3077 27.128 20.4072 27.2108L23.0322 29.3983C23.1129 29.4672 23.2113 29.5001 23.3125 29.5001C23.3753 29.5001 23.439 29.4864 23.4979 29.459C23.6516 29.3852 23.75 29.2321 23.75 29.0626V27.7501H25.0625C26.5101 27.7501 27.6875 26.5726 27.6875 25.1251V20.1266C28.4586 19.7903 29 19.0219 29 18.1251C29 16.917 28.0211 15.9376 26.8125 15.9376ZM26.8125 18.7813C26.4507 18.7813 26.1562 18.4868 26.1562 18.1251C26.1562 17.7633 26.4507 17.4688 26.8125 17.4688C27.1743 17.4688 27.4688 17.7633 27.4688 18.1251C27.4688 18.4868 27.1734 18.7813 26.8125 18.7813Z" fill="#4E8B56"/>
</g>
<defs>
<clipPath id="clip0_574_25546">
<rect width="15.75" height="14" fill="white" transform="translate(14.125 15.5)"/>
</clipPath>
</defs>
</svg>
