<svg width="10" height="6" viewBox="0 0 10 6" fill="none" xmlns="http://www.w3.org/2000/svg">
<path d="M4.99573 0.779271C5.09616 0.779271 5.18964 0.795299 5.27616 0.827354C5.3627 0.85941 5.44497 0.91443 5.52296 0.992417L9.26814 4.7376C9.38353 4.85298 9.44256 4.99801 9.44523 5.17269C9.44791 5.34737 9.38888 5.49507 9.26814 5.61579C9.14742 5.73651 9.00106 5.79687 8.82906 5.79687C8.65706 5.79687 8.5107 5.73651 8.38998 5.61579L4.99573 2.22154L1.60148 5.61579C1.4861 5.73117 1.34107 5.79019 1.16639 5.79288C0.991726 5.79554 0.844031 5.73651 0.72331 5.61579C0.602573 5.49507 0.542205 5.3487 0.542205 5.17669C0.542205 5.00469 0.602573 4.85833 0.72331 4.7376L4.4685 0.992416C4.54648 0.91443 4.62875 0.85941 4.71529 0.827354C4.80182 0.795299 4.8953 0.779271 4.99573 0.779271Z" fill="#75899D"/>
</svg>
