<svg width="13" height="12" viewBox="0 0 13 12" fill="none" xmlns="http://www.w3.org/2000/svg">
<path d="M1.77626 12C1.41963 12 1.11776 11.8765 0.870656 11.6294C0.623552 11.3824 0.5 11.0805 0.5 10.724V1.27603C0.5 0.919462 0.623552 0.617649 0.870656 0.370589C1.11776 0.12353 1.41963 0 1.77626 0H11.2259C11.5825 0 11.8844 0.12353 12.1315 0.370589C12.3786 0.617649 12.5022 0.919462 12.5022 1.27603V10.724C12.5022 11.0805 12.3786 11.3824 12.1315 11.6294C11.8844 11.8765 11.5825 12 11.2259 12H1.77626ZM1.77626 10.9412H11.2259C11.2802 10.9412 11.33 10.9186 11.3753 10.8733C11.4205 10.8281 11.4432 10.7783 11.4432 10.724V1.27603C11.4432 1.22172 11.4205 1.17194 11.3753 1.12668C11.33 1.08143 11.2802 1.05881 11.2259 1.05881H1.77626C1.72194 1.05881 1.67215 1.08143 1.62688 1.12668C1.58163 1.17194 1.559 1.22172 1.559 1.27603V10.724C1.559 10.7783 1.58163 10.8281 1.62688 10.8733C1.67215 10.9186 1.72194 10.9412 1.77626 10.9412ZM3.67704 9.35293H7.2071C7.35735 9.35293 7.48316 9.30226 7.58453 9.2009C7.6859 9.09955 7.73659 8.97376 7.73659 8.82354C7.73659 8.67331 7.6859 8.54753 7.58453 8.44617C7.48316 8.34482 7.35735 8.29414 7.2071 8.29414H3.67704C3.52679 8.29414 3.40097 8.34482 3.2996 8.44617C3.19823 8.54753 3.14755 8.67331 3.14755 8.82354C3.14755 8.97376 3.19823 9.09955 3.2996 9.2009C3.40097 9.30226 3.52679 9.35293 3.67704 9.35293ZM3.67704 6.5294H9.32513C9.47539 6.5294 9.6012 6.47872 9.70257 6.37737C9.80394 6.27601 9.85463 6.15022 9.85463 6C9.85463 5.84978 9.80394 5.72399 9.70257 5.62263C9.6012 5.52128 9.47539 5.4706 9.32513 5.4706H3.67704C3.52679 5.4706 3.40097 5.52128 3.2996 5.62263C3.19823 5.72399 3.14755 5.84978 3.14755 6C3.14755 6.15022 3.19823 6.27601 3.2996 6.37737C3.40097 6.47872 3.52679 6.5294 3.67704 6.5294ZM3.67704 3.70586H9.32513C9.47539 3.70586 9.6012 3.65518 9.70257 3.55383C9.80394 3.45247 9.85463 3.32669 9.85463 3.17646C9.85463 3.02624 9.80394 2.90045 9.70257 2.7991C9.6012 2.69774 9.47539 2.64707 9.32513 2.64707H3.67704C3.52679 2.64707 3.40097 2.69774 3.2996 2.7991C3.19823 2.90045 3.14755 3.02624 3.14755 3.17646C3.14755 3.32669 3.19823 3.45247 3.2996 3.55383C3.40097 3.65518 3.52679 3.70586 3.67704 3.70586Z" fill="#75899D"/>
</svg>
