<svg width="20" height="20" viewBox="0 0 20 20" fill="none" xmlns="http://www.w3.org/2000/svg">
<mask id="mask0_675_26957" style="mask-type:alpha" maskUnits="userSpaceOnUse" x="0" y="0" width="20" height="20">
<rect width="20" height="20" fill="#D9D9D9"/>
</mask>
<g mask="url(#mask0_675_26957)">
<path d="M13.843 10.6231H4.375C4.19765 10.6231 4.04915 10.5632 3.9295 10.4436C3.80983 10.3239 3.75 10.1754 3.75 9.99809C3.75 9.82074 3.80983 9.67224 3.9295 9.55259C4.04915 9.43294 4.19765 9.37311 4.375 9.37311H13.843L11.0993 6.62949C10.9754 6.50556 10.9142 6.36053 10.9159 6.1944C10.9175 6.02828 10.9786 5.88058 11.0993 5.7513C11.2286 5.62204 11.3771 5.55526 11.5448 5.55099C11.7126 5.54671 11.8611 5.60921 11.9903 5.73849L15.7227 9.47086C15.8007 9.54885 15.8557 9.63111 15.8878 9.71765C15.9198 9.80418 15.9359 9.89766 15.9359 9.99809C15.9359 10.0985 15.9198 10.192 15.8878 10.2785C15.8557 10.3651 15.8007 10.4473 15.7227 10.5253L11.9903 14.2577C11.8664 14.3816 11.7193 14.4428 11.5489 14.4412C11.3785 14.4396 11.2286 14.3741 11.0993 14.2449C10.9786 14.1156 10.9161 13.9692 10.9118 13.8058C10.9076 13.6423 10.9701 13.496 11.0993 13.3667L13.843 10.6231Z" fill="#93A2B2"/>
</g>
</svg>
