<svg width="24" height="25" viewBox="0 0 24 25" fill="none" xmlns="http://www.w3.org/2000/svg">
<rect x="0.5" y="1" width="23" height="23" rx="11.5" fill="#EFF8FF"/>
<rect x="0.5" y="1" width="23" height="23" rx="11.5" stroke="#84CAFF"/>
<path d="M6.91933 19.5C6.38619 19.5 5.93301 19.3134 5.5598 18.9401C5.1866 18.5668 5 18.1135 5 17.5802C5 17.1499 5.12673 16.7692 5.38019 16.4379C5.63363 16.1066 5.95474 15.8775 6.34353 15.7505V9.24955C5.95474 9.12255 5.63363 8.8934 5.38019 8.56211C5.12673 8.23082 5 7.85006 5 7.41982C5 6.88654 5.1866 6.43325 5.5598 6.05994C5.93301 5.68665 6.38619 5.5 6.91933 5.5C7.34946 5.5 7.73012 5.62676 8.06133 5.88028C8.39253 6.13379 8.62162 6.45499 8.74859 6.84387H15.2478C15.3669 6.45499 15.5926 6.13379 15.9249 5.88028C16.2572 5.62676 16.6413 5.5 17.0771 5.5C17.6102 5.5 18.0634 5.68665 18.4366 6.05994C18.8098 6.43325 18.9964 6.88654 18.9964 7.41982C18.9964 7.85574 18.8697 8.2399 18.6162 8.57229C18.3628 8.90468 18.0417 9.13043 17.6529 9.24955V15.7505C18.0417 15.8775 18.3628 16.1066 18.6162 16.4379C18.8697 16.7692 18.9964 17.1499 18.9964 17.5802C18.9964 18.1135 18.8098 18.5668 18.4366 18.9401C18.0634 19.3134 17.6102 19.5 17.0771 19.5C16.6469 19.5 16.2663 19.3732 15.9351 19.1197C15.6039 18.8662 15.3748 18.545 15.2478 18.1561H8.74859C8.62162 18.545 8.39253 18.8662 8.06133 19.1197C7.73012 19.3732 7.34946 19.5 6.91933 19.5ZM6.91933 8.18776C7.13686 8.18776 7.3192 8.11417 7.46635 7.96698C7.6135 7.81979 7.68707 7.63741 7.68707 7.41982C7.68707 7.20224 7.6135 7.01986 7.46635 6.87267C7.3192 6.72548 7.13686 6.65189 6.91933 6.65189C6.7018 6.65189 6.51947 6.72548 6.37232 6.87267C6.22517 7.01986 6.15159 7.20224 6.15159 7.41982C6.15159 7.63741 6.22517 7.81979 6.37232 7.96698C6.51947 8.11417 6.7018 8.18776 6.91933 8.18776ZM17.0771 8.18776C17.2946 8.18776 17.4769 8.11417 17.6241 7.96698C17.7712 7.81979 17.8448 7.63741 17.8448 7.41982C17.8448 7.20224 17.7712 7.01986 17.6241 6.87267C17.4769 6.72548 17.2946 6.65189 17.0771 6.65189C16.8595 6.65189 16.6772 6.72548 16.5301 6.87267C16.3829 7.01986 16.3093 7.20224 16.3093 7.41982C16.3093 7.63741 16.3829 7.81979 16.5301 7.96698C16.6772 8.11417 16.8595 8.18776 17.0771 8.18776ZM8.74859 17.0042H15.2478C15.3433 16.701 15.5003 16.4401 15.7188 16.2215C15.9373 16.003 16.1981 15.8459 16.5013 15.7505V9.24955C16.1981 9.15897 15.9361 9.00317 15.7151 8.78215C15.4941 8.56112 15.3384 8.29899 15.2478 7.99576H8.74859C8.65312 8.29899 8.49613 8.55989 8.27762 8.77846C8.05911 8.99703 7.79827 9.15406 7.49512 9.24955V15.7505C7.79827 15.8459 8.05911 16.003 8.27762 16.2215C8.49613 16.4401 8.65312 16.701 8.74859 17.0042ZM17.0771 18.3481C17.2946 18.3481 17.4769 18.2745 17.6241 18.1273C17.7712 17.9801 17.8448 17.7978 17.8448 17.5802C17.8448 17.3626 17.7712 17.1802 17.6241 17.033C17.4769 16.8858 17.2946 16.8122 17.0771 16.8122C16.8595 16.8122 16.6772 16.8858 16.5301 17.033C16.3829 17.1802 16.3093 17.3626 16.3093 17.5802C16.3093 17.7978 16.3829 17.9801 16.5301 18.1273C16.6772 18.2745 16.8595 18.3481 17.0771 18.3481ZM6.91933 18.3481C7.13686 18.3481 7.3192 18.2745 7.46635 18.1273C7.6135 17.9801 7.68707 17.7978 7.68707 17.5802C7.68707 17.3626 7.6135 17.1802 7.46635 17.033C7.3192 16.8858 7.13686 16.8122 6.91933 16.8122C6.7018 16.8122 6.51947 16.8858 6.37232 17.033C6.22517 17.1802 6.15159 17.3626 6.15159 17.5802C6.15159 17.7978 6.22517 17.9801 6.37232 18.1273C6.51947 18.2745 6.7018 18.3481 6.91933 18.3481Z" fill="#1570EF"/>
</svg>
