<svg width="20" height="20" viewBox="0 0 20 20" fill="none" xmlns="http://www.w3.org/2000/svg">
<mask id="mask0_2398_28319" style="mask-type:alpha" maskUnits="userSpaceOnUse" x="0" y="0" width="20" height="20">
<rect width="20" height="20" fill="#D9D9D9"/>
</mask>
<g mask="url(#mask0_2398_28319)">
<path d="M4.48566 17.5985C3.90696 17.5985 3.41507 17.3959 3.00997 16.9908C2.60489 16.5857 2.40234 16.0938 2.40234 15.5151C2.40234 15.0483 2.5399 14.6351 2.81501 14.2756C3.09011 13.9161 3.43866 13.6674 3.86066 13.5296V6.4751C3.43866 6.33728 3.09011 6.08862 2.81501 5.72912C2.5399 5.36962 2.40234 4.95644 2.40234 4.48956C2.40234 3.91087 2.60489 3.41897 3.00997 3.01387C3.41507 2.60879 3.90696 2.40625 4.48566 2.40625C4.95253 2.40625 5.36572 2.54381 5.72522 2.81892C6.08472 3.09401 6.33338 3.44256 6.4712 3.86456H13.5257C13.655 3.44256 13.8999 3.09401 14.2606 2.81892C14.6213 2.54381 15.0382 2.40625 15.5112 2.40625C16.0899 2.40625 16.5818 2.60879 16.9869 3.01387C17.392 3.41897 17.5946 3.91087 17.5946 4.48956C17.5946 4.9626 17.457 5.37947 17.1819 5.74017C16.9068 6.10086 16.5582 6.34584 16.1362 6.4751V13.5296C16.5582 13.6674 16.9068 13.9161 17.1819 14.2756C17.457 14.6351 17.5946 15.0483 17.5946 15.5151C17.5946 16.0938 17.392 16.5857 16.9869 16.9908C16.5818 17.3959 16.0899 17.5985 15.5112 17.5985C15.0444 17.5985 14.6312 17.4609 14.2717 17.1858C13.9122 16.9107 13.6635 16.5621 13.5257 16.1401H6.4712C6.33338 16.5621 6.08472 16.9107 5.72522 17.1858C5.36572 17.4609 4.95253 17.5985 4.48566 17.5985ZM4.48566 5.3229C4.72177 5.3229 4.91968 5.24303 5.07941 5.08331C5.23913 4.92359 5.31899 4.72567 5.31899 4.48956C5.31899 4.25345 5.23913 4.05553 5.07941 3.89581C4.91968 3.73609 4.72177 3.65623 4.48566 3.65623C4.24955 3.65623 4.05163 3.73609 3.89191 3.89581C3.73218 4.05553 3.65232 4.25345 3.65232 4.48956C3.65232 4.72567 3.73218 4.92359 3.89191 5.08331C4.05163 5.24303 4.24955 5.3229 4.48566 5.3229ZM15.5112 5.3229C15.7474 5.3229 15.9453 5.24303 16.105 5.08331C16.2647 4.92359 16.3446 4.72567 16.3446 4.48956C16.3446 4.25345 16.2647 4.05553 16.105 3.89581C15.9453 3.73609 15.7474 3.65623 15.5112 3.65623C15.2751 3.65623 15.0772 3.73609 14.9175 3.89581C14.7578 4.05553 14.6779 4.25345 14.6779 4.48956C14.6779 4.72567 14.7578 4.92359 14.9175 5.08331C15.0772 5.24303 15.2751 5.3229 15.5112 5.3229ZM6.4712 14.8902H13.5257C13.6293 14.5611 13.7997 14.278 14.0369 14.0408C14.2741 13.8036 14.5572 13.6332 14.8863 13.5296V6.4751C14.5572 6.37681 14.2728 6.20774 14.0329 5.9679C13.7931 5.72805 13.624 5.4436 13.5257 5.11454H6.4712C6.36757 5.4436 6.19717 5.72671 5.95999 5.9639C5.72281 6.20108 5.43969 6.37148 5.11064 6.4751V13.5296C5.43969 13.6332 5.72281 13.8036 5.95999 14.0408C6.19717 14.278 6.36757 14.5611 6.4712 14.8902ZM15.5112 16.3485C15.7474 16.3485 15.9453 16.2686 16.105 16.1089C16.2647 15.9492 16.3446 15.7513 16.3446 15.5151C16.3446 15.279 16.2647 15.0811 16.105 14.9214C15.9453 14.7617 15.7474 14.6818 15.5112 14.6818C15.2751 14.6818 15.0772 14.7617 14.9175 14.9214C14.7578 15.0811 14.6779 15.279 14.6779 15.5151C14.6779 15.7513 14.7578 15.9492 14.9175 16.1089C15.0772 16.2686 15.2751 16.3485 15.5112 16.3485ZM4.48566 16.3485C4.72177 16.3485 4.91968 16.2686 5.07941 16.1089C5.23913 15.9492 5.31899 15.7513 5.31899 15.5151C5.31899 15.279 5.23913 15.0811 5.07941 14.9214C4.91968 14.7617 4.72177 14.6818 4.48566 14.6818C4.24955 14.6818 4.05163 14.7617 3.89191 14.9214C3.73218 15.0811 3.65232 15.279 3.65232 15.5151C3.65232 15.7513 3.73218 15.9492 3.89191 16.1089C4.05163 16.2686 4.24955 16.3485 4.48566 16.3485Z" fill="#003366"/>
</g>
</svg>
