<svg width="16" height="16" viewBox="0 0 16 16" fill="none" xmlns="http://www.w3.org/2000/svg">
<path d="M8 6C11.5899 6 14.5 5.10457 14.5 4C14.5 2.89543 11.5899 2 8 2C4.41015 2 1.5 2.89543 1.5 4C1.5 5.10457 4.41015 6 8 6Z" stroke="#475665" stroke-miterlimit="10" stroke-linecap="round" stroke-linejoin="round"/>
<path d="M12.825 9.34C11.635 9.745 9.915 10 8 10C4.41 10 1.5 9.105 1.5 8" stroke="#475665" stroke-miterlimit="10" stroke-linecap="round" stroke-linejoin="round"/>
<path d="M1.5 4V12C1.5 13.105 4.41 14 8 14C11.59 14 14.5 13.105 14.5 12V4" stroke="#475665" stroke-miterlimit="10" stroke-linecap="round" stroke-linejoin="round"/>
<path d="M3.5 8C3.77614 8 4 7.77614 4 7.5C4 7.22386 3.77614 7 3.5 7C3.22386 7 3 7.22386 3 7.5C3 7.77614 3.22386 8 3.5 8Z" fill="#475665"/>
<path d="M3.5 12C3.77614 12 4 11.7761 4 11.5C4 11.2239 3.77614 11 3.5 11C3.22386 11 3 11.2239 3 11.5C3 11.7761 3.22386 12 3.5 12Z" fill="#475665"/>
</svg>
