<svg width="20" height="20" viewBox="0 0 20 20" fill="none" xmlns="http://www.w3.org/2000/svg">
<path d="M4.33995 17.998C3.96869 17.998 3.65255 17.8659 3.39154 17.6015C3.13051 17.3371 3 17.0193 3 16.648C3 16.2767 3.13219 15.9606 3.39658 15.6996C3.66096 15.4386 3.97879 15.308 4.35005 15.308C4.72131 15.308 5.03745 15.4402 5.29848 15.7046C5.55949 15.969 5.68999 16.2868 5.68999 16.6581C5.68999 17.0294 5.5578 17.3455 5.29342 17.6065C5.02903 17.8675 4.71121 17.998 4.33995 17.998ZM17.2412 17.998C17.022 17.998 16.8406 17.9102 16.697 17.7344C16.5534 17.5586 16.4693 17.3504 16.4447 17.1099C16.3387 15.4262 15.9387 13.8513 15.2448 12.3853C14.5509 10.9193 13.6405 9.61896 12.5138 8.48419C11.3791 7.35747 10.0787 6.44714 8.61269 5.75321C7.1467 5.05926 5.57185 4.65929 3.88814 4.55331C3.6476 4.52811 3.43945 4.442 3.26368 4.29497C3.08789 4.14795 3 3.96521 3 3.74677C3 3.52393 3.09869 3.33798 3.29606 3.18891C3.49342 3.03982 3.71758 2.97808 3.96855 3.00367C5.87155 3.1255 7.64163 3.57292 9.27881 4.34593C10.916 5.11896 12.3609 6.13351 13.6136 7.38958C14.8662 8.64567 15.879 10.0906 16.6521 11.7243C17.4251 13.3581 17.8725 15.1265 17.9943 17.0295C18.0199 17.2805 17.9589 17.5046 17.8114 17.702C17.6638 17.8994 17.4738 17.998 17.2412 17.998ZM11.7502 17.998C11.5356 17.998 11.3515 17.9137 11.198 17.7449C11.0445 17.5762 10.9562 17.3822 10.9331 17.1629C10.8307 16.2248 10.5849 15.3467 10.1957 14.5286C9.80642 13.7105 9.29259 12.9822 8.65419 12.3438C8.01581 11.7054 7.28756 11.1916 6.46944 10.8024C5.65134 10.4131 4.77324 10.1673 3.83513 10.065C3.61586 10.0418 3.42185 9.95381 3.25311 9.80096C3.08437 9.64811 3 9.46192 3 9.24241C3 9.02234 3.08285 8.84187 3.24855 8.701C3.41423 8.56016 3.60672 8.49643 3.82601 8.50983C4.98339 8.60608 6.06708 8.89085 7.07708 9.36416C8.08705 9.83748 8.98068 10.4628 9.75795 11.2401C10.5352 12.0173 11.1605 12.911 11.6339 13.921C12.1072 14.931 12.3919 16.0146 12.4882 17.172C12.5016 17.3913 12.4367 17.5838 12.2935 17.7495C12.1503 17.9152 11.9692 17.998 11.7502 17.998Z" fill="white" stroke="white" stroke-width="0.570172"/>
</svg>
