<svg width="20" height="20" viewBox="0 0 20 20" fill="none" xmlns="http://www.w3.org/2000/svg">
<mask id="mask0_3018_22274" style="mask-type:alpha" maskUnits="userSpaceOnUse" x="0" y="0" width="20" height="20">
<rect width="20" height="20" fill="#D9D9D9"/>
</mask>
<g mask="url(#mask0_3018_22274)">
<path d="M6.22561 9.99738L7.60703 11.3788C7.72242 11.4942 7.78011 11.6371 7.78011 11.8075C7.78011 11.9779 7.72242 12.125 7.60703 12.249C7.48311 12.3782 7.33461 12.4415 7.16153 12.4389C6.98846 12.4362 6.83996 12.3729 6.71603 12.249L4.99168 10.5246C4.84104 10.374 4.76572 10.1982 4.76572 9.99738C4.76572 9.79653 4.84104 9.62079 4.99168 9.47015L6.72886 7.73296C6.85278 7.60903 6.99914 7.54787 7.16795 7.54948C7.33675 7.55108 7.48311 7.61651 7.60703 7.74579C7.72242 7.86971 7.78091 8.01607 7.78251 8.18488C7.78412 8.35368 7.72296 8.50004 7.59903 8.62396L6.22561 9.99738ZM13.7769 9.99738L12.3955 8.61596C12.2801 8.50057 12.2224 8.35767 12.2224 8.18727C12.2224 8.01687 12.2801 7.86971 12.3955 7.74579C12.5194 7.61651 12.6679 7.55321 12.841 7.55588C13.0141 7.55856 13.1626 7.62186 13.2865 7.74579L15.0109 9.47015C15.1615 9.62079 15.2368 9.79653 15.2368 9.99738C15.2368 10.1982 15.1615 10.374 15.0109 10.5246L13.2737 12.2618C13.1498 12.3857 13.0034 12.4469 12.8346 12.4453C12.6658 12.4437 12.5194 12.3782 12.3955 12.249C12.2801 12.125 12.2216 11.9787 12.2201 11.8099C12.2184 11.6411 12.2796 11.4947 12.4035 11.3708L13.7769 9.99738ZM4.42439 17.0807C4.00344 17.0807 3.64714 16.9349 3.35547 16.6432C3.0638 16.3515 2.91797 15.9952 2.91797 15.5743V13.1224C2.91797 12.945 2.9778 12.7965 3.09747 12.6769C3.21712 12.5572 3.36562 12.4974 3.54297 12.4974C3.72032 12.4974 3.86882 12.5572 3.98847 12.6769C4.10812 12.7965 4.16795 12.945 4.16795 13.1224V15.5743C4.16795 15.6384 4.19466 15.6972 4.24807 15.7506C4.3015 15.804 4.36027 15.8307 4.42439 15.8307H6.8763C7.05365 15.8307 7.20215 15.8905 7.3218 16.0102C7.44146 16.1298 7.50128 16.2783 7.50128 16.4557C7.50128 16.633 7.44146 16.7815 7.3218 16.9012C7.20215 17.0209 7.05365 17.0807 6.8763 17.0807H4.42439ZM15.5782 17.0807H13.1263C12.9489 17.0807 12.8004 17.0209 12.6808 16.9012C12.5611 16.7815 12.5013 16.633 12.5013 16.4557C12.5013 16.2783 12.5611 16.1298 12.6808 16.0102C12.8004 15.8905 12.9489 15.8307 13.1263 15.8307H15.5782C15.6423 15.8307 15.7011 15.804 15.7545 15.7506C15.8079 15.6972 15.8346 15.6384 15.8346 15.5743V13.1224C15.8346 12.945 15.8944 12.7965 16.0141 12.6769C16.1337 12.5572 16.2822 12.4974 16.4596 12.4974C16.6369 12.4974 16.7854 12.5572 16.9051 12.6769C17.0248 12.7965 17.0846 12.945 17.0846 13.1224V15.5743C17.0846 15.9952 16.9388 16.3515 16.6471 16.6432C16.3554 16.9349 15.9991 17.0807 15.5782 17.0807ZM2.91797 6.8724V4.42048C2.91797 3.99954 3.0638 3.64323 3.35547 3.35156C3.64714 3.0599 4.00344 2.91406 4.42439 2.91406H6.8763C7.05365 2.91406 7.20215 2.9739 7.3218 3.09356C7.44146 3.21322 7.50128 3.36172 7.50128 3.53906C7.50128 3.71641 7.44146 3.86491 7.3218 3.98456C7.20215 4.10422 7.05365 4.16404 6.8763 4.16404H4.42439C4.36027 4.16404 4.3015 4.19075 4.24807 4.24417C4.19466 4.2976 4.16795 4.35637 4.16795 4.42048V6.8724C4.16795 7.04974 4.10812 7.19824 3.98847 7.3179C3.86882 7.43755 3.72032 7.49738 3.54297 7.49738C3.36562 7.49738 3.21712 7.43755 3.09747 7.3179C2.9778 7.19824 2.91797 7.04974 2.91797 6.8724ZM15.8346 6.8724V4.42048C15.8346 4.35637 15.8079 4.2976 15.7545 4.24417C15.7011 4.19075 15.6423 4.16404 15.5782 4.16404H13.1263C12.9489 4.16404 12.8004 4.10422 12.6808 3.98456C12.5611 3.86491 12.5013 3.71641 12.5013 3.53906C12.5013 3.36172 12.5611 3.21322 12.6808 3.09356C12.8004 2.9739 12.9489 2.91406 13.1263 2.91406H15.5782C15.9991 2.91406 16.3554 3.0599 16.6471 3.35156C16.9388 3.64323 17.0846 3.99954 17.0846 4.42048V6.8724C17.0846 7.04974 17.0248 7.19824 16.9051 7.3179C16.7854 7.43755 16.6369 7.49738 16.4596 7.49738C16.2822 7.49738 16.1337 7.43755 16.0141 7.3179C15.8944 7.19824 15.8346 7.04974 15.8346 6.8724Z" fill="#93A2B2"/>
</g>
</svg>
