<svg width="20" height="20" viewBox="0 0 20 20" fill="none" xmlns="http://www.w3.org/2000/svg">
<mask id="mask0_832_2038" style="mask-type:alpha" maskUnits="userSpaceOnUse" x="0" y="0" width="20" height="20">
<rect width="20" height="20" fill="#D9D9D9"/>
</mask>
<g mask="url(#mask0_832_2038)">
<path d="M3.75024 17.274V12.9151C3.75024 12.4941 3.89608 12.1378 4.18774 11.8462C4.47941 11.5545 4.83571 11.4087 5.25666 11.4087H14.7438C15.1647 11.4087 15.521 11.5545 15.8127 11.8462C16.1044 12.1378 16.2502 12.4941 16.2502 12.9151V17.274H3.75024ZM5.00022 14.3574H15.0002V12.9151C15.0002 12.851 14.9735 12.7922 14.9201 12.7388C14.8667 12.6854 14.8079 12.6587 14.7438 12.6587H5.25666C5.19255 12.6587 5.13378 12.6854 5.08035 12.7388C5.02693 12.7922 5.00022 12.851 5.00022 12.9151V14.3574ZM10.0002 11.4087L6.25024 6.23245V6.15232C6.25024 5.11173 6.61509 4.22658 7.34478 3.49688C8.07449 2.76719 8.95963 2.40234 10.0002 2.40234C11.0408 2.40234 11.9259 2.76719 12.6556 3.49688C13.3853 4.22658 13.7502 5.11173 13.7502 6.15232V6.23245L10.0002 11.4087ZM10.0002 9.59622L12.5002 6.15232C12.5002 5.45788 12.2572 4.8676 11.771 4.38149C11.2849 3.89538 10.6947 3.65232 10.0002 3.65232C9.30577 3.65232 8.71549 3.89538 8.22938 4.38149C7.74327 4.8676 7.50022 5.45788 7.50022 6.15232L10.0002 9.59622Z" fill="#323C47"/>
</g>
</svg>
