<svg width="468" height="24" viewBox="0 0 468 24" fill="none" xmlns="http://www.w3.org/2000/svg">
<g clip-path="url(#clip0_3117_23815)">
<circle cx="12.8047" cy="12" r="11.5" stroke="#D9D9D9"/>
<circle cx="12.8047" cy="12" r="6" fill="#06B217"/>
<path d="M34.1035 16H32.3223L32.334 15.0801H34.1035C34.7129 15.0801 35.2207 14.9531 35.627 14.6992C36.0332 14.4414 36.3379 14.082 36.541 13.6211C36.748 13.1562 36.8516 12.6133 36.8516 11.9922V11.4707C36.8516 10.9824 36.793 10.5488 36.6758 10.1699C36.5586 9.78711 36.3867 9.46484 36.1602 9.20312C35.9336 8.9375 35.6562 8.73633 35.3281 8.59961C35.0039 8.46289 34.6309 8.39453 34.209 8.39453H32.2871V7.46875H34.209C34.7676 7.46875 35.2773 7.5625 35.7383 7.75C36.1992 7.93359 36.5957 8.20117 36.9277 8.55273C37.2637 8.90039 37.5215 9.32227 37.7012 9.81836C37.8809 10.3105 37.9707 10.8652 37.9707 11.4824V11.9922C37.9707 12.6094 37.8809 13.166 37.7012 13.6621C37.5215 14.1543 37.2617 14.5742 36.9219 14.9219C36.5859 15.2695 36.1797 15.5371 35.7031 15.7246C35.2305 15.9082 34.6973 16 34.1035 16ZM32.9258 7.46875V16H31.7949V7.46875H32.9258ZM40.7098 10.6562V16H39.6259V9.66016H40.6805L40.7098 10.6562ZM42.6903 9.625L42.6845 10.6328C42.5946 10.6133 42.5087 10.6016 42.4266 10.5977C42.3485 10.5898 42.2587 10.5859 42.1571 10.5859C41.9071 10.5859 41.6864 10.625 41.495 10.7031C41.3036 10.7812 41.1415 10.8906 41.0087 11.0312C40.8759 11.1719 40.7704 11.3398 40.6923 11.5352C40.618 11.7266 40.5692 11.9375 40.5458 12.168L40.2411 12.3438C40.2411 11.9609 40.2782 11.6016 40.3524 11.2656C40.4305 10.9297 40.5497 10.6328 40.7098 10.375C40.87 10.1133 41.0731 9.91016 41.3192 9.76562C41.5692 9.61719 41.8661 9.54297 42.2098 9.54297C42.288 9.54297 42.3778 9.55273 42.4794 9.57227C42.5809 9.58789 42.6512 9.60547 42.6903 9.625ZM47.3162 14.916V11.6523C47.3162 11.4023 47.2654 11.1855 47.1638 11.002C47.0662 10.8145 46.9177 10.6699 46.7185 10.5684C46.5193 10.4668 46.2732 10.416 45.9802 10.416C45.7068 10.416 45.4666 10.4629 45.2595 10.5566C45.0564 10.6504 44.8962 10.7734 44.7791 10.9258C44.6658 11.0781 44.6091 11.2422 44.6091 11.418H43.5252C43.5252 11.1914 43.5837 10.9668 43.7009 10.7441C43.8181 10.5215 43.9861 10.3203 44.2048 10.1406C44.4275 9.95703 44.6931 9.8125 45.0017 9.70703C45.3142 9.59766 45.6619 9.54297 46.0447 9.54297C46.5056 9.54297 46.9119 9.62109 47.2634 9.77734C47.6189 9.93359 47.8962 10.1699 48.0955 10.4863C48.2986 10.7988 48.4002 11.1914 48.4002 11.6641V14.6172C48.4002 14.8281 48.4177 15.0527 48.4529 15.291C48.492 15.5293 48.5486 15.7344 48.6228 15.9062V16H47.492C47.4373 15.875 47.3943 15.709 47.363 15.502C47.3318 15.291 47.3162 15.0957 47.3162 14.916ZM47.5037 12.1562L47.5154 12.918H46.4197C46.1111 12.918 45.8357 12.9434 45.5935 12.9941C45.3513 13.041 45.1482 13.1133 44.9841 13.2109C44.8201 13.3086 44.6951 13.4316 44.6091 13.5801C44.5232 13.7246 44.4802 13.8945 44.4802 14.0898C44.4802 14.2891 44.5252 14.4707 44.615 14.6348C44.7048 14.7988 44.8396 14.9297 45.0193 15.0273C45.2029 15.1211 45.4275 15.168 45.6931 15.168C46.0252 15.168 46.3181 15.0977 46.572 14.957C46.8259 14.8164 47.0271 14.6445 47.1755 14.4414C47.3279 14.2383 47.4099 14.041 47.4216 13.8496L47.8845 14.3711C47.8572 14.5352 47.783 14.7168 47.6619 14.916C47.5408 15.1152 47.3787 15.3066 47.1755 15.4902C46.9763 15.6699 46.738 15.8203 46.4607 15.9414C46.1873 16.0586 45.8787 16.1172 45.5349 16.1172C45.1052 16.1172 44.7283 16.0332 44.4041 15.8652C44.0837 15.6973 43.8337 15.4727 43.6541 15.1914C43.4783 14.9062 43.3904 14.5879 43.3904 14.2363C43.3904 13.8965 43.4568 13.5977 43.5896 13.3398C43.7224 13.0781 43.9138 12.8613 44.1638 12.6895C44.4138 12.5137 44.7146 12.3809 45.0662 12.291C45.4177 12.2012 45.8103 12.1562 46.2439 12.1562H47.5037ZM51.8424 16H50.7584V8.99219C50.7584 8.53516 50.8405 8.15039 51.0045 7.83789C51.1725 7.52148 51.4127 7.2832 51.7252 7.12305C52.0377 6.95898 52.4088 6.87695 52.8385 6.87695C52.9635 6.87695 53.0885 6.88477 53.2135 6.90039C53.3424 6.91602 53.4674 6.93945 53.5885 6.9707L53.5299 7.85547C53.4479 7.83594 53.3541 7.82227 53.2487 7.81445C53.1471 7.80664 53.0455 7.80273 52.944 7.80273C52.7135 7.80273 52.5143 7.84961 52.3463 7.94336C52.1823 8.0332 52.0573 8.16602 51.9713 8.3418C51.8854 8.51758 51.8424 8.73438 51.8424 8.99219V16ZM53.1901 9.66016V10.4922H49.7565V9.66016H53.1901ZM57.1714 9.66016V10.4922H53.7437V9.66016H57.1714ZM54.9038 8.11914H55.9878V14.4297C55.9878 14.6445 56.021 14.8066 56.0874 14.916C56.1538 15.0254 56.2398 15.0977 56.3452 15.1328C56.4507 15.168 56.564 15.1855 56.6851 15.1855C56.7749 15.1855 56.8687 15.1777 56.9663 15.1621C57.0679 15.1426 57.1441 15.127 57.1948 15.1152L57.2007 16C57.1148 16.0273 57.0015 16.0527 56.8609 16.0762C56.7241 16.1035 56.5581 16.1172 56.3628 16.1172C56.0972 16.1172 55.853 16.0645 55.6304 15.959C55.4077 15.8535 55.23 15.6777 55.0972 15.4316C54.9683 15.1816 54.9038 14.8457 54.9038 14.4238V8.11914Z" fill="#323C47"/>
<rect x="73.8047" y="9" width="4.12121" height="4" rx="2" fill="black" fill-opacity="0.1"/>
<rect x="81.9258" y="9" width="4.41631" height="4" rx="2" fill="black" fill-opacity="0.1"/>
<rect x="90.3438" y="9" width="4.25859" height="4" rx="2" fill="black" fill-opacity="0.1"/>
<circle cx="122.602" cy="12" r="11.5" stroke="#CED5DD"/>
<path d="M144.75 8.22461L141.926 16H140.771L144.023 7.46875H144.768L144.75 8.22461ZM147.117 16L144.287 8.22461L144.27 7.46875H145.014L148.277 16H147.117ZM146.971 12.8418V13.7676H142.178V12.8418H146.971ZM150.46 10.8789V18.4375H149.37V9.66016H150.366L150.46 10.8789ZM154.731 12.7773V12.9004C154.731 13.3613 154.677 13.7891 154.567 14.1836C154.458 14.5742 154.298 14.9141 154.087 15.2031C153.88 15.4922 153.624 15.7168 153.319 15.877C153.015 16.0371 152.665 16.1172 152.27 16.1172C151.868 16.1172 151.513 16.0508 151.204 15.918C150.895 15.7852 150.634 15.5918 150.419 15.3379C150.204 15.084 150.032 14.7793 149.903 14.4238C149.778 14.0684 149.692 13.668 149.645 13.2227V12.5664C149.692 12.0977 149.78 11.6777 149.909 11.3066C150.038 10.9355 150.208 10.6191 150.419 10.3574C150.634 10.0918 150.893 9.89062 151.198 9.75391C151.503 9.61328 151.854 9.54297 152.253 9.54297C152.651 9.54297 153.005 9.62109 153.313 9.77734C153.622 9.92969 153.882 10.1484 154.093 10.4336C154.304 10.7188 154.462 11.0605 154.567 11.459C154.677 11.8535 154.731 12.293 154.731 12.7773ZM153.641 12.9004V12.7773C153.641 12.4609 153.608 12.1641 153.542 11.8867C153.475 11.6055 153.372 11.3594 153.231 11.1484C153.095 10.9336 152.919 10.7656 152.704 10.6445C152.489 10.5195 152.233 10.457 151.936 10.457C151.663 10.457 151.425 10.5039 151.222 10.5977C151.022 10.6914 150.852 10.8184 150.712 10.9785C150.571 11.1348 150.456 11.3145 150.366 11.5176C150.28 11.7168 150.216 11.9238 150.173 12.1387V13.6562C150.251 13.9297 150.36 14.1875 150.501 14.4297C150.641 14.668 150.829 14.8613 151.063 15.0098C151.298 15.1543 151.593 15.2266 151.948 15.2266C152.241 15.2266 152.493 15.166 152.704 15.0449C152.919 14.9199 153.095 14.75 153.231 14.5352C153.372 14.3203 153.475 14.0742 153.542 13.7969C153.608 13.5156 153.641 13.2168 153.641 12.9004ZM157.318 10.8789V18.4375H156.228V9.66016H157.224L157.318 10.8789ZM161.59 12.7773V12.9004C161.59 13.3613 161.535 13.7891 161.426 14.1836C161.316 14.5742 161.156 14.9141 160.945 15.2031C160.738 15.4922 160.482 15.7168 160.177 15.877C159.873 16.0371 159.523 16.1172 159.129 16.1172C158.726 16.1172 158.371 16.0508 158.062 15.918C157.754 15.7852 157.492 15.5918 157.277 15.3379C157.062 15.084 156.89 14.7793 156.761 14.4238C156.636 14.0684 156.551 13.668 156.504 13.2227V12.5664C156.551 12.0977 156.638 11.6777 156.767 11.3066C156.896 10.9355 157.066 10.6191 157.277 10.3574C157.492 10.0918 157.752 9.89062 158.056 9.75391C158.361 9.61328 158.713 9.54297 159.111 9.54297C159.51 9.54297 159.863 9.62109 160.172 9.77734C160.48 9.92969 160.74 10.1484 160.951 10.4336C161.162 10.7188 161.32 11.0605 161.426 11.459C161.535 11.8535 161.59 12.293 161.59 12.7773ZM160.5 12.9004V12.7773C160.5 12.4609 160.467 12.1641 160.4 11.8867C160.334 11.6055 160.23 11.3594 160.09 11.1484C159.953 10.9336 159.777 10.7656 159.562 10.6445C159.347 10.5195 159.092 10.457 158.795 10.457C158.521 10.457 158.283 10.5039 158.08 10.5977C157.881 10.6914 157.711 10.8184 157.57 10.9785C157.429 11.1348 157.314 11.3145 157.224 11.5176C157.138 11.7168 157.074 11.9238 157.031 12.1387V13.6562C157.109 13.9297 157.219 14.1875 157.359 14.4297C157.5 14.668 157.687 14.8613 157.922 15.0098C158.156 15.1543 158.451 15.2266 158.806 15.2266C159.099 15.2266 159.351 15.166 159.562 15.0449C159.777 14.9199 159.953 14.75 160.09 14.5352C160.23 14.3203 160.334 14.0742 160.4 13.7969C160.467 13.5156 160.5 13.2168 160.5 12.9004ZM164.176 10.6562V16H163.092V9.66016H164.147L164.176 10.6562ZM166.157 9.625L166.151 10.6328C166.061 10.6133 165.975 10.6016 165.893 10.5977C165.815 10.5898 165.725 10.5859 165.624 10.5859C165.374 10.5859 165.153 10.625 164.962 10.7031C164.77 10.7812 164.608 10.8906 164.475 11.0312C164.342 11.1719 164.237 11.3398 164.159 11.5352C164.085 11.7266 164.036 11.9375 164.012 12.168L163.708 12.3438C163.708 11.9609 163.745 11.6016 163.819 11.2656C163.897 10.9297 164.016 10.6328 164.176 10.375C164.337 10.1133 164.54 9.91016 164.786 9.76562C165.036 9.61719 165.333 9.54297 165.676 9.54297C165.755 9.54297 165.844 9.55273 165.946 9.57227C166.048 9.58789 166.118 9.60547 166.157 9.625ZM166.875 12.9004V12.7656C166.875 12.3086 166.941 11.8848 167.074 11.4941C167.207 11.0996 167.398 10.7578 167.648 10.4688C167.898 10.1758 168.201 9.94922 168.556 9.78906C168.912 9.625 169.31 9.54297 169.751 9.54297C170.197 9.54297 170.597 9.625 170.953 9.78906C171.312 9.94922 171.617 10.1758 171.867 10.4688C172.121 10.7578 172.314 11.0996 172.447 11.4941C172.58 11.8848 172.646 12.3086 172.646 12.7656V12.9004C172.646 13.3574 172.58 13.7812 172.447 14.1719C172.314 14.5625 172.121 14.9043 171.867 15.1973C171.617 15.4863 171.314 15.7129 170.959 15.877C170.607 16.0371 170.209 16.1172 169.763 16.1172C169.318 16.1172 168.917 16.0371 168.562 15.877C168.207 15.7129 167.902 15.4863 167.648 15.1973C167.398 14.9043 167.207 14.5625 167.074 14.1719C166.941 13.7812 166.875 13.3574 166.875 12.9004ZM167.959 12.7656V12.9004C167.959 13.2168 167.996 13.5156 168.07 13.7969C168.144 14.0742 168.255 14.3203 168.404 14.5352C168.556 14.75 168.746 14.9199 168.972 15.0449C169.199 15.166 169.462 15.2266 169.763 15.2266C170.06 15.2266 170.32 15.166 170.542 15.0449C170.769 14.9199 170.957 14.75 171.105 14.5352C171.253 14.3203 171.365 14.0742 171.439 13.7969C171.517 13.5156 171.556 13.2168 171.556 12.9004V12.7656C171.556 12.4531 171.517 12.1582 171.439 11.8809C171.365 11.5996 171.251 11.3516 171.099 11.1367C170.951 10.918 170.763 10.7461 170.537 10.6211C170.314 10.4961 170.052 10.4336 169.751 10.4336C169.455 10.4336 169.193 10.4961 168.966 10.6211C168.744 10.7461 168.556 10.918 168.404 11.1367C168.255 11.3516 168.144 11.5996 168.07 11.8809C167.996 12.1582 167.959 12.4531 167.959 12.7656ZM175.959 15.0215L177.694 9.66016H178.801L176.522 16H175.795L175.959 15.0215ZM174.512 9.66016L176.299 15.0508L176.422 16H175.696L173.399 9.66016H174.512ZM183.609 14.916V11.6523C183.609 11.4023 183.558 11.1855 183.456 11.002C183.359 10.8145 183.21 10.6699 183.011 10.5684C182.812 10.4668 182.566 10.416 182.273 10.416C181.999 10.416 181.759 10.4629 181.552 10.5566C181.349 10.6504 181.189 10.7734 181.072 10.9258C180.958 11.0781 180.902 11.2422 180.902 11.418H179.818C179.818 11.1914 179.876 10.9668 179.993 10.7441C180.111 10.5215 180.279 10.3203 180.497 10.1406C180.72 9.95703 180.986 9.8125 181.294 9.70703C181.607 9.59766 181.954 9.54297 182.337 9.54297C182.798 9.54297 183.204 9.62109 183.556 9.77734C183.911 9.93359 184.189 10.1699 184.388 10.4863C184.591 10.7988 184.693 11.1914 184.693 11.6641V14.6172C184.693 14.8281 184.71 15.0527 184.745 15.291C184.784 15.5293 184.841 15.7344 184.915 15.9062V16H183.784C183.73 15.875 183.687 15.709 183.656 15.502C183.624 15.291 183.609 15.0957 183.609 14.916ZM183.796 12.1562L183.808 12.918H182.712C182.404 12.918 182.128 12.9434 181.886 12.9941C181.644 13.041 181.441 13.1133 181.277 13.2109C181.113 13.3086 180.988 13.4316 180.902 13.5801C180.816 13.7246 180.773 13.8945 180.773 14.0898C180.773 14.2891 180.818 14.4707 180.908 14.6348C180.997 14.7988 181.132 14.9297 181.312 15.0273C181.495 15.1211 181.72 15.168 181.986 15.168C182.318 15.168 182.611 15.0977 182.865 14.957C183.118 14.8164 183.32 14.6445 183.468 14.4414C183.62 14.2383 183.702 14.041 183.714 13.8496L184.177 14.3711C184.15 14.5352 184.075 14.7168 183.954 14.916C183.833 15.1152 183.671 15.3066 183.468 15.4902C183.269 15.6699 183.031 15.8203 182.753 15.9414C182.48 16.0586 182.171 16.1172 181.827 16.1172C181.398 16.1172 181.021 16.0332 180.697 15.8652C180.376 15.6973 180.126 15.4727 179.947 15.1914C179.771 14.9062 179.683 14.5879 179.683 14.2363C179.683 13.8965 179.749 13.5977 179.882 13.3398C180.015 13.0781 180.206 12.8613 180.456 12.6895C180.706 12.5137 181.007 12.3809 181.359 12.291C181.71 12.2012 182.103 12.1562 182.536 12.1562H183.796ZM187.695 7V16H186.606V7H187.695Z" fill="#323C47"/>
<rect x="205.602" y="9" width="4.12121" height="4" rx="2" fill="black" fill-opacity="0.1"/>
<rect x="213.723" y="9" width="4.41631" height="4" rx="2" fill="black" fill-opacity="0.1"/>
<rect x="222.141" y="9" width="4.25859" height="4" rx="2" fill="black" fill-opacity="0.1"/>
<circle cx="254.398" cy="12" r="11.5" stroke="#CED5DD"/>
<path d="M276.547 8.22461L273.723 16H272.568L275.82 7.46875H276.564L276.547 8.22461ZM278.914 16L276.084 8.22461L276.066 7.46875H276.811L280.074 16H278.914ZM278.768 12.8418V13.7676H273.975V12.8418H278.768ZM282.257 10.8789V18.4375H281.167V9.66016H282.163L282.257 10.8789ZM286.528 12.7773V12.9004C286.528 13.3613 286.474 13.7891 286.364 14.1836C286.255 14.5742 286.095 14.9141 285.884 15.2031C285.677 15.4922 285.421 15.7168 285.116 15.877C284.811 16.0371 284.462 16.1172 284.067 16.1172C283.665 16.1172 283.309 16.0508 283.001 15.918C282.692 15.7852 282.431 15.5918 282.216 15.3379C282.001 15.084 281.829 14.7793 281.7 14.4238C281.575 14.0684 281.489 13.668 281.442 13.2227V12.5664C281.489 12.0977 281.577 11.6777 281.706 11.3066C281.835 10.9355 282.005 10.6191 282.216 10.3574C282.431 10.0918 282.69 9.89062 282.995 9.75391C283.3 9.61328 283.651 9.54297 284.05 9.54297C284.448 9.54297 284.802 9.62109 285.11 9.77734C285.419 9.92969 285.679 10.1484 285.89 10.4336C286.1 10.7188 286.259 11.0605 286.364 11.459C286.474 11.8535 286.528 12.293 286.528 12.7773ZM285.438 12.9004V12.7773C285.438 12.4609 285.405 12.1641 285.339 11.8867C285.272 11.6055 285.169 11.3594 285.028 11.1484C284.891 10.9336 284.716 10.7656 284.501 10.6445C284.286 10.5195 284.03 10.457 283.733 10.457C283.46 10.457 283.222 10.5039 283.018 10.5977C282.819 10.6914 282.649 10.8184 282.509 10.9785C282.368 11.1348 282.253 11.3145 282.163 11.5176C282.077 11.7168 282.013 11.9238 281.97 12.1387V13.6562C282.048 13.9297 282.157 14.1875 282.298 14.4297C282.438 14.668 282.626 14.8613 282.86 15.0098C283.095 15.1543 283.39 15.2266 283.745 15.2266C284.038 15.2266 284.29 15.166 284.501 15.0449C284.716 14.9199 284.891 14.75 285.028 14.5352C285.169 14.3203 285.272 14.0742 285.339 13.7969C285.405 13.5156 285.438 13.2168 285.438 12.9004ZM289.115 10.8789V18.4375H288.025V9.66016H289.021L289.115 10.8789ZM293.386 12.7773V12.9004C293.386 13.3613 293.332 13.7891 293.222 14.1836C293.113 14.5742 292.953 14.9141 292.742 15.2031C292.535 15.4922 292.279 15.7168 291.974 15.877C291.67 16.0371 291.32 16.1172 290.926 16.1172C290.523 16.1172 290.168 16.0508 289.859 15.918C289.551 15.7852 289.289 15.5918 289.074 15.3379C288.859 15.084 288.687 14.7793 288.558 14.4238C288.433 14.0684 288.347 13.668 288.301 13.2227V12.5664C288.347 12.0977 288.435 11.6777 288.564 11.3066C288.693 10.9355 288.863 10.6191 289.074 10.3574C289.289 10.0918 289.549 9.89062 289.853 9.75391C290.158 9.61328 290.51 9.54297 290.908 9.54297C291.306 9.54297 291.66 9.62109 291.969 9.77734C292.277 9.92969 292.537 10.1484 292.748 10.4336C292.959 10.7188 293.117 11.0605 293.222 11.459C293.332 11.8535 293.386 12.293 293.386 12.7773ZM292.297 12.9004V12.7773C292.297 12.4609 292.263 12.1641 292.197 11.8867C292.131 11.6055 292.027 11.3594 291.886 11.1484C291.75 10.9336 291.574 10.7656 291.359 10.6445C291.144 10.5195 290.888 10.457 290.592 10.457C290.318 10.457 290.08 10.5039 289.877 10.5977C289.677 10.6914 289.508 10.8184 289.367 10.9785C289.226 11.1348 289.111 11.3145 289.021 11.5176C288.935 11.7168 288.871 11.9238 288.828 12.1387V13.6562C288.906 13.9297 289.015 14.1875 289.156 14.4297C289.297 14.668 289.484 14.8613 289.719 15.0098C289.953 15.1543 290.248 15.2266 290.603 15.2266C290.896 15.2266 291.148 15.166 291.359 15.0449C291.574 14.9199 291.75 14.75 291.886 14.5352C292.027 14.3203 292.131 14.0742 292.197 13.7969C292.263 13.5156 292.297 13.2168 292.297 12.9004ZM295.973 10.6562V16H294.889V9.66016H295.944L295.973 10.6562ZM297.954 9.625L297.948 10.6328C297.858 10.6133 297.772 10.6016 297.69 10.5977C297.612 10.5898 297.522 10.5859 297.421 10.5859C297.171 10.5859 296.95 10.625 296.758 10.7031C296.567 10.7812 296.405 10.8906 296.272 11.0312C296.139 11.1719 296.034 11.3398 295.956 11.5352C295.881 11.7266 295.833 11.9375 295.809 12.168L295.505 12.3438C295.505 11.9609 295.542 11.6016 295.616 11.2656C295.694 10.9297 295.813 10.6328 295.973 10.375C296.133 10.1133 296.337 9.91016 296.583 9.76562C296.833 9.61719 297.13 9.54297 297.473 9.54297C297.551 9.54297 297.641 9.55273 297.743 9.57227C297.844 9.58789 297.915 9.60547 297.954 9.625ZM298.671 12.9004V12.7656C298.671 12.3086 298.738 11.8848 298.871 11.4941C299.003 11.0996 299.195 10.7578 299.445 10.4688C299.695 10.1758 299.998 9.94922 300.353 9.78906C300.709 9.625 301.107 9.54297 301.548 9.54297C301.994 9.54297 302.394 9.625 302.75 9.78906C303.109 9.94922 303.414 10.1758 303.664 10.4688C303.917 10.7578 304.111 11.0996 304.244 11.4941C304.376 11.8848 304.443 12.3086 304.443 12.7656V12.9004C304.443 13.3574 304.376 13.7812 304.244 14.1719C304.111 14.5625 303.917 14.9043 303.664 15.1973C303.414 15.4863 303.111 15.7129 302.755 15.877C302.404 16.0371 302.005 16.1172 301.56 16.1172C301.115 16.1172 300.714 16.0371 300.359 15.877C300.003 15.7129 299.699 15.4863 299.445 15.1973C299.195 14.9043 299.003 14.5625 298.871 14.1719C298.738 13.7812 298.671 13.3574 298.671 12.9004ZM299.755 12.7656V12.9004C299.755 13.2168 299.792 13.5156 299.867 13.7969C299.941 14.0742 300.052 14.3203 300.201 14.5352C300.353 14.75 300.542 14.9199 300.769 15.0449C300.996 15.166 301.259 15.2266 301.56 15.2266C301.857 15.2266 302.117 15.166 302.339 15.0449C302.566 14.9199 302.753 14.75 302.902 14.5352C303.05 14.3203 303.162 14.0742 303.236 13.7969C303.314 13.5156 303.353 13.2168 303.353 12.9004V12.7656C303.353 12.4531 303.314 12.1582 303.236 11.8809C303.162 11.5996 303.048 11.3516 302.896 11.1367C302.748 10.918 302.56 10.7461 302.334 10.6211C302.111 10.4961 301.849 10.4336 301.548 10.4336C301.251 10.4336 300.99 10.4961 300.763 10.6211C300.541 10.7461 300.353 10.918 300.201 11.1367C300.052 11.3516 299.941 11.5996 299.867 11.8809C299.792 12.1582 299.755 12.4531 299.755 12.7656ZM307.756 15.0215L309.491 9.66016H310.598L308.319 16H307.592L307.756 15.0215ZM306.309 9.66016L308.096 15.0508L308.219 16H307.493L305.196 9.66016H306.309ZM314.31 16.1172C313.868 16.1172 313.468 16.043 313.109 15.8945C312.753 15.7422 312.447 15.5293 312.189 15.2559C311.935 14.9824 311.74 14.6582 311.603 14.2832C311.466 13.9082 311.398 13.498 311.398 13.0527V12.8066C311.398 12.291 311.474 11.832 311.626 11.4297C311.779 11.0234 311.986 10.6797 312.247 10.3984C312.509 10.1172 312.806 9.9043 313.138 9.75977C313.47 9.61523 313.814 9.54297 314.169 9.54297C314.622 9.54297 315.013 9.62109 315.341 9.77734C315.673 9.93359 315.945 10.1523 316.156 10.4336C316.366 10.7109 316.523 11.0391 316.624 11.418C316.726 11.793 316.777 12.2031 316.777 12.6484V13.1348H312.042V12.25H315.693V12.168C315.677 11.8867 315.618 11.6133 315.517 11.3477C315.419 11.082 315.263 10.8633 315.048 10.6914C314.833 10.5195 314.54 10.4336 314.169 10.4336C313.923 10.4336 313.697 10.4863 313.49 10.5918C313.283 10.6934 313.105 10.8457 312.956 11.0488C312.808 11.252 312.693 11.5 312.611 11.793C312.529 12.0859 312.488 12.4238 312.488 12.8066V13.0527C312.488 13.3535 312.529 13.6367 312.611 13.9023C312.697 14.1641 312.82 14.3945 312.98 14.5938C313.144 14.793 313.341 14.9492 313.572 15.0625C313.806 15.1758 314.072 15.2324 314.368 15.2324C314.751 15.2324 315.075 15.1543 315.341 14.998C315.607 14.8418 315.839 14.6328 316.038 14.3711L316.695 14.8926C316.558 15.0996 316.384 15.2969 316.173 15.4844C315.962 15.6719 315.702 15.8242 315.394 15.9414C315.089 16.0586 314.728 16.1172 314.31 16.1172ZM322.158 14.7695V7H323.248V16H322.252L322.158 14.7695ZM317.893 12.9004V12.7773C317.893 12.293 317.951 11.8535 318.069 11.459C318.19 11.0605 318.36 10.7188 318.578 10.4336C318.801 10.1484 319.065 9.92969 319.369 9.77734C319.678 9.62109 320.022 9.54297 320.401 9.54297C320.799 9.54297 321.147 9.61328 321.444 9.75391C321.744 9.89062 321.998 10.0918 322.205 10.3574C322.416 10.6191 322.582 10.9355 322.703 11.3066C322.824 11.6777 322.908 12.0977 322.955 12.5664V13.1055C322.912 13.5703 322.828 13.9883 322.703 14.3594C322.582 14.7305 322.416 15.0469 322.205 15.3086C321.998 15.5703 321.744 15.7715 321.444 15.9121C321.143 16.0488 320.791 16.1172 320.389 16.1172C320.018 16.1172 319.678 16.0371 319.369 15.877C319.065 15.7168 318.801 15.4922 318.578 15.2031C318.36 14.9141 318.19 14.5742 318.069 14.1836C317.951 13.7891 317.893 13.3613 317.893 12.9004ZM318.983 12.7773V12.9004C318.983 13.2168 319.014 13.5137 319.076 13.791C319.143 14.0684 319.244 14.3125 319.381 14.5234C319.518 14.7344 319.692 14.9004 319.903 15.0215C320.113 15.1387 320.365 15.1973 320.658 15.1973C321.018 15.1973 321.313 15.1211 321.543 14.9688C321.778 14.8164 321.965 14.6152 322.106 14.3652C322.246 14.1152 322.356 13.8438 322.434 13.5508V12.1387C322.387 11.9238 322.319 11.7168 322.229 11.5176C322.143 11.3145 322.029 11.1348 321.889 10.9785C321.752 10.8184 321.582 10.6914 321.379 10.5977C321.18 10.5039 320.944 10.457 320.67 10.457C320.373 10.457 320.117 10.5195 319.903 10.6445C319.692 10.7656 319.518 10.9336 319.381 11.1484C319.244 11.3594 319.143 11.6055 319.076 11.8867C319.014 12.1641 318.983 12.4609 318.983 12.7773Z" fill="#323C47"/>
<rect x="340.398" y="9" width="4.12121" height="4" rx="2" fill="black" fill-opacity="0.1"/>
<rect x="348.52" y="9" width="4.41631" height="4" rx="2" fill="black" fill-opacity="0.1"/>
<rect x="356.938" y="9" width="4.25859" height="4" rx="2" fill="black" fill-opacity="0.1"/>
<circle cx="389.191" cy="12" r="11.5" stroke="#CED5DD"/>
<path d="M414.486 11.752V14.875C414.381 15.0312 414.213 15.207 413.982 15.4023C413.752 15.5938 413.434 15.7617 413.027 15.9062C412.625 16.0469 412.105 16.1172 411.469 16.1172C410.949 16.1172 410.471 16.0273 410.033 15.8477C409.6 15.6641 409.223 15.3984 408.902 15.0508C408.586 14.6992 408.34 14.2734 408.164 13.7734C407.992 13.2695 407.906 12.6992 407.906 12.0625V11.4004C407.906 10.7637 407.98 10.1953 408.129 9.69531C408.281 9.19531 408.504 8.77148 408.797 8.42383C409.09 8.07227 409.449 7.80664 409.875 7.62695C410.301 7.44336 410.789 7.35156 411.34 7.35156C411.992 7.35156 412.537 7.46484 412.975 7.69141C413.416 7.91406 413.76 8.22266 414.006 8.61719C414.256 9.01172 414.416 9.46094 414.486 9.96484H413.355C413.305 9.65625 413.203 9.375 413.051 9.12109C412.902 8.86719 412.689 8.66406 412.412 8.51172C412.135 8.35547 411.777 8.27734 411.34 8.27734C410.945 8.27734 410.604 8.34961 410.314 8.49414C410.025 8.63867 409.787 8.8457 409.6 9.11523C409.412 9.38477 409.271 9.71094 409.178 10.0938C409.088 10.4766 409.043 10.9082 409.043 11.3887V12.0625C409.043 12.5547 409.1 12.9941 409.213 13.3809C409.33 13.7676 409.496 14.0977 409.711 14.3711C409.926 14.6406 410.182 14.8457 410.479 14.9863C410.779 15.127 411.111 15.1973 411.475 15.1973C411.877 15.1973 412.203 15.1641 412.453 15.0977C412.703 15.0273 412.898 14.9453 413.039 14.8516C413.18 14.7539 413.287 14.6621 413.361 14.5762V12.666H411.387V11.752H414.486ZM418.948 16.1172C418.507 16.1172 418.106 16.043 417.747 15.8945C417.391 15.7422 417.085 15.5293 416.827 15.2559C416.573 14.9824 416.378 14.6582 416.241 14.2832C416.104 13.9082 416.036 13.498 416.036 13.0527V12.8066C416.036 12.291 416.112 11.832 416.265 11.4297C416.417 11.0234 416.624 10.6797 416.886 10.3984C417.147 10.1172 417.444 9.9043 417.776 9.75977C418.108 9.61523 418.452 9.54297 418.807 9.54297C419.261 9.54297 419.651 9.62109 419.979 9.77734C420.311 9.93359 420.583 10.1523 420.794 10.4336C421.005 10.7109 421.161 11.0391 421.263 11.418C421.364 11.793 421.415 12.2031 421.415 12.6484V13.1348H416.681V12.25H420.331V12.168C420.315 11.8867 420.257 11.6133 420.155 11.3477C420.057 11.082 419.901 10.8633 419.686 10.6914C419.472 10.5195 419.179 10.4336 418.807 10.4336C418.561 10.4336 418.335 10.4863 418.128 10.5918C417.921 10.6934 417.743 10.8457 417.595 11.0488C417.446 11.252 417.331 11.5 417.249 11.793C417.167 12.0859 417.126 12.4238 417.126 12.8066V13.0527C417.126 13.3535 417.167 13.6367 417.249 13.9023C417.335 14.1641 417.458 14.3945 417.618 14.5938C417.782 14.793 417.979 14.9492 418.21 15.0625C418.444 15.1758 418.71 15.2324 419.007 15.2324C419.39 15.2324 419.714 15.1543 419.979 14.998C420.245 14.8418 420.477 14.6328 420.677 14.3711L421.333 14.8926C421.196 15.0996 421.022 15.2969 420.811 15.4844C420.6 15.6719 420.341 15.8242 420.032 15.9414C419.727 16.0586 419.366 16.1172 418.948 16.1172ZM423.885 11.0137V16H422.801V9.66016H423.826L423.885 11.0137ZM423.627 12.5898L423.176 12.5723C423.179 12.1387 423.244 11.7383 423.369 11.3711C423.494 11 423.67 10.6777 423.896 10.4043C424.123 10.1309 424.392 9.91992 424.705 9.77148C425.021 9.61914 425.371 9.54297 425.754 9.54297C426.066 9.54297 426.347 9.58594 426.597 9.67188C426.847 9.75391 427.06 9.88672 427.236 10.0703C427.416 10.2539 427.552 10.4922 427.646 10.7852C427.74 11.0742 427.787 11.4277 427.787 11.8457V16H426.697V11.834C426.697 11.502 426.648 11.2363 426.551 11.0371C426.453 10.834 426.31 10.6875 426.123 10.5977C425.935 10.5039 425.705 10.457 425.431 10.457C425.162 10.457 424.916 10.5137 424.693 10.627C424.474 10.7402 424.285 10.8965 424.125 11.0957C423.969 11.2949 423.845 11.5234 423.756 11.7812C423.67 12.0352 423.627 12.3047 423.627 12.5898ZM432.184 16.1172C431.743 16.1172 431.342 16.043 430.983 15.8945C430.628 15.7422 430.321 15.5293 430.063 15.2559C429.809 14.9824 429.614 14.6582 429.477 14.2832C429.34 13.9082 429.272 13.498 429.272 13.0527V12.8066C429.272 12.291 429.348 11.832 429.501 11.4297C429.653 11.0234 429.86 10.6797 430.122 10.3984C430.383 10.1172 430.68 9.9043 431.012 9.75977C431.344 9.61523 431.688 9.54297 432.044 9.54297C432.497 9.54297 432.887 9.62109 433.215 9.77734C433.548 9.93359 433.819 10.1523 434.03 10.4336C434.241 10.7109 434.397 11.0391 434.499 11.418C434.6 11.793 434.651 12.2031 434.651 12.6484V13.1348H429.917V12.25H433.567V12.168C433.551 11.8867 433.493 11.6133 433.391 11.3477C433.294 11.082 433.137 10.8633 432.923 10.6914C432.708 10.5195 432.415 10.4336 432.044 10.4336C431.798 10.4336 431.571 10.4863 431.364 10.5918C431.157 10.6934 430.979 10.8457 430.831 11.0488C430.682 11.252 430.567 11.5 430.485 11.793C430.403 12.0859 430.362 12.4238 430.362 12.8066V13.0527C430.362 13.3535 430.403 13.6367 430.485 13.9023C430.571 14.1641 430.694 14.3945 430.854 14.5938C431.018 14.793 431.215 14.9492 431.446 15.0625C431.68 15.1758 431.946 15.2324 432.243 15.2324C432.626 15.2324 432.95 15.1543 433.215 14.998C433.481 14.8418 433.714 14.6328 433.913 14.3711L434.569 14.8926C434.432 15.0996 434.258 15.2969 434.048 15.4844C433.837 15.6719 433.577 15.8242 433.268 15.9414C432.964 16.0586 432.602 16.1172 432.184 16.1172ZM437.121 10.6562V16H436.037V9.66016H437.091L437.121 10.6562ZM439.101 9.625L439.095 10.6328C439.005 10.6133 438.919 10.6016 438.837 10.5977C438.759 10.5898 438.669 10.5859 438.568 10.5859C438.318 10.5859 438.097 10.625 437.906 10.7031C437.714 10.7812 437.552 10.8906 437.419 11.0312C437.287 11.1719 437.181 11.3398 437.103 11.5352C437.029 11.7266 436.98 11.9375 436.957 12.168L436.652 12.3438C436.652 11.9609 436.689 11.6016 436.763 11.2656C436.841 10.9297 436.96 10.6328 437.121 10.375C437.281 10.1133 437.484 9.91016 437.73 9.76562C437.98 9.61719 438.277 9.54297 438.621 9.54297C438.699 9.54297 438.789 9.55273 438.89 9.57227C438.992 9.58789 439.062 9.60547 439.101 9.625ZM443.727 14.916V11.6523C443.727 11.4023 443.676 11.1855 443.575 11.002C443.477 10.8145 443.329 10.6699 443.129 10.5684C442.93 10.4668 442.684 10.416 442.391 10.416C442.118 10.416 441.877 10.4629 441.67 10.5566C441.467 10.6504 441.307 10.7734 441.19 10.9258C441.077 11.0781 441.02 11.2422 441.02 11.418H439.936C439.936 11.1914 439.995 10.9668 440.112 10.7441C440.229 10.5215 440.397 10.3203 440.616 10.1406C440.838 9.95703 441.104 9.8125 441.413 9.70703C441.725 9.59766 442.073 9.54297 442.455 9.54297C442.916 9.54297 443.323 9.62109 443.674 9.77734C444.03 9.93359 444.307 10.1699 444.506 10.4863C444.709 10.7988 444.811 11.1914 444.811 11.6641V14.6172C444.811 14.8281 444.829 15.0527 444.864 15.291C444.903 15.5293 444.959 15.7344 445.034 15.9062V16H443.903C443.848 15.875 443.805 15.709 443.774 15.502C443.743 15.291 443.727 15.0957 443.727 14.916ZM443.914 12.1562L443.926 12.918H442.83C442.522 12.918 442.246 12.9434 442.004 12.9941C441.762 13.041 441.559 13.1133 441.395 13.2109C441.231 13.3086 441.106 13.4316 441.02 13.5801C440.934 13.7246 440.891 13.8945 440.891 14.0898C440.891 14.2891 440.936 14.4707 441.026 14.6348C441.116 14.7988 441.25 14.9297 441.43 15.0273C441.614 15.1211 441.838 15.168 442.104 15.168C442.436 15.168 442.729 15.0977 442.983 14.957C443.237 14.8164 443.438 14.6445 443.586 14.4414C443.739 14.2383 443.821 14.041 443.832 13.8496L444.295 14.3711C444.268 14.5352 444.194 14.7168 444.073 14.916C443.952 15.1152 443.789 15.3066 443.586 15.4902C443.387 15.6699 443.149 15.8203 442.871 15.9414C442.598 16.0586 442.289 16.1172 441.946 16.1172C441.516 16.1172 441.139 16.0332 440.815 15.8652C440.495 15.6973 440.245 15.4727 440.065 15.1914C439.889 14.9062 439.801 14.5879 439.801 14.2363C439.801 13.8965 439.868 13.5977 440 13.3398C440.133 13.0781 440.325 12.8613 440.575 12.6895C440.825 12.5137 441.125 12.3809 441.477 12.291C441.829 12.2012 442.221 12.1562 442.655 12.1562H443.914ZM449.29 9.66016V10.4922H445.863V9.66016H449.29ZM447.023 8.11914H448.107V14.4297C448.107 14.6445 448.14 14.8066 448.206 14.916C448.273 15.0254 448.359 15.0977 448.464 15.1328C448.57 15.168 448.683 15.1855 448.804 15.1855C448.894 15.1855 448.988 15.1777 449.085 15.1621C449.187 15.1426 449.263 15.127 449.314 15.1152L449.32 16C449.234 16.0273 449.12 16.0527 448.98 16.0762C448.843 16.1035 448.677 16.1172 448.482 16.1172C448.216 16.1172 447.972 16.0645 447.749 15.959C447.527 15.8535 447.349 15.6777 447.216 15.4316C447.087 15.1816 447.023 14.8457 447.023 14.4238V8.11914ZM451.86 9.66016V16H450.77V9.66016H451.86ZM450.688 7.97852C450.688 7.80273 450.74 7.6543 450.846 7.5332C450.955 7.41211 451.115 7.35156 451.326 7.35156C451.533 7.35156 451.692 7.41211 451.801 7.5332C451.914 7.6543 451.971 7.80273 451.971 7.97852C451.971 8.14648 451.914 8.29102 451.801 8.41211C451.692 8.5293 451.533 8.58789 451.326 8.58789C451.115 8.58789 450.955 8.5293 450.846 8.41211C450.74 8.29102 450.688 8.14648 450.688 7.97852ZM453.433 12.9004V12.7656C453.433 12.3086 453.499 11.8848 453.632 11.4941C453.765 11.0996 453.956 10.7578 454.206 10.4688C454.456 10.1758 454.759 9.94922 455.114 9.78906C455.47 9.625 455.868 9.54297 456.31 9.54297C456.755 9.54297 457.155 9.625 457.511 9.78906C457.87 9.94922 458.175 10.1758 458.425 10.4688C458.679 10.7578 458.872 11.0996 459.005 11.4941C459.138 11.8848 459.204 12.3086 459.204 12.7656V12.9004C459.204 13.3574 459.138 13.7812 459.005 14.1719C458.872 14.5625 458.679 14.9043 458.425 15.1973C458.175 15.4863 457.872 15.7129 457.517 15.877C457.165 16.0371 456.767 16.1172 456.321 16.1172C455.876 16.1172 455.476 16.0371 455.12 15.877C454.765 15.7129 454.46 15.4863 454.206 15.1973C453.956 14.9043 453.765 14.5625 453.632 14.1719C453.499 13.7812 453.433 13.3574 453.433 12.9004ZM454.517 12.7656V12.9004C454.517 13.2168 454.554 13.5156 454.628 13.7969C454.702 14.0742 454.814 14.3203 454.962 14.5352C455.114 14.75 455.304 14.9199 455.53 15.0449C455.757 15.166 456.021 15.2266 456.321 15.2266C456.618 15.2266 456.878 15.166 457.101 15.0449C457.327 14.9199 457.515 14.75 457.663 14.5352C457.812 14.3203 457.923 14.0742 457.997 13.7969C458.075 13.5156 458.114 13.2168 458.114 12.9004V12.7656C458.114 12.4531 458.075 12.1582 457.997 11.8809C457.923 11.5996 457.81 11.3516 457.657 11.1367C457.509 10.918 457.321 10.7461 457.095 10.6211C456.872 10.4961 456.61 10.4336 456.31 10.4336C456.013 10.4336 455.751 10.4961 455.524 10.6211C455.302 10.7461 455.114 10.918 454.962 11.1367C454.814 11.3516 454.702 11.5996 454.628 11.8809C454.554 12.1582 454.517 12.4531 454.517 12.7656ZM461.768 11.0137V16H460.684V9.66016H461.709L461.768 11.0137ZM461.51 12.5898L461.059 12.5723C461.062 12.1387 461.127 11.7383 461.252 11.3711C461.377 11 461.553 10.6777 461.779 10.4043C462.006 10.1309 462.275 9.91992 462.588 9.77148C462.904 9.61914 463.254 9.54297 463.637 9.54297C463.949 9.54297 464.23 9.58594 464.48 9.67188C464.73 9.75391 464.943 9.88672 465.119 10.0703C465.299 10.2539 465.435 10.4922 465.529 10.7852C465.623 11.0742 465.67 11.4277 465.67 11.8457V16H464.58V11.834C464.58 11.502 464.531 11.2363 464.434 11.0371C464.336 10.834 464.193 10.6875 464.006 10.5977C463.818 10.5039 463.588 10.457 463.314 10.457C463.045 10.457 462.799 10.5137 462.576 10.627C462.357 10.7402 462.168 10.8965 462.008 11.0957C461.851 11.2949 461.728 11.5234 461.639 11.7812C461.553 12.0352 461.51 12.3047 461.51 12.5898Z" fill="#323C47"/>
</g>
<defs>
<clipPath id="clip0_3117_23815">
<rect width="466.388" height="24" fill="white" transform="translate(0.804688)"/>
</clipPath>
</defs>
</svg>
