<svg width="20" height="20" viewBox="0 0 20 20" fill="none" xmlns="http://www.w3.org/2000/svg">
<mask id="mask0_3018_22316" style="mask-type:alpha" maskUnits="userSpaceOnUse" x="0" y="0" width="20" height="20">
<rect width="20" height="20" fill="#D9D9D9"/>
</mask>
<g mask="url(#mask0_3018_22316)">
<path d="M4.42439 17.0807C4.00344 17.0807 3.64714 16.9349 3.35547 16.6432C3.0638 16.3515 2.91797 15.9952 2.91797 15.5743V4.42048C2.91797 3.99954 3.0638 3.64323 3.35547 3.35156C3.64714 3.0599 4.00344 2.91406 4.42439 2.91406H15.5782C15.9991 2.91406 16.3554 3.0599 16.6471 3.35156C16.9388 3.64323 17.0846 3.99954 17.0846 4.42048V15.5743C17.0846 15.9952 16.9388 16.3515 16.6471 16.6432C16.3554 16.9349 15.9991 17.0807 15.5782 17.0807H4.42439ZM4.16795 7.21536H15.8346V4.42048C15.8346 4.35637 15.8079 4.2976 15.7545 4.24417C15.7011 4.19075 15.6423 4.16404 15.5782 4.16404H4.42439C4.36027 4.16404 4.3015 4.19075 4.24807 4.24417C4.19466 4.2976 4.16795 4.35637 4.16795 4.42048V7.21536ZM4.16795 11.5294H15.8346V8.46531H4.16795V11.5294ZM4.42439 15.8307H15.5782C15.6423 15.8307 15.7011 15.804 15.7545 15.7506C15.8079 15.6972 15.8346 15.6384 15.8346 15.5743V12.7794H4.16795V15.5743C4.16795 15.6384 4.19466 15.6972 4.24807 15.7506C4.3015 15.804 4.36027 15.8307 4.42439 15.8307ZM6.07361 6.43648C5.85981 6.43648 5.68106 6.36417 5.53736 6.21954C5.39367 6.0749 5.32182 5.89568 5.32182 5.68188C5.32182 5.46807 5.39414 5.28932 5.53876 5.14563C5.6834 5.00193 5.86262 4.93008 6.07643 4.93008C6.29023 4.93008 6.46898 5.0024 6.61268 5.14704C6.75637 5.29167 6.82822 5.47088 6.82822 5.68469C6.82822 5.89849 6.7559 6.07724 6.61126 6.22094C6.46664 6.36463 6.28742 6.43648 6.07361 6.43648ZM6.07361 10.7506C5.85981 10.7506 5.68106 10.6783 5.53736 10.5336C5.39367 10.389 5.32182 10.2098 5.32182 9.99598C5.32182 9.78217 5.39414 9.60342 5.53876 9.45973C5.6834 9.31602 5.86262 9.24417 6.07643 9.24417C6.29023 9.24417 6.46898 9.31649 6.61268 9.46113C6.75637 9.60576 6.82822 9.78498 6.82822 9.99877C6.82822 10.2126 6.7559 10.3913 6.61126 10.535C6.46664 10.6787 6.28742 10.7506 6.07361 10.7506ZM6.07361 15.0647C5.85981 15.0647 5.68106 14.9923 5.53736 14.8477C5.39367 14.7031 5.32182 14.5239 5.32182 14.3101C5.32182 14.0963 5.39414 13.9175 5.53876 13.7738C5.6834 13.6301 5.86262 13.5583 6.07643 13.5583C6.29023 13.5583 6.46898 13.6306 6.61268 13.7752C6.75637 13.9198 6.82822 14.0991 6.82822 14.3129C6.82822 14.5267 6.7559 14.7054 6.61126 14.8491C6.46664 14.9928 6.28742 15.0647 6.07361 15.0647Z" fill="#003366"/>
</g>
</svg>
