<svg width="7" height="8" viewBox="0 0 7 8" fill="none" xmlns="http://www.w3.org/2000/svg">
<g clip-path="url(#clip0_1278_1402)">
<path fill-rule="evenodd" clip-rule="evenodd" d="M4.02864 3.90868L6.72807 1.20956C6.89399 1.04366 6.89451 0.774528 6.72881 0.608851C6.56196 0.442019 6.29414 0.443505 6.12803 0.609589L3.4286 3.30871L0.729173 0.609589C0.563252 0.443688 0.294092 0.443174 0.128396 0.608851C-0.0384547 0.775683 -0.0369688 1.04347 0.129135 1.20956L2.82857 3.90868L0.129135 6.60781C-0.0367857 6.77371 -0.0372994 7.04284 0.128396 7.20851C0.295247 7.37535 0.563069 7.37386 0.729173 7.20778L3.4286 4.50865L6.12803 7.20778C6.29396 7.37368 6.56311 7.37419 6.72881 7.20851C6.89566 7.04168 6.89418 6.77389 6.72807 6.60781L4.02864 3.90868Z" fill="#B0BCC7"/>
</g>
<defs>
<clipPath id="clip0_1278_1402">
<rect width="7" height="7" fill="white" transform="translate(0 0.5)"/>
</clipPath>
</defs>
</svg>
