<svg width="16" height="17" viewBox="0 0 16 17" fill="none" xmlns="http://www.w3.org/2000/svg">
<mask id="mask0_589_14080" style="mask-type:alpha" maskUnits="userSpaceOnUse" x="0" y="0" width="16" height="17">
<rect y="0.5" width="16" height="16" fill="#D9D9D9"/>
</mask>
<g mask="url(#mask0_589_14080)">
<path d="M8.00031 12.3346C9.06512 12.3346 9.97021 11.9619 10.7156 11.2166C11.4609 10.4712 11.8336 9.5661 11.8336 8.50129C11.8336 7.59873 11.5552 6.80109 10.9984 6.10835C10.4415 5.41562 9.7251 4.9684 8.84904 4.76669C8.66613 4.74446 8.50673 4.79254 8.37083 4.91092C8.23494 5.02929 8.16699 5.17992 8.16699 5.36284V8.56539L5.90546 10.8269C5.76956 10.9628 5.7093 11.1212 5.72469 11.3019C5.74007 11.4827 5.82126 11.6278 5.96828 11.7372C6.26485 11.95 6.58783 12.1028 6.93721 12.1955C7.28659 12.2882 7.64095 12.3346 8.00031 12.3346ZM8.00143 14.8346C7.12547 14.8346 6.30211 14.6684 5.53136 14.3359C4.76059 14.0035 4.09014 13.5523 3.51999 12.9824C2.94984 12.4125 2.49846 11.7424 2.16588 10.972C1.83329 10.2015 1.66699 9.37836 1.66699 8.5024C1.66699 7.62645 1.83321 6.80309 2.16566 6.03234C2.4981 5.26157 2.94927 4.59111 3.51916 4.02097C4.08906 3.45081 4.75922 2.99944 5.52964 2.66685C6.30005 2.33426 7.12324 2.16797 7.99919 2.16797C8.87515 2.16797 9.6985 2.33419 10.4693 2.66664C11.24 2.99908 11.9105 3.45025 12.4806 4.02014C13.0508 4.59004 13.5022 5.2602 13.8347 6.03062C14.1673 6.80103 14.3336 7.62421 14.3336 8.50017C14.3336 9.37612 14.1674 10.1995 13.835 10.9702C13.5025 11.741 13.0513 12.4115 12.4815 12.9816C11.9116 13.5518 11.2414 14.0031 10.471 14.3357C9.70056 14.6683 8.87738 14.8346 8.00143 14.8346ZM8.00031 13.8346C9.4892 13.8346 10.7503 13.318 11.7836 12.2846C12.817 11.2513 13.3336 9.99017 13.3336 8.50129C13.3336 7.0124 12.817 5.75129 11.7836 4.71795C10.7503 3.68462 9.4892 3.16795 8.00031 3.16795C6.51142 3.16795 5.25031 3.68462 4.21698 4.71795C3.18364 5.75129 2.66698 7.0124 2.66698 8.50129C2.66698 9.99017 3.18364 11.2513 4.21698 12.2846C5.25031 13.318 6.51142 13.8346 8.00031 13.8346Z" fill="#04995B"/>
</g>
</svg>
