<svg width="17" height="17" viewBox="0 0 17 17" fill="none" xmlns="http://www.w3.org/2000/svg">
<mask id="mask0_547_21980" style="mask-type:alpha" maskUnits="userSpaceOnUse" x="0" y="0" width="17" height="17">
<rect x="0.399902" y="0.5" width="16" height="16" fill="#D9D9D9"/>
</mask>
<g mask="url(#mask0_547_21980)">
<path d="M2.41773 12.0055C2.31431 11.902 2.26538 11.7832 2.27093 11.649C2.27649 11.5149 2.32542 11.4016 2.41773 11.3093L5.78053 7.9029C6.01045 7.66873 6.29507 7.55164 6.63438 7.55164C6.97369 7.55164 7.26044 7.66873 7.49463 7.9029L9.16002 9.57855C9.19847 9.61701 9.24548 9.63624 9.30105 9.63624C9.35661 9.63624 9.40576 9.61701 9.4485 9.57855L13.0434 6.0234H11.5664C11.4245 6.0234 11.3057 5.97554 11.21 5.87982C11.1143 5.7841 11.0664 5.6653 11.0664 5.52342C11.0664 5.38154 11.1143 5.26274 11.21 5.16702C11.3057 5.0713 11.4245 5.02344 11.5664 5.02344H14.1305C14.3023 5.02344 14.4457 5.08092 14.5606 5.19587C14.6756 5.31083 14.7331 5.4542 14.7331 5.62599V8.19009C14.7331 8.33196 14.6852 8.45077 14.5895 8.54649C14.4938 8.64221 14.375 8.69007 14.2331 8.69007C14.0912 8.69007 13.9724 8.64328 13.8767 8.5497C13.781 8.45611 13.7331 8.33838 13.7331 8.1965V6.72595L10.1549 10.3042C9.92497 10.5341 9.64036 10.649 9.30105 10.649C8.96174 10.649 8.67712 10.5341 8.4472 10.3042L6.78183 8.63879C6.74337 8.60032 6.69422 8.58109 6.63438 8.58109C6.57455 8.58109 6.5254 8.60032 6.48693 8.63879L3.12028 12.0055C3.0237 12.102 2.90661 12.1503 2.769 12.1503C2.6314 12.1503 2.51431 12.102 2.41773 12.0055Z" fill="#33A679"/>
</g>
</svg>
