<svg width="16" height="17" viewBox="0 0 16 17" fill="none" xmlns="http://www.w3.org/2000/svg">
<mask id="mask0_574_25554" style="mask-type:alpha" maskUnits="userSpaceOnUse" x="0" y="0" width="16" height="17">
<rect y="0.5" width="16" height="16" fill="#D9D9D9"/>
</mask>
<g mask="url(#mask0_574_25554)">
<path d="M1.81373 4.99455C1.71031 5.09797 1.66137 5.21677 1.66693 5.35096C1.67248 5.48514 1.72142 5.59839 1.81373 5.6907L5.17653 9.0971C5.40645 9.33127 5.69107 9.44836 6.03038 9.44836C6.36969 9.44836 6.65644 9.33127 6.89063 9.0971L8.55601 7.42145C8.59447 7.38299 8.64148 7.36376 8.69705 7.36376C8.7526 7.36376 8.80175 7.38299 8.8445 7.42145L12.4394 10.9766H10.9624C10.8205 10.9766 10.7017 11.0245 10.606 11.1202C10.5103 11.2159 10.4624 11.3347 10.4624 11.4766C10.4624 11.6185 10.5103 11.7373 10.606 11.833C10.7017 11.9287 10.8205 11.9766 10.9624 11.9766H13.5265C13.6983 11.9766 13.8417 11.9191 13.9566 11.8041C14.0716 11.6892 14.1291 11.5458 14.1291 11.374V8.80991C14.1291 8.66804 14.0812 8.54923 13.9855 8.45351C13.8898 8.35779 13.771 8.30993 13.6291 8.30993C13.4872 8.30993 13.3684 8.35672 13.2727 8.4503C13.177 8.54389 13.1291 8.66162 13.1291 8.8035V10.274L9.55088 6.69583C9.32097 6.46592 9.03636 6.35096 8.69705 6.35096C8.35773 6.35096 8.07312 6.46592 7.8432 6.69583L6.17783 8.36121C6.13936 8.39968 6.09021 8.41891 6.03038 8.41891C5.97055 8.41891 5.9214 8.39968 5.88293 8.36121L2.51628 4.99455C2.4197 4.89797 2.30261 4.84968 2.165 4.84968C2.0274 4.84968 1.91031 4.89797 1.81373 4.99455Z" fill="#9F1F0B"/>
</g>
</svg>
