<svg width="16" height="16" viewBox="0 0 16 16" fill="none" xmlns="http://www.w3.org/2000/svg">
<path d="M3.33203 11.3333H2.66536C2.31174 11.3333 1.9726 11.1929 1.72256 10.9428C1.47251 10.6928 1.33203 10.3536 1.33203 10V3.33333C1.33203 2.97971 1.47251 2.64057 1.72256 2.39052C1.9726 2.14048 2.31174 2 2.66536 2H13.332C13.6857 2 14.0248 2.14048 14.2748 2.39052C14.5249 2.64057 14.6654 2.97971 14.6654 3.33333V10C14.6654 10.3536 14.5249 10.6928 14.2748 10.9428C14.0248 11.1929 13.6857 11.3333 13.332 11.3333H12.6654" stroke="#1D2329" stroke-width="1.33333" stroke-linecap="round" stroke-linejoin="round"/>
<path d="M8.0013 10L11.3346 14H4.66797L8.0013 10Z" stroke="#1D2329" stroke-width="1.33333" stroke-linecap="round" stroke-linejoin="round"/>
</svg>
