<svg width="50" height="50" viewBox="0 0 50 50" fill="none" xmlns="http://www.w3.org/2000/svg">
<path fill-rule="evenodd" clip-rule="evenodd" d="M13.4454 6.80469C13.4454 6.59688 13.5274 6.39844 13.6743 6.25234C13.8204 6.10547 14.0196 6.02344 14.2266 6.02344C17.7329 6.02344 31.8469 6.02344 31.8469 6.02344L40.7891 15.9391V28.4023C40.7891 28.4023 40.8172 38.6969 37.893 43.6117C37.7508 43.8375 37.5024 43.9742 37.2352 43.9742C34.2454 43.9766 16.4946 43.9766 11.5321 43.9766C11.2586 43.9766 11.0047 43.8328 10.8633 43.5977C10.7219 43.3625 10.7149 43.0703 10.8438 42.8289C13.268 37.5648 13.4454 28.4023 13.4454 28.4023V6.80469Z" fill="url(#paint0_linear_591_36423)"/>
<path fill-rule="evenodd" clip-rule="evenodd" d="M40.7891 28.418C40.7891 28.418 40.8172 38.7125 37.893 43.6273C37.7508 43.8531 37.5024 43.9898 37.2352 43.9898C34.2454 43.9922 16.4946 43.9922 11.5321 43.9922C11.2586 43.9922 11.0047 43.8477 10.8633 43.6125C10.7219 43.3781 10.7149 43.0859 10.8438 42.8437L10.8743 42.7766C20.4946 43.2289 34.4649 41.5437 36.3047 40.8234C38.2704 40.0539 40.75 32.6695 40.7883 28.5148L40.7891 28.418Z" fill="url(#paint1_linear_591_36423)"/>
<path fill-rule="evenodd" clip-rule="evenodd" d="M40.7898 15.9391C38.418 15.0023 35.907 14.9758 33.3297 15.3742C33.0906 15.4117 32.8477 15.3359 32.6719 15.1687C32.4961 15.0016 32.4086 14.7625 32.4344 14.5219C32.7172 11.6359 32.432 8.8125 31.8477 6.02344C35.6273 8.82891 38.6117 12.132 40.7898 15.9391Z" fill="url(#paint2_linear_591_36423)"/>
<path d="M41.1426 40.625C45.4573 40.625 48.9551 37.1272 48.9551 32.8125C48.9551 28.4978 45.4573 25 41.1426 25C36.8279 25 33.3301 28.4978 33.3301 32.8125C33.3301 37.1272 36.8279 40.625 41.1426 40.625Z" fill="url(#paint3_linear_591_36423)"/>
<path fill-rule="evenodd" clip-rule="evenodd" d="M40.3613 28.9062V36.7188C40.3613 37.15 40.7113 37.5 41.1426 37.5C41.5738 37.5 41.9238 37.15 41.9238 36.7188V28.9062C41.9238 28.475 41.5738 28.125 41.1426 28.125C40.7113 28.125 40.3613 28.475 40.3613 28.9062Z" fill="#347BFA"/>
<path fill-rule="evenodd" clip-rule="evenodd" d="M45.0488 32.0312H37.2363C36.8051 32.0312 36.4551 32.3813 36.4551 32.8125C36.4551 33.2437 36.8051 33.5938 37.2363 33.5938H45.0488C45.4801 33.5938 45.8301 33.2437 45.8301 32.8125C45.8301 32.3813 45.4801 32.0312 45.0488 32.0312Z" fill="#347BFA"/>
<path fill-rule="evenodd" clip-rule="evenodd" d="M13.4453 11.5V22.5773C14.4797 20.7 16.1344 19.2227 18.1422 18.4109C18.6992 18.1859 19.2516 17.9625 19.7438 17.7633C20.0391 17.6445 20.232 17.3578 20.232 17.0391C20.232 16.7211 20.0391 16.4344 19.7438 16.3148C19.2523 16.1164 18.7008 15.8938 18.1445 15.6688C16.1352 14.857 14.4805 13.3789 13.4453 11.5Z" fill="url(#paint4_linear_591_36423)"/>
<path fill-rule="evenodd" clip-rule="evenodd" d="M19.1406 16.8141C19.4359 16.6945 19.6297 16.4078 19.6297 16.0891C19.6297 15.7711 19.4359 15.4844 19.1406 15.3648C18.6492 15.1664 18.0977 14.9437 17.5414 14.7187C15.1844 13.7664 13.3156 11.8977 12.3625 9.54062C12.1367 8.98281 11.9133 8.43047 11.7141 7.9375C11.5945 7.64219 11.3078 7.44922 10.9898 7.44922C10.6711 7.44922 10.3844 7.64219 10.2656 7.9375C10.0664 8.42891 9.84375 8.98047 9.61953 9.53672C8.66719 11.893 6.79844 13.7625 4.44219 14.7156C3.88359 14.9414 3.32969 15.1656 2.83594 15.3648C2.54141 15.4844 2.34766 15.7711 2.34766 16.0891C2.34766 16.4078 2.54141 16.6945 2.83594 16.8133C3.32969 17.0133 3.88359 17.2375 4.44297 17.4633C6.79922 18.4164 8.66797 20.2859 9.61953 22.643C9.84453 23.1984 10.0672 23.7492 10.2648 24.2406C10.3844 24.5359 10.6711 24.7289 10.9898 24.7289C11.3078 24.7289 11.5945 24.5359 11.7141 24.2406C11.9125 23.7484 12.1359 23.1961 12.3609 22.6391C13.3141 20.2828 15.1828 18.4141 17.5391 17.4609C18.0969 17.2359 18.6484 17.0125 19.1406 16.8141Z" fill="url(#paint5_linear_591_36423)"/>
<path fill-rule="evenodd" clip-rule="evenodd" d="M27.5453 30.7391C27.7797 30.6445 27.932 30.418 27.932 30.1656C27.932 29.9133 27.7797 29.6867 27.5453 29.5922C27.5453 29.5922 27.5445 29.5922 27.5445 29.5914C25.3906 28.7211 23.682 27.0133 22.8109 24.8594C22.8102 24.8578 22.8102 24.857 22.8094 24.8555C22.7148 24.6219 22.4883 24.4688 22.2359 24.4688C21.9836 24.4688 21.757 24.6219 21.6625 24.8555C20.7922 27.0094 19.0844 28.7188 16.9297 29.5898C16.9289 29.5906 16.9273 29.5906 16.9266 29.5914C16.6922 29.6859 16.5391 29.9133 16.5391 30.1656C16.5391 30.418 16.6922 30.6453 16.9266 30.7398C16.9281 30.7406 16.9297 30.7414 16.9313 30.7414C19.0844 31.6125 20.7922 33.3211 21.6625 35.475C21.6625 35.4758 21.6625 35.4766 21.6633 35.4773C21.7578 35.7102 21.9844 35.8633 22.2359 35.8633C22.4875 35.8633 22.7141 35.7109 22.8086 35.4773C22.8094 35.4758 22.8094 35.475 22.8102 35.4742C23.6813 33.3195 25.3891 31.6109 27.5438 30.7398C27.5445 30.7398 27.5453 30.7391 27.5453 30.7391Z" fill="url(#paint6_linear_591_36423)"/>
<path fill-rule="evenodd" clip-rule="evenodd" d="M26.8867 29.9359C27.1164 29.8422 27.2672 29.6188 27.2672 29.3703C27.2672 29.1219 27.1164 28.8984 26.8859 28.8055C24.7641 27.9477 23.0797 26.2648 22.2219 24.143C22.2211 24.1414 22.2211 24.1406 22.2203 24.1391C22.1273 23.9086 21.9039 23.7578 21.6555 23.7578C21.407 23.7578 21.1836 23.9086 21.0906 24.1391L21.0898 24.1398C20.2328 26.2617 18.55 27.9453 16.4281 28.8031C16.4266 28.8039 16.4258 28.8047 16.4242 28.8047C16.1937 28.8984 16.043 29.1219 16.043 29.3703C16.043 29.6195 16.1937 29.843 16.4242 29.9359C16.4258 29.9367 16.4273 29.9375 16.4289 29.9383C18.5508 30.7961 20.2328 32.4797 21.0898 34.6016C21.0906 34.6023 21.0906 34.6023 21.0906 34.6031C21.1836 34.8336 21.407 34.9836 21.6555 34.9836C21.9031 34.9836 22.1266 34.8336 22.2195 34.6031C22.2203 34.6023 22.2203 34.6016 22.2211 34.6C23.0789 32.4773 24.7617 30.7945 26.8844 29.9359C26.8852 29.9359 26.8859 29.9359 26.8867 29.9359Z" fill="url(#paint7_linear_591_36423)"/>
<defs>
<linearGradient id="paint0_linear_591_36423" x1="10.752" y1="25" x2="40.7891" y2="25" gradientUnits="userSpaceOnUse">
<stop stop-color="#E9F3FC"/>
<stop offset="1" stop-color="#CADCF0"/>
</linearGradient>
<linearGradient id="paint1_linear_591_36423" x1="10.752" y1="36.2048" x2="40.7891" y2="36.2048" gradientUnits="userSpaceOnUse">
<stop stop-color="#CADCF0"/>
<stop offset="1" stop-color="#A4BBDB"/>
</linearGradient>
<linearGradient id="paint2_linear_591_36423" x1="31.8477" y1="10.981" x2="40.7898" y2="10.981" gradientUnits="userSpaceOnUse">
<stop stop-color="#559AFF"/>
<stop offset="1" stop-color="#2E69EF"/>
</linearGradient>
<linearGradient id="paint3_linear_591_36423" x1="33.4112" y1="24.9372" x2="52.9182" y2="28.559" gradientUnits="userSpaceOnUse">
<stop stop-color="#FAFCFE"/>
<stop offset="1" stop-color="#E9F3FC"/>
</linearGradient>
<linearGradient id="paint4_linear_591_36423" x1="13.4453" y1="17.0389" x2="20.2324" y2="17.0389" gradientUnits="userSpaceOnUse">
<stop stop-color="#CADCF0"/>
<stop offset="1" stop-color="#A4BBDB"/>
</linearGradient>
<linearGradient id="paint5_linear_591_36423" x1="11.0716" y1="7.13543" x2="20.1856" y2="20.4049" gradientUnits="userSpaceOnUse">
<stop stop-color="#FAFCFE"/>
<stop offset="1" stop-color="#E9F3FC"/>
</linearGradient>
<linearGradient id="paint6_linear_591_36423" x1="19.2591" y1="27.1891" x2="25.2126" y2="33.1426" gradientUnits="userSpaceOnUse">
<stop stop-color="#CADCF0"/>
<stop offset="1" stop-color="#A4BBDB"/>
</linearGradient>
<linearGradient id="paint7_linear_591_36423" x1="21.7093" y1="23.5127" x2="27.6721" y2="32.1946" gradientUnits="userSpaceOnUse">
<stop stop-color="#FAFCFE"/>
<stop offset="1" stop-color="#E9F3FC"/>
</linearGradient>
</defs>
</svg>
