<svg width="20" height="20" viewBox="0 0 20 20" fill="none" xmlns="http://www.w3.org/2000/svg">
<mask id="mask0_3046_28492" style="mask-type:alpha" maskUnits="userSpaceOnUse" x="0" y="0" width="20" height="20">
<rect width="20" height="20" fill="#D9D9D9"/>
</mask>
<g mask="url(#mask0_3046_28492)">
<path d="M5.7518 15.5817C5.37647 15.5817 5.06033 15.4522 4.80339 15.1931C4.54644 14.9341 4.41797 14.617 4.41797 14.2419V13.524C4.41797 13.3703 4.46939 13.2416 4.57224 13.1379C4.67509 13.0342 4.80275 12.9824 4.95524 12.9824C5.10774 12.9824 5.23687 13.0342 5.34264 13.1379C5.4484 13.2416 5.50128 13.3703 5.50128 13.524V14.2419C5.50128 14.306 5.52799 14.3648 5.58141 14.4183C5.63484 14.4717 5.69361 14.4984 5.75772 14.4984H14.2448C14.309 14.4984 14.3677 14.4717 14.4212 14.4183C14.4746 14.3648 14.5013 14.306 14.5013 14.2419V13.524C14.5013 13.3703 14.5527 13.2416 14.6556 13.1379C14.7584 13.0342 14.8861 12.9824 15.0386 12.9824C15.191 12.9824 15.3202 13.0342 15.4259 13.1379C15.5317 13.2416 15.5846 13.3703 15.5846 13.524V14.2419C15.5846 14.617 15.455 14.9341 15.1958 15.1931C14.9366 15.4522 14.6193 15.5817 14.244 15.5817H5.7518ZM9.45964 5.48873L7.75291 7.19546C7.64286 7.3055 7.51653 7.36319 7.37391 7.36854C7.23128 7.37388 7.09895 7.31885 6.97693 7.20348C6.86284 7.08809 6.80714 6.95909 6.80982 6.81648C6.81249 6.67385 6.87151 6.54485 6.98689 6.42946L9.53655 3.87981C9.6062 3.81572 9.67944 3.76764 9.75626 3.73558C9.83307 3.70353 9.91613 3.6875 10.0054 3.6875C10.0948 3.6875 10.1778 3.70353 10.2546 3.73558C10.3315 3.76764 10.4019 3.81572 10.466 3.87981L13.0157 6.42946C13.1257 6.5395 13.1834 6.66369 13.1887 6.80204C13.1941 6.94039 13.1397 7.06726 13.0256 7.18265C12.9036 7.29802 12.7726 7.35438 12.6327 7.35171C12.4927 7.34904 12.365 7.29001 12.2497 7.17463L10.5429 5.48873V12.2804C10.5429 12.4342 10.4915 12.5629 10.3887 12.6666C10.2858 12.7702 10.1582 12.8221 10.0057 12.8221C9.85318 12.8221 9.72405 12.7702 9.61828 12.6666C9.51252 12.5629 9.45964 12.4342 9.45964 12.2804V5.48873Z" fill="#323C47"/>
</g>
</svg>
