<svg width="15" height="13" viewBox="0 0 15 13" fill="none" xmlns="http://www.w3.org/2000/svg">
<path opacity="0.3" d="M13.5 0.5H1.5C0.671573 0.5 0 1.17157 0 2V11C0 11.8284 0.671573 12.5 1.5 12.5H13.5C14.3284 12.5 15 11.8284 15 11V2C15 1.17157 14.3284 0.5 13.5 0.5Z" fill="#5798F7"/>
<path opacity="0.3" fill-rule="evenodd" clip-rule="evenodd" d="M1.5 12.5L6.375 5.75L11.25 12.5H1.5Z" fill="#5798F7"/>
<path fill-rule="evenodd" clip-rule="evenodd" d="M6.75 12.5L10.125 8L13.5 12.5H6.75Z" fill="#5798F7"/>
<path opacity="0.3" d="M12.375 5C12.9963 5 13.5 4.49632 13.5 3.875C13.5 3.25368 12.9963 2.75 12.375 2.75C11.7537 2.75 11.25 3.25368 11.25 3.875C11.25 4.49632 11.7537 5 12.375 5Z" fill="#5798F7"/>
</svg>
