<svg width="20" height="20" viewBox="0 0 20 20" fill="none" xmlns="http://www.w3.org/2000/svg">
<g id="upload">
<mask id="mask0_3483_31026" style="mask-type:alpha" maskUnits="userSpaceOnUse" x="0" y="0" width="20" height="20">
<rect id="Bounding box" width="20" height="20" fill="#D9D9D9"/>
</mask>
<g mask="url(#mask0_3483_31026)">
<path id="upload_2" d="M5.7479 15.5817C5.37256 15.5817 5.05642 15.4522 4.79948 15.1931C4.54253 14.9341 4.41406 14.617 4.41406 14.2419V13.524C4.41406 13.3703 4.46549 13.2416 4.56833 13.1379C4.67118 13.0342 4.79885 12.9824 4.95133 12.9824C5.10383 12.9824 5.23297 13.0342 5.33873 13.1379C5.44449 13.2416 5.49737 13.3703 5.49737 13.524V14.2419C5.49737 14.306 5.52408 14.3648 5.5775 14.4183C5.63093 14.4717 5.6897 14.4984 5.75381 14.4984H14.2409C14.305 14.4984 14.3638 14.4717 14.4172 14.4183C14.4707 14.3648 14.4974 14.306 14.4974 14.2419V13.524C14.4974 13.3703 14.5488 13.2416 14.6516 13.1379C14.7545 13.0342 14.8821 12.9824 15.0346 12.9824C15.1871 12.9824 15.3163 13.0342 15.422 13.1379C15.5278 13.2416 15.5807 13.3703 15.5807 13.524V14.2419C15.5807 14.617 15.4511 14.9341 15.1919 15.1931C14.9327 15.4522 14.6154 15.5817 14.2401 15.5817H5.7479ZM9.45573 5.48873L7.749 7.19546C7.63896 7.3055 7.51262 7.36319 7.37 7.36854C7.22737 7.37388 7.09505 7.31885 6.97302 7.20348C6.85894 7.08809 6.80324 6.95909 6.80592 6.81648C6.80858 6.67385 6.8676 6.54485 6.98298 6.42946L9.53265 3.87981C9.6023 3.81572 9.67554 3.76764 9.75235 3.73558C9.82916 3.70353 9.91222 3.6875 10.0015 3.6875C10.0909 3.6875 10.1739 3.70353 10.2507 3.73558C10.3275 3.76764 10.398 3.81572 10.4621 3.87981L13.0118 6.42946C13.1218 6.5395 13.1795 6.66369 13.1848 6.80204C13.1902 6.94039 13.1358 7.06726 13.0217 7.18265C12.8997 7.29802 12.7687 7.35438 12.6288 7.35171C12.4888 7.34904 12.3611 7.29001 12.2457 7.17463L10.539 5.48873V12.2804C10.539 12.4342 10.4876 12.5629 10.3848 12.6666C10.2819 12.7702 10.1543 12.8221 10.0018 12.8221C9.84927 12.8221 9.72014 12.7702 9.61438 12.6666C9.50861 12.5629 9.45573 12.4342 9.45573 12.2804V5.48873Z" fill="#323C47"/>
</g>
</g>
</svg>
