<svg width="20" height="20" viewBox="0 0 20 20" fill="none" xmlns="http://www.w3.org/2000/svg">
<mask id="mask0_832_1747" style="mask-type:alpha" maskUnits="userSpaceOnUse" x="0" y="0" width="20" height="20">
<rect width="20" height="20" fill="#D9D9D9"/>
</mask>
<g mask="url(#mask0_832_1747)">
<path d="M9.99998 9.74343C9.19791 9.74343 8.51129 9.45784 7.9401 8.88668C7.36892 8.3155 7.08333 7.62887 7.08333 6.8268C7.08333 6.02472 7.36892 5.33809 7.9401 4.76693C8.51129 4.19575 9.19791 3.91016 9.99998 3.91016C10.802 3.91016 11.4887 4.19575 12.0599 4.76693C12.631 5.33809 12.9166 6.02472 12.9166 6.8268C12.9166 7.62887 12.631 8.3155 12.0599 8.88668C11.4887 9.45784 10.802 9.74343 9.99998 9.74343ZM3.75 16.0896V14.237C3.75 13.8289 3.86085 13.451 4.08254 13.1032C4.30422 12.7555 4.60042 12.4881 4.97115 12.3012C5.79487 11.8973 6.6258 11.5944 7.46394 11.3925C8.30208 11.1906 9.14742 11.0896 9.99998 11.0896C10.8525 11.0896 11.6979 11.1906 12.536 11.3925C13.3742 11.5944 14.2051 11.8973 15.0288 12.3012C15.3995 12.4881 15.6957 12.7555 15.9174 13.1032C16.1391 13.451 16.25 13.8289 16.25 14.237V16.0896H3.75ZM4.99998 14.8396H15V14.237C15 14.0682 14.9511 13.912 14.8533 13.7683C14.7556 13.6246 14.6228 13.5073 14.4551 13.4165C13.7372 13.0629 13.0051 12.795 12.2589 12.6128C11.5127 12.4307 10.7597 12.3396 9.99998 12.3396C9.24023 12.3396 8.48726 12.4307 7.74106 12.6128C6.99487 12.795 6.2628 13.0629 5.54485 13.4165C5.37712 13.5073 5.24437 13.6246 5.14663 13.7683C5.04886 13.912 4.99998 14.0682 4.99998 14.237V14.8396ZM9.99998 8.49347C10.4583 8.49347 10.8507 8.33028 11.1771 8.00389C11.5035 7.6775 11.6666 7.28514 11.6666 6.8268C11.6666 6.36847 11.5035 5.97611 11.1771 5.64972C10.8507 5.32333 10.4583 5.16014 9.99998 5.16014C9.54165 5.16014 9.14928 5.32333 8.8229 5.64972C8.49651 5.97611 8.33331 6.36847 8.33331 6.8268C8.33331 7.28514 8.49651 7.6775 8.8229 8.00389C9.14928 8.33028 9.54165 8.49347 9.99998 8.49347Z" fill="#323C47"/>
</g>
</svg>
