<svg width="19" height="15" viewBox="0 0 19 15" fill="none" xmlns="http://www.w3.org/2000/svg">
<path d="M8.37082 3.66689C8.37082 3.79967 8.36185 3.93244 8.34391 4.06522C8.35288 4.00242 8.36185 3.93782 8.36903 3.87503C8.33314 4.1316 8.26495 4.381 8.16625 4.61964C8.18958 4.56222 8.2147 4.50481 8.23803 4.44739C8.13933 4.68064 8.01192 4.89775 7.85938 5.0987C7.89706 5.05026 7.93475 5.00181 7.97243 4.95337C7.81451 5.15791 7.63147 5.34093 7.42689 5.49882C7.47535 5.46114 7.5238 5.42346 7.57225 5.38578C7.37126 5.5383 7.15233 5.66569 6.92083 5.76437C6.97826 5.74105 7.03568 5.71593 7.09311 5.6926C6.85443 5.79128 6.60499 5.85947 6.34837 5.89535C6.41118 5.88638 6.47578 5.87741 6.53859 5.87023C6.273 5.90432 6.00741 5.90432 5.74181 5.87023C5.80462 5.8792 5.86923 5.88817 5.93204 5.89535C5.67542 5.85947 5.42597 5.79128 5.1873 5.6926C5.24472 5.71593 5.30215 5.74105 5.35957 5.76437C5.12628 5.66569 4.90914 5.5383 4.70815 5.38578C4.75661 5.42346 4.80506 5.46114 4.85351 5.49882C4.64893 5.34093 4.46589 5.15791 4.30797 4.95337C4.34566 5.00181 4.38334 5.05026 4.42103 5.0987C4.26849 4.89775 4.14108 4.67885 4.04238 4.44739C4.06571 4.50481 4.09083 4.56222 4.11416 4.61964C4.01546 4.381 3.94727 4.1316 3.91138 3.87503C3.92035 3.93782 3.92932 4.00242 3.9365 4.06522C3.9024 3.79967 3.9024 3.53412 3.9365 3.26857C3.92753 3.33137 3.91855 3.39596 3.91138 3.45876C3.94727 3.20218 4.01546 2.95278 4.11416 2.71415C4.09083 2.77156 4.06571 2.82898 4.04238 2.88639C4.14108 2.65314 4.26849 2.43604 4.42103 2.23508C4.38334 2.28353 4.34566 2.33197 4.30797 2.38042C4.46589 2.17587 4.64893 1.99286 4.85351 1.83496C4.80506 1.87264 4.75661 1.91032 4.70815 1.948C4.90914 1.79549 5.12808 1.6681 5.35957 1.56942C5.30215 1.59274 5.24472 1.61786 5.1873 1.64119C5.42597 1.5425 5.67542 1.47432 5.93204 1.43844C5.86923 1.44741 5.80462 1.45638 5.74181 1.46355C6.00741 1.42946 6.273 1.42946 6.53859 1.46355C6.47578 1.45458 6.41118 1.44561 6.34837 1.43844C6.60499 1.47432 6.85443 1.5425 7.09311 1.64119C7.03568 1.61786 6.97826 1.59274 6.92083 1.56942C7.15412 1.6681 7.37126 1.79549 7.57225 1.948C7.5238 1.91032 7.47535 1.87264 7.42689 1.83496C7.63147 1.99286 7.81451 2.17587 7.97243 2.38042C7.93475 2.33197 7.89706 2.28353 7.85938 2.23508C8.01192 2.43604 8.13933 2.65494 8.23803 2.88639C8.2147 2.82898 8.18958 2.77156 8.16625 2.71415C8.26495 2.95278 8.33314 3.20218 8.36903 3.45876C8.36006 3.39596 8.35108 3.33137 8.34391 3.26857C8.36185 3.39955 8.37082 3.53232 8.37082 3.66689C8.37262 4.04189 8.69923 4.40254 9.08864 4.38459C9.47626 4.36665 9.80826 4.06881 9.80646 3.66689C9.80287 2.93484 9.58573 2.18305 9.15504 1.58556C8.90739 1.24107 8.63283 0.961165 8.29545 0.706381C8.00833 0.489277 7.6871 0.331383 7.34973 0.20758C5.96613 -0.301987 4.28285 0.151958 3.34789 1.29131C3.22048 1.44741 3.09665 1.60889 2.99077 1.78293C2.88131 1.96594 2.79517 2.15972 2.71621 2.35709C2.57623 2.69979 2.50983 3.06223 2.47933 3.43005C2.42011 4.16031 2.61212 4.92646 2.99077 5.55265C3.35866 6.1609 3.91496 6.68661 4.56639 6.97908C4.75302 7.06341 4.94503 7.14235 5.14244 7.19798C5.35419 7.25719 5.56954 7.28769 5.78847 7.3146C6.16174 7.35946 6.54039 7.32537 6.90827 7.2518C7.60814 7.11185 8.2793 6.73147 8.7728 6.21832C9.27169 5.69978 9.63777 5.01976 9.74724 4.30385C9.77954 4.09213 9.80646 3.88041 9.80646 3.66689C9.80826 3.2919 9.47447 2.93125 9.08864 2.94919C8.69923 2.96534 8.37262 3.26319 8.37082 3.66689Z" fill="white"/>
<path d="M14.5732 4.84142C14.5732 4.93293 14.566 5.02444 14.5552 5.11415C14.5642 5.05135 14.5732 4.98676 14.5804 4.92396C14.5552 5.09262 14.5122 5.25589 14.4476 5.41199C14.4709 5.35458 14.496 5.29716 14.5194 5.23974C14.4512 5.39943 14.365 5.55015 14.2591 5.68831C14.2968 5.63986 14.3345 5.59142 14.3722 5.54297C14.2663 5.67934 14.1443 5.80134 14.0079 5.90721C14.0564 5.86953 14.1048 5.83185 14.1533 5.79417C14.0151 5.90003 13.8643 5.98615 13.7046 6.05433C13.7621 6.03101 13.8195 6.00589 13.8769 5.98256C13.719 6.04716 13.5557 6.09022 13.3888 6.11534C13.4516 6.10637 13.5162 6.0974 13.579 6.09022C13.3978 6.11354 13.2147 6.11354 13.0317 6.09022C13.0945 6.09919 13.1591 6.10816 13.2219 6.11534C13.0532 6.09022 12.8899 6.04716 12.7338 5.98256C12.7912 6.00589 12.8486 6.03101 12.9061 6.05433C12.7463 5.98615 12.5956 5.90003 12.4574 5.79417C12.5059 5.83185 12.5543 5.86953 12.6028 5.90721C12.4664 5.80134 12.3444 5.67934 12.2385 5.54297C12.2762 5.59142 12.3139 5.63986 12.3515 5.68831C12.2457 5.55015 12.1595 5.39943 12.0913 5.23974C12.1147 5.29716 12.1398 5.35458 12.1631 5.41199C12.0985 5.2541 12.0554 5.09082 12.0303 4.92396C12.0393 4.98676 12.0483 5.05135 12.0554 5.11415C12.0321 4.93293 12.0321 4.74991 12.0554 4.5669C12.0465 4.6297 12.0375 4.69429 12.0303 4.75709C12.0554 4.58843 12.0985 4.42516 12.1631 4.26906C12.1398 4.32647 12.1147 4.38389 12.0913 4.4413C12.1595 4.28162 12.2457 4.1309 12.3515 3.99274C12.3139 4.04119 12.2762 4.08963 12.2385 4.13808C12.3444 4.00171 12.4664 3.8797 12.6028 3.77384C12.5543 3.81152 12.5059 3.8492 12.4574 3.88688C12.5956 3.78102 12.7463 3.6949 12.9061 3.62671C12.8486 3.65004 12.7912 3.67516 12.7338 3.69848C12.8917 3.63389 13.055 3.59083 13.2219 3.56571C13.1591 3.57468 13.0945 3.58365 13.0317 3.59083C13.2129 3.5675 13.396 3.5675 13.579 3.59083C13.5162 3.58186 13.4516 3.57289 13.3888 3.56571C13.5575 3.59083 13.7208 3.63389 13.8769 3.69848C13.8195 3.67516 13.7621 3.65004 13.7046 3.62671C13.8643 3.6949 14.0151 3.78102 14.1533 3.88688C14.1048 3.8492 14.0564 3.81152 14.0079 3.77384C14.1443 3.8797 14.2663 4.00171 14.3722 4.13808C14.3345 4.08963 14.2968 4.04119 14.2591 3.99274C14.365 4.1309 14.4512 4.28162 14.5194 4.4413C14.496 4.38389 14.4709 4.32647 14.4476 4.26906C14.5122 4.42695 14.5552 4.59023 14.5804 4.75709C14.5714 4.69429 14.5624 4.6297 14.5552 4.5669C14.566 4.65841 14.5732 4.74991 14.5732 4.84142C14.575 5.02623 14.6521 5.21821 14.7832 5.34919C14.907 5.473 15.1116 5.56809 15.291 5.55912C15.6786 5.54118 16.0106 5.24333 16.0088 4.84142C16.0052 4.31212 15.8509 3.75949 15.5422 3.32528C15.37 3.08485 15.1851 2.8839 14.9518 2.70268C14.7168 2.52146 14.4727 2.39227 14.1927 2.2882C13.6885 2.09981 13.0963 2.09263 12.5794 2.23617C12.0788 2.37612 11.5907 2.67217 11.2605 3.07767C11.1618 3.19789 11.0649 3.3199 10.9859 3.45267C10.9015 3.59083 10.8405 3.73975 10.7795 3.88867C10.6772 4.13987 10.6306 4.40721 10.609 4.67814C10.566 5.20924 10.7113 5.77443 10.9859 6.22838C11.2515 6.66797 11.6571 7.05732 12.1272 7.27083C12.2744 7.33722 12.4233 7.40182 12.5794 7.44488C12.7356 7.48794 12.8971 7.50947 13.0568 7.52741C13.3314 7.55971 13.6095 7.5328 13.8787 7.48076C14.3884 7.38208 14.8819 7.09859 15.2426 6.72538C15.6068 6.34859 15.8814 5.84979 15.9622 5.32766C15.9873 5.16618 16.0088 5.0029 16.0106 4.83963C16.0124 4.46463 15.6786 4.10398 15.2928 4.12193C14.8998 4.14166 14.5768 4.43951 14.5732 4.84142Z" fill="white"/>
<path d="M10.834 12.2439C10.834 12.4718 10.834 12.6996 10.834 12.9257C10.834 13.159 10.8537 13.403 10.8268 13.6362C10.8358 13.5734 10.8447 13.5089 10.8519 13.4461C10.8429 13.5106 10.8268 13.5716 10.8017 13.6309C10.825 13.5734 10.8501 13.516 10.8734 13.4586C10.8483 13.516 10.8178 13.5699 10.7801 13.6219C10.8178 13.5734 10.8555 13.525 10.8932 13.4766C10.8501 13.5322 10.8017 13.5806 10.746 13.6237C10.7945 13.586 10.8429 13.5483 10.8914 13.5106C10.8411 13.5483 10.7873 13.5788 10.7281 13.6039C10.7855 13.5806 10.8429 13.5555 10.9004 13.5322C10.8394 13.5555 10.7801 13.5716 10.7155 13.5824C10.7783 13.5734 10.8429 13.5645 10.9057 13.5573C10.7981 13.5699 10.6868 13.5645 10.5773 13.5645C10.353 13.5645 10.1287 13.5645 9.90619 13.5645C9.15786 13.5645 8.41133 13.5645 7.663 13.5645C6.75496 13.5645 5.84513 13.5645 4.93709 13.5645C4.15466 13.5645 3.37045 13.5645 2.58802 13.5645C2.21655 13.5645 1.84688 13.5681 1.4754 13.5645C1.43951 13.5645 1.40183 13.5627 1.36594 13.5573C1.42875 13.5663 1.49335 13.5752 1.55616 13.5824C1.49156 13.5734 1.43054 13.5573 1.37132 13.5322C1.42875 13.5555 1.48617 13.5806 1.5436 13.6039C1.48617 13.5788 1.43234 13.5483 1.38029 13.5106C1.42875 13.5483 1.4772 13.586 1.52565 13.6237C1.47002 13.5806 1.42157 13.5322 1.3785 13.4766C1.41618 13.525 1.45387 13.5734 1.49156 13.6219C1.45387 13.5716 1.42336 13.5178 1.39824 13.4586C1.42157 13.516 1.44669 13.5734 1.47002 13.6309C1.44669 13.5699 1.43054 13.5089 1.41977 13.4461C1.42875 13.5089 1.43772 13.5734 1.4449 13.6362C1.42157 13.4317 1.43951 13.2182 1.43951 13.0136C1.43951 12.7678 1.43951 12.522 1.43951 12.2762C1.43951 12.1057 1.44849 11.9371 1.47002 11.7684C1.46105 11.8312 1.45208 11.8958 1.4449 11.9586C1.48797 11.6374 1.57231 11.3252 1.69793 11.0274C1.6746 11.0848 1.64948 11.1422 1.62615 11.1997C1.74638 10.9162 1.90251 10.6506 2.08914 10.4048C2.05145 10.4532 2.01377 10.5017 1.97608 10.5501C2.1681 10.3025 2.39062 10.08 2.63827 9.88805C2.58982 9.92573 2.54137 9.96341 2.49291 10.0011C2.73697 9.81449 3.00436 9.65839 3.2879 9.53818C3.23047 9.5615 3.17305 9.58662 3.11562 9.60995C3.41352 9.48435 3.72577 9.40002 4.04699 9.35696C3.98418 9.36593 3.91958 9.3749 3.85677 9.38208C4.09365 9.35157 4.32873 9.35157 4.56561 9.35157C4.86351 9.35157 5.1614 9.35157 5.46109 9.35157C6.17173 9.35157 6.88237 9.35157 7.59301 9.35157C7.87296 9.35157 8.15291 9.34798 8.43286 9.38387C8.37005 9.3749 8.30545 9.36593 8.24264 9.35875C8.55848 9.40361 8.86535 9.48794 9.15965 9.60995C9.10223 9.58662 9.0448 9.5615 8.98738 9.53818C9.27271 9.66019 9.5401 9.81808 9.78775 10.0065C9.73929 9.9688 9.69084 9.93112 9.64239 9.89344C9.88824 10.0854 10.109 10.3061 10.301 10.5537C10.2633 10.5053 10.2256 10.4568 10.1879 10.4084C10.3728 10.6506 10.5271 10.9144 10.6473 11.1961C10.624 11.1386 10.5989 11.0812 10.5756 11.0238C10.6994 11.3199 10.7855 11.6303 10.8286 11.9496C10.8196 11.8868 10.8106 11.8223 10.8035 11.7595C10.8232 11.9209 10.834 12.0824 10.834 12.2439C10.8358 12.6189 11.1624 12.9795 11.5518 12.9616C11.9394 12.9437 12.2714 12.6458 12.2696 12.2439C12.2678 11.7648 12.1924 11.2732 12.0291 10.8229C11.943 10.5824 11.8389 10.3456 11.7151 10.1231C11.5913 9.90061 11.4405 9.69786 11.2826 9.4987C10.6904 8.75229 9.79492 8.20684 8.86176 8.01665C8.40774 7.92335 7.9591 7.91797 7.4997 7.91797C7.01158 7.91797 6.52526 7.91797 6.03714 7.91797C5.57415 7.91797 5.10936 7.91797 4.64637 7.91797C4.18696 7.91797 3.73115 7.93591 3.28251 8.04536C1.66922 8.4383 0.335867 9.83243 0.0738635 11.4813C-0.0104802 12.0178 0.00387622 12.5507 0.00387622 13.0926C0.00387622 13.2648 -0.00689106 13.4407 0.00746531 13.6129C0.0361781 13.9682 0.163591 14.2696 0.400471 14.5388C0.579926 14.7415 0.86167 14.9066 1.12906 14.9604C1.3462 15.0035 1.54898 14.9999 1.76792 14.9999C2.06581 14.9999 2.3655 14.9999 2.66339 14.9999C3.6163 14.9999 4.56741 14.9999 5.52031 14.9999C6.56653 14.9999 7.61275 14.9999 8.65898 14.9999C9.31937 14.9999 9.98156 14.9999 10.6419 14.9999C10.694 14.9999 10.746 14.9999 10.7981 14.9999C11.1929 14.9981 11.5984 14.842 11.8676 14.5459C12.1099 14.2804 12.2391 13.97 12.2678 13.6129C12.2732 13.5519 12.2714 13.4909 12.2714 13.4281C12.2714 13.1877 12.2714 12.9473 12.2714 12.7068C12.2714 12.5525 12.2714 12.3982 12.2714 12.2439C12.2714 11.8689 11.9412 11.5083 11.5536 11.5262C11.1624 11.5424 10.834 11.8402 10.834 12.2439Z" fill="white"/>
<path d="M16.6208 11.3027C16.6208 11.5108 16.6208 11.719 16.6208 11.9271C16.6208 12.137 16.6352 12.3541 16.6173 12.564C16.6262 12.5012 16.6352 12.4367 16.6424 12.3739C16.637 12.4133 16.628 12.451 16.6137 12.4887C16.637 12.4313 16.6621 12.3739 16.6855 12.3164C16.6693 12.3523 16.6514 12.3846 16.628 12.4169C16.6657 12.3685 16.7034 12.32 16.7411 12.2716C16.716 12.3021 16.6908 12.329 16.6603 12.3523C16.7088 12.3146 16.7572 12.277 16.8057 12.2393C16.7734 12.2626 16.7411 12.2806 16.7052 12.2967C16.7626 12.2734 16.82 12.2483 16.8775 12.2249C16.8398 12.2393 16.8021 12.2483 16.7626 12.2536C16.8254 12.2447 16.89 12.2357 16.9528 12.2285C16.7662 12.2447 16.5742 12.2321 16.3876 12.2321C15.9605 12.2321 15.5351 12.2321 15.108 12.2321C14.1444 12.2321 13.1825 12.2321 12.2188 12.2321C11.9963 12.2321 11.7738 12.2321 11.5495 12.2321C11.7881 12.4707 12.0286 12.7112 12.2673 12.9498C12.2673 12.5928 12.2852 12.2303 12.2493 11.8751C12.1722 11.1161 11.9281 10.3715 11.4741 9.75066C11.3377 9.56586 11.1941 9.38284 11.0344 9.21777C10.8657 9.04552 10.6809 8.8984 10.4889 8.75127C10.5373 9.12627 10.5858 9.50306 10.6342 9.87806C10.6773 9.84038 10.7204 9.80449 10.7652 9.7704C10.7168 9.80808 10.6683 9.84576 10.6199 9.88344C10.794 9.75066 10.9824 9.64121 11.1834 9.55509C11.1259 9.57842 11.0685 9.60354 11.0111 9.62686C11.2175 9.54074 11.4328 9.48153 11.6535 9.44923C11.5907 9.4582 11.5261 9.46717 11.4633 9.47435C11.6553 9.44923 11.8456 9.44923 12.0394 9.44923C12.2888 9.44923 12.5383 9.44923 12.7877 9.44923C13.3602 9.44923 13.9308 9.44923 14.5033 9.44923C14.7097 9.44923 14.9142 9.44564 15.1206 9.47256C15.0578 9.46358 14.9932 9.45461 14.9304 9.44744C15.1547 9.47973 15.3718 9.53894 15.5818 9.62507C15.5244 9.60174 15.467 9.57662 15.4095 9.5533C15.6123 9.64122 15.8043 9.75246 15.9784 9.88703C15.9299 9.84935 15.8815 9.81167 15.833 9.77399C16.0071 9.90856 16.1614 10.0647 16.296 10.2369C16.2584 10.1885 16.2207 10.14 16.183 10.0916C16.3176 10.2674 16.4288 10.4576 16.5168 10.6603C16.4934 10.6029 16.4683 10.5455 16.445 10.4881C16.5329 10.6962 16.5921 10.9151 16.6226 11.1394C16.6137 11.0766 16.6047 11.012 16.5975 10.9492C16.6137 11.0694 16.6208 11.1861 16.6208 11.3027C16.6208 11.4875 16.6998 11.6795 16.8308 11.8105C16.9546 11.9343 17.1592 12.0294 17.3387 12.0204C17.7263 12.0024 18.0583 11.7046 18.0565 11.3027C18.0529 10.3751 17.6509 9.44026 16.9385 8.8356C16.5688 8.5216 16.1561 8.28476 15.6895 8.1466C15.3808 8.0551 15.0506 8.01562 14.7294 8.01562C13.8285 8.01562 12.9277 8.01562 12.0286 8.01562C11.7738 8.01562 11.5261 8.02818 11.2713 8.06586C10.6522 8.15737 10.0869 8.45701 9.61853 8.8643C9.44984 9.01143 9.39242 9.25545 9.42113 9.46717C9.42472 9.56227 9.45343 9.65198 9.50547 9.73452C9.57008 9.84217 9.65442 9.9283 9.76389 9.99289C9.77107 9.99827 9.77824 10.0037 9.78542 10.009C9.73697 9.97136 9.68852 9.93368 9.64006 9.896C9.88592 10.088 10.1066 10.3087 10.2987 10.5563C10.261 10.5078 10.2233 10.4594 10.1856 10.4109C10.3704 10.6532 10.5248 10.9169 10.645 11.1986C10.6217 11.1412 10.5966 11.0838 10.5732 11.0264C10.6971 11.3224 10.7832 11.6328 10.8263 11.9522C10.8173 11.8894 10.8083 11.8248 10.8011 11.762C10.8514 12.1532 10.8334 12.5533 10.8334 12.948C10.8334 13.3356 11.1618 13.6657 11.5513 13.6657C11.8384 13.6657 12.1273 13.6657 12.4144 13.6657C13.0461 13.6657 13.6778 13.6657 14.3077 13.6657C14.9232 13.6657 15.5369 13.6657 16.1525 13.6657C16.3445 13.6657 16.5365 13.6657 16.7285 13.6657C16.9403 13.6657 17.1413 13.6567 17.3441 13.5724C17.7765 13.3894 18.0439 12.9821 18.0565 12.512C18.0583 12.4241 18.0565 12.3344 18.0565 12.2447C18.0565 11.9504 18.0565 11.6562 18.0565 11.3619C18.0565 11.3404 18.0565 11.3206 18.0565 11.2991C18.0565 10.9241 17.7263 10.5635 17.3387 10.5814C16.9493 10.6029 16.6208 10.9008 16.6208 11.3027Z" fill="white"/>
</svg>
