<svg width="15" height="14" viewBox="0 0 15 14" fill="none" xmlns="http://www.w3.org/2000/svg">
<g clip-path="url(#clip0_2790_19799)">
<path d="M7.58086 13.9844C11.4484 13.9844 14.5836 10.8504 14.5836 6.98438C14.5836 3.11838 11.4484 -0.015625 7.58086 -0.015625C3.71336 -0.015625 0.578125 3.11838 0.578125 6.98438C0.578125 10.8504 3.71336 13.9844 7.58086 13.9844Z" fill="#FFBB33"/>
<path fill-rule="evenodd" clip-rule="evenodd" d="M6.88281 8.70692V3.01244C6.88281 2.62695 7.19953 2.3125 7.58303 2.3125C7.96653 2.3125 8.28336 2.6291 8.28336 3.01244V8.70692C8.28336 9.09026 7.96879 9.40686 7.58314 9.40686C7.19749 9.40686 6.88281 9.09241 6.88281 8.70692Z" fill="white"/>
<path d="M8.28331 10.9563C8.28331 10.5697 7.9698 10.2563 7.58306 10.2563C7.19633 10.2563 6.88281 10.5697 6.88281 10.9563C6.88281 11.3429 7.19633 11.6563 7.58306 11.6563C7.9698 11.6563 8.28331 11.3429 8.28331 10.9563Z" fill="white"/>
</g>
<defs>
<clipPath id="clip0_2790_19799">
<rect width="14.0055" height="14" fill="white" transform="translate(0.582031)"/>
</clipPath>
</defs>
</svg>
