<svg width="20" height="20" viewBox="0 0 20 20" fill="none" xmlns="http://www.w3.org/2000/svg">
<mask id="mask0_1560_20064" style="mask-type:alpha" maskUnits="userSpaceOnUse" x="0" y="0" width="20" height="20">
<rect width="20" height="20" fill="#D9D9D9"/>
</mask>
<g mask="url(#mask0_1560_20064)">
<path d="M9.99998 9.74733C9.19791 9.74733 8.51129 9.46175 7.9401 8.89058C7.36892 8.3194 7.08333 7.63278 7.08333 6.83071C7.08333 6.02863 7.36892 5.342 7.9401 4.77083C8.51129 4.19965 9.19791 3.91406 9.99998 3.91406C10.802 3.91406 11.4887 4.19965 12.0599 4.77083C12.631 5.342 12.9166 6.02863 12.9166 6.83071C12.9166 7.63278 12.631 8.3194 12.0599 8.89058C11.4887 9.46175 10.802 9.74733 9.99998 9.74733ZM3.75 16.0935V14.2409C3.75 13.8328 3.86085 13.4549 4.08254 13.1071C4.30422 12.7594 4.60042 12.492 4.97115 12.3051C5.79487 11.9012 6.6258 11.5983 7.46394 11.3964C8.30208 11.1945 9.14742 11.0935 9.99998 11.0935C10.8525 11.0935 11.6979 11.1945 12.536 11.3964C13.3742 11.5983 14.2051 11.9012 15.0288 12.3051C15.3995 12.492 15.6957 12.7594 15.9174 13.1071C16.1391 13.4549 16.25 13.8328 16.25 14.2409V16.0935H3.75ZM4.99998 14.8435H15V14.2409C15 14.0721 14.9511 13.9159 14.8533 13.7722C14.7556 13.6285 14.6228 13.5112 14.4551 13.4204C13.7372 13.0668 13.0051 12.7989 12.2589 12.6167C11.5127 12.4346 10.7597 12.3435 9.99998 12.3435C9.24023 12.3435 8.48726 12.4346 7.74106 12.6167C6.99487 12.7989 6.2628 13.0668 5.54485 13.4204C5.37712 13.5112 5.24437 13.6285 5.14663 13.7722C5.04886 13.9159 4.99998 14.0721 4.99998 14.2409V14.8435ZM9.99998 8.49738C10.4583 8.49738 10.8507 8.33418 11.1771 8.00779C11.5035 7.6814 11.6666 7.28904 11.6666 6.83071C11.6666 6.37238 11.5035 5.98001 11.1771 5.65363C10.8507 5.32724 10.4583 5.16404 9.99998 5.16404C9.54165 5.16404 9.14928 5.32724 8.8229 5.65363C8.49651 5.98001 8.33331 6.37238 8.33331 6.83071C8.33331 7.28904 8.49651 7.6814 8.8229 8.00779C9.14928 8.33418 9.54165 8.49738 9.99998 8.49738Z" fill="#93A2B2"/>
</g>
</svg>
