<svg width="16" height="16" viewBox="0 0 16 16" fill="none" xmlns="http://www.w3.org/2000/svg">
<g clip-path="url(#clip0_2574_19778)">
<path d="M11.1444 3.66695V4.504H9.90653V11H8.99874C8.76295 10.5284 8.43677 10.0961 8.02021 9.70316C7.61151 9.30232 7.13993 8.96435 6.60547 8.68926C6.07102 8.41418 5.50119 8.22947 4.896 8.13516L4.43621 7.00337C5.19074 6.54751 5.96884 6.13488 6.77053 5.76547C7.58007 5.39607 8.41319 5.08168 9.26989 4.82232L8.99874 5.31747V4.504H3.88211V3.66695H11.1444ZM8.99874 5.41179L9.24632 5.74189C8.64898 5.93839 8.02021 6.18203 7.36 6.47284C6.69979 6.75579 6.09067 7.07018 5.53263 7.416C5.95705 7.51032 6.40898 7.67144 6.88842 7.89937C7.36786 8.1273 7.81193 8.41418 8.22063 8.76C8.62933 9.10582 8.94372 9.50667 9.16379 9.96253H9.05768C9.04197 9.78175 9.02625 9.60098 9.01053 9.42021C9.00267 9.23944 8.99874 9.0233 8.99874 8.77179V5.41179Z" fill="#0074D6"/>
</g>
<defs>
<clipPath id="clip0_2574_19778">
<rect width="16" height="16" fill="white"/>
</clipPath>
</defs>
</svg>
