<svg width="16" height="16" viewBox="0 0 16 16" fill="none" xmlns="http://www.w3.org/2000/svg">
<g clip-path="url(#clip0_2574_19767)">
<path d="M9.00147 7H10.0017V7.3785C10.3406 7.15211 10.7347 7.02199 11.1418 7.00203C11.5489 6.98207 11.9538 7.07302 12.3132 7.26517C12.6727 7.45733 12.9732 7.74346 13.1826 8.09304C13.3921 8.44261 13.5027 8.8425 13.5026 9.25V12H12.5023V9.25C12.5023 8.535 11.9147 8 11.252 8C10.5894 8 10.0017 8.535 10.0017 9.25V12H9.00147V7ZM8.00122 4V5H4.00024V7.5H8.00122V8.5H4.00024V11H8.00122V12H3V4H8.00122Z" fill="#0074D6"/>
</g>
<defs>
<clipPath id="clip0_2574_19767">
<rect width="16" height="16" fill="white"/>
</clipPath>
</defs>
</svg>
