<svg width="16" height="16" viewBox="0 0 16 16" fill="none" xmlns="http://www.w3.org/2000/svg">
<g clip-path="url(#clip0_2574_19790)">
<path d="M5.94 9.508C5.59467 9.508 5.25867 9.452 4.932 9.34C4.61467 9.21867 4.30667 9.032 4.008 8.78C3.71867 8.51867 3.434 8.178 3.154 7.758L4.036 7.156C4.35333 7.632 4.652 7.97267 4.932 8.178C5.212 8.38333 5.52933 8.486 5.884 8.486C6.26667 8.486 6.57933 8.34133 6.822 8.052C7.06467 7.76267 7.186 7.28667 7.186 6.624C7.186 5.90533 7.046 5.38733 6.766 5.07C6.49533 4.74333 6.11733 4.58 5.632 4.58C5.34267 4.58 5.06733 4.61733 4.806 4.692C4.54467 4.75733 4.31133 4.846 4.106 4.958L3.756 4.02C4.064 3.86133 4.386 3.74467 4.722 3.67C5.06733 3.59533 5.38933 3.558 5.688 3.558C6.21067 3.558 6.668 3.67 7.06 3.894C7.452 4.10867 7.76 4.44467 7.984 4.902C8.208 5.35 8.32 5.92867 8.32 6.638C8.32 7.23533 8.24533 7.72067 8.096 8.094C7.956 8.46733 7.76933 8.75667 7.536 8.962C7.30267 9.16733 7.046 9.312 6.766 9.396C6.486 9.47067 6.21067 9.508 5.94 9.508ZM11.778 12C11.3767 12 11.0407 11.958 10.77 11.874C10.5087 11.7807 10.2987 11.65 10.14 11.482C9.99067 11.3233 9.87867 11.1273 9.804 10.894C9.73867 10.6607 9.706 10.3387 9.706 9.928V3.558L10.826 3.712V9.872C10.826 10.124 10.84 10.3107 10.868 10.432C10.896 10.544 10.938 10.6373 10.994 10.712C11.0967 10.8427 11.246 10.922 11.442 10.95C11.6473 10.9687 11.848 10.978 12.044 10.978L11.932 12H11.778Z" fill="#0074D6"/>
</g>
<defs>
<clipPath id="clip0_2574_19790">
<rect width="16" height="16" fill="white"/>
</clipPath>
</defs>
</svg>
