<svg width="16" height="16" viewBox="0 0 16 16" fill="none" xmlns="http://www.w3.org/2000/svg">
<g clip-path="url(#clip0_2214_27609)">
<path d="M12.4454 4H9.94546C9.81285 4 9.68568 4.05268 9.59191 4.14645C9.49814 4.24021 9.44546 4.36739 9.44546 4.5C9.44546 4.63261 9.49814 4.75979 9.59191 4.85355C9.68568 4.94732 9.81285 5 9.94546 5H10.6955V8H8.22051C8.55123 7.56972 8.7314 7.04269 8.7333 6.5C8.73329 5.94967 8.55169 5.41472 8.21667 4.97812C7.88166 4.54152 7.41194 4.22766 6.88036 4.08523C6.34879 3.94279 5.78508 3.97974 5.27664 4.19033C4.76821 4.40093 4.34347 4.77341 4.0683 5.25C4.03507 5.30686 4.0134 5.36973 4.00454 5.43499C3.99568 5.50025 3.99981 5.56662 4.01668 5.63028C4.03355 5.69394 4.06284 5.75364 4.10286 5.80595C4.14288 5.85826 4.19283 5.90214 4.24986 5.93508C4.3069 5.96802 4.36987 5.98936 4.43518 5.99789C4.50048 6.00641 4.56683 6.00194 4.6304 5.98474C4.69398 5.96754 4.75352 5.93795 4.80563 5.89767C4.85773 5.85738 4.90135 5.8072 4.934 5.75C5.06563 5.52194 5.25498 5.33254 5.48301 5.20085C5.71104 5.06916 5.96972 4.99982 6.23304 4.99979C6.49637 4.99976 6.75506 5.06905 6.98312 5.20069C7.21118 5.33233 7.40057 5.52168 7.53225 5.74972C7.66394 5.97775 7.73328 6.23643 7.7333 6.49976C7.73333 6.76308 7.66403 7.02178 7.53239 7.24984C7.40075 7.4779 7.21139 7.66728 6.98336 7.79896C6.75532 7.93065 6.49664 7.99998 6.23332 8C6.10071 8 5.97354 8.05268 5.87977 8.14645C5.786 8.24021 5.73332 8.36739 5.73332 8.5C5.73332 8.63261 5.786 8.75979 5.87977 8.85355C5.97354 8.94732 6.10071 9 6.23332 9C6.49661 9.00005 6.75525 9.0694 6.98324 9.20109C7.21124 9.33277 7.40055 9.52215 7.53216 9.75019C7.66378 9.97823 7.73305 10.2369 7.73302 10.5002C7.73298 10.7635 7.66365 11.0221 7.53198 11.2501C7.40031 11.4781 7.21095 11.6675 6.98293 11.7991C6.7549 11.9307 6.49624 12 6.23295 12C5.96966 12 5.71101 11.9307 5.483 11.799C5.25499 11.6674 5.06564 11.478 4.934 11.25C4.86748 11.1356 4.75833 11.0523 4.63047 11.0182C4.50261 10.9842 4.36647 11.0023 4.25189 11.0684C4.13731 11.1346 4.05365 11.2435 4.01923 11.3713C3.98481 11.499 4.00245 11.6352 4.06829 11.75C4.34345 12.2266 4.76819 12.5991 5.27663 12.8097C5.78507 13.0203 6.34879 13.0572 6.88036 12.9148C7.41194 12.7724 7.88166 12.4585 8.21668 12.0219C8.5517 11.5853 8.73329 11.0503 8.7333 10.5C8.7314 9.95731 8.55123 9.43028 8.22051 9H10.6955V12.5C10.6955 12.6326 10.7481 12.7598 10.8419 12.8536C10.9357 12.9473 11.0628 13 11.1954 13C11.3281 13 11.4552 12.9473 11.549 12.8536C11.6428 12.7598 11.6954 12.6326 11.6954 12.5V5H12.4454C12.578 5 12.7052 4.94732 12.799 4.85355C12.8928 4.75979 12.9454 4.63261 12.9454 4.5C12.9454 4.36739 12.8928 4.24021 12.799 4.14645C12.7052 4.05268 12.578 4 12.4454 4Z" fill="#0074D6"/>
</g>
<defs>
<clipPath id="clip0_2214_27609">
<rect width="16" height="16" fill="white"/>
</clipPath>
</defs>
</svg>
