<svg width="16" height="16" viewBox="0 0 16 16" fill="none" xmlns="http://www.w3.org/2000/svg">
<g clip-path="url(#clip0_2574_19793)">
<path d="M6.962 10.866C6.30867 10.866 5.744 10.7587 5.268 10.544C4.80133 10.3293 4.442 10.0307 4.19 9.648C3.938 9.256 3.812 8.80333 3.812 8.29C3.812 7.99133 3.85867 7.71133 3.952 7.45C4.05467 7.18867 4.204 6.95533 4.4 6.75C4.596 6.53533 4.83867 6.35333 5.128 6.204L5.324 6.4L3.504 6.414V5.448H6.416C6.51867 5.37333 6.60267 5.28 6.668 5.168C6.74267 5.04667 6.78 4.91133 6.78 4.762C6.78 4.63133 6.75667 4.50533 6.71 4.384C6.67267 4.26267 6.61667 4.15067 6.542 4.048L7.172 3.88L7.662 4.048C7.73667 4.16933 7.79267 4.29533 7.83 4.426C7.86733 4.55667 7.886 4.67333 7.886 4.776C7.886 4.92533 7.86733 5.056 7.83 5.168C7.802 5.27067 7.76 5.364 7.704 5.448H10.546V6.414L8.67 6.386L8.88 6.246C9.15067 6.34867 9.384 6.498 9.58 6.694C9.78533 6.89 9.944 7.12333 10.056 7.394C10.168 7.65533 10.224 7.94467 10.224 8.262C10.224 8.77533 10.1027 9.228 9.86 9.62C9.61733 10.012 9.25333 10.32 8.768 10.544C8.292 10.7587 7.69 10.866 6.962 10.866ZM7.018 9.774C7.76467 9.774 8.29667 9.61533 8.614 9.298C8.94067 8.97133 9.104 8.57933 9.104 8.122C9.104 7.77667 9.02467 7.478 8.866 7.226C8.70733 6.96467 8.474 6.764 8.166 6.624C7.858 6.484 7.47533 6.414 7.018 6.414C6.55133 6.414 6.15933 6.48867 5.842 6.638C5.534 6.778 5.30533 6.97867 5.156 7.24C5.00667 7.492 4.932 7.786 4.932 8.122C4.932 8.61667 5.10467 9.018 5.45 9.326C5.79533 9.62467 6.318 9.774 7.018 9.774ZM3.504 4.062V2.984H7.676C8.18 2.984 8.53467 2.96067 8.74 2.914C8.94533 2.86733 9.09467 2.80667 9.188 2.732C9.30933 2.63867 9.38867 2.536 9.426 2.424C9.47267 2.30267 9.496 2.17667 9.496 2.046C9.496 1.738 9.42133 1.43933 9.272 1.15C9.12267 0.851333 8.894 0.547999 8.586 0.24L9.496 -0.362C9.93467 0.123333 10.2333 0.562 10.392 0.954C10.5507 1.33667 10.63 1.72867 10.63 2.13C10.63 2.30733 10.5927 2.52667 10.518 2.788C10.4527 3.04 10.2987 3.26867 10.056 3.474C9.82267 3.67933 9.54267 3.82867 9.216 3.922C8.89867 4.01533 8.46933 4.062 7.928 4.062H3.504Z" fill="#0074D6"/>
</g>
<defs>
<clipPath id="clip0_2574_19793">
<rect width="16" height="16" fill="white"/>
</clipPath>
</defs>
</svg>
