<svg width="16" height="16" viewBox="0 0 16 16" fill="none" xmlns="http://www.w3.org/2000/svg">
<g clip-path="url(#clip0_2574_19796)">
<path d="M6.956 3.152C7.69333 3.152 8.32333 3.24067 8.846 3.418C9.378 3.586 9.81667 3.83333 10.162 4.16C10.4233 4.39333 10.6333 4.65933 10.792 4.958C10.96 5.25667 11.0813 5.602 11.156 5.994C11.24 6.386 11.282 6.83867 11.282 7.352V11.076H2.84V7.324C2.84 6.83867 2.87733 6.40467 2.952 6.022C3.036 5.63 3.15733 5.28467 3.316 4.986C3.484 4.678 3.68933 4.40733 3.932 4.174C4.27733 3.84733 4.69267 3.59533 5.178 3.418C5.67267 3.24067 6.26533 3.152 6.956 3.152ZM6.298 4.146C5.906 4.146 5.56067 4.244 5.262 4.44C4.96333 4.636 4.72067 4.89733 4.534 5.224C4.38467 5.48533 4.26333 5.80733 4.17 6.19C4.086 6.56333 4.044 7.03 4.044 7.59V10.124H4.114C4.74867 9.648 5.31333 9.14867 5.808 8.626C6.30267 8.10333 6.69 7.57133 6.97 7.03C7.25933 6.48867 7.404 5.96133 7.404 5.448C7.404 5.18667 7.362 4.96267 7.278 4.776C7.20333 4.58 7.08667 4.426 6.928 4.314C6.76933 4.202 6.55933 4.146 6.298 4.146ZM8.608 5.574C8.608 6.12467 8.482 6.666 8.23 7.198C7.978 7.73 7.61867 8.26667 7.152 8.808C6.68533 9.34 6.13 9.886 5.486 10.446L5.458 10.166C5.72867 10.1473 5.99467 10.1333 6.256 10.124C6.51733 10.1053 6.77867 10.096 7.04 10.096H10.078V7.59C10.078 6.89933 10.008 6.32533 9.868 5.868C9.73733 5.41067 9.518 5.04667 9.21 4.776C8.902 4.496 8.496 4.29067 7.992 4.16L8.02 4.062C8.19733 4.26733 8.33733 4.48667 8.44 4.72C8.552 4.944 8.608 5.22867 8.608 5.574Z" fill="#0074D6"/>
</g>
<defs>
<clipPath id="clip0_2574_19796">
<rect width="16" height="16" fill="white"/>
</clipPath>
</defs>
</svg>
