<svg width="16" height="16" viewBox="0 0 16 16" fill="none" xmlns="http://www.w3.org/2000/svg">
<path d="M3.84889 6.99824V6.26787H4.44829C4.54568 5.92871 4.68503 5.62481 4.86637 5.35617C5.05106 5.08417 5.27437 4.85415 5.53629 4.6661C5.79822 4.47469 6.09876 4.32862 6.43792 4.22788C6.77708 4.12378 7.1515 4.07173 7.56117 4.07173C7.88354 4.07173 8.20088 4.1221 8.51317 4.22284C8.82882 4.32358 9.11593 4.46965 9.3745 4.66106C9.63643 4.84911 9.85973 5.07913 10.0444 5.35113C10.2325 5.61977 10.3601 5.92535 10.4272 6.26787H11.6563V6.99824H10.4675C10.4507 7.21651 10.4054 7.41967 10.3315 7.60772C10.2577 7.79577 10.1636 7.9687 10.0495 8.12653C9.93529 8.281 9.80265 8.42036 9.65154 8.5446C9.50378 8.66885 9.34428 8.77631 9.17302 8.86697C9.33756 8.98115 9.46853 9.10203 9.56591 9.22964C9.66329 9.35389 9.73717 9.47813 9.78754 9.60238C9.84126 9.72662 9.87652 9.84751 9.89331 9.96504C9.9101 10.0826 9.9185 10.1884 9.9185 10.2824C9.9185 10.5409 9.86477 10.7827 9.75731 11.0077C9.65322 11.2293 9.50546 11.4224 9.31406 11.587C9.12265 11.7481 8.8943 11.8758 8.62902 11.9698C8.3671 12.0604 8.07831 12.1058 7.76265 12.1058C7.32947 12.1058 6.9433 12.0369 6.60414 11.8993C6.26498 11.7582 5.96612 11.5702 5.70755 11.3351C5.44898 11.1001 5.22903 10.8297 5.0477 10.5242C4.86637 10.2152 4.71861 9.89117 4.60444 9.55201C4.49027 9.20949 4.40632 8.86362 4.35259 8.51438C4.30222 8.16515 4.27704 7.83271 4.27704 7.51705C4.27704 7.42974 4.27872 7.34411 4.28207 7.26016C4.28543 7.17286 4.29215 7.08555 4.30222 6.99824H3.84889ZM7.70221 11.32C7.79959 11.32 7.90201 11.2999 8.00947 11.2596C8.11692 11.2193 8.21431 11.1555 8.30162 11.0682C8.39228 10.9808 8.46616 10.87 8.52324 10.7357C8.58369 10.598 8.61391 10.4352 8.61391 10.2471C8.61391 10.1262 8.5904 9.99862 8.54339 9.8643C8.49974 9.72998 8.42922 9.60742 8.33184 9.4966C8.23446 9.38243 8.10517 9.2884 7.94399 9.21453C7.78616 9.14065 7.59475 9.10371 7.36977 9.10371H5.66725C5.73777 9.38579 5.82844 9.66114 5.93925 9.92978C6.05343 10.1951 6.19278 10.4318 6.35733 10.64C6.52187 10.8448 6.71495 11.0094 6.93658 11.1336C7.15821 11.2579 7.41342 11.32 7.70221 11.32ZM7.5914 8.32298C7.80967 8.32298 8.00611 8.28772 8.18073 8.2172C8.35534 8.14332 8.50813 8.04594 8.6391 7.92505C8.77006 7.8008 8.87584 7.65977 8.95643 7.50194C9.04038 7.34076 9.09914 7.17286 9.13272 6.99824H5.52622C5.51279 7.09562 5.50271 7.19636 5.496 7.30046C5.48928 7.40456 5.48592 7.51034 5.48592 7.61779C5.48592 7.83606 5.50103 8.07112 5.53125 8.32298H7.5914ZM7.47554 4.86758C7.05579 4.86758 6.69145 4.99015 6.38251 5.23528C6.07693 5.48042 5.84691 5.82461 5.69244 6.26787H9.12769C9.09075 6.09325 9.02695 5.922 8.93628 5.75409C8.84561 5.58619 8.73144 5.43676 8.59376 5.3058C8.45608 5.17484 8.29322 5.06906 8.10517 4.98847C7.91712 4.90788 7.70725 4.86758 7.47554 4.86758ZM10.1401 13.3499C9.97223 13.4507 9.79089 13.5447 9.59613 13.632C9.40472 13.7193 9.2066 13.7949 9.00176 13.8587C8.80028 13.9258 8.59544 13.9779 8.38724 14.0148C8.18241 14.0517 7.9826 14.0702 7.78784 14.0702C7.58972 14.0702 7.38656 14.0517 7.17836 14.0148C6.97016 13.9779 6.76197 13.9258 6.55377 13.8587C6.34557 13.7949 6.14073 13.7193 5.93925 13.632C5.74113 13.5447 5.55476 13.4507 5.38014 13.3499L5.59674 12.811C5.69412 12.8513 5.83012 12.8949 6.00473 12.9419C6.18271 12.9923 6.37412 13.0393 6.57895 13.083C6.78379 13.1266 6.99031 13.1619 7.19851 13.1887C7.41006 13.219 7.59643 13.2341 7.75762 13.2341C7.92216 13.2341 8.10853 13.219 8.31673 13.1887C8.52492 13.1619 8.73144 13.1266 8.93628 13.083C9.14112 13.0393 9.33253 12.9923 9.5105 12.9419C9.68848 12.8949 9.82783 12.8513 9.92857 12.811L10.1401 13.3499Z" fill="#0074D6"/>
</svg>
