<svg width="16" height="16" viewBox="0 0 16 16" fill="none" xmlns="http://www.w3.org/2000/svg">
<g clip-path="url(#clip0_2574_19787)">
<path d="M6.07705 11.1415C5.60547 11.1415 5.18105 11.0668 4.80379 10.9175C4.42653 10.7681 4.12786 10.5481 3.90779 10.2573C3.68772 9.96646 3.57768 9.6167 3.57768 9.208C3.57768 8.78358 3.68772 8.41811 3.90779 8.11158C4.13572 7.79719 4.49333 7.55747 4.98063 7.39242C5.46793 7.21951 6.11242 7.13305 6.91411 7.13305H8.62358C9.30737 7.13305 9.91649 7.21951 10.4509 7.39242C10.9854 7.55747 11.402 7.83649 11.7006 8.22947C12.0072 8.62246 12.1604 9.16084 12.1604 9.84463C12.1604 10.3712 12.0622 10.8114 11.8657 11.1651C11.6692 11.5266 11.3902 11.841 11.0286 12.1082C10.7693 12.289 10.4745 12.4344 10.1444 12.5444C9.82218 12.6545 9.44884 12.7291 9.02442 12.7684C8.6 12.8156 8.10484 12.8392 7.53895 12.8392H6.20674C5.87663 12.8392 5.62119 12.8627 5.44042 12.9099C5.25965 12.9571 5.10246 13.0239 4.96884 13.1103C4.84309 13.1968 4.74484 13.3186 4.67411 13.4758C4.60337 13.633 4.568 13.8413 4.568 14.1006C4.568 14.2185 4.57193 14.3286 4.57979 14.4307C4.58765 14.5408 4.59551 14.6429 4.60337 14.7373L3.63663 14.7844C3.61305 14.6429 3.5934 14.4858 3.57768 14.3128C3.56196 14.1478 3.55411 13.9985 3.55411 13.8648C3.55411 13.519 3.61698 13.2243 3.74274 12.9806C3.86849 12.7448 4.02961 12.5523 4.22611 12.4029C4.36758 12.3008 4.51298 12.2182 4.66232 12.1554C4.81951 12.1004 4.99635 12.0571 5.19284 12.0257C5.39719 12.0021 5.62905 11.9903 5.88842 11.9903H7.17347C7.87298 11.9903 8.44674 11.9589 8.89474 11.896C9.34274 11.841 9.70428 11.7506 9.97937 11.6248C10.2545 11.5069 10.4824 11.3498 10.6632 11.1533C10.8204 10.9804 10.9382 10.7799 11.0168 10.552C11.1033 10.3162 11.1465 10.0529 11.1465 9.76211C11.1465 9.37698 11.0679 9.06653 10.9107 8.83074C10.7614 8.59495 10.5571 8.41418 10.2977 8.28842C10.0462 8.16267 9.76323 8.07621 9.44884 8.02905C9.14232 7.98189 8.82793 7.95832 8.50568 7.95832H6.83158C6.43074 7.95832 6.08884 7.98189 5.80589 8.02905C5.53081 8.07621 5.29502 8.15481 5.09853 8.26484C4.92561 8.36702 4.79593 8.49277 4.70947 8.64211C4.63088 8.78358 4.59158 8.96828 4.59158 9.19621C4.59158 9.55775 4.74091 9.83284 5.03958 10.0215C5.33825 10.2022 5.71551 10.2926 6.17137 10.2926C6.51719 10.2926 6.81193 10.2415 7.05558 10.1394C7.30709 10.0293 7.49965 9.84463 7.63326 9.58526C7.77474 9.31803 7.84547 8.95256 7.84547 8.48884V5.31747H5.81768V7.43958L4.88632 7.62821V4.46863H11.0522V5.31747H8.84758V8.33558C8.84758 8.86218 8.80042 9.27481 8.70611 9.57347C8.61965 9.87214 8.49389 10.1236 8.32884 10.328C8.08519 10.6267 7.77081 10.8389 7.38568 10.9646C7.00842 11.0825 6.57221 11.1415 6.07705 11.1415Z" fill="#0074D6"/>
</g>
<defs>
<clipPath id="clip0_2574_19787">
<rect width="16" height="16" fill="white"/>
</clipPath>
</defs>
</svg>
