<svg width="16" height="16" viewBox="0 0 16 16" fill="none" xmlns="http://www.w3.org/2000/svg">
<g clip-path="url(#clip0_2574_19772)">
<path d="M7.64505 11.1415C6.69404 11.1415 5.90414 11.0157 5.27537 10.7642C4.65446 10.5048 4.19074 10.1551 3.88421 9.71495C3.57768 9.26695 3.42442 8.76393 3.42442 8.20589C3.42442 7.76575 3.51481 7.38063 3.69558 7.05053C3.88421 6.71256 4.13965 6.45319 4.46189 6.27242C4.78414 6.08379 5.15354 5.98947 5.57011 5.98947C5.90021 5.98947 6.18316 6.05235 6.41895 6.17811C6.65474 6.296 6.83551 6.46498 6.96126 6.68505C7.08702 6.90512 7.1499 7.16056 7.1499 7.45137C7.1499 7.93081 6.98484 8.31593 6.65474 8.60674C6.33249 8.88968 5.87663 9.03116 5.28716 9.03116C5.11425 9.03116 4.94919 9.01544 4.792 8.984C4.63481 8.9447 4.4894 8.89754 4.35579 8.84253C4.22218 8.78751 4.09642 8.72463 3.97853 8.65389L4.06105 7.81684C4.21825 7.93474 4.3833 8.02905 4.55621 8.09979C4.73698 8.17053 4.93347 8.20589 5.14568 8.20589C5.53081 8.20589 5.80196 8.13516 5.95916 7.99368C6.12421 7.85221 6.20674 7.67144 6.20674 7.45137C6.20674 7.24702 6.14386 7.09375 6.01811 6.99158C5.90021 6.88154 5.73123 6.82653 5.51116 6.82653C5.27537 6.82653 5.06316 6.88154 4.87453 6.99158C4.69375 7.10161 4.54835 7.25095 4.43832 7.43958C4.32828 7.62821 4.27326 7.84828 4.27326 8.09979V8.15874C4.27326 8.4967 4.35186 8.79537 4.50905 9.05474C4.67411 9.30625 4.90204 9.51846 5.19284 9.69137C5.48365 9.86428 5.82947 9.99396 6.23032 10.0804C6.63902 10.1669 7.09095 10.2101 7.58611 10.2101C8.23846 10.2101 8.77684 10.1433 9.20126 10.0097C9.63354 9.87607 9.97151 9.70316 10.2152 9.49095C10.4588 9.27874 10.6278 9.05081 10.7221 8.80716C10.8243 8.56351 10.8754 8.32772 10.8754 8.09979V7.58105C10.8046 7.36884 10.6749 7.192 10.4863 7.05053C10.2977 6.90119 10.0658 6.82653 9.79074 6.82653C9.59425 6.82653 9.41347 6.88547 9.24842 7.00337C9.09123 7.1134 9.01263 7.29418 9.01263 7.54568C9.01263 7.7186 9.07551 7.87186 9.20126 8.00547C9.32702 8.13909 9.52351 8.20589 9.79074 8.20589C9.99509 8.20589 10.1719 8.17053 10.3213 8.09979C10.4706 8.02119 10.5885 7.91509 10.6749 7.78147C10.7693 7.64 10.8361 7.47888 10.8754 7.29811L11.064 8.35916C10.9461 8.50063 10.8164 8.62246 10.6749 8.72463C10.5413 8.82681 10.3881 8.9054 10.2152 8.96042C10.0501 9.00758 9.85754 9.03116 9.63747 9.03116C9.33881 9.03116 9.07158 8.97221 8.83579 8.85432C8.6 8.73642 8.4153 8.57137 8.28168 8.35916C8.14807 8.13909 8.08126 7.87972 8.08126 7.58105C8.08126 7.14091 8.21881 6.79902 8.49389 6.55537C8.77684 6.30386 9.15018 6.17811 9.6139 6.17811C9.66105 6.17811 9.71214 6.18203 9.76716 6.18989C9.83004 6.19775 9.89684 6.20954 9.96758 6.22526C10.0383 6.24098 10.1051 6.26063 10.168 6.28421L10.0265 6.296C9.86933 6.2174 9.66891 6.15453 9.42526 6.10737C9.18161 6.06021 8.93404 6.02484 8.68253 6.00126C8.43888 5.96982 8.2306 5.9541 8.05768 5.9541L8.29347 5.15242C8.89867 5.20744 9.42133 5.3214 9.86147 5.49432C10.3016 5.65937 10.6592 5.87158 10.9343 6.13095C11.2173 6.39032 11.4255 6.68898 11.5592 7.02695C11.6928 7.35705 11.7596 7.7186 11.7596 8.11158C11.7596 8.54386 11.6771 8.9447 11.512 9.31411C11.3548 9.68351 11.1072 10.0058 10.7693 10.2808C10.4392 10.5481 10.0147 10.7603 9.496 10.9175C8.97726 11.0668 8.36028 11.1415 7.64505 11.1415ZM7.82189 5.98947C7.59397 5.98947 7.37389 5.94625 7.16168 5.85979C6.95733 5.77333 6.7687 5.61221 6.59579 5.37642C6.42288 5.13277 6.27354 4.79088 6.14779 4.35074L7.12632 4.03242C7.24421 4.4647 7.35818 4.75158 7.46821 4.89305C7.57825 5.03453 7.71972 5.10526 7.89263 5.10526C8.04982 5.10526 8.19523 5.05811 8.32884 4.96379C8.47032 4.86161 8.66681 4.65333 8.91832 4.33895L9.28379 3.86737C9.55102 3.52154 9.79467 3.24646 10.0147 3.04211C10.2427 2.83775 10.4824 2.68842 10.7339 2.5941C10.9854 2.49979 11.2841 2.45263 11.6299 2.45263L11.7006 3.36042C11.4255 3.37614 11.1937 3.41937 11.0051 3.49011C10.8243 3.56084 10.6553 3.67481 10.4981 3.832C10.3488 3.98133 10.1719 4.18568 9.96758 4.44505L9.69642 4.79874C9.47635 5.08168 9.26807 5.30961 9.07158 5.48253C8.87509 5.65544 8.67467 5.78512 8.47032 5.87158C8.27382 5.95018 8.05768 5.98947 7.82189 5.98947Z" fill="#0074D6"/>
</g>
<defs>
<clipPath id="clip0_2574_19772">
<rect width="16" height="16" fill="white"/>
</clipPath>
</defs>
</svg>
